<svg xmlns="http://www.w3.org/2000/svg" viewBox="0 0 1600 900" role="img" aria-label="Blog cover">
<defs><linearGradient id="g" x1="0" y1="0" x2="1" y2="1"><stop offset="0%" stop-color="#111827"/><stop offset="100%" stop-color="#0f766e"/></linearGradient></defs><rect width="1600" height="900" fill="url(#g)"/>
<circle cx="193" cy="133" r="2" fill="#ffffff" fill-opacity="0.45"/><circle cx="306" cy="200" r="3" fill="#ffffff" fill-opacity="0.6"/><circle cx="419" cy="267" r="4" fill="#ffffff" fill-opacity="0.75"/><circle cx="532" cy="334" r="2" fill="#ffffff" fill-opacity="0.45"/><circle cx="645" cy="401" r="3" fill="#ffffff" fill-opacity="0.6"/><circle cx="758" cy="468" r="4" fill="#ffffff" fill-opacity="0.75"/><circle cx="871" cy="535" r="2" fill="#ffffff" fill-opacity="0.45"/><circle cx="984" cy="602" r="3" fill="#ffffff" fill-opacity="0.6"/><circle cx="1097" cy="49" r="4" fill="#ffffff" fill-opacity="0.75"/><circle cx="1210" cy="116" r="2" fill="#ffffff" fill-opacity="0.45"/><circle cx="1323" cy="183" r="3" fill="#ffffff" fill-opacity="0.6"/><circle cx="1436" cy="250" r="4" fill="#ffffff" fill-opacity="0.75"/><circle cx="1549" cy="317" r="2" fill="#ffffff" fill-opacity="0.45"/><circle cx="142" cy="384" r="3" fill="#ffffff" fill-opacity="0.6"/><circle cx="255" cy="451" r="4" fill="#ffffff" fill-opacity="0.75"/><circle cx="368" cy="518" r="2" fill="#ffffff" fill-opacity="0.45"/><circle cx="481" cy="585" r="3" fill="#ffffff" fill-opacity="0.6"/><circle cx="594" cy="652" r="4" fill="#ffffff" fill-opacity="0.75"/><circle cx="707" cy="99" r="2" fill="#ffffff" fill-opacity="0.45"/><circle cx="820" cy="166" r="3" fill="#ffffff" fill-opacity="0.6"/><circle cx="933" cy="233" r="4" fill="#ffffff" fill-opacity="0.75"/><circle cx="1046" cy="300" r="2" fill="#ffffff" fill-opacity="0.45"/><circle cx="1159" cy="367" r="3" fill="#ffffff" fill-opacity="0.6"/><circle cx="1272" cy="434" r="4" fill="#ffffff" fill-opacity="0.75"/><circle cx="1385" cy="501" r="2" fill="#ffffff" fill-opacity="0.45"/><circle cx="1498" cy="568" r="3" fill="#ffffff" fill-opacity="0.6"/><circle cx="91" cy="635" r="4" fill="#ffffff" fill-opacity="0.75"/><circle cx="204" cy="82" r="2" fill="#ffffff" fill-opacity="0.45"/><circle cx="317" cy="149" r="3" fill="#ffffff" fill-opacity="0.6"/><circle cx="430" cy="216" r="4" fill="#ffffff" fill-opacity="0.75"/><circle cx="543" cy="283" r="2" fill="#ffffff" fill-opacity="0.45"/><circle cx="656" cy="350" r="3" fill="#ffffff" fill-opacity="0.6"/><circle cx="769" cy="417" r="4" fill="#ffffff" fill-opacity="0.75"/><circle cx="882" cy="484" r="2" fill="#ffffff" fill-opacity="0.45"/><circle cx="995" cy="551" r="3" fill="#ffffff" fill-opacity="0.6"/><circle cx="1108" cy="618" r="4" fill="#ffffff" fill-opacity="0.75"/><circle cx="1221" cy="65" r="2" fill="#ffffff" fill-opacity="0.45"/><circle cx="1334" cy="132" r="3" fill="#ffffff" fill-opacity="0.6"/><circle cx="1447" cy="199" r="4" fill="#ffffff" fill-opacity="0.75"/><circle cx="40" cy="266" r="2" fill="#ffffff" fill-opacity="0.45"/><circle cx="320" cy="250" r="96" fill="#fb7185" fill-opacity="0.85"/><circle cx="1060" cy="190" r="58" fill="#5eead4" fill-opacity="0.9"/><circle cx="1220" cy="500" r="124" fill="#38bdf8" fill-opacity="0.62"/><ellipse cx="1220" cy="500" rx="170" ry="38" fill="none" stroke="#fde68a" stroke-opacity="0.55" stroke-width="10"/><path d="M0 820 C300 740, 620 840, 940 788 C1180 748, 1380 770, 1600 732 L1600 900 L0 900 Z" fill="#020617" fill-opacity="0.72"/>
</svg>
