<svg xmlns="http://www.w3.org/2000/svg" viewBox="0 0 1600 900" role="img" aria-label="Blog cover">
<defs><linearGradient id="bg" x1="0" y1="0" x2="1" y2="1"><stop offset="0%" stop-color="#020617"/><stop offset="100%" stop-color="#111827"/></linearGradient></defs><rect width="1600" height="900" fill="url(#bg)"/>
<path d="M60 -71 V147" stroke="#38bdf8" stroke-opacity="0.22" stroke-width="4" stroke-linecap="round"/><circle cx="60" cy="147" r="6" fill="#38bdf8" fill-opacity="0.55"/><path d="M146 -128 V166" stroke="#38bdf8" stroke-opacity="0.22" stroke-width="4" stroke-linecap="round"/><circle cx="146" cy="166" r="6" fill="#38bdf8" fill-opacity="0.55"/><path d="M232 -185 V185" stroke="#38bdf8" stroke-opacity="0.22" stroke-width="4" stroke-linecap="round"/><circle cx="232" cy="185" r="6" fill="#38bdf8" fill-opacity="0.55"/><path d="M318 -22 V204" stroke="#38bdf8" stroke-opacity="0.22" stroke-width="4" stroke-linecap="round"/><circle cx="318" cy="204" r="6" fill="#38bdf8" fill-opacity="0.55"/><path d="M404 -79 V223" stroke="#38bdf8" stroke-opacity="0.22" stroke-width="4" stroke-linecap="round"/><circle cx="404" cy="223" r="6" fill="#38bdf8" fill-opacity="0.55"/><path d="M490 -136 V242" stroke="#38bdf8" stroke-opacity="0.22" stroke-width="4" stroke-linecap="round"/><circle cx="490" cy="242" r="6" fill="#38bdf8" fill-opacity="0.55"/><path d="M576 -193 V261" stroke="#38bdf8" stroke-opacity="0.22" stroke-width="4" stroke-linecap="round"/><circle cx="576" cy="261" r="6" fill="#38bdf8" fill-opacity="0.55"/><path d="M662 -30 V280" stroke="#38bdf8" stroke-opacity="0.22" stroke-width="4" stroke-linecap="round"/><circle cx="662" cy="280" r="6" fill="#38bdf8" fill-opacity="0.55"/><path d="M748 -87 V299" stroke="#38bdf8" stroke-opacity="0.22" stroke-width="4" stroke-linecap="round"/><circle cx="748" cy="299" r="6" fill="#38bdf8" fill-opacity="0.55"/><path d="M834 -144 V318" stroke="#38bdf8" stroke-opacity="0.22" stroke-width="4" stroke-linecap="round"/><circle cx="834" cy="318" r="6" fill="#38bdf8" fill-opacity="0.55"/><path d="M920 -201 V337" stroke="#38bdf8" stroke-opacity="0.22" stroke-width="4" stroke-linecap="round"/><circle cx="920" cy="337" r="6" fill="#38bdf8" fill-opacity="0.55"/><path d="M1006 -38 V356" stroke="#38bdf8" stroke-opacity="0.22" stroke-width="4" stroke-linecap="round"/><circle cx="1006" cy="356" r="6" fill="#38bdf8" fill-opacity="0.55"/><path d="M1092 -95 V375" stroke="#38bdf8" stroke-opacity="0.22" stroke-width="4" stroke-linecap="round"/><circle cx="1092" cy="375" r="6" fill="#38bdf8" fill-opacity="0.55"/><path d="M1178 -152 V394" stroke="#38bdf8" stroke-opacity="0.22" stroke-width="4" stroke-linecap="round"/><circle cx="1178" cy="394" r="6" fill="#38bdf8" fill-opacity="0.55"/><path d="M1264 -209 V133" stroke="#38bdf8" stroke-opacity="0.22" stroke-width="4" stroke-linecap="round"/><circle cx="1264" cy="133" r="6" fill="#38bdf8" fill-opacity="0.55"/><path d="M1350 -46 V152" stroke="#38bdf8" stroke-opacity="0.22" stroke-width="4" stroke-linecap="round"/><circle cx="1350" cy="152" r="6" fill="#38bdf8" fill-opacity="0.55"/><path d="M1436 -103 V171" stroke="#38bdf8" stroke-opacity="0.22" stroke-width="4" stroke-linecap="round"/><circle cx="1436" cy="171" r="6" fill="#38bdf8" fill-opacity="0.55"/><path d="M1522 -160 V190" stroke="#38bdf8" stroke-opacity="0.22" stroke-width="4" stroke-linecap="round"/><circle cx="1522" cy="190" r="6" fill="#38bdf8" fill-opacity="0.55"/><circle cx="800" cy="390" r="120" fill="#0b1220" stroke="#38bdf8" stroke-opacity="0.25" stroke-width="6"/>
    <path d="M510 590 C560 360, 680 240, 800 240 C920 240, 1040 360, 1090 590 C1010 520, 930 490, 880 482 C860 620, 830 720, 800 720 C770 720, 740 620, 720 482 C670 490, 590 520, 510 590 Z" fill="#081019" stroke="#ffffff" stroke-opacity="0.04"/>
    <path d="M660 410 C700 372, 760 352, 800 352 C840 352, 900 372, 940 410" fill="none" stroke="#1f2937" stroke-width="18" stroke-linecap="round"/>
    <path d="M698 440 h84" stroke="#38bdf8" stroke-width="10" stroke-linecap="round"/>
    <path d="M818 440 h84" stroke="#38bdf8" stroke-width="10" stroke-linecap="round"/>
    <path d="M782 440 h36" stroke="#d9f99d" stroke-width="4" stroke-dasharray="7 8" stroke-linecap="round"/>
</svg>
