<svg xmlns="http://www.w3.org/2000/svg" viewBox="0 0 1600 900" role="img" aria-label="Blog cover">
<defs><linearGradient id="g" x1="0" y1="0" x2="0" y2="1"><stop offset="0%" stop-color="#312e81"/><stop offset="45%" stop-color="#f97316"/><stop offset="100%" stop-color="#f9a8d4"/></linearGradient></defs><rect width="1600" height="900" fill="url(#g)"/>
<circle cx="800" cy="408" r="160" fill="#fff1c2" fill-opacity="0.82"/><path d="M0 660 C170 590, 340 642, 500 620 C690 590, 850 680, 1030 644 C1210 608, 1370 648, 1600 580 L1600 900 L0 900 Z" fill="#9a3412"/><path d="M0 720 C240 670, 410 734, 630 694 C860 652, 1100 740, 1600 680 L1600 900 L0 900 Z" fill="#3f1d0f" fill-opacity="0.72"/><ellipse cx="324" cy="150" rx="96" ry="30" fill="#fff7ed" fill-opacity="0.34"/><ellipse cx="404" cy="158" rx="74" ry="22" fill="#fff7ed" fill-opacity="0.28"/><ellipse cx="624" cy="204" rx="96" ry="30" fill="#fff7ed" fill-opacity="0.34"/><ellipse cx="704" cy="212" rx="74" ry="22" fill="#fff7ed" fill-opacity="0.28"/><ellipse cx="924" cy="150" rx="96" ry="30" fill="#fff7ed" fill-opacity="0.34"/><ellipse cx="1004" cy="158" rx="74" ry="22" fill="#fff7ed" fill-opacity="0.28"/><ellipse cx="1224" cy="204" rx="96" ry="30" fill="#fff7ed" fill-opacity="0.34"/><ellipse cx="1304" cy="212" rx="74" ry="22" fill="#fff7ed" fill-opacity="0.28"/>
</svg>
