<svg xmlns="http://www.w3.org/2000/svg" viewBox="0 0 1600 900" role="img" aria-label="Blog cover">
<defs><linearGradient id="g" x1="0" y1="0" x2="0" y2="1"><stop offset="0%" stop-color="#4c1d95"/><stop offset="100%" stop-color="#0f172a"/></linearGradient></defs><rect width="1600" height="900" fill="url(#g)"/>
<circle cx="220" cy="140" r="4" fill="#ffffff" fill-opacity="0.85" /><circle cx="280" cy="200" r="6" fill="#ffffff" fill-opacity="0.85" /><circle cx="430" cy="110" r="5" fill="#ffffff" fill-opacity="0.85" /><circle cx="720" cy="160" r="4" fill="#ffffff" fill-opacity="0.85" /><circle cx="980" cy="120" r="5" fill="#ffffff" fill-opacity="0.85" /><circle cx="1280" cy="200" r="5" fill="#ffffff" fill-opacity="0.85" /><circle cx="1400" cy="130" r="4" fill="#ffffff" fill-opacity="0.85" /><rect x="70" y="680" width="90" height="220" fill="#0b1220" stroke="#ffffff" stroke-opacity="0.05"/><rect x="88" y="706" width="12" height="18" rx="3" fill="#f472b6" fill-opacity="0.26"/><rect x="114" y="706" width="12" height="18" rx="3" fill="#f472b6" fill-opacity="0.33999999999999997"/><rect x="88" y="748" width="12" height="18" rx="3" fill="#f472b6" fill-opacity="0.33999999999999997"/><rect x="114" y="748" width="12" height="18" rx="3" fill="#f472b6" fill-opacity="0.42"/><rect x="88" y="790" width="12" height="18" rx="3" fill="#f472b6" fill-opacity="0.42"/><rect x="114" y="790" width="12" height="18" rx="3" fill="#f472b6" fill-opacity="0.18"/><rect x="88" y="832" width="12" height="18" rx="3" fill="#f472b6" fill-opacity="0.18"/><rect x="114" y="832" width="12" height="18" rx="3" fill="#f472b6" fill-opacity="0.26"/><rect x="88" y="874" width="12" height="18" rx="3" fill="#f472b6" fill-opacity="0.26"/><rect x="114" y="874" width="12" height="18" rx="3" fill="#f472b6" fill-opacity="0.33999999999999997"/><rect x="88" y="916" width="12" height="18" rx="3" fill="#f472b6" fill-opacity="0.33999999999999997"/><rect x="114" y="916" width="12" height="18" rx="3" fill="#f472b6" fill-opacity="0.42"/><rect x="182" y="590" width="116" height="310" fill="#0b1220" stroke="#ffffff" stroke-opacity="0.05"/><rect x="200" y="616" width="12" height="18" rx="3" fill="#f472b6" fill-opacity="0.33999999999999997"/><rect x="226" y="616" width="12" height="18" rx="3" fill="#f472b6" fill-opacity="0.42"/><rect x="252" y="616" width="12" height="18" rx="3" fill="#f472b6" fill-opacity="0.18"/><rect x="200" y="658" width="12" height="18" rx="3" fill="#f472b6" fill-opacity="0.42"/><rect x="226" y="658" width="12" height="18" rx="3" fill="#f472b6" fill-opacity="0.18"/><rect x="252" y="658" width="12" height="18" rx="3" fill="#f472b6" fill-opacity="0.26"/><rect x="200" y="700" width="12" height="18" rx="3" fill="#f472b6" fill-opacity="0.18"/><rect x="226" y="700" width="12" height="18" rx="3" fill="#f472b6" fill-opacity="0.26"/><rect x="252" y="700" width="12" height="18" rx="3" fill="#f472b6" fill-opacity="0.33999999999999997"/><rect x="200" y="742" width="12" height="18" rx="3" fill="#f472b6" fill-opacity="0.26"/><rect x="226" y="742" width="12" height="18" rx="3" fill="#f472b6" fill-opacity="0.33999999999999997"/><rect x="252" y="742" width="12" height="18" rx="3" fill="#f472b6" fill-opacity="0.42"/><rect x="200" y="784" width="12" height="18" rx="3" fill="#f472b6" fill-opacity="0.33999999999999997"/><rect x="226" y="784" width="12" height="18" rx="3" fill="#f472b6" fill-opacity="0.42"/><rect x="252" y="784" width="12" height="18" rx="3" fill="#f472b6" fill-opacity="0.18"/><rect x="200" y="826" width="12" height="18" rx="3" fill="#f472b6" fill-opacity="0.42"/><rect x="226" y="826" width="12" height="18" rx="3" fill="#f472b6" fill-opacity="0.18"/><rect x="252" y="826" width="12" height="18" rx="3" fill="#f472b6" fill-opacity="0.26"/><rect x="320" y="640" width="142" height="260" fill="#0b1220" stroke="#ffffff" stroke-opacity="0.05"/><rect x="338" y="666" width="12" height="18" rx="3" fill="#f472b6" fill-opacity="0.42"/><rect x="364" y="666" width="12" height="18" rx="3" fill="#f472b6" fill-opacity="0.18"/><rect x="390" y="666" width="12" height="18" rx="3" fill="#f472b6" fill-opacity="0.26"/><rect x="416" y="666" width="12" height="18" rx="3" fill="#f472b6" fill-opacity="0.33999999999999997"/><rect x="338" y="708" width="12" height="18" rx="3" fill="#f472b6" fill-opacity="0.18"/><rect x="364" y="708" width="12" height="18" rx="3" fill="#f472b6" fill-opacity="0.26"/><rect x="390" y="708" width="12" height="18" rx="3" fill="#f472b6" fill-opacity="0.33999999999999997"/><rect x="416" y="708" width="12" height="18" rx="3" fill="#f472b6" fill-opacity="0.42"/><rect x="338" y="750" width="12" height="18" rx="3" fill="#f472b6" fill-opacity="0.26"/><rect x="364" y="750" width="12" height="18" rx="3" fill="#f472b6" fill-opacity="0.33999999999999997"/><rect x="390" y="750" width="12" height="18" rx="3" fill="#f472b6" fill-opacity="0.42"/><rect x="416" y="750" width="12" height="18" rx="3" fill="#f472b6" fill-opacity="0.18"/><rect x="338" y="792" width="12" height="18" rx="3" fill="#f472b6" fill-opacity="0.33999999999999997"/><rect x="364" y="792" width="12" height="18" rx="3" fill="#f472b6" fill-opacity="0.42"/><rect x="390" y="792" width="12" height="18" rx="3" fill="#f472b6" fill-opacity="0.18"/><rect x="416" y="792" width="12" height="18" rx="3" fill="#f472b6" fill-opacity="0.26"/><rect x="338" y="834" width="12" height="18" rx="3" fill="#f472b6" fill-opacity="0.42"/><rect x="364" y="834" width="12" height="18" rx="3" fill="#f472b6" fill-opacity="0.18"/><rect x="390" y="834" width="12" height="18" rx="3" fill="#f472b6" fill-opacity="0.26"/><rect x="416" y="834" width="12" height="18" rx="3" fill="#f472b6" fill-opacity="0.33999999999999997"/><rect x="338" y="876" width="12" height="18" rx="3" fill="#f472b6" fill-opacity="0.18"/><rect x="364" y="876" width="12" height="18" rx="3" fill="#f472b6" fill-opacity="0.26"/><rect x="390" y="876" width="12" height="18" rx="3" fill="#f472b6" fill-opacity="0.33999999999999997"/><rect x="416" y="876" width="12" height="18" rx="3" fill="#f472b6" fill-opacity="0.42"/><rect x="484" y="510" width="90" height="390" fill="#0b1220" stroke="#ffffff" stroke-opacity="0.05"/><rect x="502" y="536" width="12" height="18" rx="3" fill="#f472b6" fill-opacity="0.18"/><rect x="528" y="536" width="12" height="18" rx="3" fill="#f472b6" fill-opacity="0.26"/><rect x="502" y="578" width="12" height="18" rx="3" fill="#f472b6" fill-opacity="0.26"/><rect x="528" y="578" width="12" height="18" rx="3" fill="#f472b6" fill-opacity="0.33999999999999997"/><rect x="502" y="620" width="12" height="18" rx="3" fill="#f472b6" fill-opacity="0.33999999999999997"/><rect x="528" y="620" width="12" height="18" rx="3" fill="#f472b6" fill-opacity="0.42"/><rect x="502" y="662" width="12" height="18" rx="3" fill="#f472b6" fill-opacity="0.42"/><rect x="528" y="662" width="12" height="18" rx="3" fill="#f472b6" fill-opacity="0.18"/><rect x="502" y="704" width="12" height="18" rx="3" fill="#f472b6" fill-opacity="0.18"/><rect x="528" y="704" width="12" height="18" rx="3" fill="#f472b6" fill-opacity="0.26"/><rect x="502" y="746" width="12" height="18" rx="3" fill="#f472b6" fill-opacity="0.26"/><rect x="528" y="746" width="12" height="18" rx="3" fill="#f472b6" fill-opacity="0.33999999999999997"/><rect x="596" y="440" width="116" height="460" fill="#0b1220" stroke="#ffffff" stroke-opacity="0.05"/><rect x="614" y="466" width="12" height="18" rx="3" fill="#f472b6" fill-opacity="0.26"/><rect x="640" y="466" width="12" height="18" rx="3" fill="#f472b6" fill-opacity="0.33999999999999997"/><rect x="666" y="466" width="12" height="18" rx="3" fill="#f472b6" fill-opacity="0.42"/><rect x="614" y="508" width="12" height="18" rx="3" fill="#f472b6" fill-opacity="0.33999999999999997"/><rect x="640" y="508" width="12" height="18" rx="3" fill="#f472b6" fill-opacity="0.42"/><rect x="666" y="508" width="12" height="18" rx="3" fill="#f472b6" fill-opacity="0.18"/><rect x="614" y="550" width="12" height="18" rx="3" fill="#f472b6" fill-opacity="0.42"/><rect x="640" y="550" width="12" height="18" rx="3" fill="#f472b6" fill-opacity="0.18"/><rect x="666" y="550" width="12" height="18" rx="3" fill="#f472b6" fill-opacity="0.26"/><rect x="614" y="592" width="12" height="18" rx="3" fill="#f472b6" fill-opacity="0.18"/><rect x="640" y="592" width="12" height="18" rx="3" fill="#f472b6" fill-opacity="0.26"/><rect x="666" y="592" width="12" height="18" rx="3" fill="#f472b6" fill-opacity="0.33999999999999997"/><rect x="614" y="634" width="12" height="18" rx="3" fill="#f472b6" fill-opacity="0.26"/><rect x="640" y="634" width="12" height="18" rx="3" fill="#f472b6" fill-opacity="0.33999999999999997"/><rect x="666" y="634" width="12" height="18" rx="3" fill="#f472b6" fill-opacity="0.42"/><rect x="614" y="676" width="12" height="18" rx="3" fill="#f472b6" fill-opacity="0.33999999999999997"/><rect x="640" y="676" width="12" height="18" rx="3" fill="#f472b6" fill-opacity="0.42"/><rect x="666" y="676" width="12" height="18" rx="3" fill="#f472b6" fill-opacity="0.18"/><rect x="734" y="600" width="142" height="300" fill="#0b1220" stroke="#ffffff" stroke-opacity="0.05"/><rect x="752" y="626" width="12" height="18" rx="3" fill="#f472b6" fill-opacity="0.33999999999999997"/><rect x="778" y="626" width="12" height="18" rx="3" fill="#f472b6" fill-opacity="0.42"/><rect x="804" y="626" width="12" height="18" rx="3" fill="#f472b6" fill-opacity="0.18"/><rect x="830" y="626" width="12" height="18" rx="3" fill="#f472b6" fill-opacity="0.26"/><rect x="752" y="668" width="12" height="18" rx="3" fill="#f472b6" fill-opacity="0.42"/><rect x="778" y="668" width="12" height="18" rx="3" fill="#f472b6" fill-opacity="0.18"/><rect x="804" y="668" width="12" height="18" rx="3" fill="#f472b6" fill-opacity="0.26"/><rect x="830" y="668" width="12" height="18" rx="3" fill="#f472b6" fill-opacity="0.33999999999999997"/><rect x="752" y="710" width="12" height="18" rx="3" fill="#f472b6" fill-opacity="0.18"/><rect x="778" y="710" width="12" height="18" rx="3" fill="#f472b6" fill-opacity="0.26"/><rect x="804" y="710" width="12" height="18" rx="3" fill="#f472b6" fill-opacity="0.33999999999999997"/><rect x="830" y="710" width="12" height="18" rx="3" fill="#f472b6" fill-opacity="0.42"/><rect x="752" y="752" width="12" height="18" rx="3" fill="#f472b6" fill-opacity="0.26"/><rect x="778" y="752" width="12" height="18" rx="3" fill="#f472b6" fill-opacity="0.33999999999999997"/><rect x="804" y="752" width="12" height="18" rx="3" fill="#f472b6" fill-opacity="0.42"/><rect x="830" y="752" width="12" height="18" rx="3" fill="#f472b6" fill-opacity="0.18"/><rect x="752" y="794" width="12" height="18" rx="3" fill="#f472b6" fill-opacity="0.33999999999999997"/><rect x="778" y="794" width="12" height="18" rx="3" fill="#f472b6" fill-opacity="0.42"/><rect x="804" y="794" width="12" height="18" rx="3" fill="#f472b6" fill-opacity="0.18"/><rect x="830" y="794" width="12" height="18" rx="3" fill="#f472b6" fill-opacity="0.26"/><rect x="752" y="836" width="12" height="18" rx="3" fill="#f472b6" fill-opacity="0.42"/><rect x="778" y="836" width="12" height="18" rx="3" fill="#f472b6" fill-opacity="0.18"/><rect x="804" y="836" width="12" height="18" rx="3" fill="#f472b6" fill-opacity="0.26"/><rect x="830" y="836" width="12" height="18" rx="3" fill="#f472b6" fill-opacity="0.33999999999999997"/><rect x="898" y="380" width="90" height="520" fill="#0b1220" stroke="#ffffff" stroke-opacity="0.05"/><rect x="916" y="406" width="12" height="18" rx="3" fill="#f472b6" fill-opacity="0.42"/><rect x="942" y="406" width="12" height="18" rx="3" fill="#f472b6" fill-opacity="0.18"/><rect x="916" y="448" width="12" height="18" rx="3" fill="#f472b6" fill-opacity="0.18"/><rect x="942" y="448" width="12" height="18" rx="3" fill="#f472b6" fill-opacity="0.26"/><rect x="916" y="490" width="12" height="18" rx="3" fill="#f472b6" fill-opacity="0.26"/><rect x="942" y="490" width="12" height="18" rx="3" fill="#f472b6" fill-opacity="0.33999999999999997"/><rect x="916" y="532" width="12" height="18" rx="3" fill="#f472b6" fill-opacity="0.33999999999999997"/><rect x="942" y="532" width="12" height="18" rx="3" fill="#f472b6" fill-opacity="0.42"/><rect x="916" y="574" width="12" height="18" rx="3" fill="#f472b6" fill-opacity="0.42"/><rect x="942" y="574" width="12" height="18" rx="3" fill="#f472b6" fill-opacity="0.18"/><rect x="916" y="616" width="12" height="18" rx="3" fill="#f472b6" fill-opacity="0.18"/><rect x="942" y="616" width="12" height="18" rx="3" fill="#f472b6" fill-opacity="0.26"/><rect x="1010" y="560" width="116" height="340" fill="#0b1220" stroke="#ffffff" stroke-opacity="0.05"/><rect x="1028" y="586" width="12" height="18" rx="3" fill="#f472b6" fill-opacity="0.18"/><rect x="1054" y="586" width="12" height="18" rx="3" fill="#f472b6" fill-opacity="0.26"/><rect x="1080" y="586" width="12" height="18" rx="3" fill="#f472b6" fill-opacity="0.33999999999999997"/><rect x="1028" y="628" width="12" height="18" rx="3" fill="#f472b6" fill-opacity="0.26"/><rect x="1054" y="628" width="12" height="18" rx="3" fill="#f472b6" fill-opacity="0.33999999999999997"/><rect x="1080" y="628" width="12" height="18" rx="3" fill="#f472b6" fill-opacity="0.42"/><rect x="1028" y="670" width="12" height="18" rx="3" fill="#f472b6" fill-opacity="0.33999999999999997"/><rect x="1054" y="670" width="12" height="18" rx="3" fill="#f472b6" fill-opacity="0.42"/><rect x="1080" y="670" width="12" height="18" rx="3" fill="#f472b6" fill-opacity="0.18"/><rect x="1028" y="712" width="12" height="18" rx="3" fill="#f472b6" fill-opacity="0.42"/><rect x="1054" y="712" width="12" height="18" rx="3" fill="#f472b6" fill-opacity="0.18"/><rect x="1080" y="712" width="12" height="18" rx="3" fill="#f472b6" fill-opacity="0.26"/><rect x="1028" y="754" width="12" height="18" rx="3" fill="#f472b6" fill-opacity="0.18"/><rect x="1054" y="754" width="12" height="18" rx="3" fill="#f472b6" fill-opacity="0.26"/><rect x="1080" y="754" width="12" height="18" rx="3" fill="#f472b6" fill-opacity="0.33999999999999997"/><rect x="1028" y="796" width="12" height="18" rx="3" fill="#f472b6" fill-opacity="0.26"/><rect x="1054" y="796" width="12" height="18" rx="3" fill="#f472b6" fill-opacity="0.33999999999999997"/><rect x="1080" y="796" width="12" height="18" rx="3" fill="#f472b6" fill-opacity="0.42"/><rect x="1148" y="450" width="142" height="450" fill="#0b1220" stroke="#ffffff" stroke-opacity="0.05"/><rect x="1166" y="476" width="12" height="18" rx="3" fill="#f472b6" fill-opacity="0.26"/><rect x="1192" y="476" width="12" height="18" rx="3" fill="#f472b6" fill-opacity="0.33999999999999997"/><rect x="1218" y="476" width="12" height="18" rx="3" fill="#f472b6" fill-opacity="0.42"/><rect x="1244" y="476" width="12" height="18" rx="3" fill="#f472b6" fill-opacity="0.18"/><rect x="1166" y="518" width="12" height="18" rx="3" fill="#f472b6" fill-opacity="0.33999999999999997"/><rect x="1192" y="518" width="12" height="18" rx="3" fill="#f472b6" fill-opacity="0.42"/><rect x="1218" y="518" width="12" height="18" rx="3" fill="#f472b6" fill-opacity="0.18"/><rect x="1244" y="518" width="12" height="18" rx="3" fill="#f472b6" fill-opacity="0.26"/><rect x="1166" y="560" width="12" height="18" rx="3" fill="#f472b6" fill-opacity="0.42"/><rect x="1192" y="560" width="12" height="18" rx="3" fill="#f472b6" fill-opacity="0.18"/><rect x="1218" y="560" width="12" height="18" rx="3" fill="#f472b6" fill-opacity="0.26"/><rect x="1244" y="560" width="12" height="18" rx="3" fill="#f472b6" fill-opacity="0.33999999999999997"/><rect x="1166" y="602" width="12" height="18" rx="3" fill="#f472b6" fill-opacity="0.18"/><rect x="1192" y="602" width="12" height="18" rx="3" fill="#f472b6" fill-opacity="0.26"/><rect x="1218" y="602" width="12" height="18" rx="3" fill="#f472b6" fill-opacity="0.33999999999999997"/><rect x="1244" y="602" width="12" height="18" rx="3" fill="#f472b6" fill-opacity="0.42"/><rect x="1166" y="644" width="12" height="18" rx="3" fill="#f472b6" fill-opacity="0.26"/><rect x="1192" y="644" width="12" height="18" rx="3" fill="#f472b6" fill-opacity="0.33999999999999997"/><rect x="1218" y="644" width="12" height="18" rx="3" fill="#f472b6" fill-opacity="0.42"/><rect x="1244" y="644" width="12" height="18" rx="3" fill="#f472b6" fill-opacity="0.18"/><rect x="1166" y="686" width="12" height="18" rx="3" fill="#f472b6" fill-opacity="0.33999999999999997"/><rect x="1192" y="686" width="12" height="18" rx="3" fill="#f472b6" fill-opacity="0.42"/><rect x="1218" y="686" width="12" height="18" rx="3" fill="#f472b6" fill-opacity="0.18"/><rect x="1244" y="686" width="12" height="18" rx="3" fill="#f472b6" fill-opacity="0.26"/><rect x="1312" y="620" width="90" height="280" fill="#0b1220" stroke="#ffffff" stroke-opacity="0.05"/><rect x="1330" y="646" width="12" height="18" rx="3" fill="#f472b6" fill-opacity="0.33999999999999997"/><rect x="1356" y="646" width="12" height="18" rx="3" fill="#f472b6" fill-opacity="0.42"/><rect x="1330" y="688" width="12" height="18" rx="3" fill="#f472b6" fill-opacity="0.42"/><rect x="1356" y="688" width="12" height="18" rx="3" fill="#f472b6" fill-opacity="0.18"/><rect x="1330" y="730" width="12" height="18" rx="3" fill="#f472b6" fill-opacity="0.18"/><rect x="1356" y="730" width="12" height="18" rx="3" fill="#f472b6" fill-opacity="0.26"/><rect x="1330" y="772" width="12" height="18" rx="3" fill="#f472b6" fill-opacity="0.26"/><rect x="1356" y="772" width="12" height="18" rx="3" fill="#f472b6" fill-opacity="0.33999999999999997"/><rect x="1330" y="814" width="12" height="18" rx="3" fill="#f472b6" fill-opacity="0.33999999999999997"/><rect x="1356" y="814" width="12" height="18" rx="3" fill="#f472b6" fill-opacity="0.42"/><rect x="1330" y="856" width="12" height="18" rx="3" fill="#f472b6" fill-opacity="0.42"/><rect x="1356" y="856" width="12" height="18" rx="3" fill="#f472b6" fill-opacity="0.18"/><rect x="1424" y="400" width="116" height="500" fill="#0b1220" stroke="#ffffff" stroke-opacity="0.05"/><rect x="1442" y="426" width="12" height="18" rx="3" fill="#f472b6" fill-opacity="0.42"/><rect x="1468" y="426" width="12" height="18" rx="3" fill="#f472b6" fill-opacity="0.18"/><rect x="1494" y="426" width="12" height="18" rx="3" fill="#f472b6" fill-opacity="0.26"/><rect x="1442" y="468" width="12" height="18" rx="3" fill="#f472b6" fill-opacity="0.18"/><rect x="1468" y="468" width="12" height="18" rx="3" fill="#f472b6" fill-opacity="0.26"/><rect x="1494" y="468" width="12" height="18" rx="3" fill="#f472b6" fill-opacity="0.33999999999999997"/><rect x="1442" y="510" width="12" height="18" rx="3" fill="#f472b6" fill-opacity="0.26"/><rect x="1468" y="510" width="12" height="18" rx="3" fill="#f472b6" fill-opacity="0.33999999999999997"/><rect x="1494" y="510" width="12" height="18" rx="3" fill="#f472b6" fill-opacity="0.42"/><rect x="1442" y="552" width="12" height="18" rx="3" fill="#f472b6" fill-opacity="0.33999999999999997"/><rect x="1468" y="552" width="12" height="18" rx="3" fill="#f472b6" fill-opacity="0.42"/><rect x="1494" y="552" width="12" height="18" rx="3" fill="#f472b6" fill-opacity="0.18"/><rect x="1442" y="594" width="12" height="18" rx="3" fill="#f472b6" fill-opacity="0.42"/><rect x="1468" y="594" width="12" height="18" rx="3" fill="#f472b6" fill-opacity="0.18"/><rect x="1494" y="594" width="12" height="18" rx="3" fill="#f472b6" fill-opacity="0.26"/><rect x="1442" y="636" width="12" height="18" rx="3" fill="#f472b6" fill-opacity="0.18"/><rect x="1468" y="636" width="12" height="18" rx="3" fill="#f472b6" fill-opacity="0.26"/><rect x="1494" y="636" width="12" height="18" rx="3" fill="#f472b6" fill-opacity="0.33999999999999997"/><rect x="1562" y="540" width="142" height="360" fill="#0b1220" stroke="#ffffff" stroke-opacity="0.05"/><rect x="1580" y="566" width="12" height="18" rx="3" fill="#f472b6" fill-opacity="0.18"/><rect x="1606" y="566" width="12" height="18" rx="3" fill="#f472b6" fill-opacity="0.26"/><rect x="1632" y="566" width="12" height="18" rx="3" fill="#f472b6" fill-opacity="0.33999999999999997"/><rect x="1658" y="566" width="12" height="18" rx="3" fill="#f472b6" fill-opacity="0.42"/><rect x="1580" y="608" width="12" height="18" rx="3" fill="#f472b6" fill-opacity="0.26"/><rect x="1606" y="608" width="12" height="18" rx="3" fill="#f472b6" fill-opacity="0.33999999999999997"/><rect x="1632" y="608" width="12" height="18" rx="3" fill="#f472b6" fill-opacity="0.42"/><rect x="1658" y="608" width="12" height="18" rx="3" fill="#f472b6" fill-opacity="0.18"/><rect x="1580" y="650" width="12" height="18" rx="3" fill="#f472b6" fill-opacity="0.33999999999999997"/><rect x="1606" y="650" width="12" height="18" rx="3" fill="#f472b6" fill-opacity="0.42"/><rect x="1632" y="650" width="12" height="18" rx="3" fill="#f472b6" fill-opacity="0.18"/><rect x="1658" y="650" width="12" height="18" rx="3" fill="#f472b6" fill-opacity="0.26"/><rect x="1580" y="692" width="12" height="18" rx="3" fill="#f472b6" fill-opacity="0.42"/><rect x="1606" y="692" width="12" height="18" rx="3" fill="#f472b6" fill-opacity="0.18"/><rect x="1632" y="692" width="12" height="18" rx="3" fill="#f472b6" fill-opacity="0.26"/><rect x="1658" y="692" width="12" height="18" rx="3" fill="#f472b6" fill-opacity="0.33999999999999997"/><rect x="1580" y="734" width="12" height="18" rx="3" fill="#f472b6" fill-opacity="0.18"/><rect x="1606" y="734" width="12" height="18" rx="3" fill="#f472b6" fill-opacity="0.26"/><rect x="1632" y="734" width="12" height="18" rx="3" fill="#f472b6" fill-opacity="0.33999999999999997"/><rect x="1658" y="734" width="12" height="18" rx="3" fill="#f472b6" fill-opacity="0.42"/><rect x="1580" y="776" width="12" height="18" rx="3" fill="#f472b6" fill-opacity="0.26"/><rect x="1606" y="776" width="12" height="18" rx="3" fill="#f472b6" fill-opacity="0.33999999999999997"/><rect x="1632" y="776" width="12" height="18" rx="3" fill="#f472b6" fill-opacity="0.42"/><rect x="1658" y="776" width="12" height="18" rx="3" fill="#f472b6" fill-opacity="0.18"/><path d="M0 770 C200 740, 420 804, 660 770 C930 732, 1160 810, 1600 748 L1600 900 L0 900 Z" fill="#020617" fill-opacity="0.55"/>
</svg>
