<svg xmlns="http://www.w3.org/2000/svg" viewBox="0 0 1600 900" role="img" aria-label="Blog cover">
<defs><linearGradient id="g" x1="0" y1="0" x2="1" y2="1"><stop offset="0%" stop-color="#172554"/><stop offset="100%" stop-color="#312e81"/></linearGradient></defs><rect width="1600" height="900" fill="url(#g)"/>
<circle cx="244" cy="164" r="3" fill="#ffffff" fill-opacity="0.6"/><circle cx="357" cy="231" r="4" fill="#ffffff" fill-opacity="0.75"/><circle cx="470" cy="298" r="2" fill="#ffffff" fill-opacity="0.45"/><circle cx="583" cy="365" r="3" fill="#ffffff" fill-opacity="0.6"/><circle cx="696" cy="432" r="4" fill="#ffffff" fill-opacity="0.75"/><circle cx="809" cy="499" r="2" fill="#ffffff" fill-opacity="0.45"/><circle cx="922" cy="566" r="3" fill="#ffffff" fill-opacity="0.6"/><circle cx="1035" cy="633" r="4" fill="#ffffff" fill-opacity="0.75"/><circle cx="1148" cy="80" r="2" fill="#ffffff" fill-opacity="0.45"/><circle cx="1261" cy="147" r="3" fill="#ffffff" fill-opacity="0.6"/><circle cx="1374" cy="214" r="4" fill="#ffffff" fill-opacity="0.75"/><circle cx="1487" cy="281" r="2" fill="#ffffff" fill-opacity="0.45"/><circle cx="80" cy="348" r="3" fill="#ffffff" fill-opacity="0.6"/><circle cx="193" cy="415" r="4" fill="#ffffff" fill-opacity="0.75"/><circle cx="306" cy="482" r="2" fill="#ffffff" fill-opacity="0.45"/><circle cx="419" cy="549" r="3" fill="#ffffff" fill-opacity="0.6"/><circle cx="532" cy="616" r="4" fill="#ffffff" fill-opacity="0.75"/><circle cx="645" cy="63" r="2" fill="#ffffff" fill-opacity="0.45"/><circle cx="758" cy="130" r="3" fill="#ffffff" fill-opacity="0.6"/><circle cx="871" cy="197" r="4" fill="#ffffff" fill-opacity="0.75"/><circle cx="984" cy="264" r="2" fill="#ffffff" fill-opacity="0.45"/><circle cx="1097" cy="331" r="3" fill="#ffffff" fill-opacity="0.6"/><circle cx="1210" cy="398" r="4" fill="#ffffff" fill-opacity="0.75"/><circle cx="1323" cy="465" r="2" fill="#ffffff" fill-opacity="0.45"/><circle cx="1436" cy="532" r="3" fill="#ffffff" fill-opacity="0.6"/><circle cx="1549" cy="599" r="4" fill="#ffffff" fill-opacity="0.75"/><circle cx="142" cy="46" r="2" fill="#ffffff" fill-opacity="0.45"/><circle cx="255" cy="113" r="3" fill="#ffffff" fill-opacity="0.6"/><circle cx="368" cy="180" r="4" fill="#ffffff" fill-opacity="0.75"/><circle cx="481" cy="247" r="2" fill="#ffffff" fill-opacity="0.45"/><circle cx="594" cy="314" r="3" fill="#ffffff" fill-opacity="0.6"/><circle cx="707" cy="381" r="4" fill="#ffffff" fill-opacity="0.75"/><circle cx="820" cy="448" r="2" fill="#ffffff" fill-opacity="0.45"/><circle cx="933" cy="515" r="3" fill="#ffffff" fill-opacity="0.6"/><circle cx="1046" cy="582" r="4" fill="#ffffff" fill-opacity="0.75"/><circle cx="1159" cy="649" r="2" fill="#ffffff" fill-opacity="0.45"/><circle cx="1272" cy="96" r="3" fill="#ffffff" fill-opacity="0.6"/><circle cx="1385" cy="163" r="4" fill="#ffffff" fill-opacity="0.75"/><circle cx="1498" cy="230" r="2" fill="#ffffff" fill-opacity="0.45"/><circle cx="91" cy="297" r="3" fill="#ffffff" fill-opacity="0.6"/><circle cx="320" cy="250" r="96" fill="#fb7185" fill-opacity="0.85"/><circle cx="1060" cy="190" r="58" fill="#fcd34d" fill-opacity="0.9"/><circle cx="1220" cy="500" r="124" fill="#38bdf8" fill-opacity="0.62"/><ellipse cx="1220" cy="500" rx="170" ry="38" fill="none" stroke="#fde68a" stroke-opacity="0.55" stroke-width="10"/><path d="M0 820 C300 740, 620 840, 940 788 C1180 748, 1380 770, 1600 732 L1600 900 L0 900 Z" fill="#020617" fill-opacity="0.72"/>
</svg>
