<svg xmlns="http://www.w3.org/2000/svg" viewBox="0 0 1600 900" role="img" aria-label="Blog cover">
<defs><linearGradient id="g" x1="0" y1="0" x2="0" y2="1"><stop offset="0%" stop-color="#d1fae5"/><stop offset="100%" stop-color="#6ee7b7"/></linearGradient></defs><rect width="1600" height="900" fill="url(#g)"/>
<circle cx="1260" cy="180" r="84" fill="#fefce8" fill-opacity="0.86"/><path d="M70 900 L124 800 L178 900 Z" fill="#6b4f3b" fill-opacity="0.45"/><path d="M60 830 L124 680 L188 830 Z" fill="#14532d"/><path d="M68 898 L124 754 L180 898 Z" fill="#1f7a46"/><path d="M215 900 L269 769 L323 900 Z" fill="#6b4f3b" fill-opacity="0.45"/><path d="M205 799 L269 649 L333 799 Z" fill="#14532d"/><path d="M213 867 L269 723 L325 867 Z" fill="#1f7a46"/><path d="M360 900 L414 738 L468 900 Z" fill="#6b4f3b" fill-opacity="0.45"/><path d="M350 768 L414 618 L478 768 Z" fill="#14532d"/><path d="M358 836 L414 692 L470 836 Z" fill="#1f7a46"/><path d="M505 900 L559 707 L613 900 Z" fill="#6b4f3b" fill-opacity="0.45"/><path d="M495 737 L559 587 L623 737 Z" fill="#14532d"/><path d="M503 805 L559 661 L615 805 Z" fill="#1f7a46"/><path d="M650 900 L704 676 L758 900 Z" fill="#6b4f3b" fill-opacity="0.45"/><path d="M640 706 L704 556 L768 706 Z" fill="#14532d"/><path d="M648 774 L704 630 L760 774 Z" fill="#1f7a46"/><path d="M795 900 L849 645 L903 900 Z" fill="#6b4f3b" fill-opacity="0.45"/><path d="M785 675 L849 525 L913 675 Z" fill="#14532d"/><path d="M793 743 L849 599 L905 743 Z" fill="#1f7a46"/><path d="M940 900 L994 614 L1048 900 Z" fill="#6b4f3b" fill-opacity="0.45"/><path d="M930 644 L994 494 L1058 644 Z" fill="#14532d"/><path d="M938 712 L994 568 L1050 712 Z" fill="#1f7a46"/><path d="M1085 900 L1139 583 L1193 900 Z" fill="#6b4f3b" fill-opacity="0.45"/><path d="M1075 613 L1139 463 L1203 613 Z" fill="#14532d"/><path d="M1083 681 L1139 537 L1195 681 Z" fill="#1f7a46"/><path d="M1230 900 L1284 782 L1338 900 Z" fill="#6b4f3b" fill-opacity="0.45"/><path d="M1220 812 L1284 662 L1348 812 Z" fill="#14532d"/><path d="M1228 880 L1284 736 L1340 880 Z" fill="#1f7a46"/><path d="M1375 900 L1429 751 L1483 900 Z" fill="#6b4f3b" fill-opacity="0.45"/><path d="M1365 781 L1429 631 L1493 781 Z" fill="#14532d"/><path d="M1373 849 L1429 705 L1485 849 Z" fill="#1f7a46"/><path d="M1520 900 L1574 720 L1628 900 Z" fill="#6b4f3b" fill-opacity="0.45"/><path d="M1510 750 L1574 600 L1638 750 Z" fill="#14532d"/><path d="M1518 818 L1574 674 L1630 818 Z" fill="#1f7a46"/><rect y="700" width="1600" height="200" fill="#0f2f21" fill-opacity="0.42"/><ellipse cx="800" cy="680" rx="520" ry="74" fill="#ffffff" fill-opacity="0.16"/>
</svg>
