<svg xmlns="http://www.w3.org/2000/svg" viewBox="0 0 1600 900" role="img" aria-label="Blog cover">
<defs><linearGradient id="bg" x1="0" y1="0" x2="1" y2="1"><stop offset="0%" stop-color="#0b1120"/><stop offset="100%" stop-color="#112240"/></linearGradient></defs><rect width="1600" height="900" fill="url(#bg)"/>
<path d="M60 -213 V201" stroke="#8b5cf6" stroke-opacity="0.22" stroke-width="4" stroke-linecap="round"/><circle cx="60" cy="201" r="6" fill="#8b5cf6" fill-opacity="0.55"/><path d="M146 -50 V220" stroke="#8b5cf6" stroke-opacity="0.22" stroke-width="4" stroke-linecap="round"/><circle cx="146" cy="220" r="6" fill="#8b5cf6" fill-opacity="0.55"/><path d="M232 -107 V239" stroke="#8b5cf6" stroke-opacity="0.22" stroke-width="4" stroke-linecap="round"/><circle cx="232" cy="239" r="6" fill="#8b5cf6" fill-opacity="0.55"/><path d="M318 -164 V258" stroke="#8b5cf6" stroke-opacity="0.22" stroke-width="4" stroke-linecap="round"/><circle cx="318" cy="258" r="6" fill="#8b5cf6" fill-opacity="0.55"/><path d="M404 -1 V277" stroke="#8b5cf6" stroke-opacity="0.22" stroke-width="4" stroke-linecap="round"/><circle cx="404" cy="277" r="6" fill="#8b5cf6" fill-opacity="0.55"/><path d="M490 -58 V296" stroke="#8b5cf6" stroke-opacity="0.22" stroke-width="4" stroke-linecap="round"/><circle cx="490" cy="296" r="6" fill="#8b5cf6" fill-opacity="0.55"/><path d="M576 -115 V315" stroke="#8b5cf6" stroke-opacity="0.22" stroke-width="4" stroke-linecap="round"/><circle cx="576" cy="315" r="6" fill="#8b5cf6" fill-opacity="0.55"/><path d="M662 -172 V334" stroke="#8b5cf6" stroke-opacity="0.22" stroke-width="4" stroke-linecap="round"/><circle cx="662" cy="334" r="6" fill="#8b5cf6" fill-opacity="0.55"/><path d="M748 -9 V353" stroke="#8b5cf6" stroke-opacity="0.22" stroke-width="4" stroke-linecap="round"/><circle cx="748" cy="353" r="6" fill="#8b5cf6" fill-opacity="0.55"/><path d="M834 -66 V372" stroke="#8b5cf6" stroke-opacity="0.22" stroke-width="4" stroke-linecap="round"/><circle cx="834" cy="372" r="6" fill="#8b5cf6" fill-opacity="0.55"/><path d="M920 -123 V391" stroke="#8b5cf6" stroke-opacity="0.22" stroke-width="4" stroke-linecap="round"/><circle cx="920" cy="391" r="6" fill="#8b5cf6" fill-opacity="0.55"/><path d="M1006 -180 V130" stroke="#8b5cf6" stroke-opacity="0.22" stroke-width="4" stroke-linecap="round"/><circle cx="1006" cy="130" r="6" fill="#8b5cf6" fill-opacity="0.55"/><path d="M1092 -17 V149" stroke="#8b5cf6" stroke-opacity="0.22" stroke-width="4" stroke-linecap="round"/><circle cx="1092" cy="149" r="6" fill="#8b5cf6" fill-opacity="0.55"/><path d="M1178 -74 V168" stroke="#8b5cf6" stroke-opacity="0.22" stroke-width="4" stroke-linecap="round"/><circle cx="1178" cy="168" r="6" fill="#8b5cf6" fill-opacity="0.55"/><path d="M1264 -131 V187" stroke="#8b5cf6" stroke-opacity="0.22" stroke-width="4" stroke-linecap="round"/><circle cx="1264" cy="187" r="6" fill="#8b5cf6" fill-opacity="0.55"/><path d="M1350 -188 V206" stroke="#8b5cf6" stroke-opacity="0.22" stroke-width="4" stroke-linecap="round"/><circle cx="1350" cy="206" r="6" fill="#8b5cf6" fill-opacity="0.55"/><path d="M1436 -25 V225" stroke="#8b5cf6" stroke-opacity="0.22" stroke-width="4" stroke-linecap="round"/><circle cx="1436" cy="225" r="6" fill="#8b5cf6" fill-opacity="0.55"/><path d="M1522 -82 V244" stroke="#8b5cf6" stroke-opacity="0.22" stroke-width="4" stroke-linecap="round"/><circle cx="1522" cy="244" r="6" fill="#8b5cf6" fill-opacity="0.55"/><circle cx="800" cy="390" r="120" fill="#0b1220" stroke="#8b5cf6" stroke-opacity="0.25" stroke-width="6"/>
    <path d="M510 590 C560 360, 680 240, 800 240 C920 240, 1040 360, 1090 590 C1010 520, 930 490, 880 482 C860 620, 830 720, 800 720 C770 720, 740 620, 720 482 C670 490, 590 520, 510 590 Z" fill="#081019" stroke="#ffffff" stroke-opacity="0.04"/>
    <path d="M660 410 C700 372, 760 352, 800 352 C840 352, 900 372, 940 410" fill="none" stroke="#1f2937" stroke-width="18" stroke-linecap="round"/>
    <path d="M698 440 h84" stroke="#8b5cf6" stroke-width="10" stroke-linecap="round"/>
    <path d="M818 440 h84" stroke="#8b5cf6" stroke-width="10" stroke-linecap="round"/>
    <path d="M782 440 h36" stroke="#d9f99d" stroke-width="4" stroke-dasharray="7 8" stroke-linecap="round"/>
</svg>
