<svg xmlns="http://www.w3.org/2000/svg" viewBox="0 0 1600 900" role="img" aria-label="Blog cover">
<defs><linearGradient id="g" x1="0" y1="0" x2="0" y2="1"><stop offset="0%" stop-color="#d9f99d"/><stop offset="100%" stop-color="#84cc16"/></linearGradient></defs><rect width="1600" height="900" fill="url(#g)"/>
<circle cx="1260" cy="180" r="84" fill="#fefce8" fill-opacity="0.86"/><path d="M70 900 L124 716 L178 900 Z" fill="#6b4f3b" fill-opacity="0.45"/><path d="M60 746 L124 596 L188 746 Z" fill="#365314"/><path d="M68 814 L124 670 L180 814 Z" fill="#1f7a46"/><path d="M215 900 L269 685 L323 900 Z" fill="#6b4f3b" fill-opacity="0.45"/><path d="M205 715 L269 565 L333 715 Z" fill="#365314"/><path d="M213 783 L269 639 L325 783 Z" fill="#1f7a46"/><path d="M360 900 L414 654 L468 900 Z" fill="#6b4f3b" fill-opacity="0.45"/><path d="M350 684 L414 534 L478 684 Z" fill="#365314"/><path d="M358 752 L414 608 L470 752 Z" fill="#1f7a46"/><path d="M505 900 L559 623 L613 900 Z" fill="#6b4f3b" fill-opacity="0.45"/><path d="M495 653 L559 503 L623 653 Z" fill="#365314"/><path d="M503 721 L559 577 L615 721 Z" fill="#1f7a46"/><path d="M650 900 L704 592 L758 900 Z" fill="#6b4f3b" fill-opacity="0.45"/><path d="M640 622 L704 472 L768 622 Z" fill="#365314"/><path d="M648 690 L704 546 L760 690 Z" fill="#1f7a46"/><path d="M795 900 L849 791 L903 900 Z" fill="#6b4f3b" fill-opacity="0.45"/><path d="M785 821 L849 671 L913 821 Z" fill="#365314"/><path d="M793 889 L849 745 L905 889 Z" fill="#1f7a46"/><path d="M940 900 L994 760 L1048 900 Z" fill="#6b4f3b" fill-opacity="0.45"/><path d="M930 790 L994 640 L1058 790 Z" fill="#365314"/><path d="M938 858 L994 714 L1050 858 Z" fill="#1f7a46"/><path d="M1085 900 L1139 729 L1193 900 Z" fill="#6b4f3b" fill-opacity="0.45"/><path d="M1075 759 L1139 609 L1203 759 Z" fill="#365314"/><path d="M1083 827 L1139 683 L1195 827 Z" fill="#1f7a46"/><path d="M1230 900 L1284 698 L1338 900 Z" fill="#6b4f3b" fill-opacity="0.45"/><path d="M1220 728 L1284 578 L1348 728 Z" fill="#365314"/><path d="M1228 796 L1284 652 L1340 796 Z" fill="#1f7a46"/><path d="M1375 900 L1429 667 L1483 900 Z" fill="#6b4f3b" fill-opacity="0.45"/><path d="M1365 697 L1429 547 L1493 697 Z" fill="#365314"/><path d="M1373 765 L1429 621 L1485 765 Z" fill="#1f7a46"/><path d="M1520 900 L1574 636 L1628 900 Z" fill="#6b4f3b" fill-opacity="0.45"/><path d="M1510 666 L1574 516 L1638 666 Z" fill="#365314"/><path d="M1518 734 L1574 590 L1630 734 Z" fill="#1f7a46"/><rect y="700" width="1600" height="200" fill="#0f2f21" fill-opacity="0.42"/><ellipse cx="800" cy="680" rx="520" ry="74" fill="#ffffff" fill-opacity="0.16"/>
</svg>
