<svg xmlns="http://www.w3.org/2000/svg" viewBox="0 0 1600 900" role="img" aria-label="Blog cover">
<defs><linearGradient id="bg" x1="0" y1="0" x2="1" y2="1"><stop offset="0%" stop-color="#0b1220"/><stop offset="100%" stop-color="#1f2937"/></linearGradient></defs><rect width="1600" height="900" fill="url(#bg)"/>
<path d="M0 0 V900" stroke="#ffffff" stroke-opacity="0.05" stroke-width="2"/><path d="M80 0 V900" stroke="#ffffff" stroke-opacity="0.05" stroke-width="2"/><path d="M160 0 V900" stroke="#ffffff" stroke-opacity="0.05" stroke-width="2"/><path d="M240 0 V900" stroke="#ffffff" stroke-opacity="0.05" stroke-width="2"/><path d="M320 0 V900" stroke="#ffffff" stroke-opacity="0.05" stroke-width="2"/><path d="M400 0 V900" stroke="#ffffff" stroke-opacity="0.05" stroke-width="2"/><path d="M480 0 V900" stroke="#ffffff" stroke-opacity="0.05" stroke-width="2"/><path d="M560 0 V900" stroke="#ffffff" stroke-opacity="0.05" stroke-width="2"/><path d="M640 0 V900" stroke="#ffffff" stroke-opacity="0.05" stroke-width="2"/><path d="M720 0 V900" stroke="#ffffff" stroke-opacity="0.05" stroke-width="2"/><path d="M800 0 V900" stroke="#ffffff" stroke-opacity="0.05" stroke-width="2"/><path d="M880 0 V900" stroke="#ffffff" stroke-opacity="0.05" stroke-width="2"/><path d="M960 0 V900" stroke="#ffffff" stroke-opacity="0.05" stroke-width="2"/><path d="M1040 0 V900" stroke="#ffffff" stroke-opacity="0.05" stroke-width="2"/><path d="M1120 0 V900" stroke="#ffffff" stroke-opacity="0.05" stroke-width="2"/><path d="M1200 0 V900" stroke="#ffffff" stroke-opacity="0.05" stroke-width="2"/><path d="M1280 0 V900" stroke="#ffffff" stroke-opacity="0.05" stroke-width="2"/><path d="M1360 0 V900" stroke="#ffffff" stroke-opacity="0.05" stroke-width="2"/><path d="M1440 0 V900" stroke="#ffffff" stroke-opacity="0.05" stroke-width="2"/><path d="M1520 0 V900" stroke="#ffffff" stroke-opacity="0.05" stroke-width="2"/><path d="M1600 0 V900" stroke="#ffffff" stroke-opacity="0.05" stroke-width="2"/><path d="M0 0 H1600" stroke="#ffffff" stroke-opacity="0.05" stroke-width="2"/><path d="M0 80 H1600" stroke="#ffffff" stroke-opacity="0.05" stroke-width="2"/><path d="M0 160 H1600" stroke="#ffffff" stroke-opacity="0.05" stroke-width="2"/><path d="M0 240 H1600" stroke="#ffffff" stroke-opacity="0.05" stroke-width="2"/><path d="M0 320 H1600" stroke="#ffffff" stroke-opacity="0.05" stroke-width="2"/><path d="M0 400 H1600" stroke="#ffffff" stroke-opacity="0.05" stroke-width="2"/><path d="M0 480 H1600" stroke="#ffffff" stroke-opacity="0.05" stroke-width="2"/><path d="M0 560 H1600" stroke="#ffffff" stroke-opacity="0.05" stroke-width="2"/><path d="M0 640 H1600" stroke="#ffffff" stroke-opacity="0.05" stroke-width="2"/><path d="M0 720 H1600" stroke="#ffffff" stroke-opacity="0.05" stroke-width="2"/><path d="M0 800 H1600" stroke="#ffffff" stroke-opacity="0.05" stroke-width="2"/><path d="M0 880 H1600" stroke="#ffffff" stroke-opacity="0.05" stroke-width="2"/><rect x="100" y="100" width="420" height="230" rx="26" fill="#06131d" fill-opacity="0.42" stroke="#7dd3fc" stroke-opacity="0.35"/><circle cx="136" cy="134" r="8" fill="#f87171"/><circle cx="162" cy="134" r="8" fill="#facc15"/><circle cx="188" cy="134" r="8" fill="#4ade80"/><rect x="128" y="172" width="227" height="10" rx="5" fill="#7dd3fc" fill-opacity="0.22"/><rect x="128" y="200" width="277" height="10" rx="5" fill="#7dd3fc" fill-opacity="0.27"/><rect x="128" y="228" width="328" height="10" rx="5" fill="#7dd3fc" fill-opacity="0.32"/><rect x="128" y="256" width="176" height="10" rx="5" fill="#7dd3fc" fill-opacity="0.37"/><rect x="128" y="284" width="227" height="10" rx="5" fill="#7dd3fc" fill-opacity="0.42000000000000004"/><rect x="560" y="140" width="470" height="250" rx="26" fill="#06131d" fill-opacity="0.42" stroke="#7dd3fc" stroke-opacity="0.35"/><circle cx="596" cy="174" r="8" fill="#f87171"/><circle cx="622" cy="174" r="8" fill="#facc15"/><circle cx="648" cy="174" r="8" fill="#4ade80"/><rect x="588" y="212" width="310" height="10" rx="5" fill="#7dd3fc" fill-opacity="0.22"/><rect x="588" y="240" width="367" height="10" rx="5" fill="#7dd3fc" fill-opacity="0.27"/><rect x="588" y="268" width="197" height="10" rx="5" fill="#7dd3fc" fill-opacity="0.32"/><rect x="588" y="296" width="254" height="10" rx="5" fill="#7dd3fc" fill-opacity="0.37"/><rect x="588" y="324" width="310" height="10" rx="5" fill="#7dd3fc" fill-opacity="0.42000000000000004"/><rect x="1080" y="90" width="360" height="210" rx="26" fill="#06131d" fill-opacity="0.42" stroke="#7dd3fc" stroke-opacity="0.35"/><circle cx="1116" cy="124" r="8" fill="#f87171"/><circle cx="1142" cy="124" r="8" fill="#facc15"/><circle cx="1168" cy="124" r="8" fill="#4ade80"/><rect x="1108" y="162" width="281" height="10" rx="5" fill="#7dd3fc" fill-opacity="0.22"/><rect x="1108" y="190" width="151" height="10" rx="5" fill="#7dd3fc" fill-opacity="0.27"/><rect x="1108" y="218" width="194" height="10" rx="5" fill="#7dd3fc" fill-opacity="0.32"/><rect x="1108" y="246" width="238" height="10" rx="5" fill="#7dd3fc" fill-opacity="0.37"/><rect x="1108" y="274" width="281" height="10" rx="5" fill="#7dd3fc" fill-opacity="0.42000000000000004"/><rect x="180" y="430" width="520" height="260" rx="26" fill="#06131d" fill-opacity="0.42" stroke="#7dd3fc" stroke-opacity="0.35"/><circle cx="216" cy="464" r="8" fill="#f87171"/><circle cx="242" cy="464" r="8" fill="#facc15"/><circle cx="268" cy="464" r="8" fill="#4ade80"/><rect x="208" y="502" width="218" height="10" rx="5" fill="#7dd3fc" fill-opacity="0.22"/><rect x="208" y="530" width="281" height="10" rx="5" fill="#7dd3fc" fill-opacity="0.27"/><rect x="208" y="558" width="343" height="10" rx="5" fill="#7dd3fc" fill-opacity="0.32"/><rect x="208" y="586" width="406" height="10" rx="5" fill="#7dd3fc" fill-opacity="0.37"/><rect x="208" y="614" width="218" height="10" rx="5" fill="#7dd3fc" fill-opacity="0.42000000000000004"/><rect x="790" y="460" width="560" height="230" rx="26" fill="#06131d" fill-opacity="0.42" stroke="#7dd3fc" stroke-opacity="0.35"/><circle cx="826" cy="494" r="8" fill="#f87171"/><circle cx="852" cy="494" r="8" fill="#facc15"/><circle cx="878" cy="494" r="8" fill="#4ade80"/><rect x="818" y="532" width="302" height="10" rx="5" fill="#7dd3fc" fill-opacity="0.22"/><rect x="818" y="560" width="370" height="10" rx="5" fill="#7dd3fc" fill-opacity="0.27"/><rect x="818" y="588" width="437" height="10" rx="5" fill="#7dd3fc" fill-opacity="0.32"/><rect x="818" y="616" width="235" height="10" rx="5" fill="#7dd3fc" fill-opacity="0.37"/><rect x="818" y="644" width="302" height="10" rx="5" fill="#7dd3fc" fill-opacity="0.42000000000000004"/><path d="M1280 610 l90 36 v86 c0 82 -56 130 -90 148 c-34 -18 -90 -66 -90 -148 v-86z" fill="#06131d" stroke="#7dd3fc" stroke-width="8"/><path d="M1266 720 h28 v-28 c0 -22 18 -40 40 -40 s40 18 40 40 v28 h28 v72 h-136z" transform="translate(20 -20)" fill="#7dd3fc" fill-opacity="0.7"/>
</svg>
