<svg xmlns="http://www.w3.org/2000/svg" viewBox="0 0 1600 900" role="img" aria-label="Blog cover">
<defs><linearGradient id="sky" x1="0" y1="0" x2="0" y2="1"><stop offset="0%" stop-color="#67e8f9"/><stop offset="100%" stop-color="#f0fdff"/></linearGradient></defs><rect width="1600" height="900" fill="url(#sky)"/>
<circle cx="980" cy="180" r="78" fill="#fff9db" fill-opacity="0.95"/><path d="M0 520 C120 498, 260 542, 410 502, 560 554, 720 504, 890 546, 1060 508, 1240 544, 1420 502, 1600 536 L1600 900 L0 900 Z" fill="#2dd4bf"/><path d="M0 610 C120 588, 260 632, 410 592, 560 644, 720 594, 890 636, 1060 598, 1240 634, 1420 592, 1600 626 L1600 900 L0 900 Z" fill="#0891b2"/><path d="M0 700 C120 678, 260 722, 410 682, 560 734, 720 684, 890 726, 1060 688, 1240 724, 1420 682, 1600 716 L1600 900 L0 900 Z" fill="#164e63"/><path d="M720 540 l74 0 l-8 126 l-54 0 z" fill="#f8fafc" fill-opacity="0.9"/><path d="M732 660 h176 c-18 42 -50 62 -90 62 c-42 0 -74 -20 -98 -62z" fill="#1f2937"/><path d="M812 560 l120 70 h-120z" fill="#fff7ed"/>
</svg>
