<svg xmlns="http://www.w3.org/2000/svg" viewBox="0 0 1600 900" role="img" aria-label="Blog cover">
<defs><linearGradient id="g" x1="0" y1="0" x2="1" y2="1"><stop offset="0%" stop-color="#030712"/><stop offset="100%" stop-color="#1d4ed8"/></linearGradient></defs><rect width="1600" height="900" fill="url(#g)"/>
<circle cx="91" cy="71" r="3" fill="#ffffff" fill-opacity="0.6"/><circle cx="204" cy="138" r="4" fill="#ffffff" fill-opacity="0.75"/><circle cx="317" cy="205" r="2" fill="#ffffff" fill-opacity="0.45"/><circle cx="430" cy="272" r="3" fill="#ffffff" fill-opacity="0.6"/><circle cx="543" cy="339" r="4" fill="#ffffff" fill-opacity="0.75"/><circle cx="656" cy="406" r="2" fill="#ffffff" fill-opacity="0.45"/><circle cx="769" cy="473" r="3" fill="#ffffff" fill-opacity="0.6"/><circle cx="882" cy="540" r="4" fill="#ffffff" fill-opacity="0.75"/><circle cx="995" cy="607" r="2" fill="#ffffff" fill-opacity="0.45"/><circle cx="1108" cy="54" r="3" fill="#ffffff" fill-opacity="0.6"/><circle cx="1221" cy="121" r="4" fill="#ffffff" fill-opacity="0.75"/><circle cx="1334" cy="188" r="2" fill="#ffffff" fill-opacity="0.45"/><circle cx="1447" cy="255" r="3" fill="#ffffff" fill-opacity="0.6"/><circle cx="40" cy="322" r="4" fill="#ffffff" fill-opacity="0.75"/><circle cx="153" cy="389" r="2" fill="#ffffff" fill-opacity="0.45"/><circle cx="266" cy="456" r="3" fill="#ffffff" fill-opacity="0.6"/><circle cx="379" cy="523" r="4" fill="#ffffff" fill-opacity="0.75"/><circle cx="492" cy="590" r="2" fill="#ffffff" fill-opacity="0.45"/><circle cx="605" cy="657" r="3" fill="#ffffff" fill-opacity="0.6"/><circle cx="718" cy="104" r="4" fill="#ffffff" fill-opacity="0.75"/><circle cx="831" cy="171" r="2" fill="#ffffff" fill-opacity="0.45"/><circle cx="944" cy="238" r="3" fill="#ffffff" fill-opacity="0.6"/><circle cx="1057" cy="305" r="4" fill="#ffffff" fill-opacity="0.75"/><circle cx="1170" cy="372" r="2" fill="#ffffff" fill-opacity="0.45"/><circle cx="1283" cy="439" r="3" fill="#ffffff" fill-opacity="0.6"/><circle cx="1396" cy="506" r="4" fill="#ffffff" fill-opacity="0.75"/><circle cx="1509" cy="573" r="2" fill="#ffffff" fill-opacity="0.45"/><circle cx="102" cy="640" r="3" fill="#ffffff" fill-opacity="0.6"/><circle cx="215" cy="87" r="4" fill="#ffffff" fill-opacity="0.75"/><circle cx="328" cy="154" r="2" fill="#ffffff" fill-opacity="0.45"/><circle cx="441" cy="221" r="3" fill="#ffffff" fill-opacity="0.6"/><circle cx="554" cy="288" r="4" fill="#ffffff" fill-opacity="0.75"/><circle cx="667" cy="355" r="2" fill="#ffffff" fill-opacity="0.45"/><circle cx="780" cy="422" r="3" fill="#ffffff" fill-opacity="0.6"/><circle cx="893" cy="489" r="4" fill="#ffffff" fill-opacity="0.75"/><circle cx="1006" cy="556" r="2" fill="#ffffff" fill-opacity="0.45"/><circle cx="1119" cy="623" r="3" fill="#ffffff" fill-opacity="0.6"/><circle cx="1232" cy="70" r="4" fill="#ffffff" fill-opacity="0.75"/><circle cx="1345" cy="137" r="2" fill="#ffffff" fill-opacity="0.45"/><circle cx="1458" cy="204" r="3" fill="#ffffff" fill-opacity="0.6"/><circle cx="320" cy="250" r="96" fill="#fb7185" fill-opacity="0.85"/><circle cx="1060" cy="190" r="58" fill="#7dd3fc" fill-opacity="0.9"/><circle cx="1220" cy="500" r="124" fill="#38bdf8" fill-opacity="0.62"/><ellipse cx="1220" cy="500" rx="170" ry="38" fill="none" stroke="#fde68a" stroke-opacity="0.55" stroke-width="10"/><path d="M0 820 C300 740, 620 840, 940 788 C1180 748, 1380 770, 1600 732 L1600 900 L0 900 Z" fill="#020617" fill-opacity="0.72"/>
</svg>
