<svg xmlns="http://www.w3.org/2000/svg" viewBox="0 0 1600 900" role="img" aria-label="Blog cover">
<defs><linearGradient id="g" x1="0" y1="0" x2="1" y2="1"><stop offset="0%" stop-color="#020617"/><stop offset="100%" stop-color="#1e1b4b"/></linearGradient></defs><rect width="1600" height="900" fill="url(#g)"/>
<circle cx="40" cy="40" r="2" fill="#ffffff" fill-opacity="0.45"/><circle cx="153" cy="107" r="3" fill="#ffffff" fill-opacity="0.6"/><circle cx="266" cy="174" r="4" fill="#ffffff" fill-opacity="0.75"/><circle cx="379" cy="241" r="2" fill="#ffffff" fill-opacity="0.45"/><circle cx="492" cy="308" r="3" fill="#ffffff" fill-opacity="0.6"/><circle cx="605" cy="375" r="4" fill="#ffffff" fill-opacity="0.75"/><circle cx="718" cy="442" r="2" fill="#ffffff" fill-opacity="0.45"/><circle cx="831" cy="509" r="3" fill="#ffffff" fill-opacity="0.6"/><circle cx="944" cy="576" r="4" fill="#ffffff" fill-opacity="0.75"/><circle cx="1057" cy="643" r="2" fill="#ffffff" fill-opacity="0.45"/><circle cx="1170" cy="90" r="3" fill="#ffffff" fill-opacity="0.6"/><circle cx="1283" cy="157" r="4" fill="#ffffff" fill-opacity="0.75"/><circle cx="1396" cy="224" r="2" fill="#ffffff" fill-opacity="0.45"/><circle cx="1509" cy="291" r="3" fill="#ffffff" fill-opacity="0.6"/><circle cx="102" cy="358" r="4" fill="#ffffff" fill-opacity="0.75"/><circle cx="215" cy="425" r="2" fill="#ffffff" fill-opacity="0.45"/><circle cx="328" cy="492" r="3" fill="#ffffff" fill-opacity="0.6"/><circle cx="441" cy="559" r="4" fill="#ffffff" fill-opacity="0.75"/><circle cx="554" cy="626" r="2" fill="#ffffff" fill-opacity="0.45"/><circle cx="667" cy="73" r="3" fill="#ffffff" fill-opacity="0.6"/><circle cx="780" cy="140" r="4" fill="#ffffff" fill-opacity="0.75"/><circle cx="893" cy="207" r="2" fill="#ffffff" fill-opacity="0.45"/><circle cx="1006" cy="274" r="3" fill="#ffffff" fill-opacity="0.6"/><circle cx="1119" cy="341" r="4" fill="#ffffff" fill-opacity="0.75"/><circle cx="1232" cy="408" r="2" fill="#ffffff" fill-opacity="0.45"/><circle cx="1345" cy="475" r="3" fill="#ffffff" fill-opacity="0.6"/><circle cx="1458" cy="542" r="4" fill="#ffffff" fill-opacity="0.75"/><circle cx="51" cy="609" r="2" fill="#ffffff" fill-opacity="0.45"/><circle cx="164" cy="56" r="3" fill="#ffffff" fill-opacity="0.6"/><circle cx="277" cy="123" r="4" fill="#ffffff" fill-opacity="0.75"/><circle cx="390" cy="190" r="2" fill="#ffffff" fill-opacity="0.45"/><circle cx="503" cy="257" r="3" fill="#ffffff" fill-opacity="0.6"/><circle cx="616" cy="324" r="4" fill="#ffffff" fill-opacity="0.75"/><circle cx="729" cy="391" r="2" fill="#ffffff" fill-opacity="0.45"/><circle cx="842" cy="458" r="3" fill="#ffffff" fill-opacity="0.6"/><circle cx="955" cy="525" r="4" fill="#ffffff" fill-opacity="0.75"/><circle cx="1068" cy="592" r="2" fill="#ffffff" fill-opacity="0.45"/><circle cx="1181" cy="659" r="3" fill="#ffffff" fill-opacity="0.6"/><circle cx="1294" cy="106" r="4" fill="#ffffff" fill-opacity="0.75"/><circle cx="1407" cy="173" r="2" fill="#ffffff" fill-opacity="0.45"/><circle cx="320" cy="250" r="96" fill="#fb7185" fill-opacity="0.85"/><circle cx="1060" cy="190" r="58" fill="#a78bfa" fill-opacity="0.9"/><circle cx="1220" cy="500" r="124" fill="#38bdf8" fill-opacity="0.62"/><ellipse cx="1220" cy="500" rx="170" ry="38" fill="none" stroke="#fde68a" stroke-opacity="0.55" stroke-width="10"/><path d="M0 820 C300 740, 620 840, 940 788 C1180 748, 1380 770, 1600 732 L1600 900 L0 900 Z" fill="#020617" fill-opacity="0.72"/>
</svg>
