<svg xmlns="http://www.w3.org/2000/svg" viewBox="0 0 1600 900" role="img" aria-label="Blog cover">
<defs><linearGradient id="bg" x1="0" y1="0" x2="1" y2="1"><stop offset="0%" stop-color="#030712"/><stop offset="100%" stop-color="#0f172a"/></linearGradient></defs><rect width="1600" height="900" fill="url(#bg)"/>
<path d="M60 0 V120" stroke="#57f287" stroke-opacity="0.22" stroke-width="4" stroke-linecap="round"/><circle cx="60" cy="120" r="6" fill="#57f287" fill-opacity="0.55"/><path d="M146 -57 V139" stroke="#57f287" stroke-opacity="0.22" stroke-width="4" stroke-linecap="round"/><circle cx="146" cy="139" r="6" fill="#57f287" fill-opacity="0.55"/><path d="M232 -114 V158" stroke="#57f287" stroke-opacity="0.22" stroke-width="4" stroke-linecap="round"/><circle cx="232" cy="158" r="6" fill="#57f287" fill-opacity="0.55"/><path d="M318 -171 V177" stroke="#57f287" stroke-opacity="0.22" stroke-width="4" stroke-linecap="round"/><circle cx="318" cy="177" r="6" fill="#57f287" fill-opacity="0.55"/><path d="M404 -8 V196" stroke="#57f287" stroke-opacity="0.22" stroke-width="4" stroke-linecap="round"/><circle cx="404" cy="196" r="6" fill="#57f287" fill-opacity="0.55"/><path d="M490 -65 V215" stroke="#57f287" stroke-opacity="0.22" stroke-width="4" stroke-linecap="round"/><circle cx="490" cy="215" r="6" fill="#57f287" fill-opacity="0.55"/><path d="M576 -122 V234" stroke="#57f287" stroke-opacity="0.22" stroke-width="4" stroke-linecap="round"/><circle cx="576" cy="234" r="6" fill="#57f287" fill-opacity="0.55"/><path d="M662 -179 V253" stroke="#57f287" stroke-opacity="0.22" stroke-width="4" stroke-linecap="round"/><circle cx="662" cy="253" r="6" fill="#57f287" fill-opacity="0.55"/><path d="M748 -16 V272" stroke="#57f287" stroke-opacity="0.22" stroke-width="4" stroke-linecap="round"/><circle cx="748" cy="272" r="6" fill="#57f287" fill-opacity="0.55"/><path d="M834 -73 V291" stroke="#57f287" stroke-opacity="0.22" stroke-width="4" stroke-linecap="round"/><circle cx="834" cy="291" r="6" fill="#57f287" fill-opacity="0.55"/><path d="M920 -130 V310" stroke="#57f287" stroke-opacity="0.22" stroke-width="4" stroke-linecap="round"/><circle cx="920" cy="310" r="6" fill="#57f287" fill-opacity="0.55"/><path d="M1006 -187 V329" stroke="#57f287" stroke-opacity="0.22" stroke-width="4" stroke-linecap="round"/><circle cx="1006" cy="329" r="6" fill="#57f287" fill-opacity="0.55"/><path d="M1092 -24 V348" stroke="#57f287" stroke-opacity="0.22" stroke-width="4" stroke-linecap="round"/><circle cx="1092" cy="348" r="6" fill="#57f287" fill-opacity="0.55"/><path d="M1178 -81 V367" stroke="#57f287" stroke-opacity="0.22" stroke-width="4" stroke-linecap="round"/><circle cx="1178" cy="367" r="6" fill="#57f287" fill-opacity="0.55"/><path d="M1264 -138 V386" stroke="#57f287" stroke-opacity="0.22" stroke-width="4" stroke-linecap="round"/><circle cx="1264" cy="386" r="6" fill="#57f287" fill-opacity="0.55"/><path d="M1350 -195 V125" stroke="#57f287" stroke-opacity="0.22" stroke-width="4" stroke-linecap="round"/><circle cx="1350" cy="125" r="6" fill="#57f287" fill-opacity="0.55"/><path d="M1436 -32 V144" stroke="#57f287" stroke-opacity="0.22" stroke-width="4" stroke-linecap="round"/><circle cx="1436" cy="144" r="6" fill="#57f287" fill-opacity="0.55"/><path d="M1522 -89 V163" stroke="#57f287" stroke-opacity="0.22" stroke-width="4" stroke-linecap="round"/><circle cx="1522" cy="163" r="6" fill="#57f287" fill-opacity="0.55"/><circle cx="800" cy="390" r="120" fill="#0b1220" stroke="#57f287" stroke-opacity="0.25" stroke-width="6"/>
    <path d="M510 590 C560 360, 680 240, 800 240 C920 240, 1040 360, 1090 590 C1010 520, 930 490, 880 482 C860 620, 830 720, 800 720 C770 720, 740 620, 720 482 C670 490, 590 520, 510 590 Z" fill="#081019" stroke="#ffffff" stroke-opacity="0.04"/>
    <path d="M660 410 C700 372, 760 352, 800 352 C840 352, 900 372, 940 410" fill="none" stroke="#1f2937" stroke-width="18" stroke-linecap="round"/>
    <path d="M698 440 h84" stroke="#57f287" stroke-width="10" stroke-linecap="round"/>
    <path d="M818 440 h84" stroke="#57f287" stroke-width="10" stroke-linecap="round"/>
    <path d="M782 440 h36" stroke="#d9f99d" stroke-width="4" stroke-dasharray="7 8" stroke-linecap="round"/>
</svg>
