<svg xmlns="http://www.w3.org/2000/svg" viewBox="0 0 1600 900" role="img" aria-label="Blog cover">
<defs><linearGradient id="g" x1="0" y1="0" x2="0" y2="1"><stop offset="0%" stop-color="#312e81"/><stop offset="45%" stop-color="#ff7c7c"/><stop offset="100%" stop-color="#fecdd3"/></linearGradient></defs><rect width="1600" height="900" fill="url(#g)"/>
<circle cx="800" cy="396" r="160" fill="#fff1c2" fill-opacity="0.82"/><path d="M0 660 C170 590, 340 642, 500 620 C690 590, 850 680, 1030 644 C1210 608, 1370 648, 1600 580 L1600 900 L0 900 Z" fill="#881337"/><path d="M0 720 C240 670, 410 734, 630 694 C860 652, 1100 740, 1600 680 L1600 900 L0 900 Z" fill="#3f1d0f" fill-opacity="0.72"/><ellipse cx="308" cy="150" rx="96" ry="30" fill="#fff7ed" fill-opacity="0.34"/><ellipse cx="388" cy="158" rx="74" ry="22" fill="#fff7ed" fill-opacity="0.28"/><ellipse cx="608" cy="204" rx="96" ry="30" fill="#fff7ed" fill-opacity="0.34"/><ellipse cx="688" cy="212" rx="74" ry="22" fill="#fff7ed" fill-opacity="0.28"/><ellipse cx="908" cy="150" rx="96" ry="30" fill="#fff7ed" fill-opacity="0.34"/><ellipse cx="988" cy="158" rx="74" ry="22" fill="#fff7ed" fill-opacity="0.28"/><ellipse cx="1208" cy="204" rx="96" ry="30" fill="#fff7ed" fill-opacity="0.34"/><ellipse cx="1288" cy="212" rx="74" ry="22" fill="#fff7ed" fill-opacity="0.28"/>
</svg>
