<svg xmlns="http://www.w3.org/2000/svg" viewBox="0 0 1600 900" role="img" aria-label="Blog cover">
<defs><linearGradient id="g" x1="0" y1="0" x2="0" y2="1"><stop offset="0%" stop-color="#bbf7d0"/><stop offset="100%" stop-color="#4ade80"/></linearGradient></defs><rect width="1600" height="900" fill="url(#g)"/>
<circle cx="1260" cy="180" r="84" fill="#fefce8" fill-opacity="0.86"/><path d="M70 900 L124 744 L178 900 Z" fill="#6b4f3b" fill-opacity="0.45"/><path d="M60 774 L124 624 L188 774 Z" fill="#14532d"/><path d="M68 842 L124 698 L180 842 Z" fill="#1f7a46"/><path d="M215 900 L269 713 L323 900 Z" fill="#6b4f3b" fill-opacity="0.45"/><path d="M205 743 L269 593 L333 743 Z" fill="#14532d"/><path d="M213 811 L269 667 L325 811 Z" fill="#1f7a46"/><path d="M360 900 L414 682 L468 900 Z" fill="#6b4f3b" fill-opacity="0.45"/><path d="M350 712 L414 562 L478 712 Z" fill="#14532d"/><path d="M358 780 L414 636 L470 780 Z" fill="#1f7a46"/><path d="M505 900 L559 651 L613 900 Z" fill="#6b4f3b" fill-opacity="0.45"/><path d="M495 681 L559 531 L623 681 Z" fill="#14532d"/><path d="M503 749 L559 605 L615 749 Z" fill="#1f7a46"/><path d="M650 900 L704 620 L758 900 Z" fill="#6b4f3b" fill-opacity="0.45"/><path d="M640 650 L704 500 L768 650 Z" fill="#14532d"/><path d="M648 718 L704 574 L760 718 Z" fill="#1f7a46"/><path d="M795 900 L849 589 L903 900 Z" fill="#6b4f3b" fill-opacity="0.45"/><path d="M785 619 L849 469 L913 619 Z" fill="#14532d"/><path d="M793 687 L849 543 L905 687 Z" fill="#1f7a46"/><path d="M940 900 L994 788 L1048 900 Z" fill="#6b4f3b" fill-opacity="0.45"/><path d="M930 818 L994 668 L1058 818 Z" fill="#14532d"/><path d="M938 886 L994 742 L1050 886 Z" fill="#1f7a46"/><path d="M1085 900 L1139 757 L1193 900 Z" fill="#6b4f3b" fill-opacity="0.45"/><path d="M1075 787 L1139 637 L1203 787 Z" fill="#14532d"/><path d="M1083 855 L1139 711 L1195 855 Z" fill="#1f7a46"/><path d="M1230 900 L1284 726 L1338 900 Z" fill="#6b4f3b" fill-opacity="0.45"/><path d="M1220 756 L1284 606 L1348 756 Z" fill="#14532d"/><path d="M1228 824 L1284 680 L1340 824 Z" fill="#1f7a46"/><path d="M1375 900 L1429 695 L1483 900 Z" fill="#6b4f3b" fill-opacity="0.45"/><path d="M1365 725 L1429 575 L1493 725 Z" fill="#14532d"/><path d="M1373 793 L1429 649 L1485 793 Z" fill="#1f7a46"/><path d="M1520 900 L1574 664 L1628 900 Z" fill="#6b4f3b" fill-opacity="0.45"/><path d="M1510 694 L1574 544 L1638 694 Z" fill="#14532d"/><path d="M1518 762 L1574 618 L1630 762 Z" fill="#1f7a46"/><rect y="700" width="1600" height="200" fill="#0f2f21" fill-opacity="0.42"/><ellipse cx="800" cy="680" rx="520" ry="74" fill="#ffffff" fill-opacity="0.16"/>
</svg>
