<svg xmlns="http://www.w3.org/2000/svg" viewBox="0 0 1600 900" role="img" aria-label="Blog cover">
<defs><linearGradient id="g" x1="0" y1="0" x2="1" y2="1"><stop offset="0%" stop-color="#0f172a"/><stop offset="100%" stop-color="#581c87"/></linearGradient></defs><rect width="1600" height="900" fill="url(#g)"/>
<circle cx="142" cy="102" r="4" fill="#ffffff" fill-opacity="0.75"/><circle cx="255" cy="169" r="2" fill="#ffffff" fill-opacity="0.45"/><circle cx="368" cy="236" r="3" fill="#ffffff" fill-opacity="0.6"/><circle cx="481" cy="303" r="4" fill="#ffffff" fill-opacity="0.75"/><circle cx="594" cy="370" r="2" fill="#ffffff" fill-opacity="0.45"/><circle cx="707" cy="437" r="3" fill="#ffffff" fill-opacity="0.6"/><circle cx="820" cy="504" r="4" fill="#ffffff" fill-opacity="0.75"/><circle cx="933" cy="571" r="2" fill="#ffffff" fill-opacity="0.45"/><circle cx="1046" cy="638" r="3" fill="#ffffff" fill-opacity="0.6"/><circle cx="1159" cy="85" r="4" fill="#ffffff" fill-opacity="0.75"/><circle cx="1272" cy="152" r="2" fill="#ffffff" fill-opacity="0.45"/><circle cx="1385" cy="219" r="3" fill="#ffffff" fill-opacity="0.6"/><circle cx="1498" cy="286" r="4" fill="#ffffff" fill-opacity="0.75"/><circle cx="91" cy="353" r="2" fill="#ffffff" fill-opacity="0.45"/><circle cx="204" cy="420" r="3" fill="#ffffff" fill-opacity="0.6"/><circle cx="317" cy="487" r="4" fill="#ffffff" fill-opacity="0.75"/><circle cx="430" cy="554" r="2" fill="#ffffff" fill-opacity="0.45"/><circle cx="543" cy="621" r="3" fill="#ffffff" fill-opacity="0.6"/><circle cx="656" cy="68" r="4" fill="#ffffff" fill-opacity="0.75"/><circle cx="769" cy="135" r="2" fill="#ffffff" fill-opacity="0.45"/><circle cx="882" cy="202" r="3" fill="#ffffff" fill-opacity="0.6"/><circle cx="995" cy="269" r="4" fill="#ffffff" fill-opacity="0.75"/><circle cx="1108" cy="336" r="2" fill="#ffffff" fill-opacity="0.45"/><circle cx="1221" cy="403" r="3" fill="#ffffff" fill-opacity="0.6"/><circle cx="1334" cy="470" r="4" fill="#ffffff" fill-opacity="0.75"/><circle cx="1447" cy="537" r="2" fill="#ffffff" fill-opacity="0.45"/><circle cx="40" cy="604" r="3" fill="#ffffff" fill-opacity="0.6"/><circle cx="153" cy="51" r="4" fill="#ffffff" fill-opacity="0.75"/><circle cx="266" cy="118" r="2" fill="#ffffff" fill-opacity="0.45"/><circle cx="379" cy="185" r="3" fill="#ffffff" fill-opacity="0.6"/><circle cx="492" cy="252" r="4" fill="#ffffff" fill-opacity="0.75"/><circle cx="605" cy="319" r="2" fill="#ffffff" fill-opacity="0.45"/><circle cx="718" cy="386" r="3" fill="#ffffff" fill-opacity="0.6"/><circle cx="831" cy="453" r="4" fill="#ffffff" fill-opacity="0.75"/><circle cx="944" cy="520" r="2" fill="#ffffff" fill-opacity="0.45"/><circle cx="1057" cy="587" r="3" fill="#ffffff" fill-opacity="0.6"/><circle cx="1170" cy="654" r="4" fill="#ffffff" fill-opacity="0.75"/><circle cx="1283" cy="101" r="2" fill="#ffffff" fill-opacity="0.45"/><circle cx="1396" cy="168" r="3" fill="#ffffff" fill-opacity="0.6"/><circle cx="1509" cy="235" r="4" fill="#ffffff" fill-opacity="0.75"/><circle cx="320" cy="250" r="96" fill="#fb7185" fill-opacity="0.85"/><circle cx="1060" cy="190" r="58" fill="#f9a8d4" fill-opacity="0.9"/><circle cx="1220" cy="500" r="124" fill="#38bdf8" fill-opacity="0.62"/><ellipse cx="1220" cy="500" rx="170" ry="38" fill="none" stroke="#fde68a" stroke-opacity="0.55" stroke-width="10"/><path d="M0 820 C300 740, 620 840, 940 788 C1180 748, 1380 770, 1600 732 L1600 900 L0 900 Z" fill="#020617" fill-opacity="0.72"/>
</svg>
