<svg xmlns="http://www.w3.org/2000/svg" viewBox="0 0 1600 900" role="img" aria-label="Blog cover">
<defs><linearGradient id="bg" x1="0" y1="0" x2="1" y2="1"><stop offset="0%" stop-color="#03130d"/><stop offset="100%" stop-color="#0f2a1f"/></linearGradient></defs><rect width="1600" height="900" fill="url(#bg)"/>
<path d="M60 -142 V174" stroke="#34d399" stroke-opacity="0.22" stroke-width="4" stroke-linecap="round"/><circle cx="60" cy="174" r="6" fill="#34d399" fill-opacity="0.55"/><path d="M146 -199 V193" stroke="#34d399" stroke-opacity="0.22" stroke-width="4" stroke-linecap="round"/><circle cx="146" cy="193" r="6" fill="#34d399" fill-opacity="0.55"/><path d="M232 -36 V212" stroke="#34d399" stroke-opacity="0.22" stroke-width="4" stroke-linecap="round"/><circle cx="232" cy="212" r="6" fill="#34d399" fill-opacity="0.55"/><path d="M318 -93 V231" stroke="#34d399" stroke-opacity="0.22" stroke-width="4" stroke-linecap="round"/><circle cx="318" cy="231" r="6" fill="#34d399" fill-opacity="0.55"/><path d="M404 -150 V250" stroke="#34d399" stroke-opacity="0.22" stroke-width="4" stroke-linecap="round"/><circle cx="404" cy="250" r="6" fill="#34d399" fill-opacity="0.55"/><path d="M490 -207 V269" stroke="#34d399" stroke-opacity="0.22" stroke-width="4" stroke-linecap="round"/><circle cx="490" cy="269" r="6" fill="#34d399" fill-opacity="0.55"/><path d="M576 -44 V288" stroke="#34d399" stroke-opacity="0.22" stroke-width="4" stroke-linecap="round"/><circle cx="576" cy="288" r="6" fill="#34d399" fill-opacity="0.55"/><path d="M662 -101 V307" stroke="#34d399" stroke-opacity="0.22" stroke-width="4" stroke-linecap="round"/><circle cx="662" cy="307" r="6" fill="#34d399" fill-opacity="0.55"/><path d="M748 -158 V326" stroke="#34d399" stroke-opacity="0.22" stroke-width="4" stroke-linecap="round"/><circle cx="748" cy="326" r="6" fill="#34d399" fill-opacity="0.55"/><path d="M834 -215 V345" stroke="#34d399" stroke-opacity="0.22" stroke-width="4" stroke-linecap="round"/><circle cx="834" cy="345" r="6" fill="#34d399" fill-opacity="0.55"/><path d="M920 -52 V364" stroke="#34d399" stroke-opacity="0.22" stroke-width="4" stroke-linecap="round"/><circle cx="920" cy="364" r="6" fill="#34d399" fill-opacity="0.55"/><path d="M1006 -109 V383" stroke="#34d399" stroke-opacity="0.22" stroke-width="4" stroke-linecap="round"/><circle cx="1006" cy="383" r="6" fill="#34d399" fill-opacity="0.55"/><path d="M1092 -166 V122" stroke="#34d399" stroke-opacity="0.22" stroke-width="4" stroke-linecap="round"/><circle cx="1092" cy="122" r="6" fill="#34d399" fill-opacity="0.55"/><path d="M1178 -3 V141" stroke="#34d399" stroke-opacity="0.22" stroke-width="4" stroke-linecap="round"/><circle cx="1178" cy="141" r="6" fill="#34d399" fill-opacity="0.55"/><path d="M1264 -60 V160" stroke="#34d399" stroke-opacity="0.22" stroke-width="4" stroke-linecap="round"/><circle cx="1264" cy="160" r="6" fill="#34d399" fill-opacity="0.55"/><path d="M1350 -117 V179" stroke="#34d399" stroke-opacity="0.22" stroke-width="4" stroke-linecap="round"/><circle cx="1350" cy="179" r="6" fill="#34d399" fill-opacity="0.55"/><path d="M1436 -174 V198" stroke="#34d399" stroke-opacity="0.22" stroke-width="4" stroke-linecap="round"/><circle cx="1436" cy="198" r="6" fill="#34d399" fill-opacity="0.55"/><path d="M1522 -11 V217" stroke="#34d399" stroke-opacity="0.22" stroke-width="4" stroke-linecap="round"/><circle cx="1522" cy="217" r="6" fill="#34d399" fill-opacity="0.55"/><circle cx="800" cy="390" r="120" fill="#0b1220" stroke="#34d399" stroke-opacity="0.25" stroke-width="6"/>
    <path d="M510 590 C560 360, 680 240, 800 240 C920 240, 1040 360, 1090 590 C1010 520, 930 490, 880 482 C860 620, 830 720, 800 720 C770 720, 740 620, 720 482 C670 490, 590 520, 510 590 Z" fill="#081019" stroke="#ffffff" stroke-opacity="0.04"/>
    <path d="M660 410 C700 372, 760 352, 800 352 C840 352, 900 372, 940 410" fill="none" stroke="#1f2937" stroke-width="18" stroke-linecap="round"/>
    <path d="M698 440 h84" stroke="#34d399" stroke-width="10" stroke-linecap="round"/>
    <path d="M818 440 h84" stroke="#34d399" stroke-width="10" stroke-linecap="round"/>
    <path d="M782 440 h36" stroke="#d9f99d" stroke-width="4" stroke-dasharray="7 8" stroke-linecap="round"/>
</svg>
