<svg xmlns="http://www.w3.org/2000/svg" viewBox="0 0 1600 900" role="img" aria-label="Blog cover">
<defs><linearGradient id="g" x1="0" y1="0" x2="0" y2="1"><stop offset="0%" stop-color="#ccfbf1"/><stop offset="100%" stop-color="#2dd4bf"/></linearGradient></defs><rect width="1600" height="900" fill="url(#g)"/>
<circle cx="1260" cy="180" r="84" fill="#fefce8" fill-opacity="0.86"/><path d="M70 900 L124 688 L178 900 Z" fill="#6b4f3b" fill-opacity="0.45"/><path d="M60 718 L124 568 L188 718 Z" fill="#134e4a"/><path d="M68 786 L124 642 L180 786 Z" fill="#1f7a46"/><path d="M215 900 L269 657 L323 900 Z" fill="#6b4f3b" fill-opacity="0.45"/><path d="M205 687 L269 537 L333 687 Z" fill="#134e4a"/><path d="M213 755 L269 611 L325 755 Z" fill="#1f7a46"/><path d="M360 900 L414 626 L468 900 Z" fill="#6b4f3b" fill-opacity="0.45"/><path d="M350 656 L414 506 L478 656 Z" fill="#134e4a"/><path d="M358 724 L414 580 L470 724 Z" fill="#1f7a46"/><path d="M505 900 L559 595 L613 900 Z" fill="#6b4f3b" fill-opacity="0.45"/><path d="M495 625 L559 475 L623 625 Z" fill="#134e4a"/><path d="M503 693 L559 549 L615 693 Z" fill="#1f7a46"/><path d="M650 900 L704 794 L758 900 Z" fill="#6b4f3b" fill-opacity="0.45"/><path d="M640 824 L704 674 L768 824 Z" fill="#134e4a"/><path d="M648 892 L704 748 L760 892 Z" fill="#1f7a46"/><path d="M795 900 L849 763 L903 900 Z" fill="#6b4f3b" fill-opacity="0.45"/><path d="M785 793 L849 643 L913 793 Z" fill="#134e4a"/><path d="M793 861 L849 717 L905 861 Z" fill="#1f7a46"/><path d="M940 900 L994 732 L1048 900 Z" fill="#6b4f3b" fill-opacity="0.45"/><path d="M930 762 L994 612 L1058 762 Z" fill="#134e4a"/><path d="M938 830 L994 686 L1050 830 Z" fill="#1f7a46"/><path d="M1085 900 L1139 701 L1193 900 Z" fill="#6b4f3b" fill-opacity="0.45"/><path d="M1075 731 L1139 581 L1203 731 Z" fill="#134e4a"/><path d="M1083 799 L1139 655 L1195 799 Z" fill="#1f7a46"/><path d="M1230 900 L1284 670 L1338 900 Z" fill="#6b4f3b" fill-opacity="0.45"/><path d="M1220 700 L1284 550 L1348 700 Z" fill="#134e4a"/><path d="M1228 768 L1284 624 L1340 768 Z" fill="#1f7a46"/><path d="M1375 900 L1429 639 L1483 900 Z" fill="#6b4f3b" fill-opacity="0.45"/><path d="M1365 669 L1429 519 L1493 669 Z" fill="#134e4a"/><path d="M1373 737 L1429 593 L1485 737 Z" fill="#1f7a46"/><path d="M1520 900 L1574 608 L1628 900 Z" fill="#6b4f3b" fill-opacity="0.45"/><path d="M1510 638 L1574 488 L1638 638 Z" fill="#134e4a"/><path d="M1518 706 L1574 562 L1630 706 Z" fill="#1f7a46"/><rect y="700" width="1600" height="200" fill="#0f2f21" fill-opacity="0.42"/><ellipse cx="800" cy="680" rx="520" ry="74" fill="#ffffff" fill-opacity="0.16"/>
</svg>
