<svg xmlns="http://www.w3.org/2000/svg" viewBox="0 0 1600 900" role="img" aria-label="Blog cover">
<defs><linearGradient id="g" x1="0" y1="0" x2="0" y2="1"><stop offset="0%" stop-color="#dcfce7"/><stop offset="100%" stop-color="#86efac"/></linearGradient></defs><rect width="1600" height="900" fill="url(#g)"/>
<circle cx="1260" cy="180" r="84" fill="#fefce8" fill-opacity="0.86"/><path d="M70 900 L124 772 L178 900 Z" fill="#6b4f3b" fill-opacity="0.45"/><path d="M60 802 L124 652 L188 802 Z" fill="#166534"/><path d="M68 870 L124 726 L180 870 Z" fill="#1f7a46"/><path d="M215 900 L269 741 L323 900 Z" fill="#6b4f3b" fill-opacity="0.45"/><path d="M205 771 L269 621 L333 771 Z" fill="#166534"/><path d="M213 839 L269 695 L325 839 Z" fill="#1f7a46"/><path d="M360 900 L414 710 L468 900 Z" fill="#6b4f3b" fill-opacity="0.45"/><path d="M350 740 L414 590 L478 740 Z" fill="#166534"/><path d="M358 808 L414 664 L470 808 Z" fill="#1f7a46"/><path d="M505 900 L559 679 L613 900 Z" fill="#6b4f3b" fill-opacity="0.45"/><path d="M495 709 L559 559 L623 709 Z" fill="#166534"/><path d="M503 777 L559 633 L615 777 Z" fill="#1f7a46"/><path d="M650 900 L704 648 L758 900 Z" fill="#6b4f3b" fill-opacity="0.45"/><path d="M640 678 L704 528 L768 678 Z" fill="#166534"/><path d="M648 746 L704 602 L760 746 Z" fill="#1f7a46"/><path d="M795 900 L849 617 L903 900 Z" fill="#6b4f3b" fill-opacity="0.45"/><path d="M785 647 L849 497 L913 647 Z" fill="#166534"/><path d="M793 715 L849 571 L905 715 Z" fill="#1f7a46"/><path d="M940 900 L994 586 L1048 900 Z" fill="#6b4f3b" fill-opacity="0.45"/><path d="M930 616 L994 466 L1058 616 Z" fill="#166534"/><path d="M938 684 L994 540 L1050 684 Z" fill="#1f7a46"/><path d="M1085 900 L1139 785 L1193 900 Z" fill="#6b4f3b" fill-opacity="0.45"/><path d="M1075 815 L1139 665 L1203 815 Z" fill="#166534"/><path d="M1083 883 L1139 739 L1195 883 Z" fill="#1f7a46"/><path d="M1230 900 L1284 754 L1338 900 Z" fill="#6b4f3b" fill-opacity="0.45"/><path d="M1220 784 L1284 634 L1348 784 Z" fill="#166534"/><path d="M1228 852 L1284 708 L1340 852 Z" fill="#1f7a46"/><path d="M1375 900 L1429 723 L1483 900 Z" fill="#6b4f3b" fill-opacity="0.45"/><path d="M1365 753 L1429 603 L1493 753 Z" fill="#166534"/><path d="M1373 821 L1429 677 L1485 821 Z" fill="#1f7a46"/><path d="M1520 900 L1574 692 L1628 900 Z" fill="#6b4f3b" fill-opacity="0.45"/><path d="M1510 722 L1574 572 L1638 722 Z" fill="#166534"/><path d="M1518 790 L1574 646 L1630 790 Z" fill="#1f7a46"/><rect y="700" width="1600" height="200" fill="#0f2f21" fill-opacity="0.42"/><ellipse cx="800" cy="680" rx="520" ry="74" fill="#ffffff" fill-opacity="0.16"/>
</svg>
