<svg xmlns="http://www.w3.org/2000/svg" viewBox="0 0 1600 900" role="img" aria-label="Blog cover">
<defs><linearGradient id="g" x1="0" y1="0" x2="0" y2="1"><stop offset="0%" stop-color="#2563eb"/><stop offset="100%" stop-color="#0f172a"/></linearGradient></defs><rect width="1600" height="900" fill="url(#g)"/>
<circle cx="800" cy="260" r="180" fill="#f59e0b" fill-opacity="0.86"/><rect x="560" y="192" width="480" height="10" fill="#0f172a" fill-opacity="0.4"/><rect x="560" y="228" width="480" height="10" fill="#0f172a" fill-opacity="0.4"/><rect x="560" y="264" width="480" height="10" fill="#0f172a" fill-opacity="0.4"/><rect x="560" y="300" width="480" height="10" fill="#0f172a" fill-opacity="0.4"/><rect x="560" y="336" width="480" height="10" fill="#0f172a" fill-opacity="0.4"/><rect x="560" y="372" width="480" height="10" fill="#0f172a" fill-opacity="0.4"/><path d="M0 560 H1600" stroke="#f472b6" stroke-opacity="0.22" stroke-width="2"/><path d="M0 584 H1600" stroke="#f472b6" stroke-opacity="0.22" stroke-width="2"/><path d="M0 608 H1600" stroke="#f472b6" stroke-opacity="0.22" stroke-width="2"/><path d="M0 632 H1600" stroke="#f472b6" stroke-opacity="0.22" stroke-width="2"/><path d="M0 656 H1600" stroke="#f472b6" stroke-opacity="0.22" stroke-width="2"/><path d="M0 680 H1600" stroke="#f472b6" stroke-opacity="0.22" stroke-width="2"/><path d="M0 704 H1600" stroke="#f472b6" stroke-opacity="0.22" stroke-width="2"/><path d="M0 728 H1600" stroke="#f472b6" stroke-opacity="0.22" stroke-width="2"/><path d="M0 752 H1600" stroke="#f472b6" stroke-opacity="0.22" stroke-width="2"/><path d="M0 776 H1600" stroke="#f472b6" stroke-opacity="0.22" stroke-width="2"/><path d="M0 800 H1600" stroke="#f472b6" stroke-opacity="0.22" stroke-width="2"/><path d="M0 824 H1600" stroke="#f472b6" stroke-opacity="0.22" stroke-width="2"/><path d="M0 848 H1600" stroke="#f472b6" stroke-opacity="0.22" stroke-width="2"/><path d="M800 540 L80 900" stroke="#7dd3fc" stroke-opacity="0.22" stroke-width="2"/><path d="M800 540 L200 900" stroke="#7dd3fc" stroke-opacity="0.22" stroke-width="2"/><path d="M800 540 L320 900" stroke="#7dd3fc" stroke-opacity="0.22" stroke-width="2"/><path d="M800 540 L440 900" stroke="#7dd3fc" stroke-opacity="0.22" stroke-width="2"/><path d="M800 540 L560 900" stroke="#7dd3fc" stroke-opacity="0.22" stroke-width="2"/><path d="M800 540 L680 900" stroke="#7dd3fc" stroke-opacity="0.22" stroke-width="2"/><path d="M800 540 L800 900" stroke="#7dd3fc" stroke-opacity="0.22" stroke-width="2"/><path d="M800 540 L920 900" stroke="#7dd3fc" stroke-opacity="0.22" stroke-width="2"/><path d="M800 540 L1040 900" stroke="#7dd3fc" stroke-opacity="0.22" stroke-width="2"/><path d="M800 540 L1160 900" stroke="#7dd3fc" stroke-opacity="0.22" stroke-width="2"/><path d="M800 540 L1280 900" stroke="#7dd3fc" stroke-opacity="0.22" stroke-width="2"/><path d="M800 540 L1400 900" stroke="#7dd3fc" stroke-opacity="0.22" stroke-width="2"/><path d="M0 700 C220 620, 420 706, 640 672 C860 638, 1040 724, 1600 650 L1600 900 L0 900 Z" fill="#0a0f1f"/><path d="M220 640 l-24 180" stroke="#f59e0b" stroke-width="8" stroke-linecap="round"/><path d="M198 680 l-64 -92" stroke="#111827" stroke-width="8" stroke-linecap="round"/><path d="M196 736 l-82 -72" stroke="#111827" stroke-width="8" stroke-linecap="round"/>
</svg>
