<svg xmlns="http://www.w3.org/2000/svg" viewBox="0 0 1600 900" role="img" aria-label="Blog cover">
<defs><linearGradient id="bg" x1="0" y1="0" x2="1" y2="1"><stop offset="0%" stop-color="#050816"/><stop offset="100%" stop-color="#1e293b"/></linearGradient></defs><rect width="1600" height="900" fill="url(#bg)"/>
<path d="M60 -64 V228" stroke="#22d3ee" stroke-opacity="0.22" stroke-width="4" stroke-linecap="round"/><circle cx="60" cy="228" r="6" fill="#22d3ee" fill-opacity="0.55"/><path d="M146 -121 V247" stroke="#22d3ee" stroke-opacity="0.22" stroke-width="4" stroke-linecap="round"/><circle cx="146" cy="247" r="6" fill="#22d3ee" fill-opacity="0.55"/><path d="M232 -178 V266" stroke="#22d3ee" stroke-opacity="0.22" stroke-width="4" stroke-linecap="round"/><circle cx="232" cy="266" r="6" fill="#22d3ee" fill-opacity="0.55"/><path d="M318 -15 V285" stroke="#22d3ee" stroke-opacity="0.22" stroke-width="4" stroke-linecap="round"/><circle cx="318" cy="285" r="6" fill="#22d3ee" fill-opacity="0.55"/><path d="M404 -72 V304" stroke="#22d3ee" stroke-opacity="0.22" stroke-width="4" stroke-linecap="round"/><circle cx="404" cy="304" r="6" fill="#22d3ee" fill-opacity="0.55"/><path d="M490 -129 V323" stroke="#22d3ee" stroke-opacity="0.22" stroke-width="4" stroke-linecap="round"/><circle cx="490" cy="323" r="6" fill="#22d3ee" fill-opacity="0.55"/><path d="M576 -186 V342" stroke="#22d3ee" stroke-opacity="0.22" stroke-width="4" stroke-linecap="round"/><circle cx="576" cy="342" r="6" fill="#22d3ee" fill-opacity="0.55"/><path d="M662 -23 V361" stroke="#22d3ee" stroke-opacity="0.22" stroke-width="4" stroke-linecap="round"/><circle cx="662" cy="361" r="6" fill="#22d3ee" fill-opacity="0.55"/><path d="M748 -80 V380" stroke="#22d3ee" stroke-opacity="0.22" stroke-width="4" stroke-linecap="round"/><circle cx="748" cy="380" r="6" fill="#22d3ee" fill-opacity="0.55"/><path d="M834 -137 V399" stroke="#22d3ee" stroke-opacity="0.22" stroke-width="4" stroke-linecap="round"/><circle cx="834" cy="399" r="6" fill="#22d3ee" fill-opacity="0.55"/><path d="M920 -194 V138" stroke="#22d3ee" stroke-opacity="0.22" stroke-width="4" stroke-linecap="round"/><circle cx="920" cy="138" r="6" fill="#22d3ee" fill-opacity="0.55"/><path d="M1006 -31 V157" stroke="#22d3ee" stroke-opacity="0.22" stroke-width="4" stroke-linecap="round"/><circle cx="1006" cy="157" r="6" fill="#22d3ee" fill-opacity="0.55"/><path d="M1092 -88 V176" stroke="#22d3ee" stroke-opacity="0.22" stroke-width="4" stroke-linecap="round"/><circle cx="1092" cy="176" r="6" fill="#22d3ee" fill-opacity="0.55"/><path d="M1178 -145 V195" stroke="#22d3ee" stroke-opacity="0.22" stroke-width="4" stroke-linecap="round"/><circle cx="1178" cy="195" r="6" fill="#22d3ee" fill-opacity="0.55"/><path d="M1264 -202 V214" stroke="#22d3ee" stroke-opacity="0.22" stroke-width="4" stroke-linecap="round"/><circle cx="1264" cy="214" r="6" fill="#22d3ee" fill-opacity="0.55"/><path d="M1350 -39 V233" stroke="#22d3ee" stroke-opacity="0.22" stroke-width="4" stroke-linecap="round"/><circle cx="1350" cy="233" r="6" fill="#22d3ee" fill-opacity="0.55"/><path d="M1436 -96 V252" stroke="#22d3ee" stroke-opacity="0.22" stroke-width="4" stroke-linecap="round"/><circle cx="1436" cy="252" r="6" fill="#22d3ee" fill-opacity="0.55"/><path d="M1522 -153 V271" stroke="#22d3ee" stroke-opacity="0.22" stroke-width="4" stroke-linecap="round"/><circle cx="1522" cy="271" r="6" fill="#22d3ee" fill-opacity="0.55"/><circle cx="800" cy="390" r="120" fill="#0b1220" stroke="#22d3ee" stroke-opacity="0.25" stroke-width="6"/>
    <path d="M510 590 C560 360, 680 240, 800 240 C920 240, 1040 360, 1090 590 C1010 520, 930 490, 880 482 C860 620, 830 720, 800 720 C770 720, 740 620, 720 482 C670 490, 590 520, 510 590 Z" fill="#081019" stroke="#ffffff" stroke-opacity="0.04"/>
    <path d="M660 410 C700 372, 760 352, 800 352 C840 352, 900 372, 940 410" fill="none" stroke="#1f2937" stroke-width="18" stroke-linecap="round"/>
    <path d="M698 440 h84" stroke="#22d3ee" stroke-width="10" stroke-linecap="round"/>
    <path d="M818 440 h84" stroke="#22d3ee" stroke-width="10" stroke-linecap="round"/>
    <path d="M782 440 h36" stroke="#d9f99d" stroke-width="4" stroke-dasharray="7 8" stroke-linecap="round"/>
</svg>
