<svg xmlns="http://www.w3.org/2000/svg" viewBox="0 0 1600 900" role="img" aria-label="Blog cover">
<defs><linearGradient id="g" x1="0" y1="0" x2="0" y2="1"><stop offset="0%" stop-color="#312e81"/><stop offset="45%" stop-color="#f97316"/><stop offset="100%" stop-color="#fca5a5"/></linearGradient></defs><rect width="1600" height="900" fill="url(#g)"/>
<circle cx="800" cy="360" r="160" fill="#fff1c2" fill-opacity="0.82"/><path d="M0 660 C170 590, 340 642, 500 620 C690 590, 850 680, 1030 644 C1210 608, 1370 648, 1600 580 L1600 900 L0 900 Z" fill="#7c2d12"/><path d="M0 720 C240 670, 410 734, 630 694 C860 652, 1100 740, 1600 680 L1600 900 L0 900 Z" fill="#3f1d0f" fill-opacity="0.72"/><ellipse cx="260" cy="150" rx="96" ry="30" fill="#fff7ed" fill-opacity="0.34"/><ellipse cx="340" cy="158" rx="74" ry="22" fill="#fff7ed" fill-opacity="0.28"/><ellipse cx="560" cy="204" rx="96" ry="30" fill="#fff7ed" fill-opacity="0.34"/><ellipse cx="640" cy="212" rx="74" ry="22" fill="#fff7ed" fill-opacity="0.28"/><ellipse cx="860" cy="150" rx="96" ry="30" fill="#fff7ed" fill-opacity="0.34"/><ellipse cx="940" cy="158" rx="74" ry="22" fill="#fff7ed" fill-opacity="0.28"/><ellipse cx="1160" cy="204" rx="96" ry="30" fill="#fff7ed" fill-opacity="0.34"/><ellipse cx="1240" cy="212" rx="74" ry="22" fill="#fff7ed" fill-opacity="0.28"/>
</svg>
