<svg xmlns="http://www.w3.org/2000/svg" viewBox="0 0 512 512" role="img" aria-label="Cute round face eating watermelon avatar">
  <defs>
    <linearGradient id="bg" x1="0%" y1="0%" x2="100%" y2="100%">
      <stop offset="0%" stop-color="#f2fbf7"/>
      <stop offset="55%" stop-color="#dff3ea"/>
      <stop offset="100%" stop-color="#cce9dd"/>
    </linearGradient>
    <linearGradient id="shirt" x1="0%" y1="0%" x2="100%" y2="100%">
      <stop offset="0%" stop-color="#35515b"/>
      <stop offset="100%" stop-color="#21353d"/>
    </linearGradient>
    <linearGradient id="melon" x1="0%" y1="0%" x2="100%" y2="100%">
      <stop offset="0%" stop-color="#ff7f8f"/>
      <stop offset="100%" stop-color="#ff5870"/>
    </linearGradient>
  </defs>

  <rect width="512" height="512" rx="96" fill="url(#bg)"/>
  <circle cx="112" cy="110" r="70" fill="#ffffff" fill-opacity="0.38"/>
  <circle cx="412" cy="92" r="52" fill="#ffffff" fill-opacity="0.32"/>
  <ellipse cx="256" cy="446" rx="142" ry="24" fill="#8db5a6" fill-opacity="0.16"/>

  <path d="M150 382c10-84 62-130 106-130 46 0 98 46 106 130-32 28-70 40-106 40-38 0-76-12-106-40z" fill="url(#shirt)"/>

  <g>
    <circle cx="256" cy="208" r="92" fill="#ffe5ca"/>
    <path d="M170 188c4-56 44-92 94-92 44 0 82 30 92 78-16-8-34-12-52-12-22 0-40 6-56 14-20 10-38 14-78 12z" fill="#2f3a42"/>
    <path d="M176 158c12-18 36-32 58-32 26 0 48 10 68 28 6-6 18-10 28-10 22 0 36 12 42 26-14-6-30-6-42-2-10-10-18-16-28-20-10 0-18 4-24 10-22-10-36-12-52-6-18 0-34 2-50 6z" fill="#2f3a42"/>
    <circle cx="222" cy="214" r="7" fill="#24343a"/>
    <circle cx="290" cy="214" r="7" fill="#24343a"/>
    <path d="M237 254c12 10 26 10 38 0" fill="none" stroke="#de9488" stroke-width="4" stroke-linecap="round"/>
    <circle cx="196" cy="242" r="12" fill="#ffbeb8" fill-opacity="0.55"/>
    <circle cx="316" cy="242" r="12" fill="#ffbeb8" fill-opacity="0.55"/>
  </g>

  <g>
    <path d="M162 306c22 12 38 30 50 52-26 12-52 14-76 6 4-22 10-40 26-58z" fill="#ffe5ca"/>
    <path d="M350 306c-22 12-38 30-50 52 26 12 52 14 76 6-4-22-10-40-26-58z" fill="#ffe5ca"/>
  </g>

  <g transform="translate(112 286)">
    <path d="M20 78c28-52 86-82 144-82s116 30 144 82c-30 34-82 56-144 56s-114-22-144-56z" fill="#2da061"/>
    <path d="M34 74c26-40 74-64 130-64s104 24 130 64c-34 26-78 40-130 40s-96-14-130-40z" fill="url(#melon)"/>
    <path d="M48 78c32 16 72 24 116 24 50 0 92-10 128-28-26 30-74 50-128 50-48 0-90-14-122-38z" fill="#fff4e6"/>
    <ellipse cx="96" cy="58" rx="4" ry="7" fill="#2c2325"/>
    <ellipse cx="132" cy="48" rx="4" ry="7" fill="#2c2325"/>
    <ellipse cx="172" cy="58" rx="4" ry="7" fill="#2c2325"/>
    <ellipse cx="210" cy="48" rx="4" ry="7" fill="#2c2325"/>
  </g>

  <g stroke="#ffffff" stroke-opacity="0.45" fill="none" stroke-linecap="round">
    <path d="M88 402c30 16 66 24 100 24" stroke-width="4"/>
    <path d="M328 84c20 6 38 16 54 28" stroke-width="4"/>
    <path d="M370 400c18-8 34-18 48-34" stroke-width="4"/>
  </g>
</svg>
