<svg xmlns="http://www.w3.org/2000/svg" viewBox="0 0 1600 900" role="img" aria-label="Orbit background">
  <defs>
    <linearGradient id="bg" x1="0%" y1="0%" x2="100%" y2="100%">
      <stop offset="0%" stop-color="#1d1029"/>
      <stop offset="100%" stop-color="#40213a"/>
    </linearGradient>
    <radialGradient id="planet" cx="50%" cy="50%" r="50%">
      <stop offset="0%" stop-color="#ffd5b0"/>
      <stop offset="100%" stop-color="#f1865e"/>
    </radialGradient>
  </defs>
  <rect width="1600" height="900" fill="url(#bg)"/>
  <circle cx="1158" cy="286" r="138" fill="url(#planet)"/>
  <circle cx="1158" cy="286" r="214" fill="#ffcf9d" fill-opacity="0.12"/>
  <ellipse cx="1158" cy="286" rx="300" ry="78" fill="none" stroke="#ffd5b0" stroke-opacity="0.3" stroke-width="10"/>
  <ellipse cx="1158" cy="286" rx="372" ry="118" fill="none" stroke="#ff9d7b" stroke-opacity="0.16" stroke-width="6"/>
  <circle cx="322" cy="214" r="5" fill="#ffe8d5"/>
  <circle cx="488" cy="146" r="4" fill="#ffe8d5"/>
  <circle cx="648" cy="210" r="5" fill="#ffe8d5"/>
  <circle cx="742" cy="120" r="3" fill="#ffe8d5"/>
  <path d="M0 692C184 616 344 606 522 642C690 676 834 754 994 746C1152 738 1266 650 1416 634C1484 626 1546 630 1600 646V900H0Z" fill="#180d20" fill-opacity="0.74"/>
  <path d="M0 764C190 704 382 700 566 742C714 776 860 846 1026 844C1206 842 1332 764 1478 748C1520 744 1560 744 1600 748V900H0Z" fill="#2b1730" fill-opacity="0.82"/>
</svg>
