<svg xmlns="http://www.w3.org/2000/svg" viewBox="0 0 1600 900" role="img" aria-label="CTF cover 6">
  <defs>
    <linearGradient id="bg" x1="0%" y1="0%" x2="100%" y2="100%">
      <stop offset="0%" stop-color="#09131f"/>
      <stop offset="100%" stop-color="#14324b"/>
    </linearGradient>
    <pattern id="grid" width="64" height="64" patternUnits="userSpaceOnUse">
      <path d="M64 0H0V64" fill="none" stroke="rgba(122,247,255,0.12)" stroke-width="1.5"/>
    </pattern>
  </defs>
  <rect width="1600" height="900" fill="url(#bg)"/>
  <rect width="1600" height="900" fill="url(#grid)"/>
  <rect x="47" y="248" width="18" height="478" fill="rgba(46,230,166,0.1)"/><rect x="156" y="236" width="18" height="462" fill="rgba(46,230,166,0.1)"/><rect x="228" y="92" width="18" height="412" fill="rgba(46,230,166,0.1)"/><rect x="335" y="84" width="18" height="625" fill="rgba(46,230,166,0.1)"/><rect x="445" y="185" width="18" height="652" fill="rgba(46,230,166,0.1)"/><rect x="527" y="191" width="18" height="344" fill="rgba(46,230,166,0.1)"/><rect x="609" y="93" width="18" height="293" fill="rgba(46,230,166,0.1)"/><rect x="716" y="173" width="18" height="304" fill="rgba(46,230,166,0.1)"/><rect x="812" y="127" width="18" height="607" fill="rgba(46,230,166,0.1)"/><rect x="890" y="85" width="18" height="662" fill="rgba(46,230,166,0.1)"/><rect x="1011" y="242" width="18" height="292" fill="rgba(46,230,166,0.1)"/><rect x="1109" y="138" width="18" height="658" fill="rgba(46,230,166,0.1)"/><rect x="1187" y="132" width="18" height="451" fill="rgba(46,230,166,0.1)"/><rect x="1295" y="241" width="18" height="405" fill="rgba(46,230,166,0.1)"/><rect x="1370" y="255" width="18" height="688" fill="rgba(46,230,166,0.1)"/><rect x="1462" y="151" width="18" height="501" fill="rgba(46,230,166,0.1)"/>
  <rect x="65" y="111" width="93" height="115" rx="18" fill="rgba(14,31,46,0.46)" stroke="rgba(122,247,255,0.26)"/><rect x="290" y="537" width="135" height="138" rx="18" fill="rgba(14,31,46,0.46)" stroke="rgba(122,247,255,0.26)"/><rect x="520" y="95" width="72" height="143" rx="18" fill="rgba(14,31,46,0.46)" stroke="rgba(122,247,255,0.26)"/><rect x="730" y="444" width="147" height="101" rx="18" fill="rgba(14,31,46,0.46)" stroke="rgba(122,247,255,0.26)"/><rect x="928" y="501" width="100" height="135" rx="18" fill="rgba(14,31,46,0.46)" stroke="rgba(122,247,255,0.26)"/><rect x="1116" y="597" width="120" height="124" rx="18" fill="rgba(14,31,46,0.46)" stroke="rgba(122,247,255,0.26)"/><rect x="1360" y="565" width="89" height="125" rx="18" fill="rgba(14,31,46,0.46)" stroke="rgba(122,247,255,0.26)"/>
  <path d="M 468 290 L 783 468" stroke="rgba(122,247,255,0.2)" stroke-width="3"/><path d="M 963 514 L 783 468" stroke="rgba(122,247,255,0.2)" stroke-width="3"/><path d="M 783 468 L 1066 719" stroke="rgba(122,247,255,0.2)" stroke-width="3"/><path d="M 398 731 L 880 667" stroke="rgba(122,247,255,0.2)" stroke-width="3"/><path d="M 951 264 L 351 634" stroke="rgba(122,247,255,0.2)" stroke-width="3"/><path d="M 351 634 L 1066 719" stroke="rgba(122,247,255,0.2)" stroke-width="3"/><path d="M 1066 719 L 880 667" stroke="rgba(122,247,255,0.2)" stroke-width="3"/><path d="M 880 667 L 211 638" stroke="rgba(122,247,255,0.2)" stroke-width="3"/><path d="M 211 638 L 468 290" stroke="rgba(122,247,255,0.2)" stroke-width="3"/><path d="M 1007 444 L 468 290" stroke="rgba(122,247,255,0.2)" stroke-width="3"/><path d="M 181 344 L 468 290" stroke="rgba(122,247,255,0.2)" stroke-width="3"/>
  <circle cx="468" cy="290" r="8" fill="#2ee6a6" fill-opacity="0.9"/><circle cx="468" cy="290" r="20" fill="#7af7ff" fill-opacity="0.10"/><circle cx="963" cy="514" r="8" fill="#2ee6a6" fill-opacity="0.9"/><circle cx="963" cy="514" r="20" fill="#7af7ff" fill-opacity="0.10"/><circle cx="783" cy="468" r="8" fill="#2ee6a6" fill-opacity="0.9"/><circle cx="783" cy="468" r="20" fill="#7af7ff" fill-opacity="0.10"/><circle cx="398" cy="731" r="8" fill="#2ee6a6" fill-opacity="0.9"/><circle cx="398" cy="731" r="20" fill="#7af7ff" fill-opacity="0.10"/><circle cx="951" cy="264" r="8" fill="#2ee6a6" fill-opacity="0.9"/><circle cx="951" cy="264" r="20" fill="#7af7ff" fill-opacity="0.10"/><circle cx="351" cy="634" r="8" fill="#2ee6a6" fill-opacity="0.9"/><circle cx="351" cy="634" r="20" fill="#7af7ff" fill-opacity="0.10"/><circle cx="1066" cy="719" r="8" fill="#2ee6a6" fill-opacity="0.9"/><circle cx="1066" cy="719" r="20" fill="#7af7ff" fill-opacity="0.10"/><circle cx="880" cy="667" r="8" fill="#2ee6a6" fill-opacity="0.9"/><circle cx="880" cy="667" r="20" fill="#7af7ff" fill-opacity="0.10"/><circle cx="211" cy="638" r="8" fill="#2ee6a6" fill-opacity="0.9"/><circle cx="211" cy="638" r="20" fill="#7af7ff" fill-opacity="0.10"/><circle cx="1007" cy="444" r="8" fill="#2ee6a6" fill-opacity="0.9"/><circle cx="1007" cy="444" r="20" fill="#7af7ff" fill-opacity="0.10"/><circle cx="181" cy="344" r="8" fill="#2ee6a6" fill-opacity="0.9"/><circle cx="181" cy="344" r="20" fill="#7af7ff" fill-opacity="0.10"/><circle cx="1309" cy="510" r="8" fill="#2ee6a6" fill-opacity="0.9"/><circle cx="1309" cy="510" r="20" fill="#7af7ff" fill-opacity="0.10"/>
  <path d="M0 760L220 682L420 714L640 618L842 680L1080 570L1344 640L1600 540V900H0Z" fill="rgba(14,31,46,0.86)"/>
</svg>