<svg xmlns="http://www.w3.org/2000/svg" viewBox="0 0 1600 900" role="img" aria-label="CTF cover 5">
  <defs>
    <linearGradient id="bg" x1="0%" y1="0%" x2="100%" y2="100%">
      <stop offset="0%" stop-color="#0b0f19"/>
      <stop offset="100%" stop-color="#162033"/>
    </linearGradient>
    <pattern id="grid" width="64" height="64" patternUnits="userSpaceOnUse">
      <path d="M64 0H0V64" fill="none" stroke="rgba(142,202,230,0.12)" stroke-width="1.5"/>
    </pattern>
  </defs>
  <rect width="1600" height="900" fill="url(#bg)"/>
  <rect width="1600" height="900" fill="url(#grid)"/>
  <rect x="57" y="260" width="18" height="334" fill="rgba(255,183,3,0.1)"/><rect x="137" y="101" width="18" height="695" fill="rgba(255,183,3,0.1)"/><rect x="254" y="228" width="18" height="412" fill="rgba(255,183,3,0.1)"/><rect x="341" y="156" width="18" height="568" fill="rgba(255,183,3,0.1)"/><rect x="431" y="179" width="18" height="674" fill="rgba(255,183,3,0.1)"/><rect x="522" y="168" width="18" height="618" fill="rgba(255,183,3,0.1)"/><rect x="620" y="86" width="18" height="447" fill="rgba(255,183,3,0.1)"/><rect x="710" y="221" width="18" height="268" fill="rgba(255,183,3,0.1)"/><rect x="799" y="130" width="18" height="650" fill="rgba(255,183,3,0.1)"/><rect x="892" y="98" width="18" height="432" fill="rgba(255,183,3,0.1)"/><rect x="1005" y="109" width="18" height="645" fill="rgba(255,183,3,0.1)"/><rect x="1084" y="87" width="18" height="385" fill="rgba(255,183,3,0.1)"/><rect x="1200" y="229" width="18" height="487" fill="rgba(255,183,3,0.1)"/><rect x="1270" y="99" width="18" height="516" fill="rgba(255,183,3,0.1)"/><rect x="1394" y="163" width="18" height="321" fill="rgba(255,183,3,0.1)"/><rect x="1460" y="252" width="18" height="466" fill="rgba(255,183,3,0.1)"/>
  <rect x="82" y="151" width="117" height="99" rx="18" fill="rgba(18,27,45,0.46)" stroke="rgba(142,202,230,0.26)"/><rect x="278" y="453" width="116" height="106" rx="18" fill="rgba(18,27,45,0.46)" stroke="rgba(142,202,230,0.26)"/><rect x="482" y="190" width="99" height="102" rx="18" fill="rgba(18,27,45,0.46)" stroke="rgba(142,202,230,0.26)"/><rect x="716" y="443" width="146" height="163" rx="18" fill="rgba(18,27,45,0.46)" stroke="rgba(142,202,230,0.26)"/><rect x="922" y="398" width="94" height="138" rx="18" fill="rgba(18,27,45,0.46)" stroke="rgba(142,202,230,0.26)"/><rect x="1125" y="584" width="96" height="165" rx="18" fill="rgba(18,27,45,0.46)" stroke="rgba(142,202,230,0.26)"/><rect x="1322" y="480" width="145" height="117" rx="18" fill="rgba(18,27,45,0.46)" stroke="rgba(142,202,230,0.26)"/>
  <path d="M 1217 571 L 421 389" stroke="rgba(142,202,230,0.2)" stroke-width="3"/><path d="M 572 314 L 706 170" stroke="rgba(142,202,230,0.2)" stroke-width="3"/><path d="M 421 389 L 1260 460" stroke="rgba(142,202,230,0.2)" stroke-width="3"/><path d="M 706 170 L 216 738" stroke="rgba(142,202,230,0.2)" stroke-width="3"/><path d="M 1260 460 L 216 738" stroke="rgba(142,202,230,0.2)" stroke-width="3"/><path d="M 789 639 L 805 240" stroke="rgba(142,202,230,0.2)" stroke-width="3"/><path d="M 805 240 L 336 415" stroke="rgba(142,202,230,0.2)" stroke-width="3"/><path d="M 216 738 L 1203 454" stroke="rgba(142,202,230,0.2)" stroke-width="3"/><path d="M 1203 454 L 1217 571" stroke="rgba(142,202,230,0.2)" stroke-width="3"/><path d="M 336 415 L 1217 571" stroke="rgba(142,202,230,0.2)" stroke-width="3"/><path d="M 1268 442 L 572 314" stroke="rgba(142,202,230,0.2)" stroke-width="3"/>
  <circle cx="1217" cy="571" r="8" fill="#ffb703" fill-opacity="0.9"/><circle cx="1217" cy="571" r="20" fill="#8ecae6" fill-opacity="0.10"/><circle cx="572" cy="314" r="8" fill="#ffb703" fill-opacity="0.9"/><circle cx="572" cy="314" r="20" fill="#8ecae6" fill-opacity="0.10"/><circle cx="421" cy="389" r="8" fill="#ffb703" fill-opacity="0.9"/><circle cx="421" cy="389" r="20" fill="#8ecae6" fill-opacity="0.10"/><circle cx="706" cy="170" r="8" fill="#ffb703" fill-opacity="0.9"/><circle cx="706" cy="170" r="20" fill="#8ecae6" fill-opacity="0.10"/><circle cx="1260" cy="460" r="8" fill="#ffb703" fill-opacity="0.9"/><circle cx="1260" cy="460" r="20" fill="#8ecae6" fill-opacity="0.10"/><circle cx="789" cy="639" r="8" fill="#ffb703" fill-opacity="0.9"/><circle cx="789" cy="639" r="20" fill="#8ecae6" fill-opacity="0.10"/><circle cx="805" cy="240" r="8" fill="#ffb703" fill-opacity="0.9"/><circle cx="805" cy="240" r="20" fill="#8ecae6" fill-opacity="0.10"/><circle cx="216" cy="738" r="8" fill="#ffb703" fill-opacity="0.9"/><circle cx="216" cy="738" r="20" fill="#8ecae6" fill-opacity="0.10"/><circle cx="1203" cy="454" r="8" fill="#ffb703" fill-opacity="0.9"/><circle cx="1203" cy="454" r="20" fill="#8ecae6" fill-opacity="0.10"/><circle cx="336" cy="415" r="8" fill="#ffb703" fill-opacity="0.9"/><circle cx="336" cy="415" r="20" fill="#8ecae6" fill-opacity="0.10"/><circle cx="1268" cy="442" r="8" fill="#ffb703" fill-opacity="0.9"/><circle cx="1268" cy="442" r="20" fill="#8ecae6" fill-opacity="0.10"/><circle cx="1329" cy="202" r="8" fill="#ffb703" fill-opacity="0.9"/><circle cx="1329" cy="202" r="20" fill="#8ecae6" fill-opacity="0.10"/>
  <path d="M0 760L220 682L420 714L640 618L842 680L1080 570L1344 640L1600 540V900H0Z" fill="rgba(18,27,45,0.86)"/>
</svg>