<svg xmlns="http://www.w3.org/2000/svg" viewBox="0 0 1600 900" role="img" aria-label="Hacker cover 5">
  <defs>
    <linearGradient id="bg" x1="0%" y1="0%" x2="100%" y2="100%">
      <stop offset="0%" stop-color="#050814"/>
      <stop offset="100%" stop-color="#111827"/>
    </linearGradient>
  </defs>
  <rect width="1600" height="900" fill="url(#bg)"/>
  <rect x="229" y="26" width="6" height="238" fill="rgba(255,214,10,0.08474326405900696)" rx="3"/><rect x="1553" y="67" width="6" height="297" fill="rgba(255,214,10,0.19052199932082392)" rx="3"/><rect x="1498" y="223" width="6" height="166" fill="rgba(255,214,10,0.15089878366934928)" rx="3"/><rect x="851" y="-34" width="6" height="325" fill="rgba(255,214,10,0.13408852199367796)" rx="3"/><rect x="1148" y="166" width="6" height="355" fill="rgba(255,214,10,0.14739477369084492)" rx="3"/><rect x="554" y="-69" width="6" height="508" fill="rgba(255,214,10,0.10535038769763706)" rx="3"/><rect x="612" y="90" width="6" height="335" fill="rgba(255,214,10,0.16644991824228147)" rx="3"/><rect x="1268" y="91" width="6" height="375" fill="rgba(255,214,10,0.1286233641526295)" rx="3"/><rect x="1146" y="233" width="6" height="437" fill="rgba(255,214,10,0.1430670807279187)" rx="3"/><rect x="1408" y="187" width="6" height="506" fill="rgba(255,214,10,0.1469336792987793)" rx="3"/><rect x="1426" y="76" width="6" height="251" fill="rgba(255,214,10,0.17575701720221193)" rx="3"/><rect x="778" y="52" width="6" height="377" fill="rgba(255,214,10,0.15413540179081936)" rx="3"/><rect x="371" y="138" width="6" height="257" fill="rgba(255,214,10,0.13163115329986666)" rx="3"/><rect x="424" y="-76" width="6" height="335" fill="rgba(255,214,10,0.14381138925380857)" rx="3"/><rect x="1208" y="-46" width="6" height="483" fill="rgba(255,214,10,0.14002074080762023)" rx="3"/><rect x="673" y="78" width="6" height="513" fill="rgba(255,214,10,0.20942813428230472)" rx="3"/><rect x="428" y="182" width="6" height="366" fill="rgba(255,214,10,0.165259039230037)" rx="3"/><rect x="1022" y="237" width="6" height="276" fill="rgba(255,214,10,0.19199839282474757)" rx="3"/><rect x="1081" y="125" width="6" height="276" fill="rgba(255,214,10,0.17445444932051452)" rx="3"/><rect x="138" y="161" width="6" height="480" fill="rgba(255,214,10,0.12587810653138298)" rx="3"/><rect x="1057" y="284" width="6" height="394" fill="rgba(255,214,10,0.15218748466342985)" rx="3"/><rect x="858" y="242" width="6" height="317" fill="rgba(255,214,10,0.18750994299726503)" rx="3"/><rect x="548" y="123" width="6" height="245" fill="rgba(255,214,10,0.10706690571954335)" rx="3"/><rect x="619" y="139" width="6" height="236" fill="rgba(255,214,10,0.17633937627673096)" rx="3"/><rect x="1351" y="296" width="6" height="417" fill="rgba(255,214,10,0.09649949981596379)" rx="3"/><rect x="1320" y="271" width="6" height="299" fill="rgba(255,214,10,0.08509442355211455)" rx="3"/><rect x="741" y="34" width="6" height="292" fill="rgba(255,214,10,0.09984941809285841)" rx="3"/><rect x="1192" y="177" width="6" height="467" fill="rgba(255,214,10,0.11465741595765665)" rx="3"/><rect x="127" y="264" width="6" height="223" fill="rgba(255,214,10,0.14490704022127515)" rx="3"/><rect x="481" y="258" width="6" height="288" fill="rgba(255,214,10,0.12395203781926989)" rx="3"/>
  <polygon points="131,514 458,502 408,539 81,551" fill="rgba(0,245,212,0.13432371714083316)"/><polygon points="412,522 688,526 638,570 362,566" fill="rgba(0,245,212,0.14291097323114416)"/><polygon points="1256,577 1547,567 1497,606 1206,616" fill="rgba(0,245,212,0.13134274299526863)"/><polygon points="279,397 601,410 551,428 229,415" fill="rgba(0,245,212,0.20454837460078784)"/><polygon points="1266,165 1543,165 1493,183 1216,183" fill="rgba(0,245,212,0.15097734747363697)"/><polygon points="136,497 353,501 303,538 86,534" fill="rgba(0,245,212,0.1313898952258683)"/><polygon points="592,212 854,216 804,261 542,257" fill="rgba(0,245,212,0.15852938341601847)"/><polygon points="1181,754 1403,751 1353,784 1131,787" fill="rgba(0,245,212,0.21107460377541198)"/><polygon points="306,512 460,509 410,543 256,546" fill="rgba(0,245,212,0.12884915157013227)"/><polygon points="382,334 655,347 605,369 332,356" fill="rgba(0,245,212,0.09343944457208155)"/><polygon points="886,274 1061,254 1011,285 836,305" fill="rgba(0,245,212,0.16054611220811538)"/><polygon points="1259,579 1577,569 1527,608 1209,618" fill="rgba(0,245,212,0.08026155091354362)"/>
  <rect x="137" y="149" width="102" height="127" rx="14" fill="rgba(11,16,32,0.52)" stroke="rgba(255,214,10,0.32)"/><rect x="286" y="283" width="125" height="127" rx="14" fill="rgba(11,16,32,0.52)" stroke="rgba(255,214,10,0.32)"/><rect x="466" y="565" width="105" height="109" rx="14" fill="rgba(11,16,32,0.52)" stroke="rgba(255,214,10,0.32)"/><rect x="679" y="204" width="131" height="129" rx="14" fill="rgba(11,16,32,0.52)" stroke="rgba(255,214,10,0.32)"/><rect x="855" y="617" width="100" height="95" rx="14" fill="rgba(11,16,32,0.52)" stroke="rgba(255,214,10,0.32)"/><rect x="1006" y="617" width="131" height="128" rx="14" fill="rgba(11,16,32,0.52)" stroke="rgba(255,214,10,0.32)"/><rect x="1188" y="427" width="90" height="120" rx="14" fill="rgba(11,16,32,0.52)" stroke="rgba(255,214,10,0.32)"/><rect x="1382" y="516" width="91" height="112" rx="14" fill="rgba(11,16,32,0.52)" stroke="rgba(255,214,10,0.32)"/>
  <path d="M 75 221 L 802 221 L 802 252 L 1324 252" fill="none" stroke="rgba(255,214,10,0.26)" stroke-width="4" stroke-linecap="round"/><path d="M 119 423 L 995 423 L 995 523 L 1143 523" fill="none" stroke="rgba(0,245,212,0.26)" stroke-width="4" stroke-linecap="round"/><path d="M 204 257 L 899 257 L 899 536 L 567 536" fill="none" stroke="rgba(255,214,10,0.26)" stroke-width="4" stroke-linecap="round"/><path d="M 177 184 L 801 184 L 801 480 L 1227 480" fill="none" stroke="rgba(0,245,212,0.26)" stroke-width="4" stroke-linecap="round"/><path d="M 186 595 L 703 595 L 703 743 L 923 743" fill="none" stroke="rgba(255,214,10,0.26)" stroke-width="4" stroke-linecap="round"/><path d="M 219 406 L 680 406 L 680 633 L 1193 633" fill="none" stroke="rgba(0,245,212,0.26)" stroke-width="4" stroke-linecap="round"/><path d="M 242 157 L 802 157 L 802 378 L 1434 378" fill="none" stroke="rgba(255,214,10,0.26)" stroke-width="4" stroke-linecap="round"/><path d="M 104 421 L 615 421 L 615 117 L 1445 117" fill="none" stroke="rgba(0,245,212,0.26)" stroke-width="4" stroke-linecap="round"/><path d="M 247 559 L 909 559 L 909 256 L 628 256" fill="none" stroke="rgba(255,214,10,0.26)" stroke-width="4" stroke-linecap="round"/>
  <circle cx="917" cy="320" r="5" fill="#ffd60a" fill-opacity="0.85"/><circle cx="917" cy="320" r="19" fill="#00f5d4" fill-opacity="0.06"/><circle cx="310" cy="798" r="4" fill="#ffd60a" fill-opacity="0.85"/><circle cx="310" cy="798" r="18" fill="#00f5d4" fill-opacity="0.06"/><circle cx="1222" cy="173" r="6" fill="#ffd60a" fill-opacity="0.85"/><circle cx="1222" cy="173" r="20" fill="#00f5d4" fill-opacity="0.06"/><circle cx="573" cy="728" r="10" fill="#ffd60a" fill-opacity="0.85"/><circle cx="573" cy="728" r="24" fill="#00f5d4" fill-opacity="0.06"/><circle cx="533" cy="127" r="5" fill="#ffd60a" fill-opacity="0.85"/><circle cx="533" cy="127" r="19" fill="#00f5d4" fill-opacity="0.06"/><circle cx="533" cy="819" r="8" fill="#ffd60a" fill-opacity="0.85"/><circle cx="533" cy="819" r="22" fill="#00f5d4" fill-opacity="0.06"/><circle cx="1032" cy="400" r="10" fill="#ffd60a" fill-opacity="0.85"/><circle cx="1032" cy="400" r="24" fill="#00f5d4" fill-opacity="0.06"/><circle cx="312" cy="134" r="10" fill="#ffd60a" fill-opacity="0.85"/><circle cx="312" cy="134" r="24" fill="#00f5d4" fill-opacity="0.06"/><circle cx="1152" cy="645" r="5" fill="#ffd60a" fill-opacity="0.85"/><circle cx="1152" cy="645" r="19" fill="#00f5d4" fill-opacity="0.06"/><circle cx="199" cy="293" r="6" fill="#ffd60a" fill-opacity="0.85"/><circle cx="199" cy="293" r="20" fill="#00f5d4" fill-opacity="0.06"/><circle cx="1146" cy="124" r="5" fill="#ffd60a" fill-opacity="0.85"/><circle cx="1146" cy="124" r="19" fill="#00f5d4" fill-opacity="0.06"/><circle cx="758" cy="613" r="5" fill="#ffd60a" fill-opacity="0.85"/><circle cx="758" cy="613" r="19" fill="#00f5d4" fill-opacity="0.06"/><circle cx="1297" cy="755" r="5" fill="#ffd60a" fill-opacity="0.85"/><circle cx="1297" cy="755" r="19" fill="#00f5d4" fill-opacity="0.06"/><circle cx="567" cy="386" r="10" fill="#ffd60a" fill-opacity="0.85"/><circle cx="567" cy="386" r="24" fill="#00f5d4" fill-opacity="0.06"/><circle cx="777" cy="695" r="7" fill="#ffd60a" fill-opacity="0.85"/><circle cx="777" cy="695" r="21" fill="#00f5d4" fill-opacity="0.06"/><circle cx="595" cy="157" r="8" fill="#ffd60a" fill-opacity="0.85"/><circle cx="595" cy="157" r="22" fill="#00f5d4" fill-opacity="0.06"/>
  <rect x="0" y="780" width="1600" height="120" fill="rgba(11,16,32,0.88)"/>
</svg>