<svg xmlns="http://www.w3.org/2000/svg" viewBox="0 0 1600 900" role="img" aria-label="Hacker cover 17">
  <defs>
    <linearGradient id="bg" x1="0%" y1="0%" x2="100%" y2="100%">
      <stop offset="0%" stop-color="#050814"/>
      <stop offset="100%" stop-color="#111827"/>
    </linearGradient>
  </defs>
  <rect width="1600" height="900" fill="url(#bg)"/>
  <rect x="1358" y="-58" width="6" height="179" fill="rgba(255,214,10,0.18756393742712824)" rx="3"/><rect x="550" y="159" width="6" height="498" fill="rgba(255,214,10,0.18459250601987304)" rx="3"/><rect x="401" y="94" width="6" height="160" fill="rgba(255,214,10,0.16030241055189975)" rx="3"/><rect x="1013" y="-43" width="6" height="309" fill="rgba(255,214,10,0.12138518638313144)" rx="3"/><rect x="221" y="82" width="6" height="315" fill="rgba(255,214,10,0.12138458011195002)" rx="3"/><rect x="953" y="271" width="6" height="444" fill="rgba(255,214,10,0.13960815929136972)" rx="3"/><rect x="225" y="-56" width="6" height="368" fill="rgba(255,214,10,0.21431045657439923)" rx="3"/><rect x="1139" y="48" width="6" height="187" fill="rgba(255,214,10,0.15056496298148045)" rx="3"/><rect x="1108" y="16" width="6" height="500" fill="rgba(255,214,10,0.15481714671568497)" rx="3"/><rect x="58" y="2" width="6" height="303" fill="rgba(255,214,10,0.17765838101372017)" rx="3"/><rect x="500" y="78" width="6" height="219" fill="rgba(255,214,10,0.10787439532091883)" rx="3"/><rect x="1002" y="17" width="6" height="301" fill="rgba(255,214,10,0.09915952822236321)" rx="3"/><rect x="374" y="-47" width="6" height="221" fill="rgba(255,214,10,0.10751026212388613)" rx="3"/><rect x="321" y="168" width="6" height="310" fill="rgba(255,214,10,0.20309303717566238)" rx="3"/><rect x="778" y="161" width="6" height="422" fill="rgba(255,214,10,0.1875158668822191)" rx="3"/><rect x="159" y="-69" width="6" height="221" fill="rgba(255,214,10,0.1935872566822992)" rx="3"/><rect x="12" y="18" width="6" height="483" fill="rgba(255,214,10,0.12385283357323218)" rx="3"/><rect x="1277" y="133" width="6" height="334" fill="rgba(255,214,10,0.20790548973372225)" rx="3"/><rect x="911" y="-47" width="6" height="373" fill="rgba(255,214,10,0.11431997151094403)" rx="3"/><rect x="643" y="-51" width="6" height="486" fill="rgba(255,214,10,0.15451659694391184)" rx="3"/><rect x="1103" y="235" width="6" height="413" fill="rgba(255,214,10,0.21235666965216315)" rx="3"/><rect x="516" y="-65" width="6" height="486" fill="rgba(255,214,10,0.11100633682100856)" rx="3"/><rect x="485" y="185" width="6" height="493" fill="rgba(255,214,10,0.08364425050406388)" rx="3"/><rect x="1379" y="105" width="6" height="182" fill="rgba(255,214,10,0.08649096701194085)" rx="3"/><rect x="176" y="102" width="6" height="267" fill="rgba(255,214,10,0.19326066388020707)" rx="3"/><rect x="780" y="97" width="6" height="199" fill="rgba(255,214,10,0.17632480780805126)" rx="3"/><rect x="1314" y="59" width="6" height="343" fill="rgba(255,214,10,0.1411618612931062)" rx="3"/><rect x="207" y="-12" width="6" height="478" fill="rgba(255,214,10,0.17405322107960303)" rx="3"/><rect x="783" y="209" width="6" height="484" fill="rgba(255,214,10,0.21745510592384276)" rx="3"/><rect x="731" y="-25" width="6" height="176" fill="rgba(255,214,10,0.15036903426304538)" rx="3"/>
  <polygon points="1429,515 1682,531 1632,559 1379,543" fill="rgba(0,245,212,0.10053927155661761)"/><polygon points="1292,621 1438,619 1388,653 1242,655" fill="rgba(0,245,212,0.1896687836071676)"/><polygon points="1110,727 1380,709 1330,737 1060,755" fill="rgba(0,245,212,0.2073878697886566)"/><polygon points="182,273 436,255 386,289 132,307" fill="rgba(0,245,212,0.20348482817196184)"/><polygon points="135,206 312,187 262,212 85,231" fill="rgba(0,245,212,0.09061045767320934)"/><polygon points="1119,721 1426,705 1376,747 1069,763" fill="rgba(0,245,212,0.14837250470481306)"/><polygon points="1291,545 1560,550 1510,571 1241,566" fill="rgba(0,245,212,0.09146017105751422)"/><polygon points="862,198 1068,214 1018,232 812,216" fill="rgba(0,245,212,0.2158604017667724)"/><polygon points="554,396 736,380 686,410 504,426" fill="rgba(0,245,212,0.14914622185793594)"/><polygon points="634,708 807,704 757,740 584,744" fill="rgba(0,245,212,0.20244575812000054)"/><polygon points="640,218 791,201 741,236 590,253" fill="rgba(0,245,212,0.15675661370537047)"/><polygon points="123,665 305,672 255,693 73,686" fill="rgba(0,245,212,0.1295829395836882)"/>
  <rect x="107" y="120" width="120" height="93" rx="14" fill="rgba(11,16,32,0.52)" stroke="rgba(255,214,10,0.32)"/><rect x="285" y="557" width="138" height="108" rx="14" fill="rgba(11,16,32,0.52)" stroke="rgba(255,214,10,0.32)"/><rect x="467" y="412" width="97" height="107" rx="14" fill="rgba(11,16,32,0.52)" stroke="rgba(255,214,10,0.32)"/><rect x="642" y="394" width="134" height="116" rx="14" fill="rgba(11,16,32,0.52)" stroke="rgba(255,214,10,0.32)"/><rect x="835" y="170" width="131" height="99" rx="14" fill="rgba(11,16,32,0.52)" stroke="rgba(255,214,10,0.32)"/><rect x="1039" y="362" width="135" height="117" rx="14" fill="rgba(11,16,32,0.52)" stroke="rgba(255,214,10,0.32)"/><rect x="1180" y="151" width="129" height="128" rx="14" fill="rgba(11,16,32,0.52)" stroke="rgba(255,214,10,0.32)"/><rect x="1374" y="288" width="100" height="108" rx="14" fill="rgba(11,16,32,0.52)" stroke="rgba(255,214,10,0.32)"/>
  <path d="M 274 270 L 1050 270 L 1050 230 L 1276 230" fill="none" stroke="rgba(255,214,10,0.26)" stroke-width="4" stroke-linecap="round"/><path d="M 147 281 L 623 281 L 623 536 L 914 536" fill="none" stroke="rgba(0,245,212,0.26)" stroke-width="4" stroke-linecap="round"/><path d="M 65 630 L 714 630 L 714 104 L 967 104" fill="none" stroke="rgba(255,214,10,0.26)" stroke-width="4" stroke-linecap="round"/><path d="M 115 178 L 913 178 L 913 544 L 713 544" fill="none" stroke="rgba(0,245,212,0.26)" stroke-width="4" stroke-linecap="round"/><path d="M 111 518 L 856 518 L 856 648 L 1140 648" fill="none" stroke="rgba(255,214,10,0.26)" stroke-width="4" stroke-linecap="round"/><path d="M 193 355 L 639 355 L 639 135 L 775 135" fill="none" stroke="rgba(0,245,212,0.26)" stroke-width="4" stroke-linecap="round"/><path d="M 218 236 L 846 236 L 846 345 L 975 345" fill="none" stroke="rgba(255,214,10,0.26)" stroke-width="4" stroke-linecap="round"/><path d="M 124 361 L 905 361 L 905 721 L 1523 721" fill="none" stroke="rgba(0,245,212,0.26)" stroke-width="4" stroke-linecap="round"/><path d="M 284 596 L 681 596 L 681 335 L 1223 335" fill="none" stroke="rgba(255,214,10,0.26)" stroke-width="4" stroke-linecap="round"/>
  <circle cx="1029" cy="425" r="6" fill="#ffd60a" fill-opacity="0.85"/><circle cx="1029" cy="425" r="20" fill="#00f5d4" fill-opacity="0.06"/><circle cx="686" cy="753" r="4" fill="#ffd60a" fill-opacity="0.85"/><circle cx="686" cy="753" r="18" fill="#00f5d4" fill-opacity="0.06"/><circle cx="777" cy="126" r="4" fill="#ffd60a" fill-opacity="0.85"/><circle cx="777" cy="126" r="18" fill="#00f5d4" fill-opacity="0.06"/><circle cx="92" cy="548" r="7" fill="#ffd60a" fill-opacity="0.85"/><circle cx="92" cy="548" r="21" fill="#00f5d4" fill-opacity="0.06"/><circle cx="292" cy="81" r="10" fill="#ffd60a" fill-opacity="0.85"/><circle cx="292" cy="81" r="24" fill="#00f5d4" fill-opacity="0.06"/><circle cx="410" cy="433" r="7" fill="#ffd60a" fill-opacity="0.85"/><circle cx="410" cy="433" r="21" fill="#00f5d4" fill-opacity="0.06"/><circle cx="1431" cy="491" r="5" fill="#ffd60a" fill-opacity="0.85"/><circle cx="1431" cy="491" r="19" fill="#00f5d4" fill-opacity="0.06"/><circle cx="1273" cy="208" r="7" fill="#ffd60a" fill-opacity="0.85"/><circle cx="1273" cy="208" r="21" fill="#00f5d4" fill-opacity="0.06"/><circle cx="698" cy="203" r="10" fill="#ffd60a" fill-opacity="0.85"/><circle cx="698" cy="203" r="24" fill="#00f5d4" fill-opacity="0.06"/><circle cx="251" cy="626" r="6" fill="#ffd60a" fill-opacity="0.85"/><circle cx="251" cy="626" r="20" fill="#00f5d4" fill-opacity="0.06"/><circle cx="1438" cy="146" r="10" fill="#ffd60a" fill-opacity="0.85"/><circle cx="1438" cy="146" r="24" fill="#00f5d4" fill-opacity="0.06"/><circle cx="755" cy="508" r="8" fill="#ffd60a" fill-opacity="0.85"/><circle cx="755" cy="508" r="22" fill="#00f5d4" fill-opacity="0.06"/><circle cx="102" cy="229" r="9" fill="#ffd60a" fill-opacity="0.85"/><circle cx="102" cy="229" r="23" fill="#00f5d4" fill-opacity="0.06"/><circle cx="222" cy="339" r="5" fill="#ffd60a" fill-opacity="0.85"/><circle cx="222" cy="339" r="19" fill="#00f5d4" fill-opacity="0.06"/><circle cx="899" cy="534" r="4" fill="#ffd60a" fill-opacity="0.85"/><circle cx="899" cy="534" r="18" fill="#00f5d4" fill-opacity="0.06"/><circle cx="1196" cy="274" r="4" fill="#ffd60a" fill-opacity="0.85"/><circle cx="1196" cy="274" r="18" fill="#00f5d4" fill-opacity="0.06"/>
  <rect x="0" y="780" width="1600" height="120" fill="rgba(11,16,32,0.88)"/>
</svg>