<svg xmlns="http://www.w3.org/2000/svg" viewBox="0 0 1600 900" role="img" aria-label="Sunset background">
  <defs>
    <linearGradient id="sky" x1="0%" y1="0%" x2="0%" y2="100%">
      <stop offset="0%" stop-color="#2b1744"/>
      <stop offset="48%" stop-color="#8b3153"/>
      <stop offset="100%" stop-color="#f5a65b"/>
    </linearGradient>
    <linearGradient id="sea" x1="0%" y1="0%" x2="0%" y2="100%">
      <stop offset="0%" stop-color="#402d5d"/>
      <stop offset="100%" stop-color="#111c2e"/>
    </linearGradient>
  </defs>
  <rect width="1600" height="900" fill="url(#sky)"/>
  <circle cx="1180" cy="260" r="118" fill="#ffd08f"/>
  <circle cx="1180" cy="260" r="168" fill="#ffd08f" fill-opacity="0.18"/>
  <rect x="0" y="470" width="1600" height="430" fill="url(#sea)"/>
  <path d="M0 502C156 482 310 520 470 514C632 508 734 446 876 442C1056 438 1132 504 1266 514C1406 524 1490 492 1600 474V900H0Z" fill="#1e2344" fill-opacity="0.48"/>
  <path d="M0 610C184 596 336 624 502 620C668 616 758 578 900 572C1064 566 1178 616 1342 620C1458 622 1544 602 1600 590V900H0Z" fill="#16263d" fill-opacity="0.82"/>
  <path d="M870 560C984 578 1082 590 1178 590C1276 590 1370 578 1494 554" fill="none" stroke="#ffd08f" stroke-opacity="0.35" stroke-width="12" stroke-linecap="round"/>
</svg>
