<svg xmlns="http://www.w3.org/2000/svg" viewBox="0 0 1600 900" role="img" aria-label="Hacker cover 14">
  <defs>
    <linearGradient id="bg" x1="0%" y1="0%" x2="100%" y2="100%">
      <stop offset="0%" stop-color="#06090f"/>
      <stop offset="100%" stop-color="#101b2d"/>
    </linearGradient>
  </defs>
  <rect width="1600" height="900" fill="url(#bg)"/>
  <rect x="235" y="178" width="6" height="447" fill="rgba(255,60,172,0.18477188388138052)" rx="3"/><rect x="1172" y="261" width="6" height="179" fill="rgba(255,60,172,0.16859665151815667)" rx="3"/><rect x="1540" y="101" width="6" height="457" fill="rgba(255,60,172,0.16296967890186742)" rx="3"/><rect x="456" y="195" width="6" height="323" fill="rgba(255,60,172,0.08702480823170496)" rx="3"/><rect x="1574" y="189" width="6" height="462" fill="rgba(255,60,172,0.08300646489295008)" rx="3"/><rect x="1089" y="212" width="6" height="188" fill="rgba(255,60,172,0.12422521380265902)" rx="3"/><rect x="446" y="271" width="6" height="349" fill="rgba(255,60,172,0.12522054376427588)" rx="3"/><rect x="1114" y="107" width="6" height="423" fill="rgba(255,60,172,0.08528881508876388)" rx="3"/><rect x="1593" y="-69" width="6" height="502" fill="rgba(255,60,172,0.18201419388321527)" rx="3"/><rect x="1511" y="28" width="6" height="422" fill="rgba(255,60,172,0.1711527219594905)" rx="3"/><rect x="21" y="136" width="6" height="502" fill="rgba(255,60,172,0.18605870482188705)" rx="3"/><rect x="331" y="284" width="6" height="206" fill="rgba(255,60,172,0.19414088201153246)" rx="3"/><rect x="1373" y="67" width="6" height="298" fill="rgba(255,60,172,0.19576748269320848)" rx="3"/><rect x="194" y="-64" width="6" height="294" fill="rgba(255,60,172,0.1219933244860189)" rx="3"/><rect x="359" y="278" width="6" height="171" fill="rgba(255,60,172,0.09734996478893093)" rx="3"/><rect x="334" y="-52" width="6" height="227" fill="rgba(255,60,172,0.19080350574468125)" rx="3"/><rect x="1229" y="254" width="6" height="286" fill="rgba(255,60,172,0.14750398702657452)" rx="3"/><rect x="1295" y="-64" width="6" height="254" fill="rgba(255,60,172,0.18747561206602065)" rx="3"/><rect x="246" y="48" width="6" height="440" fill="rgba(255,60,172,0.09957578834669284)" rx="3"/><rect x="144" y="224" width="6" height="200" fill="rgba(255,60,172,0.14518723206190018)" rx="3"/><rect x="1197" y="164" width="6" height="474" fill="rgba(255,60,172,0.2133657778803537)" rx="3"/><rect x="1351" y="72" width="6" height="486" fill="rgba(255,60,172,0.21002463138372962)" rx="3"/><rect x="658" y="238" width="6" height="256" fill="rgba(255,60,172,0.19689635142394998)" rx="3"/><rect x="632" y="44" width="6" height="325" fill="rgba(255,60,172,0.20825494650239434)" rx="3"/><rect x="732" y="171" width="6" height="313" fill="rgba(255,60,172,0.17552525318292056)" rx="3"/><rect x="555" y="-52" width="6" height="391" fill="rgba(255,60,172,0.08400169092222778)" rx="3"/><rect x="1534" y="-11" width="6" height="265" fill="rgba(255,60,172,0.1807737981924611)" rx="3"/><rect x="596" y="2" width="6" height="241" fill="rgba(255,60,172,0.2114686797525981)" rx="3"/><rect x="1554" y="-72" width="6" height="411" fill="rgba(255,60,172,0.0846882821247749)" rx="3"/><rect x="461" y="245" width="6" height="407" fill="rgba(255,60,172,0.1959546019946191)" rx="3"/>
  <polygon points="371,265 711,275 661,315 321,305" fill="rgba(120,75,160,0.17274487414755854)"/><polygon points="1330,564 1506,552 1456,595 1280,607" fill="rgba(120,75,160,0.17014464170603177)"/><polygon points="1363,564 1693,573 1643,594 1313,585" fill="rgba(120,75,160,0.17869025715246978)"/><polygon points="945,218 1135,205 1085,239 895,252" fill="rgba(120,75,160,0.11189519215914305)"/><polygon points="616,171 826,170 776,210 566,211" fill="rgba(120,75,160,0.1595915738856101)"/><polygon points="1315,307 1498,301 1448,327 1265,333" fill="rgba(120,75,160,0.11693362329460391)"/><polygon points="879,291 1025,302 975,331 829,320" fill="rgba(120,75,160,0.15219445826811756)"/><polygon points="106,664 336,656 286,675 56,683" fill="rgba(120,75,160,0.1797043277229074)"/><polygon points="829,228 1142,218 1092,257 779,267" fill="rgba(120,75,160,0.20908072488136276)"/><polygon points="1314,122 1498,106 1448,134 1264,150" fill="rgba(120,75,160,0.20948246731039727)"/><polygon points="1435,352 1649,367 1599,402 1385,387" fill="rgba(120,75,160,0.1555166956310363)"/><polygon points="743,289 899,283 849,320 693,326" fill="rgba(120,75,160,0.1827731397735711)"/>
  <rect x="132" y="243" width="112" height="93" rx="14" fill="rgba(18,24,38,0.52)" stroke="rgba(255,60,172,0.32)"/><rect x="302" y="416" width="97" height="122" rx="14" fill="rgba(18,24,38,0.52)" stroke="rgba(255,60,172,0.32)"/><rect x="490" y="580" width="103" height="114" rx="14" fill="rgba(18,24,38,0.52)" stroke="rgba(255,60,172,0.32)"/><rect x="643" y="441" width="100" height="108" rx="14" fill="rgba(18,24,38,0.52)" stroke="rgba(255,60,172,0.32)"/><rect x="843" y="346" width="126" height="103" rx="14" fill="rgba(18,24,38,0.52)" stroke="rgba(255,60,172,0.32)"/><rect x="1014" y="439" width="119" height="113" rx="14" fill="rgba(18,24,38,0.52)" stroke="rgba(255,60,172,0.32)"/><rect x="1192" y="582" width="129" height="99" rx="14" fill="rgba(18,24,38,0.52)" stroke="rgba(255,60,172,0.32)"/><rect x="1368" y="504" width="131" height="112" rx="14" fill="rgba(18,24,38,0.52)" stroke="rgba(255,60,172,0.32)"/>
  <path d="M 262 703 L 861 703 L 861 653 L 1086 653" fill="none" stroke="rgba(255,60,172,0.26)" stroke-width="4" stroke-linecap="round"/><path d="M 209 444 L 1048 444 L 1048 505 L 1017 505" fill="none" stroke="rgba(120,75,160,0.26)" stroke-width="4" stroke-linecap="round"/><path d="M 178 469 L 914 469 L 914 735 L 1413 735" fill="none" stroke="rgba(255,60,172,0.26)" stroke-width="4" stroke-linecap="round"/><path d="M 255 704 L 517 704 L 517 731 L 1269 731" fill="none" stroke="rgba(120,75,160,0.26)" stroke-width="4" stroke-linecap="round"/><path d="M 186 280 L 919 280 L 919 633 L 1514 633" fill="none" stroke="rgba(255,60,172,0.26)" stroke-width="4" stroke-linecap="round"/><path d="M 143 313 L 734 313 L 734 672 L 562 672" fill="none" stroke="rgba(120,75,160,0.26)" stroke-width="4" stroke-linecap="round"/><path d="M 283 227 L 606 227 L 606 212 L 1208 212" fill="none" stroke="rgba(255,60,172,0.26)" stroke-width="4" stroke-linecap="round"/><path d="M 60 281 L 641 281 L 641 694 L 1047 694" fill="none" stroke="rgba(120,75,160,0.26)" stroke-width="4" stroke-linecap="round"/><path d="M 209 648 L 841 648 L 841 500 L 682 500" fill="none" stroke="rgba(255,60,172,0.26)" stroke-width="4" stroke-linecap="round"/>
  <circle cx="1471" cy="736" r="5" fill="#ff3cac" fill-opacity="0.85"/><circle cx="1471" cy="736" r="19" fill="#784ba0" fill-opacity="0.06"/><circle cx="199" cy="694" r="7" fill="#ff3cac" fill-opacity="0.85"/><circle cx="199" cy="694" r="21" fill="#784ba0" fill-opacity="0.06"/><circle cx="1382" cy="661" r="9" fill="#ff3cac" fill-opacity="0.85"/><circle cx="1382" cy="661" r="23" fill="#784ba0" fill-opacity="0.06"/><circle cx="1055" cy="310" r="4" fill="#ff3cac" fill-opacity="0.85"/><circle cx="1055" cy="310" r="18" fill="#784ba0" fill-opacity="0.06"/><circle cx="108" cy="306" r="9" fill="#ff3cac" fill-opacity="0.85"/><circle cx="108" cy="306" r="23" fill="#784ba0" fill-opacity="0.06"/><circle cx="844" cy="483" r="10" fill="#ff3cac" fill-opacity="0.85"/><circle cx="844" cy="483" r="24" fill="#784ba0" fill-opacity="0.06"/><circle cx="821" cy="226" r="6" fill="#ff3cac" fill-opacity="0.85"/><circle cx="821" cy="226" r="20" fill="#784ba0" fill-opacity="0.06"/><circle cx="732" cy="402" r="9" fill="#ff3cac" fill-opacity="0.85"/><circle cx="732" cy="402" r="23" fill="#784ba0" fill-opacity="0.06"/><circle cx="1390" cy="182" r="6" fill="#ff3cac" fill-opacity="0.85"/><circle cx="1390" cy="182" r="20" fill="#784ba0" fill-opacity="0.06"/><circle cx="401" cy="693" r="6" fill="#ff3cac" fill-opacity="0.85"/><circle cx="401" cy="693" r="20" fill="#784ba0" fill-opacity="0.06"/><circle cx="1085" cy="327" r="8" fill="#ff3cac" fill-opacity="0.85"/><circle cx="1085" cy="327" r="22" fill="#784ba0" fill-opacity="0.06"/><circle cx="657" cy="382" r="8" fill="#ff3cac" fill-opacity="0.85"/><circle cx="657" cy="382" r="22" fill="#784ba0" fill-opacity="0.06"/><circle cx="1178" cy="340" r="7" fill="#ff3cac" fill-opacity="0.85"/><circle cx="1178" cy="340" r="21" fill="#784ba0" fill-opacity="0.06"/><circle cx="1329" cy="567" r="8" fill="#ff3cac" fill-opacity="0.85"/><circle cx="1329" cy="567" r="22" fill="#784ba0" fill-opacity="0.06"/><circle cx="450" cy="388" r="4" fill="#ff3cac" fill-opacity="0.85"/><circle cx="450" cy="388" r="18" fill="#784ba0" fill-opacity="0.06"/><circle cx="933" cy="235" r="10" fill="#ff3cac" fill-opacity="0.85"/><circle cx="933" cy="235" r="24" fill="#784ba0" fill-opacity="0.06"/>
  <rect x="0" y="780" width="1600" height="120" fill="rgba(18,24,38,0.88)"/>
</svg>