<svg xmlns="http://www.w3.org/2000/svg" viewBox="0 0 1600 900" role="img" aria-label="CTF cover 13">
  <defs>
    <linearGradient id="bg" x1="0%" y1="0%" x2="100%" y2="100%">
      <stop offset="0%" stop-color="#101420"/>
      <stop offset="100%" stop-color="#1d3557"/>
    </linearGradient>
    <pattern id="grid" width="64" height="64" patternUnits="userSpaceOnUse">
      <path d="M64 0H0V64" fill="none" stroke="rgba(93,253,203,0.12)" stroke-width="1.5"/>
    </pattern>
  </defs>
  <rect width="1600" height="900" fill="url(#bg)"/>
  <rect width="1600" height="900" fill="url(#grid)"/>
  <rect x="43" y="246" width="18" height="357" fill="rgba(244,211,94,0.1)"/><rect x="148" y="127" width="18" height="617" fill="rgba(244,211,94,0.1)"/><rect x="235" y="132" width="18" height="337" fill="rgba(244,211,94,0.1)"/><rect x="323" y="250" width="18" height="552" fill="rgba(244,211,94,0.1)"/><rect x="422" y="179" width="18" height="622" fill="rgba(244,211,94,0.1)"/><rect x="525" y="249" width="18" height="439" fill="rgba(244,211,94,0.1)"/><rect x="630" y="95" width="18" height="271" fill="rgba(244,211,94,0.1)"/><rect x="710" y="106" width="18" height="639" fill="rgba(244,211,94,0.1)"/><rect x="797" y="109" width="18" height="323" fill="rgba(244,211,94,0.1)"/><rect x="903" y="199" width="18" height="445" fill="rgba(244,211,94,0.1)"/><rect x="1012" y="257" width="18" height="471" fill="rgba(244,211,94,0.1)"/><rect x="1095" y="225" width="18" height="279" fill="rgba(244,211,94,0.1)"/><rect x="1175" y="204" width="18" height="366" fill="rgba(244,211,94,0.1)"/><rect x="1275" y="144" width="18" height="678" fill="rgba(244,211,94,0.1)"/><rect x="1379" y="171" width="18" height="381" fill="rgba(244,211,94,0.1)"/><rect x="1478" y="218" width="18" height="680" fill="rgba(244,211,94,0.1)"/>
  <rect x="64" y="408" width="131" height="134" rx="18" fill="rgba(21,27,44,0.46)" stroke="rgba(93,253,203,0.26)"/><rect x="313" y="554" width="136" height="173" rx="18" fill="rgba(21,27,44,0.46)" stroke="rgba(93,253,203,0.26)"/><rect x="484" y="422" width="136" height="91" rx="18" fill="rgba(21,27,44,0.46)" stroke="rgba(93,253,203,0.26)"/><rect x="732" y="313" width="110" height="149" rx="18" fill="rgba(21,27,44,0.46)" stroke="rgba(93,253,203,0.26)"/><rect x="931" y="287" width="123" height="88" rx="18" fill="rgba(21,27,44,0.46)" stroke="rgba(93,253,203,0.26)"/><rect x="1113" y="334" width="87" height="109" rx="18" fill="rgba(21,27,44,0.46)" stroke="rgba(93,253,203,0.26)"/><rect x="1339" y="146" width="124" height="128" rx="18" fill="rgba(21,27,44,0.46)" stroke="rgba(93,253,203,0.26)"/>
  <path d="M 1436 591 L 885 533" stroke="rgba(93,253,203,0.2)" stroke-width="3"/><path d="M 471 326 L 125 278" stroke="rgba(93,253,203,0.2)" stroke-width="3"/><path d="M 125 278 L 1426 291" stroke="rgba(93,253,203,0.2)" stroke-width="3"/><path d="M 885 533 L 1426 291" stroke="rgba(93,253,203,0.2)" stroke-width="3"/><path d="M 597 310 L 1155 429" stroke="rgba(93,253,203,0.2)" stroke-width="3"/><path d="M 1426 291 L 1155 429" stroke="rgba(93,253,203,0.2)" stroke-width="3"/><path d="M 1254 344 L 1155 429" stroke="rgba(93,253,203,0.2)" stroke-width="3"/><path d="M 1155 429 L 950 567" stroke="rgba(93,253,203,0.2)" stroke-width="3"/><path d="M 944 491 L 950 567" stroke="rgba(93,253,203,0.2)" stroke-width="3"/><path d="M 638 768 L 508 531" stroke="rgba(93,253,203,0.2)" stroke-width="3"/><path d="M 950 567 L 471 326" stroke="rgba(93,253,203,0.2)" stroke-width="3"/>
  <circle cx="1436" cy="591" r="8" fill="#f4d35e" fill-opacity="0.9"/><circle cx="1436" cy="591" r="20" fill="#5dfdcb" fill-opacity="0.10"/><circle cx="471" cy="326" r="8" fill="#f4d35e" fill-opacity="0.9"/><circle cx="471" cy="326" r="20" fill="#5dfdcb" fill-opacity="0.10"/><circle cx="125" cy="278" r="8" fill="#f4d35e" fill-opacity="0.9"/><circle cx="125" cy="278" r="20" fill="#5dfdcb" fill-opacity="0.10"/><circle cx="885" cy="533" r="8" fill="#f4d35e" fill-opacity="0.9"/><circle cx="885" cy="533" r="20" fill="#5dfdcb" fill-opacity="0.10"/><circle cx="597" cy="310" r="8" fill="#f4d35e" fill-opacity="0.9"/><circle cx="597" cy="310" r="20" fill="#5dfdcb" fill-opacity="0.10"/><circle cx="1426" cy="291" r="8" fill="#f4d35e" fill-opacity="0.9"/><circle cx="1426" cy="291" r="20" fill="#5dfdcb" fill-opacity="0.10"/><circle cx="1254" cy="344" r="8" fill="#f4d35e" fill-opacity="0.9"/><circle cx="1254" cy="344" r="20" fill="#5dfdcb" fill-opacity="0.10"/><circle cx="1155" cy="429" r="8" fill="#f4d35e" fill-opacity="0.9"/><circle cx="1155" cy="429" r="20" fill="#5dfdcb" fill-opacity="0.10"/><circle cx="944" cy="491" r="8" fill="#f4d35e" fill-opacity="0.9"/><circle cx="944" cy="491" r="20" fill="#5dfdcb" fill-opacity="0.10"/><circle cx="638" cy="768" r="8" fill="#f4d35e" fill-opacity="0.9"/><circle cx="638" cy="768" r="20" fill="#5dfdcb" fill-opacity="0.10"/><circle cx="950" cy="567" r="8" fill="#f4d35e" fill-opacity="0.9"/><circle cx="950" cy="567" r="20" fill="#5dfdcb" fill-opacity="0.10"/><circle cx="508" cy="531" r="8" fill="#f4d35e" fill-opacity="0.9"/><circle cx="508" cy="531" r="20" fill="#5dfdcb" fill-opacity="0.10"/>
  <path d="M0 760L220 682L420 714L640 618L842 680L1080 570L1344 640L1600 540V900H0Z" fill="rgba(21,27,44,0.86)"/>
</svg>