<svg xmlns="http://www.w3.org/2000/svg" viewBox="0 0 1600 900" role="img" aria-label="Hacker cover 15">
  <defs>
    <linearGradient id="bg" x1="0%" y1="0%" x2="100%" y2="100%">
      <stop offset="0%" stop-color="#05060a"/>
      <stop offset="100%" stop-color="#0f172a"/>
    </linearGradient>
  </defs>
  <rect width="1600" height="900" fill="url(#bg)"/>
  <rect x="1600" y="143" width="6" height="374" fill="rgba(57,255,20,0.1123277021712872)" rx="3"/><rect x="1077" y="6" width="6" height="486" fill="rgba(57,255,20,0.15942658139891805)" rx="3"/><rect x="759" y="203" width="6" height="213" fill="rgba(57,255,20,0.18860685231949137)" rx="3"/><rect x="1040" y="294" width="6" height="162" fill="rgba(57,255,20,0.15122810987678736)" rx="3"/><rect x="72" y="9" width="6" height="162" fill="rgba(57,255,20,0.21120128896560758)" rx="3"/><rect x="867" y="93" width="6" height="243" fill="rgba(57,255,20,0.20790626563496611)" rx="3"/><rect x="1592" y="249" width="6" height="420" fill="rgba(57,255,20,0.1998919749933164)" rx="3"/><rect x="319" y="68" width="6" height="197" fill="rgba(57,255,20,0.1822968941443135)" rx="3"/><rect x="1359" y="173" width="6" height="476" fill="rgba(57,255,20,0.18600056959858505)" rx="3"/><rect x="1466" y="0" width="6" height="172" fill="rgba(57,255,20,0.1870856285184821)" rx="3"/><rect x="221" y="169" width="6" height="422" fill="rgba(57,255,20,0.08843494888186798)" rx="3"/><rect x="1041" y="212" width="6" height="183" fill="rgba(57,255,20,0.17329793640684404)" rx="3"/><rect x="570" y="104" width="6" height="517" fill="rgba(57,255,20,0.20014048082057606)" rx="3"/><rect x="205" y="229" width="6" height="489" fill="rgba(57,255,20,0.11176348928339655)" rx="3"/><rect x="328" y="111" width="6" height="452" fill="rgba(57,255,20,0.1474885892283037)" rx="3"/><rect x="1548" y="200" width="6" height="218" fill="rgba(57,255,20,0.17032908292942578)" rx="3"/><rect x="1249" y="108" width="6" height="184" fill="rgba(57,255,20,0.08158745238897333)" rx="3"/><rect x="1297" y="-25" width="6" height="209" fill="rgba(57,255,20,0.14362197198047977)" rx="3"/><rect x="1101" y="159" width="6" height="466" fill="rgba(57,255,20,0.15821465302850127)" rx="3"/><rect x="1525" y="265" width="6" height="510" fill="rgba(57,255,20,0.1535373069546986)" rx="3"/><rect x="1232" y="-24" width="6" height="486" fill="rgba(57,255,20,0.1259666932981754)" rx="3"/><rect x="1161" y="177" width="6" height="197" fill="rgba(57,255,20,0.2077778209926951)" rx="3"/><rect x="1551" y="-23" width="6" height="165" fill="rgba(57,255,20,0.18177641132205336)" rx="3"/><rect x="223" y="121" width="6" height="325" fill="rgba(57,255,20,0.1438189170741823)" rx="3"/><rect x="814" y="257" width="6" height="288" fill="rgba(57,255,20,0.21429053384545044)" rx="3"/><rect x="840" y="75" width="6" height="508" fill="rgba(57,255,20,0.1867061170448087)" rx="3"/><rect x="381" y="261" width="6" height="511" fill="rgba(57,255,20,0.21877366604924203)" rx="3"/><rect x="1299" y="203" width="6" height="176" fill="rgba(57,255,20,0.1674453290948742)" rx="3"/><rect x="149" y="19" width="6" height="211" fill="rgba(57,255,20,0.10176687745883603)" rx="3"/><rect x="314" y="170" width="6" height="211" fill="rgba(57,255,20,0.0933852768399708)" rx="3"/>
  <polygon points="378,532 534,550 484,588 328,570" fill="rgba(0,212,255,0.13256468062579596)"/><polygon points="622,649 824,646 774,690 572,693" fill="rgba(0,212,255,0.12270850478455356)"/><polygon points="139,523 463,524 413,560 89,559" fill="rgba(0,212,255,0.1777254031603386)"/><polygon points="126,467 375,457 325,477 76,487" fill="rgba(0,212,255,0.08462683444692697)"/><polygon points="1355,166 1554,174 1504,195 1305,187" fill="rgba(0,212,255,0.10016369954405602)"/><polygon points="1452,423 1789,427 1739,473 1402,469" fill="rgba(0,212,255,0.21465306427067743)"/><polygon points="1157,373 1413,377 1363,398 1107,394" fill="rgba(0,212,255,0.1625843897336938)"/><polygon points="1331,181 1633,181 1583,200 1281,200" fill="rgba(0,212,255,0.09338802281864812)"/><polygon points="525,695 713,715 663,752 475,732" fill="rgba(0,212,255,0.1317005977697656)"/><polygon points="126,581 409,597 359,615 76,599" fill="rgba(0,212,255,0.0851288161536915)"/><polygon points="1479,500 1620,482 1570,527 1429,545" fill="rgba(0,212,255,0.12169486580976176)"/><polygon points="707,500 892,498 842,532 657,534" fill="rgba(0,212,255,0.12691172110044857)"/>
  <rect x="108" y="213" width="94" height="116" rx="14" fill="rgba(16,20,31,0.52)" stroke="rgba(57,255,20,0.32)"/><rect x="315" y="225" width="119" height="138" rx="14" fill="rgba(16,20,31,0.52)" stroke="rgba(57,255,20,0.32)"/><rect x="484" y="238" width="124" height="112" rx="14" fill="rgba(16,20,31,0.52)" stroke="rgba(57,255,20,0.32)"/><rect x="673" y="396" width="101" height="114" rx="14" fill="rgba(16,20,31,0.52)" stroke="rgba(57,255,20,0.32)"/><rect x="851" y="384" width="98" height="126" rx="14" fill="rgba(16,20,31,0.52)" stroke="rgba(57,255,20,0.32)"/><rect x="1015" y="453" width="94" height="96" rx="14" fill="rgba(16,20,31,0.52)" stroke="rgba(57,255,20,0.32)"/><rect x="1181" y="402" width="90" height="125" rx="14" fill="rgba(16,20,31,0.52)" stroke="rgba(57,255,20,0.32)"/><rect x="1383" y="316" width="126" height="98" rx="14" fill="rgba(16,20,31,0.52)" stroke="rgba(57,255,20,0.32)"/>
  <path d="M 250 194 L 1052 194 L 1052 488 L 836 488" fill="none" stroke="rgba(57,255,20,0.26)" stroke-width="4" stroke-linecap="round"/><path d="M 157 752 L 540 752 L 540 202 L 1241 202" fill="none" stroke="rgba(0,212,255,0.26)" stroke-width="4" stroke-linecap="round"/><path d="M 215 326 L 757 326 L 757 597 L 1457 597" fill="none" stroke="rgba(57,255,20,0.26)" stroke-width="4" stroke-linecap="round"/><path d="M 248 613 L 866 613 L 866 498 L 766 498" fill="none" stroke="rgba(0,212,255,0.26)" stroke-width="4" stroke-linecap="round"/><path d="M 155 678 L 588 678 L 588 384 L 708 384" fill="none" stroke="rgba(57,255,20,0.26)" stroke-width="4" stroke-linecap="round"/><path d="M 229 625 L 612 625 L 612 464 L 936 464" fill="none" stroke="rgba(0,212,255,0.26)" stroke-width="4" stroke-linecap="round"/><path d="M 139 754 L 948 754 L 948 190 L 692 190" fill="none" stroke="rgba(57,255,20,0.26)" stroke-width="4" stroke-linecap="round"/><path d="M 232 195 L 577 195 L 577 694 L 1165 694" fill="none" stroke="rgba(0,212,255,0.26)" stroke-width="4" stroke-linecap="round"/><path d="M 233 344 L 607 344 L 607 406 L 1382 406" fill="none" stroke="rgba(57,255,20,0.26)" stroke-width="4" stroke-linecap="round"/>
  <circle cx="539" cy="762" r="5" fill="#39ff14" fill-opacity="0.85"/><circle cx="539" cy="762" r="19" fill="#00d4ff" fill-opacity="0.06"/><circle cx="1341" cy="416" r="6" fill="#39ff14" fill-opacity="0.85"/><circle cx="1341" cy="416" r="20" fill="#00d4ff" fill-opacity="0.06"/><circle cx="179" cy="407" r="9" fill="#39ff14" fill-opacity="0.85"/><circle cx="179" cy="407" r="23" fill="#00d4ff" fill-opacity="0.06"/><circle cx="1140" cy="410" r="6" fill="#39ff14" fill-opacity="0.85"/><circle cx="1140" cy="410" r="20" fill="#00d4ff" fill-opacity="0.06"/><circle cx="285" cy="814" r="9" fill="#39ff14" fill-opacity="0.85"/><circle cx="285" cy="814" r="23" fill="#00d4ff" fill-opacity="0.06"/><circle cx="1103" cy="275" r="5" fill="#39ff14" fill-opacity="0.85"/><circle cx="1103" cy="275" r="19" fill="#00d4ff" fill-opacity="0.06"/><circle cx="738" cy="93" r="8" fill="#39ff14" fill-opacity="0.85"/><circle cx="738" cy="93" r="22" fill="#00d4ff" fill-opacity="0.06"/><circle cx="1340" cy="421" r="6" fill="#39ff14" fill-opacity="0.85"/><circle cx="1340" cy="421" r="20" fill="#00d4ff" fill-opacity="0.06"/><circle cx="796" cy="612" r="8" fill="#39ff14" fill-opacity="0.85"/><circle cx="796" cy="612" r="22" fill="#00d4ff" fill-opacity="0.06"/><circle cx="393" cy="509" r="7" fill="#39ff14" fill-opacity="0.85"/><circle cx="393" cy="509" r="21" fill="#00d4ff" fill-opacity="0.06"/><circle cx="1179" cy="774" r="4" fill="#39ff14" fill-opacity="0.85"/><circle cx="1179" cy="774" r="18" fill="#00d4ff" fill-opacity="0.06"/><circle cx="904" cy="671" r="9" fill="#39ff14" fill-opacity="0.85"/><circle cx="904" cy="671" r="23" fill="#00d4ff" fill-opacity="0.06"/><circle cx="1108" cy="399" r="8" fill="#39ff14" fill-opacity="0.85"/><circle cx="1108" cy="399" r="22" fill="#00d4ff" fill-opacity="0.06"/><circle cx="617" cy="504" r="5" fill="#39ff14" fill-opacity="0.85"/><circle cx="617" cy="504" r="19" fill="#00d4ff" fill-opacity="0.06"/><circle cx="98" cy="331" r="7" fill="#39ff14" fill-opacity="0.85"/><circle cx="98" cy="331" r="21" fill="#00d4ff" fill-opacity="0.06"/><circle cx="893" cy="461" r="4" fill="#39ff14" fill-opacity="0.85"/><circle cx="893" cy="461" r="18" fill="#00d4ff" fill-opacity="0.06"/>
  <rect x="0" y="780" width="1600" height="120" fill="rgba(16,20,31,0.88)"/>
</svg>