<svg xmlns="http://www.w3.org/2000/svg" viewBox="0 0 1600 900" role="img" aria-label="CTF cover 3">
  <defs>
    <linearGradient id="bg" x1="0%" y1="0%" x2="100%" y2="100%">
      <stop offset="0%" stop-color="#0a1020"/>
      <stop offset="100%" stop-color="#243b53"/>
    </linearGradient>
    <pattern id="grid" width="64" height="64" patternUnits="userSpaceOnUse">
      <path d="M64 0H0V64" fill="none" stroke="rgba(158,255,169,0.12)" stroke-width="1.5"/>
    </pattern>
  </defs>
  <rect width="1600" height="900" fill="url(#bg)"/>
  <rect width="1600" height="900" fill="url(#grid)"/>
  <rect x="62" y="149" width="18" height="422" fill="rgba(0,209,255,0.1)"/><rect x="156" y="115" width="18" height="407" fill="rgba(0,209,255,0.1)"/><rect x="231" y="236" width="18" height="639" fill="rgba(0,209,255,0.1)"/><rect x="345" y="256" width="18" height="511" fill="rgba(0,209,255,0.1)"/><rect x="431" y="256" width="18" height="404" fill="rgba(0,209,255,0.1)"/><rect x="517" y="162" width="18" height="310" fill="rgba(0,209,255,0.1)"/><rect x="614" y="173" width="18" height="524" fill="rgba(0,209,255,0.1)"/><rect x="708" y="259" width="18" height="361" fill="rgba(0,209,255,0.1)"/><rect x="819" y="224" width="18" height="648" fill="rgba(0,209,255,0.1)"/><rect x="911" y="178" width="18" height="499" fill="rgba(0,209,255,0.1)"/><rect x="1004" y="126" width="18" height="328" fill="rgba(0,209,255,0.1)"/><rect x="1085" y="161" width="18" height="611" fill="rgba(0,209,255,0.1)"/><rect x="1191" y="144" width="18" height="450" fill="rgba(0,209,255,0.1)"/><rect x="1287" y="172" width="18" height="691" fill="rgba(0,209,255,0.1)"/><rect x="1367" y="251" width="18" height="345" fill="rgba(0,209,255,0.1)"/><rect x="1480" y="121" width="18" height="661" fill="rgba(0,209,255,0.1)"/>
  <rect x="92" y="449" width="80" height="86" rx="18" fill="rgba(17,24,39,0.46)" stroke="rgba(158,255,169,0.26)"/><rect x="275" y="519" width="84" height="143" rx="18" fill="rgba(17,24,39,0.46)" stroke="rgba(158,255,169,0.26)"/><rect x="519" y="584" width="135" height="121" rx="18" fill="rgba(17,24,39,0.46)" stroke="rgba(158,255,169,0.26)"/><rect x="685" y="219" width="103" height="95" rx="18" fill="rgba(17,24,39,0.46)" stroke="rgba(158,255,169,0.26)"/><rect x="937" y="386" width="149" height="103" rx="18" fill="rgba(17,24,39,0.46)" stroke="rgba(158,255,169,0.26)"/><rect x="1139" y="354" width="131" height="124" rx="18" fill="rgba(17,24,39,0.46)" stroke="rgba(158,255,169,0.26)"/><rect x="1355" y="233" width="120" height="130" rx="18" fill="rgba(17,24,39,0.46)" stroke="rgba(158,255,169,0.26)"/>
  <path d="M 962 330 L 810 303" stroke="rgba(158,255,169,0.2)" stroke-width="3"/><path d="M 1315 735 L 941 433" stroke="rgba(158,255,169,0.2)" stroke-width="3"/><path d="M 941 433 L 810 303" stroke="rgba(158,255,169,0.2)" stroke-width="3"/><path d="M 1205 525 L 1286 610" stroke="rgba(158,255,169,0.2)" stroke-width="3"/><path d="M 810 303 L 1048 775" stroke="rgba(158,255,169,0.2)" stroke-width="3"/><path d="M 1286 610 L 190 363" stroke="rgba(158,255,169,0.2)" stroke-width="3"/><path d="M 1048 775 L 190 363" stroke="rgba(158,255,169,0.2)" stroke-width="3"/><path d="M 190 363 L 1208 261" stroke="rgba(158,255,169,0.2)" stroke-width="3"/><path d="M 1208 261 L 962 330" stroke="rgba(158,255,169,0.2)" stroke-width="3"/><path d="M 313 423 L 962 330" stroke="rgba(158,255,169,0.2)" stroke-width="3"/><path d="M 794 290 L 941 433" stroke="rgba(158,255,169,0.2)" stroke-width="3"/>
  <circle cx="962" cy="330" r="8" fill="#00d1ff" fill-opacity="0.9"/><circle cx="962" cy="330" r="20" fill="#9effa9" fill-opacity="0.10"/><circle cx="1315" cy="735" r="8" fill="#00d1ff" fill-opacity="0.9"/><circle cx="1315" cy="735" r="20" fill="#9effa9" fill-opacity="0.10"/><circle cx="941" cy="433" r="8" fill="#00d1ff" fill-opacity="0.9"/><circle cx="941" cy="433" r="20" fill="#9effa9" fill-opacity="0.10"/><circle cx="1205" cy="525" r="8" fill="#00d1ff" fill-opacity="0.9"/><circle cx="1205" cy="525" r="20" fill="#9effa9" fill-opacity="0.10"/><circle cx="810" cy="303" r="8" fill="#00d1ff" fill-opacity="0.9"/><circle cx="810" cy="303" r="20" fill="#9effa9" fill-opacity="0.10"/><circle cx="1286" cy="610" r="8" fill="#00d1ff" fill-opacity="0.9"/><circle cx="1286" cy="610" r="20" fill="#9effa9" fill-opacity="0.10"/><circle cx="1048" cy="775" r="8" fill="#00d1ff" fill-opacity="0.9"/><circle cx="1048" cy="775" r="20" fill="#9effa9" fill-opacity="0.10"/><circle cx="190" cy="363" r="8" fill="#00d1ff" fill-opacity="0.9"/><circle cx="190" cy="363" r="20" fill="#9effa9" fill-opacity="0.10"/><circle cx="1208" cy="261" r="8" fill="#00d1ff" fill-opacity="0.9"/><circle cx="1208" cy="261" r="20" fill="#9effa9" fill-opacity="0.10"/><circle cx="313" cy="423" r="8" fill="#00d1ff" fill-opacity="0.9"/><circle cx="313" cy="423" r="20" fill="#9effa9" fill-opacity="0.10"/><circle cx="794" cy="290" r="8" fill="#00d1ff" fill-opacity="0.9"/><circle cx="794" cy="290" r="20" fill="#9effa9" fill-opacity="0.10"/><circle cx="1477" cy="388" r="8" fill="#00d1ff" fill-opacity="0.9"/><circle cx="1477" cy="388" r="20" fill="#9effa9" fill-opacity="0.10"/>
  <path d="M0 760L220 682L420 714L640 618L842 680L1080 570L1344 640L1600 540V900H0Z" fill="rgba(17,24,39,0.86)"/>
</svg>