<svg xmlns="http://www.w3.org/2000/svg" viewBox="0 0 1600 900" role="img" aria-label="CTF cover 14">
  <defs>
    <linearGradient id="bg" x1="0%" y1="0%" x2="100%" y2="100%">
      <stop offset="0%" stop-color="#0e1116"/>
      <stop offset="100%" stop-color="#1c2541"/>
    </linearGradient>
    <pattern id="grid" width="64" height="64" patternUnits="userSpaceOnUse">
      <path d="M64 0H0V64" fill="none" stroke="rgba(126,231,135,0.12)" stroke-width="1.5"/>
    </pattern>
  </defs>
  <rect width="1600" height="900" fill="url(#bg)"/>
  <rect width="1600" height="900" fill="url(#grid)"/>
  <rect x="44" y="176" width="18" height="329" fill="rgba(255,123,114,0.1)"/><rect x="141" y="250" width="18" height="613" fill="rgba(255,123,114,0.1)"/><rect x="239" y="226" width="18" height="644" fill="rgba(255,123,114,0.1)"/><rect x="320" y="206" width="18" height="688" fill="rgba(255,123,114,0.1)"/><rect x="421" y="163" width="18" height="483" fill="rgba(255,123,114,0.1)"/><rect x="540" y="135" width="18" height="368" fill="rgba(255,123,114,0.1)"/><rect x="634" y="163" width="18" height="438" fill="rgba(255,123,114,0.1)"/><rect x="727" y="110" width="18" height="589" fill="rgba(255,123,114,0.1)"/><rect x="800" y="128" width="18" height="403" fill="rgba(255,123,114,0.1)"/><rect x="909" y="227" width="18" height="690" fill="rgba(255,123,114,0.1)"/><rect x="1000" y="142" width="18" height="501" fill="rgba(255,123,114,0.1)"/><rect x="1095" y="169" width="18" height="502" fill="rgba(255,123,114,0.1)"/><rect x="1202" y="130" width="18" height="423" fill="rgba(255,123,114,0.1)"/><rect x="1270" y="141" width="18" height="603" fill="rgba(255,123,114,0.1)"/><rect x="1383" y="219" width="18" height="290" fill="rgba(255,123,114,0.1)"/><rect x="1485" y="131" width="18" height="275" fill="rgba(255,123,114,0.1)"/>
  <rect x="97" y="300" width="125" height="171" rx="18" fill="rgba(18,24,38,0.46)" stroke="rgba(126,231,135,0.26)"/><rect x="286" y="108" width="116" height="155" rx="18" fill="rgba(18,24,38,0.46)" stroke="rgba(126,231,135,0.26)"/><rect x="476" y="609" width="125" height="98" rx="18" fill="rgba(18,24,38,0.46)" stroke="rgba(126,231,135,0.26)"/><rect x="708" y="540" width="150" height="111" rx="18" fill="rgba(18,24,38,0.46)" stroke="rgba(126,231,135,0.26)"/><rect x="941" y="168" width="103" height="94" rx="18" fill="rgba(18,24,38,0.46)" stroke="rgba(126,231,135,0.26)"/><rect x="1140" y="595" width="84" height="136" rx="18" fill="rgba(18,24,38,0.46)" stroke="rgba(126,231,135,0.26)"/><rect x="1321" y="487" width="85" height="117" rx="18" fill="rgba(18,24,38,0.46)" stroke="rgba(126,231,135,0.26)"/>
  <path d="M 1010 278 L 1006 373" stroke="rgba(126,231,135,0.2)" stroke-width="3"/><path d="M 831 723 L 1006 373" stroke="rgba(126,231,135,0.2)" stroke-width="3"/><path d="M 982 710 L 372 566" stroke="rgba(126,231,135,0.2)" stroke-width="3"/><path d="M 1006 373 L 550 553" stroke="rgba(126,231,135,0.2)" stroke-width="3"/><path d="M 372 566 L 324 552" stroke="rgba(126,231,135,0.2)" stroke-width="3"/><path d="M 324 552 L 550 553" stroke="rgba(126,231,135,0.2)" stroke-width="3"/><path d="M 1399 447 L 550 553" stroke="rgba(126,231,135,0.2)" stroke-width="3"/><path d="M 550 553 L 781 729" stroke="rgba(126,231,135,0.2)" stroke-width="3"/><path d="M 235 620 L 802 177" stroke="rgba(126,231,135,0.2)" stroke-width="3"/><path d="M 802 177 L 831 723" stroke="rgba(126,231,135,0.2)" stroke-width="3"/><path d="M 781 729 L 982 710" stroke="rgba(126,231,135,0.2)" stroke-width="3"/>
  <circle cx="1010" cy="278" r="8" fill="#ff7b72" fill-opacity="0.9"/><circle cx="1010" cy="278" r="20" fill="#7ee787" fill-opacity="0.10"/><circle cx="831" cy="723" r="8" fill="#ff7b72" fill-opacity="0.9"/><circle cx="831" cy="723" r="20" fill="#7ee787" fill-opacity="0.10"/><circle cx="982" cy="710" r="8" fill="#ff7b72" fill-opacity="0.9"/><circle cx="982" cy="710" r="20" fill="#7ee787" fill-opacity="0.10"/><circle cx="1006" cy="373" r="8" fill="#ff7b72" fill-opacity="0.9"/><circle cx="1006" cy="373" r="20" fill="#7ee787" fill-opacity="0.10"/><circle cx="372" cy="566" r="8" fill="#ff7b72" fill-opacity="0.9"/><circle cx="372" cy="566" r="20" fill="#7ee787" fill-opacity="0.10"/><circle cx="324" cy="552" r="8" fill="#ff7b72" fill-opacity="0.9"/><circle cx="324" cy="552" r="20" fill="#7ee787" fill-opacity="0.10"/><circle cx="1399" cy="447" r="8" fill="#ff7b72" fill-opacity="0.9"/><circle cx="1399" cy="447" r="20" fill="#7ee787" fill-opacity="0.10"/><circle cx="550" cy="553" r="8" fill="#ff7b72" fill-opacity="0.9"/><circle cx="550" cy="553" r="20" fill="#7ee787" fill-opacity="0.10"/><circle cx="235" cy="620" r="8" fill="#ff7b72" fill-opacity="0.9"/><circle cx="235" cy="620" r="20" fill="#7ee787" fill-opacity="0.10"/><circle cx="802" cy="177" r="8" fill="#ff7b72" fill-opacity="0.9"/><circle cx="802" cy="177" r="20" fill="#7ee787" fill-opacity="0.10"/><circle cx="781" cy="729" r="8" fill="#ff7b72" fill-opacity="0.9"/><circle cx="781" cy="729" r="20" fill="#7ee787" fill-opacity="0.10"/><circle cx="961" cy="608" r="8" fill="#ff7b72" fill-opacity="0.9"/><circle cx="961" cy="608" r="20" fill="#7ee787" fill-opacity="0.10"/>
  <path d="M0 760L220 682L420 714L640 618L842 680L1080 570L1344 640L1600 540V900H0Z" fill="rgba(18,24,38,0.86)"/>
</svg>