<svg xmlns="http://www.w3.org/2000/svg" viewBox="0 0 1600 900" role="img" aria-label="CTF cover 11">
  <defs>
    <linearGradient id="bg" x1="0%" y1="0%" x2="100%" y2="100%">
      <stop offset="0%" stop-color="#0b0f19"/>
      <stop offset="100%" stop-color="#162033"/>
    </linearGradient>
    <pattern id="grid" width="64" height="64" patternUnits="userSpaceOnUse">
      <path d="M64 0H0V64" fill="none" stroke="rgba(142,202,230,0.12)" stroke-width="1.5"/>
    </pattern>
  </defs>
  <rect width="1600" height="900" fill="url(#bg)"/>
  <rect width="1600" height="900" fill="url(#grid)"/>
  <rect x="64" y="207" width="18" height="487" fill="rgba(255,183,3,0.1)"/><rect x="153" y="200" width="18" height="335" fill="rgba(255,183,3,0.1)"/><rect x="240" y="102" width="18" height="648" fill="rgba(255,183,3,0.1)"/><rect x="335" y="130" width="18" height="355" fill="rgba(255,183,3,0.1)"/><rect x="444" y="126" width="18" height="537" fill="rgba(255,183,3,0.1)"/><rect x="529" y="139" width="18" height="368" fill="rgba(255,183,3,0.1)"/><rect x="634" y="143" width="18" height="288" fill="rgba(255,183,3,0.1)"/><rect x="713" y="214" width="18" height="686" fill="rgba(255,183,3,0.1)"/><rect x="799" y="136" width="18" height="651" fill="rgba(255,183,3,0.1)"/><rect x="898" y="93" width="18" height="524" fill="rgba(255,183,3,0.1)"/><rect x="1014" y="224" width="18" height="422" fill="rgba(255,183,3,0.1)"/><rect x="1102" y="161" width="18" height="518" fill="rgba(255,183,3,0.1)"/><rect x="1184" y="82" width="18" height="513" fill="rgba(255,183,3,0.1)"/><rect x="1281" y="250" width="18" height="513" fill="rgba(255,183,3,0.1)"/><rect x="1378" y="95" width="18" height="688" fill="rgba(255,183,3,0.1)"/><rect x="1466" y="256" width="18" height="366" fill="rgba(255,183,3,0.1)"/>
  <rect x="66" y="518" width="101" height="179" rx="18" fill="rgba(18,27,45,0.46)" stroke="rgba(142,202,230,0.26)"/><rect x="275" y="527" width="105" height="107" rx="18" fill="rgba(18,27,45,0.46)" stroke="rgba(142,202,230,0.26)"/><rect x="478" y="431" width="92" height="112" rx="18" fill="rgba(18,27,45,0.46)" stroke="rgba(142,202,230,0.26)"/><rect x="729" y="511" width="123" height="171" rx="18" fill="rgba(18,27,45,0.46)" stroke="rgba(142,202,230,0.26)"/><rect x="918" y="176" width="110" height="86" rx="18" fill="rgba(18,27,45,0.46)" stroke="rgba(142,202,230,0.26)"/><rect x="1120" y="255" width="141" height="124" rx="18" fill="rgba(18,27,45,0.46)" stroke="rgba(142,202,230,0.26)"/><rect x="1321" y="185" width="137" height="164" rx="18" fill="rgba(18,27,45,0.46)" stroke="rgba(142,202,230,0.26)"/>
  <path d="M 156 505 L 671 185" stroke="rgba(142,202,230,0.2)" stroke-width="3"/><path d="M 671 185 L 723 277" stroke="rgba(142,202,230,0.2)" stroke-width="3"/><path d="M 205 218 L 617 287" stroke="rgba(142,202,230,0.2)" stroke-width="3"/><path d="M 723 277 L 503 182" stroke="rgba(142,202,230,0.2)" stroke-width="3"/><path d="M 1220 611 L 1359 368" stroke="rgba(142,202,230,0.2)" stroke-width="3"/><path d="M 503 182 L 1359 368" stroke="rgba(142,202,230,0.2)" stroke-width="3"/><path d="M 617 287 L 1164 315" stroke="rgba(142,202,230,0.2)" stroke-width="3"/><path d="M 1359 368 L 1164 315" stroke="rgba(142,202,230,0.2)" stroke-width="3"/><path d="M 282 623 L 966 314" stroke="rgba(142,202,230,0.2)" stroke-width="3"/><path d="M 1164 315 L 156 505" stroke="rgba(142,202,230,0.2)" stroke-width="3"/><path d="M 966 314 L 762 397" stroke="rgba(142,202,230,0.2)" stroke-width="3"/>
  <circle cx="156" cy="505" r="8" fill="#ffb703" fill-opacity="0.9"/><circle cx="156" cy="505" r="20" fill="#8ecae6" fill-opacity="0.10"/><circle cx="671" cy="185" r="8" fill="#ffb703" fill-opacity="0.9"/><circle cx="671" cy="185" r="20" fill="#8ecae6" fill-opacity="0.10"/><circle cx="205" cy="218" r="8" fill="#ffb703" fill-opacity="0.9"/><circle cx="205" cy="218" r="20" fill="#8ecae6" fill-opacity="0.10"/><circle cx="723" cy="277" r="8" fill="#ffb703" fill-opacity="0.9"/><circle cx="723" cy="277" r="20" fill="#8ecae6" fill-opacity="0.10"/><circle cx="1220" cy="611" r="8" fill="#ffb703" fill-opacity="0.9"/><circle cx="1220" cy="611" r="20" fill="#8ecae6" fill-opacity="0.10"/><circle cx="503" cy="182" r="8" fill="#ffb703" fill-opacity="0.9"/><circle cx="503" cy="182" r="20" fill="#8ecae6" fill-opacity="0.10"/><circle cx="617" cy="287" r="8" fill="#ffb703" fill-opacity="0.9"/><circle cx="617" cy="287" r="20" fill="#8ecae6" fill-opacity="0.10"/><circle cx="1359" cy="368" r="8" fill="#ffb703" fill-opacity="0.9"/><circle cx="1359" cy="368" r="20" fill="#8ecae6" fill-opacity="0.10"/><circle cx="282" cy="623" r="8" fill="#ffb703" fill-opacity="0.9"/><circle cx="282" cy="623" r="20" fill="#8ecae6" fill-opacity="0.10"/><circle cx="1164" cy="315" r="8" fill="#ffb703" fill-opacity="0.9"/><circle cx="1164" cy="315" r="20" fill="#8ecae6" fill-opacity="0.10"/><circle cx="966" cy="314" r="8" fill="#ffb703" fill-opacity="0.9"/><circle cx="966" cy="314" r="20" fill="#8ecae6" fill-opacity="0.10"/><circle cx="762" cy="397" r="8" fill="#ffb703" fill-opacity="0.9"/><circle cx="762" cy="397" r="20" fill="#8ecae6" fill-opacity="0.10"/>
  <path d="M0 760L220 682L420 714L640 618L842 680L1080 570L1344 640L1600 540V900H0Z" fill="rgba(18,27,45,0.86)"/>
</svg>