<svg xmlns="http://www.w3.org/2000/svg" viewBox="0 0 1600 900" role="img" aria-label="CTF cover 9">
  <defs>
    <linearGradient id="bg" x1="0%" y1="0%" x2="100%" y2="100%">
      <stop offset="0%" stop-color="#0a1020"/>
      <stop offset="100%" stop-color="#243b53"/>
    </linearGradient>
    <pattern id="grid" width="64" height="64" patternUnits="userSpaceOnUse">
      <path d="M64 0H0V64" fill="none" stroke="rgba(158,255,169,0.12)" stroke-width="1.5"/>
    </pattern>
  </defs>
  <rect width="1600" height="900" fill="url(#bg)"/>
  <rect width="1600" height="900" fill="url(#grid)"/>
  <rect x="39" y="255" width="18" height="616" fill="rgba(0,209,255,0.1)"/><rect x="134" y="92" width="18" height="610" fill="rgba(0,209,255,0.1)"/><rect x="230" y="178" width="18" height="352" fill="rgba(0,209,255,0.1)"/><rect x="345" y="189" width="18" height="484" fill="rgba(0,209,255,0.1)"/><rect x="422" y="153" width="18" height="476" fill="rgba(0,209,255,0.1)"/><rect x="526" y="234" width="18" height="398" fill="rgba(0,209,255,0.1)"/><rect x="611" y="176" width="18" height="363" fill="rgba(0,209,255,0.1)"/><rect x="709" y="255" width="18" height="565" fill="rgba(0,209,255,0.1)"/><rect x="802" y="159" width="18" height="261" fill="rgba(0,209,255,0.1)"/><rect x="909" y="164" width="18" height="511" fill="rgba(0,209,255,0.1)"/><rect x="993" y="225" width="18" height="677" fill="rgba(0,209,255,0.1)"/><rect x="1086" y="160" width="18" height="312" fill="rgba(0,209,255,0.1)"/><rect x="1185" y="222" width="18" height="586" fill="rgba(0,209,255,0.1)"/><rect x="1290" y="242" width="18" height="602" fill="rgba(0,209,255,0.1)"/><rect x="1366" y="117" width="18" height="355" fill="rgba(0,209,255,0.1)"/><rect x="1489" y="247" width="18" height="507" fill="rgba(0,209,255,0.1)"/>
  <rect x="55" y="538" width="105" height="114" rx="18" fill="rgba(17,24,39,0.46)" stroke="rgba(158,255,169,0.26)"/><rect x="268" y="394" width="96" height="154" rx="18" fill="rgba(17,24,39,0.46)" stroke="rgba(158,255,169,0.26)"/><rect x="493" y="582" width="91" height="163" rx="18" fill="rgba(17,24,39,0.46)" stroke="rgba(158,255,169,0.26)"/><rect x="730" y="370" width="70" height="98" rx="18" fill="rgba(17,24,39,0.46)" stroke="rgba(158,255,169,0.26)"/><rect x="921" y="264" width="109" height="134" rx="18" fill="rgba(17,24,39,0.46)" stroke="rgba(158,255,169,0.26)"/><rect x="1111" y="373" width="114" height="99" rx="18" fill="rgba(17,24,39,0.46)" stroke="rgba(158,255,169,0.26)"/><rect x="1340" y="499" width="98" height="86" rx="18" fill="rgba(17,24,39,0.46)" stroke="rgba(158,255,169,0.26)"/>
  <path d="M 361 206 L 1283 223" stroke="rgba(158,255,169,0.2)" stroke-width="3"/><path d="M 1283 223 L 1356 576" stroke="rgba(158,255,169,0.2)" stroke-width="3"/><path d="M 934 404 L 877 207" stroke="rgba(158,255,169,0.2)" stroke-width="3"/><path d="M 1410 420 L 1312 475" stroke="rgba(158,255,169,0.2)" stroke-width="3"/><path d="M 1312 475 L 537 591" stroke="rgba(158,255,169,0.2)" stroke-width="3"/><path d="M 1356 576 L 909 573" stroke="rgba(158,255,169,0.2)" stroke-width="3"/><path d="M 877 207 L 909 573" stroke="rgba(158,255,169,0.2)" stroke-width="3"/><path d="M 213 713 L 537 591" stroke="rgba(158,255,169,0.2)" stroke-width="3"/><path d="M 537 591 L 357 417" stroke="rgba(158,255,169,0.2)" stroke-width="3"/><path d="M 909 573 L 357 417" stroke="rgba(158,255,169,0.2)" stroke-width="3"/><path d="M 1393 636 L 1283 223" stroke="rgba(158,255,169,0.2)" stroke-width="3"/>
  <circle cx="361" cy="206" r="8" fill="#00d1ff" fill-opacity="0.9"/><circle cx="361" cy="206" r="20" fill="#9effa9" fill-opacity="0.10"/><circle cx="1283" cy="223" r="8" fill="#00d1ff" fill-opacity="0.9"/><circle cx="1283" cy="223" r="20" fill="#9effa9" fill-opacity="0.10"/><circle cx="934" cy="404" r="8" fill="#00d1ff" fill-opacity="0.9"/><circle cx="934" cy="404" r="20" fill="#9effa9" fill-opacity="0.10"/><circle cx="1410" cy="420" r="8" fill="#00d1ff" fill-opacity="0.9"/><circle cx="1410" cy="420" r="20" fill="#9effa9" fill-opacity="0.10"/><circle cx="1312" cy="475" r="8" fill="#00d1ff" fill-opacity="0.9"/><circle cx="1312" cy="475" r="20" fill="#9effa9" fill-opacity="0.10"/><circle cx="1356" cy="576" r="8" fill="#00d1ff" fill-opacity="0.9"/><circle cx="1356" cy="576" r="20" fill="#9effa9" fill-opacity="0.10"/><circle cx="877" cy="207" r="8" fill="#00d1ff" fill-opacity="0.9"/><circle cx="877" cy="207" r="20" fill="#9effa9" fill-opacity="0.10"/><circle cx="213" cy="713" r="8" fill="#00d1ff" fill-opacity="0.9"/><circle cx="213" cy="713" r="20" fill="#9effa9" fill-opacity="0.10"/><circle cx="537" cy="591" r="8" fill="#00d1ff" fill-opacity="0.9"/><circle cx="537" cy="591" r="20" fill="#9effa9" fill-opacity="0.10"/><circle cx="909" cy="573" r="8" fill="#00d1ff" fill-opacity="0.9"/><circle cx="909" cy="573" r="20" fill="#9effa9" fill-opacity="0.10"/><circle cx="1393" cy="636" r="8" fill="#00d1ff" fill-opacity="0.9"/><circle cx="1393" cy="636" r="20" fill="#9effa9" fill-opacity="0.10"/><circle cx="357" cy="417" r="8" fill="#00d1ff" fill-opacity="0.9"/><circle cx="357" cy="417" r="20" fill="#9effa9" fill-opacity="0.10"/>
  <path d="M0 760L220 682L420 714L640 618L842 680L1080 570L1344 640L1600 540V900H0Z" fill="rgba(17,24,39,0.86)"/>
</svg>