<svg xmlns="http://www.w3.org/2000/svg" viewBox="0 0 1600 900" role="img" aria-label="Hacker cover 13">
  <defs>
    <linearGradient id="bg" x1="0%" y1="0%" x2="100%" y2="100%">
      <stop offset="0%" stop-color="#04050a"/>
      <stop offset="100%" stop-color="#111827"/>
    </linearGradient>
  </defs>
  <rect width="1600" height="900" fill="url(#bg)"/>
  <rect x="959" y="1" width="6" height="241" fill="rgba(89,255,160,0.1264344108643658)" rx="3"/><rect x="710" y="71" width="6" height="194" fill="rgba(89,255,160,0.13484186532478132)" rx="3"/><rect x="848" y="47" width="6" height="469" fill="rgba(89,255,160,0.14577177790356885)" rx="3"/><rect x="1465" y="158" width="6" height="235" fill="rgba(89,255,160,0.0821969845295426)" rx="3"/><rect x="819" y="178" width="6" height="383" fill="rgba(89,255,160,0.13243733076289893)" rx="3"/><rect x="497" y="145" width="6" height="261" fill="rgba(89,255,160,0.11407290381155862)" rx="3"/><rect x="474" y="-72" width="6" height="477" fill="rgba(89,255,160,0.1753825923739711)" rx="3"/><rect x="1116" y="264" width="6" height="283" fill="rgba(89,255,160,0.18176487690405738)" rx="3"/><rect x="81" y="115" width="6" height="442" fill="rgba(89,255,160,0.16088804523488331)" rx="3"/><rect x="120" y="50" width="6" height="249" fill="rgba(89,255,160,0.157291418887819)" rx="3"/><rect x="329" y="-56" width="6" height="227" fill="rgba(89,255,160,0.10703760972300516)" rx="3"/><rect x="1275" y="210" width="6" height="394" fill="rgba(89,255,160,0.11320692607705363)" rx="3"/><rect x="1451" y="284" width="6" height="283" fill="rgba(89,255,160,0.1870087604663525)" rx="3"/><rect x="999" y="9" width="6" height="212" fill="rgba(89,255,160,0.12972649793084062)" rx="3"/><rect x="1063" y="228" width="6" height="184" fill="rgba(89,255,160,0.1546528620055556)" rx="3"/><rect x="72" y="11" width="6" height="266" fill="rgba(89,255,160,0.1828479112586403)" rx="3"/><rect x="100" y="-65" width="6" height="301" fill="rgba(89,255,160,0.09952928738041882)" rx="3"/><rect x="1071" y="262" width="6" height="238" fill="rgba(89,255,160,0.10218914066888932)" rx="3"/><rect x="1445" y="265" width="6" height="176" fill="rgba(89,255,160,0.11189624941994084)" rx="3"/><rect x="856" y="-6" width="6" height="300" fill="rgba(89,255,160,0.20091731223867587)" rx="3"/><rect x="1142" y="-72" width="6" height="182" fill="rgba(89,255,160,0.1812072469735697)" rx="3"/><rect x="101" y="146" width="6" height="438" fill="rgba(89,255,160,0.11778255555661916)" rx="3"/><rect x="1193" y="-62" width="6" height="490" fill="rgba(89,255,160,0.18038455675025883)" rx="3"/><rect x="1049" y="-12" width="6" height="517" fill="rgba(89,255,160,0.17245405566703031)" rx="3"/><rect x="1031" y="147" width="6" height="384" fill="rgba(89,255,160,0.18215769525089281)" rx="3"/><rect x="392" y="8" width="6" height="293" fill="rgba(89,255,160,0.1220492455387927)" rx="3"/><rect x="666" y="135" width="6" height="191" fill="rgba(89,255,160,0.10673301403140718)" rx="3"/><rect x="976" y="168" width="6" height="442" fill="rgba(89,255,160,0.12127317513100586)" rx="3"/><rect x="751" y="188" width="6" height="502" fill="rgba(89,255,160,0.15565019954941534)" rx="3"/><rect x="287" y="-1" width="6" height="506" fill="rgba(89,255,160,0.09703510969084865)" rx="3"/>
  <polygon points="1348,603 1688,610 1638,653 1298,646" fill="rgba(124,58,237,0.08282201436603011)"/><polygon points="1120,174 1333,176 1283,219 1070,217" fill="rgba(124,58,237,0.16079225365021993)"/><polygon points="356,354 538,370 488,395 306,379" fill="rgba(124,58,237,0.20890591733517033)"/><polygon points="128,370 450,351 400,376 78,395" fill="rgba(124,58,237,0.12351801492048736)"/><polygon points="1386,561 1606,574 1556,618 1336,605" fill="rgba(124,58,237,0.12805444496509785)"/><polygon points="365,519 614,506 564,539 315,552" fill="rgba(124,58,237,0.14076418833442444)"/><polygon points="1357,383 1675,391 1625,413 1307,405" fill="rgba(124,58,237,0.1178266456539396)"/><polygon points="1135,273 1276,262 1226,292 1085,303" fill="rgba(124,58,237,0.1547546910774221)"/><polygon points="1427,636 1603,644 1553,678 1377,670" fill="rgba(124,58,237,0.2019705834599358)"/><polygon points="1336,242 1630,248 1580,281 1286,275" fill="rgba(124,58,237,0.11160306885626242)"/><polygon points="1460,595 1603,585 1553,605 1410,615" fill="rgba(124,58,237,0.14416490673147006)"/><polygon points="437,424 711,421 661,442 387,445" fill="rgba(124,58,237,0.11648649540137282)"/>
  <rect x="139" y="387" width="139" height="120" rx="14" fill="rgba(13,17,23,0.52)" stroke="rgba(89,255,160,0.32)"/><rect x="285" y="396" width="136" height="126" rx="14" fill="rgba(13,17,23,0.52)" stroke="rgba(89,255,160,0.32)"/><rect x="478" y="611" width="114" height="124" rx="14" fill="rgba(13,17,23,0.52)" stroke="rgba(89,255,160,0.32)"/><rect x="640" y="179" width="111" height="99" rx="14" fill="rgba(13,17,23,0.52)" stroke="rgba(89,255,160,0.32)"/><rect x="857" y="397" width="123" height="129" rx="14" fill="rgba(13,17,23,0.52)" stroke="rgba(89,255,160,0.32)"/><rect x="1013" y="594" width="139" height="138" rx="14" fill="rgba(13,17,23,0.52)" stroke="rgba(89,255,160,0.32)"/><rect x="1219" y="335" width="97" height="137" rx="14" fill="rgba(13,17,23,0.52)" stroke="rgba(89,255,160,0.32)"/><rect x="1371" y="255" width="110" height="104" rx="14" fill="rgba(13,17,23,0.52)" stroke="rgba(89,255,160,0.32)"/>
  <path d="M 177 115 L 715 115 L 715 562 L 1230 562" fill="none" stroke="rgba(89,255,160,0.26)" stroke-width="4" stroke-linecap="round"/><path d="M 149 301 L 603 301 L 603 618 L 1265 618" fill="none" stroke="rgba(124,58,237,0.26)" stroke-width="4" stroke-linecap="round"/><path d="M 174 682 L 1022 682 L 1022 225 L 1184 225" fill="none" stroke="rgba(89,255,160,0.26)" stroke-width="4" stroke-linecap="round"/><path d="M 294 661 L 790 661 L 790 423 L 1211 423" fill="none" stroke="rgba(124,58,237,0.26)" stroke-width="4" stroke-linecap="round"/><path d="M 195 498 L 742 498 L 742 632 L 1194 632" fill="none" stroke="rgba(89,255,160,0.26)" stroke-width="4" stroke-linecap="round"/><path d="M 115 283 L 879 283 L 879 629 L 1018 629" fill="none" stroke="rgba(124,58,237,0.26)" stroke-width="4" stroke-linecap="round"/><path d="M 130 507 L 1087 507 L 1087 311 L 1038 311" fill="none" stroke="rgba(89,255,160,0.26)" stroke-width="4" stroke-linecap="round"/><path d="M 205 645 L 1021 645 L 1021 716 L 1326 716" fill="none" stroke="rgba(124,58,237,0.26)" stroke-width="4" stroke-linecap="round"/><path d="M 87 448 L 747 448 L 747 718 L 1150 718" fill="none" stroke="rgba(89,255,160,0.26)" stroke-width="4" stroke-linecap="round"/>
  <circle cx="1321" cy="210" r="4" fill="#59ffa0" fill-opacity="0.85"/><circle cx="1321" cy="210" r="18" fill="#7c3aed" fill-opacity="0.06"/><circle cx="1193" cy="271" r="6" fill="#59ffa0" fill-opacity="0.85"/><circle cx="1193" cy="271" r="20" fill="#7c3aed" fill-opacity="0.06"/><circle cx="1220" cy="197" r="5" fill="#59ffa0" fill-opacity="0.85"/><circle cx="1220" cy="197" r="19" fill="#7c3aed" fill-opacity="0.06"/><circle cx="432" cy="801" r="10" fill="#59ffa0" fill-opacity="0.85"/><circle cx="432" cy="801" r="24" fill="#7c3aed" fill-opacity="0.06"/><circle cx="480" cy="388" r="10" fill="#59ffa0" fill-opacity="0.85"/><circle cx="480" cy="388" r="24" fill="#7c3aed" fill-opacity="0.06"/><circle cx="1312" cy="796" r="5" fill="#59ffa0" fill-opacity="0.85"/><circle cx="1312" cy="796" r="19" fill="#7c3aed" fill-opacity="0.06"/><circle cx="361" cy="769" r="4" fill="#59ffa0" fill-opacity="0.85"/><circle cx="361" cy="769" r="18" fill="#7c3aed" fill-opacity="0.06"/><circle cx="1205" cy="518" r="5" fill="#59ffa0" fill-opacity="0.85"/><circle cx="1205" cy="518" r="19" fill="#7c3aed" fill-opacity="0.06"/><circle cx="1074" cy="816" r="7" fill="#59ffa0" fill-opacity="0.85"/><circle cx="1074" cy="816" r="21" fill="#7c3aed" fill-opacity="0.06"/><circle cx="1472" cy="90" r="7" fill="#59ffa0" fill-opacity="0.85"/><circle cx="1472" cy="90" r="21" fill="#7c3aed" fill-opacity="0.06"/><circle cx="388" cy="131" r="9" fill="#59ffa0" fill-opacity="0.85"/><circle cx="388" cy="131" r="23" fill="#7c3aed" fill-opacity="0.06"/><circle cx="1164" cy="613" r="8" fill="#59ffa0" fill-opacity="0.85"/><circle cx="1164" cy="613" r="22" fill="#7c3aed" fill-opacity="0.06"/><circle cx="1026" cy="442" r="6" fill="#59ffa0" fill-opacity="0.85"/><circle cx="1026" cy="442" r="20" fill="#7c3aed" fill-opacity="0.06"/><circle cx="1332" cy="593" r="5" fill="#59ffa0" fill-opacity="0.85"/><circle cx="1332" cy="593" r="19" fill="#7c3aed" fill-opacity="0.06"/><circle cx="955" cy="83" r="10" fill="#59ffa0" fill-opacity="0.85"/><circle cx="955" cy="83" r="24" fill="#7c3aed" fill-opacity="0.06"/><circle cx="118" cy="90" r="4" fill="#59ffa0" fill-opacity="0.85"/><circle cx="118" cy="90" r="18" fill="#7c3aed" fill-opacity="0.06"/>
  <rect x="0" y="780" width="1600" height="120" fill="rgba(13,17,23,0.88)"/>
</svg>