<svg xmlns="http://www.w3.org/2000/svg" viewBox="0 0 1600 900" role="img" aria-label="CTF cover 10">
  <defs>
    <linearGradient id="bg" x1="0%" y1="0%" x2="100%" y2="100%">
      <stop offset="0%" stop-color="#111827"/>
      <stop offset="100%" stop-color="#1f2937"/>
    </linearGradient>
    <pattern id="grid" width="64" height="64" patternUnits="userSpaceOnUse">
      <path d="M64 0H0V64" fill="none" stroke="rgba(34,211,238,0.12)" stroke-width="1.5"/>
    </pattern>
  </defs>
  <rect width="1600" height="900" fill="url(#bg)"/>
  <rect width="1600" height="900" fill="url(#grid)"/>
  <rect x="59" y="110" width="18" height="335" fill="rgba(167,139,250,0.1)"/><rect x="155" y="211" width="18" height="595" fill="rgba(167,139,250,0.1)"/><rect x="249" y="167" width="18" height="326" fill="rgba(167,139,250,0.1)"/><rect x="340" y="161" width="18" height="472" fill="rgba(167,139,250,0.1)"/><rect x="422" y="90" width="18" height="545" fill="rgba(167,139,250,0.1)"/><rect x="518" y="81" width="18" height="694" fill="rgba(167,139,250,0.1)"/><rect x="623" y="217" width="18" height="687" fill="rgba(167,139,250,0.1)"/><rect x="724" y="258" width="18" height="309" fill="rgba(167,139,250,0.1)"/><rect x="813" y="152" width="18" height="632" fill="rgba(167,139,250,0.1)"/><rect x="913" y="236" width="18" height="530" fill="rgba(167,139,250,0.1)"/><rect x="986" y="190" width="18" height="620" fill="rgba(167,139,250,0.1)"/><rect x="1099" y="222" width="18" height="374" fill="rgba(167,139,250,0.1)"/><rect x="1177" y="84" width="18" height="452" fill="rgba(167,139,250,0.1)"/><rect x="1270" y="255" width="18" height="562" fill="rgba(167,139,250,0.1)"/><rect x="1392" y="238" width="18" height="371" fill="rgba(167,139,250,0.1)"/><rect x="1489" y="109" width="18" height="534" fill="rgba(167,139,250,0.1)"/>
  <rect x="97" y="294" width="133" height="104" rx="18" fill="rgba(15,23,42,0.46)" stroke="rgba(34,211,238,0.26)"/><rect x="284" y="428" width="77" height="143" rx="18" fill="rgba(15,23,42,0.46)" stroke="rgba(34,211,238,0.26)"/><rect x="488" y="411" width="144" height="163" rx="18" fill="rgba(15,23,42,0.46)" stroke="rgba(34,211,238,0.26)"/><rect x="730" y="527" width="113" height="99" rx="18" fill="rgba(15,23,42,0.46)" stroke="rgba(34,211,238,0.26)"/><rect x="900" y="581" width="86" height="165" rx="18" fill="rgba(15,23,42,0.46)" stroke="rgba(34,211,238,0.26)"/><rect x="1134" y="252" width="121" height="139" rx="18" fill="rgba(15,23,42,0.46)" stroke="rgba(34,211,238,0.26)"/><rect x="1341" y="185" width="104" height="157" rx="18" fill="rgba(15,23,42,0.46)" stroke="rgba(34,211,238,0.26)"/>
  <path d="M 529 545 L 1246 681" stroke="rgba(34,211,238,0.2)" stroke-width="3"/><path d="M 1246 681 L 201 687" stroke="rgba(34,211,238,0.2)" stroke-width="3"/><path d="M 1302 295 L 152 353" stroke="rgba(34,211,238,0.2)" stroke-width="3"/><path d="M 251 429 L 201 687" stroke="rgba(34,211,238,0.2)" stroke-width="3"/><path d="M 152 353 L 1315 778" stroke="rgba(34,211,238,0.2)" stroke-width="3"/><path d="M 201 687 L 1418 441" stroke="rgba(34,211,238,0.2)" stroke-width="3"/><path d="M 1418 441 L 833 776" stroke="rgba(34,211,238,0.2)" stroke-width="3"/><path d="M 1193 254 L 1315 778" stroke="rgba(34,211,238,0.2)" stroke-width="3"/><path d="M 1315 778 L 254 268" stroke="rgba(34,211,238,0.2)" stroke-width="3"/><path d="M 833 776 L 529 545" stroke="rgba(34,211,238,0.2)" stroke-width="3"/><path d="M 254 268 L 660 724" stroke="rgba(34,211,238,0.2)" stroke-width="3"/>
  <circle cx="529" cy="545" r="8" fill="#a78bfa" fill-opacity="0.9"/><circle cx="529" cy="545" r="20" fill="#22d3ee" fill-opacity="0.10"/><circle cx="1246" cy="681" r="8" fill="#a78bfa" fill-opacity="0.9"/><circle cx="1246" cy="681" r="20" fill="#22d3ee" fill-opacity="0.10"/><circle cx="1302" cy="295" r="8" fill="#a78bfa" fill-opacity="0.9"/><circle cx="1302" cy="295" r="20" fill="#22d3ee" fill-opacity="0.10"/><circle cx="251" cy="429" r="8" fill="#a78bfa" fill-opacity="0.9"/><circle cx="251" cy="429" r="20" fill="#22d3ee" fill-opacity="0.10"/><circle cx="152" cy="353" r="8" fill="#a78bfa" fill-opacity="0.9"/><circle cx="152" cy="353" r="20" fill="#22d3ee" fill-opacity="0.10"/><circle cx="201" cy="687" r="8" fill="#a78bfa" fill-opacity="0.9"/><circle cx="201" cy="687" r="20" fill="#22d3ee" fill-opacity="0.10"/><circle cx="1418" cy="441" r="8" fill="#a78bfa" fill-opacity="0.9"/><circle cx="1418" cy="441" r="20" fill="#22d3ee" fill-opacity="0.10"/><circle cx="1193" cy="254" r="8" fill="#a78bfa" fill-opacity="0.9"/><circle cx="1193" cy="254" r="20" fill="#22d3ee" fill-opacity="0.10"/><circle cx="1315" cy="778" r="8" fill="#a78bfa" fill-opacity="0.9"/><circle cx="1315" cy="778" r="20" fill="#22d3ee" fill-opacity="0.10"/><circle cx="833" cy="776" r="8" fill="#a78bfa" fill-opacity="0.9"/><circle cx="833" cy="776" r="20" fill="#22d3ee" fill-opacity="0.10"/><circle cx="254" cy="268" r="8" fill="#a78bfa" fill-opacity="0.9"/><circle cx="254" cy="268" r="20" fill="#22d3ee" fill-opacity="0.10"/><circle cx="660" cy="724" r="8" fill="#a78bfa" fill-opacity="0.9"/><circle cx="660" cy="724" r="20" fill="#22d3ee" fill-opacity="0.10"/>
  <path d="M0 760L220 682L420 714L640 618L842 680L1080 570L1344 640L1600 540V900H0Z" fill="rgba(15,23,42,0.86)"/>
</svg>