<svg xmlns="http://www.w3.org/2000/svg" viewBox="0 0 1600 900" role="img" aria-label="Hacker cover 8">
  <defs>
    <linearGradient id="bg" x1="0%" y1="0%" x2="100%" y2="100%">
      <stop offset="0%" stop-color="#06090f"/>
      <stop offset="100%" stop-color="#101b2d"/>
    </linearGradient>
  </defs>
  <rect width="1600" height="900" fill="url(#bg)"/>
  <rect x="925" y="35" width="6" height="276" fill="rgba(255,60,172,0.15028845769040886)" rx="3"/><rect x="1509" y="147" width="6" height="250" fill="rgba(255,60,172,0.2104143882130704)" rx="3"/><rect x="50" y="-55" width="6" height="314" fill="rgba(255,60,172,0.17880595891528445)" rx="3"/><rect x="697" y="133" width="6" height="271" fill="rgba(255,60,172,0.08680448503211646)" rx="3"/><rect x="1326" y="262" width="6" height="471" fill="rgba(255,60,172,0.1376595081300342)" rx="3"/><rect x="1407" y="-59" width="6" height="434" fill="rgba(255,60,172,0.13465523296428528)" rx="3"/><rect x="1526" y="78" width="6" height="304" fill="rgba(255,60,172,0.19217789312634734)" rx="3"/><rect x="526" y="130" width="6" height="203" fill="rgba(255,60,172,0.1176019378243762)" rx="3"/><rect x="1417" y="281" width="6" height="350" fill="rgba(255,60,172,0.09862071028048319)" rx="3"/><rect x="293" y="31" width="6" height="290" fill="rgba(255,60,172,0.15814753497270878)" rx="3"/><rect x="107" y="105" width="6" height="415" fill="rgba(255,60,172,0.10134353625117436)" rx="3"/><rect x="816" y="148" width="6" height="294" fill="rgba(255,60,172,0.11951617029282324)" rx="3"/><rect x="704" y="143" width="6" height="311" fill="rgba(255,60,172,0.1373396648278353)" rx="3"/><rect x="1331" y="21" width="6" height="332" fill="rgba(255,60,172,0.16704290474107358)" rx="3"/><rect x="558" y="219" width="6" height="217" fill="rgba(255,60,172,0.15864909949414566)" rx="3"/><rect x="882" y="220" width="6" height="220" fill="rgba(255,60,172,0.1399773569965023)" rx="3"/><rect x="560" y="57" width="6" height="363" fill="rgba(255,60,172,0.18531702905788883)" rx="3"/><rect x="1376" y="11" width="6" height="289" fill="rgba(255,60,172,0.18945773650397188)" rx="3"/><rect x="1002" y="63" width="6" height="485" fill="rgba(255,60,172,0.13959926707267467)" rx="3"/><rect x="7" y="-41" width="6" height="186" fill="rgba(255,60,172,0.21833126429362237)" rx="3"/><rect x="884" y="231" width="6" height="205" fill="rgba(255,60,172,0.1287695588051307)" rx="3"/><rect x="194" y="87" width="6" height="285" fill="rgba(255,60,172,0.16179867348665944)" rx="3"/><rect x="1103" y="170" width="6" height="417" fill="rgba(255,60,172,0.19827158393461394)" rx="3"/><rect x="1383" y="182" width="6" height="242" fill="rgba(255,60,172,0.08846672982175903)" rx="3"/><rect x="1168" y="105" width="6" height="344" fill="rgba(255,60,172,0.21244460939373827)" rx="3"/><rect x="1248" y="-66" width="6" height="502" fill="rgba(255,60,172,0.10860130451803755)" rx="3"/><rect x="953" y="-59" width="6" height="217" fill="rgba(255,60,172,0.19585320988326377)" rx="3"/><rect x="1142" y="240" width="6" height="354" fill="rgba(255,60,172,0.08715712778382823)" rx="3"/><rect x="444" y="113" width="6" height="264" fill="rgba(255,60,172,0.15704856471864304)" rx="3"/><rect x="383" y="133" width="6" height="259" fill="rgba(255,60,172,0.1632373775449394)" rx="3"/>
  <polygon points="889,323 1115,340 1065,371 839,354" fill="rgba(120,75,160,0.1658861274291758)"/><polygon points="1203,192 1471,197 1421,216 1153,211" fill="rgba(120,75,160,0.11615169779579688)"/><polygon points="460,712 642,696 592,722 410,738" fill="rgba(120,75,160,0.09286547353964723)"/><polygon points="244,582 531,581 481,611 194,612" fill="rgba(120,75,160,0.10707258089582487)"/><polygon points="780,146 1068,156 1018,189 730,179" fill="rgba(120,75,160,0.18034209392007872)"/><polygon points="466,664 655,658 605,700 416,706" fill="rgba(120,75,160,0.11245156609934878)"/><polygon points="179,434 410,429 360,466 129,471" fill="rgba(120,75,160,0.13216571348072256)"/><polygon points="1107,416 1431,412 1381,432 1057,436" fill="rgba(120,75,160,0.20652158266212045)"/><polygon points="492,669 766,678 716,708 442,699" fill="rgba(120,75,160,0.21902845059446568)"/><polygon points="641,480 874,465 824,510 591,525" fill="rgba(120,75,160,0.20039437069739305)"/><polygon points="1355,702 1495,710 1445,747 1305,739" fill="rgba(120,75,160,0.09414531100098647)"/><polygon points="289,575 625,574 575,610 239,611" fill="rgba(120,75,160,0.17837399261994885)"/>
  <rect x="122" y="480" width="119" height="134" rx="14" fill="rgba(18,24,38,0.52)" stroke="rgba(255,60,172,0.32)"/><rect x="282" y="559" width="108" height="127" rx="14" fill="rgba(18,24,38,0.52)" stroke="rgba(255,60,172,0.32)"/><rect x="463" y="368" width="128" height="131" rx="14" fill="rgba(18,24,38,0.52)" stroke="rgba(255,60,172,0.32)"/><rect x="643" y="261" width="117" height="103" rx="14" fill="rgba(18,24,38,0.52)" stroke="rgba(255,60,172,0.32)"/><rect x="853" y="337" width="134" height="116" rx="14" fill="rgba(18,24,38,0.52)" stroke="rgba(255,60,172,0.32)"/><rect x="1033" y="365" width="117" height="121" rx="14" fill="rgba(18,24,38,0.52)" stroke="rgba(255,60,172,0.32)"/><rect x="1205" y="508" width="100" height="129" rx="14" fill="rgba(18,24,38,0.52)" stroke="rgba(255,60,172,0.32)"/><rect x="1361" y="359" width="129" height="122" rx="14" fill="rgba(18,24,38,0.52)" stroke="rgba(255,60,172,0.32)"/>
  <path d="M 163 693 L 589 693 L 589 572 L 532 572" fill="none" stroke="rgba(255,60,172,0.26)" stroke-width="4" stroke-linecap="round"/><path d="M 214 415 L 648 415 L 648 733 L 1105 733" fill="none" stroke="rgba(120,75,160,0.26)" stroke-width="4" stroke-linecap="round"/><path d="M 220 708 L 917 708 L 917 577 L 919 577" fill="none" stroke="rgba(255,60,172,0.26)" stroke-width="4" stroke-linecap="round"/><path d="M 167 456 L 824 456 L 824 117 L 1079 117" fill="none" stroke="rgba(120,75,160,0.26)" stroke-width="4" stroke-linecap="round"/><path d="M 186 423 L 740 423 L 740 430 L 849 430" fill="none" stroke="rgba(255,60,172,0.26)" stroke-width="4" stroke-linecap="round"/><path d="M 193 290 L 606 290 L 606 645 L 772 645" fill="none" stroke="rgba(120,75,160,0.26)" stroke-width="4" stroke-linecap="round"/><path d="M 88 421 L 558 421 L 558 188 L 1510 188" fill="none" stroke="rgba(255,60,172,0.26)" stroke-width="4" stroke-linecap="round"/><path d="M 239 339 L 567 339 L 567 112 L 775 112" fill="none" stroke="rgba(120,75,160,0.26)" stroke-width="4" stroke-linecap="round"/><path d="M 204 530 L 614 530 L 614 414 L 1071 414" fill="none" stroke="rgba(255,60,172,0.26)" stroke-width="4" stroke-linecap="round"/>
  <circle cx="1384" cy="739" r="5" fill="#ff3cac" fill-opacity="0.85"/><circle cx="1384" cy="739" r="19" fill="#784ba0" fill-opacity="0.06"/><circle cx="395" cy="156" r="9" fill="#ff3cac" fill-opacity="0.85"/><circle cx="395" cy="156" r="23" fill="#784ba0" fill-opacity="0.06"/><circle cx="1070" cy="434" r="7" fill="#ff3cac" fill-opacity="0.85"/><circle cx="1070" cy="434" r="21" fill="#784ba0" fill-opacity="0.06"/><circle cx="1181" cy="168" r="10" fill="#ff3cac" fill-opacity="0.85"/><circle cx="1181" cy="168" r="24" fill="#784ba0" fill-opacity="0.06"/><circle cx="1260" cy="115" r="5" fill="#ff3cac" fill-opacity="0.85"/><circle cx="1260" cy="115" r="19" fill="#784ba0" fill-opacity="0.06"/><circle cx="753" cy="545" r="8" fill="#ff3cac" fill-opacity="0.85"/><circle cx="753" cy="545" r="22" fill="#784ba0" fill-opacity="0.06"/><circle cx="709" cy="173" r="8" fill="#ff3cac" fill-opacity="0.85"/><circle cx="709" cy="173" r="22" fill="#784ba0" fill-opacity="0.06"/><circle cx="86" cy="667" r="8" fill="#ff3cac" fill-opacity="0.85"/><circle cx="86" cy="667" r="22" fill="#784ba0" fill-opacity="0.06"/><circle cx="1056" cy="206" r="6" fill="#ff3cac" fill-opacity="0.85"/><circle cx="1056" cy="206" r="20" fill="#784ba0" fill-opacity="0.06"/><circle cx="402" cy="299" r="7" fill="#ff3cac" fill-opacity="0.85"/><circle cx="402" cy="299" r="21" fill="#784ba0" fill-opacity="0.06"/><circle cx="118" cy="465" r="6" fill="#ff3cac" fill-opacity="0.85"/><circle cx="118" cy="465" r="20" fill="#784ba0" fill-opacity="0.06"/><circle cx="1054" cy="714" r="9" fill="#ff3cac" fill-opacity="0.85"/><circle cx="1054" cy="714" r="23" fill="#784ba0" fill-opacity="0.06"/><circle cx="1026" cy="280" r="6" fill="#ff3cac" fill-opacity="0.85"/><circle cx="1026" cy="280" r="20" fill="#784ba0" fill-opacity="0.06"/><circle cx="618" cy="171" r="5" fill="#ff3cac" fill-opacity="0.85"/><circle cx="618" cy="171" r="19" fill="#784ba0" fill-opacity="0.06"/><circle cx="616" cy="324" r="5" fill="#ff3cac" fill-opacity="0.85"/><circle cx="616" cy="324" r="19" fill="#784ba0" fill-opacity="0.06"/><circle cx="949" cy="391" r="5" fill="#ff3cac" fill-opacity="0.85"/><circle cx="949" cy="391" r="19" fill="#784ba0" fill-opacity="0.06"/>
  <rect x="0" y="780" width="1600" height="120" fill="rgba(18,24,38,0.88)"/>
</svg>