<svg xmlns="http://www.w3.org/2000/svg" viewBox="0 0 1600 900" role="img" aria-label="CTF cover 8">
  <defs>
    <linearGradient id="bg" x1="0%" y1="0%" x2="100%" y2="100%">
      <stop offset="0%" stop-color="#0e1116"/>
      <stop offset="100%" stop-color="#1c2541"/>
    </linearGradient>
    <pattern id="grid" width="64" height="64" patternUnits="userSpaceOnUse">
      <path d="M64 0H0V64" fill="none" stroke="rgba(126,231,135,0.12)" stroke-width="1.5"/>
    </pattern>
  </defs>
  <rect width="1600" height="900" fill="url(#bg)"/>
  <rect width="1600" height="900" fill="url(#grid)"/>
  <rect x="36" y="176" width="18" height="641" fill="rgba(255,123,114,0.1)"/><rect x="159" y="139" width="18" height="479" fill="rgba(255,123,114,0.1)"/><rect x="242" y="91" width="18" height="558" fill="rgba(255,123,114,0.1)"/><rect x="325" y="125" width="18" height="626" fill="rgba(255,123,114,0.1)"/><rect x="440" y="197" width="18" height="332" fill="rgba(255,123,114,0.1)"/><rect x="515" y="126" width="18" height="624" fill="rgba(255,123,114,0.1)"/><rect x="631" y="164" width="18" height="689" fill="rgba(255,123,114,0.1)"/><rect x="704" y="254" width="18" height="349" fill="rgba(255,123,114,0.1)"/><rect x="820" y="129" width="18" height="604" fill="rgba(255,123,114,0.1)"/><rect x="908" y="120" width="18" height="360" fill="rgba(255,123,114,0.1)"/><rect x="999" y="232" width="18" height="328" fill="rgba(255,123,114,0.1)"/><rect x="1099" y="96" width="18" height="365" fill="rgba(255,123,114,0.1)"/><rect x="1180" y="126" width="18" height="683" fill="rgba(255,123,114,0.1)"/><rect x="1298" y="112" width="18" height="651" fill="rgba(255,123,114,0.1)"/><rect x="1369" y="234" width="18" height="521" fill="rgba(255,123,114,0.1)"/><rect x="1487" y="122" width="18" height="350" fill="rgba(255,123,114,0.1)"/>
  <rect x="79" y="496" width="117" height="108" rx="18" fill="rgba(18,24,38,0.46)" stroke="rgba(126,231,135,0.26)"/><rect x="301" y="311" width="147" height="93" rx="18" fill="rgba(18,24,38,0.46)" stroke="rgba(126,231,135,0.26)"/><rect x="503" y="576" width="128" height="135" rx="18" fill="rgba(18,24,38,0.46)" stroke="rgba(126,231,135,0.26)"/><rect x="717" y="550" width="136" height="115" rx="18" fill="rgba(18,24,38,0.46)" stroke="rgba(126,231,135,0.26)"/><rect x="927" y="145" width="114" height="175" rx="18" fill="rgba(18,24,38,0.46)" stroke="rgba(126,231,135,0.26)"/><rect x="1138" y="126" width="137" height="147" rx="18" fill="rgba(18,24,38,0.46)" stroke="rgba(126,231,135,0.26)"/><rect x="1321" y="429" width="86" height="99" rx="18" fill="rgba(18,24,38,0.46)" stroke="rgba(126,231,135,0.26)"/>
  <path d="M 340 509 L 700 317" stroke="rgba(126,231,135,0.2)" stroke-width="3"/><path d="M 705 415 L 674 135" stroke="rgba(126,231,135,0.2)" stroke-width="3"/><path d="M 1319 503 L 700 317" stroke="rgba(126,231,135,0.2)" stroke-width="3"/><path d="M 674 135 L 669 579" stroke="rgba(126,231,135,0.2)" stroke-width="3"/><path d="M 700 317 L 669 579" stroke="rgba(126,231,135,0.2)" stroke-width="3"/><path d="M 952 440 L 1202 712" stroke="rgba(126,231,135,0.2)" stroke-width="3"/><path d="M 282 167 L 1276 458" stroke="rgba(126,231,135,0.2)" stroke-width="3"/><path d="M 669 579 L 591 197" stroke="rgba(126,231,135,0.2)" stroke-width="3"/><path d="M 152 706 L 1276 458" stroke="rgba(126,231,135,0.2)" stroke-width="3"/><path d="M 1202 712 L 340 509" stroke="rgba(126,231,135,0.2)" stroke-width="3"/><path d="M 1276 458 L 705 415" stroke="rgba(126,231,135,0.2)" stroke-width="3"/>
  <circle cx="340" cy="509" r="8" fill="#ff7b72" fill-opacity="0.9"/><circle cx="340" cy="509" r="20" fill="#7ee787" fill-opacity="0.10"/><circle cx="705" cy="415" r="8" fill="#ff7b72" fill-opacity="0.9"/><circle cx="705" cy="415" r="20" fill="#7ee787" fill-opacity="0.10"/><circle cx="1319" cy="503" r="8" fill="#ff7b72" fill-opacity="0.9"/><circle cx="1319" cy="503" r="20" fill="#7ee787" fill-opacity="0.10"/><circle cx="674" cy="135" r="8" fill="#ff7b72" fill-opacity="0.9"/><circle cx="674" cy="135" r="20" fill="#7ee787" fill-opacity="0.10"/><circle cx="700" cy="317" r="8" fill="#ff7b72" fill-opacity="0.9"/><circle cx="700" cy="317" r="20" fill="#7ee787" fill-opacity="0.10"/><circle cx="952" cy="440" r="8" fill="#ff7b72" fill-opacity="0.9"/><circle cx="952" cy="440" r="20" fill="#7ee787" fill-opacity="0.10"/><circle cx="282" cy="167" r="8" fill="#ff7b72" fill-opacity="0.9"/><circle cx="282" cy="167" r="20" fill="#7ee787" fill-opacity="0.10"/><circle cx="669" cy="579" r="8" fill="#ff7b72" fill-opacity="0.9"/><circle cx="669" cy="579" r="20" fill="#7ee787" fill-opacity="0.10"/><circle cx="152" cy="706" r="8" fill="#ff7b72" fill-opacity="0.9"/><circle cx="152" cy="706" r="20" fill="#7ee787" fill-opacity="0.10"/><circle cx="1202" cy="712" r="8" fill="#ff7b72" fill-opacity="0.9"/><circle cx="1202" cy="712" r="20" fill="#7ee787" fill-opacity="0.10"/><circle cx="1276" cy="458" r="8" fill="#ff7b72" fill-opacity="0.9"/><circle cx="1276" cy="458" r="20" fill="#7ee787" fill-opacity="0.10"/><circle cx="591" cy="197" r="8" fill="#ff7b72" fill-opacity="0.9"/><circle cx="591" cy="197" r="20" fill="#7ee787" fill-opacity="0.10"/>
  <path d="M0 760L220 682L420 714L640 618L842 680L1080 570L1344 640L1600 540V900H0Z" fill="rgba(18,24,38,0.86)"/>
</svg>