<svg xmlns="http://www.w3.org/2000/svg" viewBox="0 0 1600 900" role="img" aria-label="Hacker cover 4">
  <defs>
    <linearGradient id="bg" x1="0%" y1="0%" x2="100%" y2="100%">
      <stop offset="0%" stop-color="#090b10"/>
      <stop offset="100%" stop-color="#1b1f2a"/>
    </linearGradient>
  </defs>
  <rect width="1600" height="900" fill="url(#bg)"/>
  <rect x="213" y="76" width="6" height="452" fill="rgba(247,37,133,0.19187767108767045)" rx="3"/><rect x="697" y="110" width="6" height="217" fill="rgba(247,37,133,0.09607677629073778)" rx="3"/><rect x="875" y="130" width="6" height="474" fill="rgba(247,37,133,0.1558398145540283)" rx="3"/><rect x="133" y="177" width="6" height="211" fill="rgba(247,37,133,0.1553291178592119)" rx="3"/><rect x="1353" y="-69" width="6" height="507" fill="rgba(247,37,133,0.11777378411782513)" rx="3"/><rect x="662" y="-62" width="6" height="475" fill="rgba(247,37,133,0.09226548608551602)" rx="3"/><rect x="385" y="286" width="6" height="389" fill="rgba(247,37,133,0.09005074322398883)" rx="3"/><rect x="457" y="245" width="6" height="485" fill="rgba(247,37,133,0.11759915739933846)" rx="3"/><rect x="221" y="242" width="6" height="494" fill="rgba(247,37,133,0.1782929899861213)" rx="3"/><rect x="480" y="-77" width="6" height="432" fill="rgba(247,37,133,0.19752498082212722)" rx="3"/><rect x="404" y="98" width="6" height="325" fill="rgba(247,37,133,0.21186892928974954)" rx="3"/><rect x="1072" y="-55" width="6" height="485" fill="rgba(247,37,133,0.11399304312578872)" rx="3"/><rect x="1130" y="241" width="6" height="505" fill="rgba(247,37,133,0.20592389293197333)" rx="3"/><rect x="556" y="-66" width="6" height="501" fill="rgba(247,37,133,0.20903341284675303)" rx="3"/><rect x="1289" y="217" width="6" height="187" fill="rgba(247,37,133,0.1482856551829102)" rx="3"/><rect x="1255" y="237" width="6" height="192" fill="rgba(247,37,133,0.2170070157062408)" rx="3"/><rect x="580" y="109" width="6" height="223" fill="rgba(247,37,133,0.1672094834862751)" rx="3"/><rect x="1080" y="172" width="6" height="308" fill="rgba(247,37,133,0.2059986330665693)" rx="3"/><rect x="346" y="203" width="6" height="425" fill="rgba(247,37,133,0.21187732443573193)" rx="3"/><rect x="1098" y="176" width="6" height="170" fill="rgba(247,37,133,0.1995838162750579)" rx="3"/><rect x="754" y="179" width="6" height="400" fill="rgba(247,37,133,0.119382866239813)" rx="3"/><rect x="994" y="-58" width="6" height="173" fill="rgba(247,37,133,0.10096826986280213)" rx="3"/><rect x="421" y="291" width="6" height="432" fill="rgba(247,37,133,0.18781836131493101)" rx="3"/><rect x="544" y="128" width="6" height="272" fill="rgba(247,37,133,0.1642438763902181)" rx="3"/><rect x="200" y="266" width="6" height="488" fill="rgba(247,37,133,0.11372381788235476)" rx="3"/><rect x="851" y="252" width="6" height="487" fill="rgba(247,37,133,0.11238045219868517)" rx="3"/><rect x="764" y="-63" width="6" height="332" fill="rgba(247,37,133,0.21501359931740915)" rx="3"/><rect x="1522" y="83" width="6" height="280" fill="rgba(247,37,133,0.18648241337550922)" rx="3"/><rect x="808" y="180" width="6" height="341" fill="rgba(247,37,133,0.10843958912807464)" rx="3"/><rect x="511" y="7" width="6" height="477" fill="rgba(247,37,133,0.20369315343056102)" rx="3"/>
  <polygon points="261,644 538,624 488,668 211,688" fill="rgba(76,201,240,0.13623362243402434)"/><polygon points="304,609 511,620 461,658 254,647" fill="rgba(76,201,240,0.21459198397017842)"/><polygon points="1318,355 1648,355 1598,392 1268,392" fill="rgba(76,201,240,0.08861669156120741)"/><polygon points="355,135 686,148 636,173 305,160" fill="rgba(76,201,240,0.09088624638964594)"/><polygon points="141,144 303,159 253,195 91,180" fill="rgba(76,201,240,0.1679584194184649)"/><polygon points="304,154 587,155 537,188 254,187" fill="rgba(76,201,240,0.10955270868585827)"/><polygon points="372,451 552,451 502,474 322,474" fill="rgba(76,201,240,0.13362928516357825)"/><polygon points="714,190 970,201 920,226 664,215" fill="rgba(76,201,240,0.09947680367253509)"/><polygon points="644,646 813,636 763,675 594,685" fill="rgba(76,201,240,0.10443252237026032)"/><polygon points="728,751 948,749 898,782 678,784" fill="rgba(76,201,240,0.10831432979086504)"/><polygon points="260,506 515,487 465,506 210,525" fill="rgba(76,201,240,0.2155922903625983)"/><polygon points="1426,268 1604,269 1554,306 1376,305" fill="rgba(76,201,240,0.0909070377095397)"/>
  <rect x="119" y="554" width="100" height="102" rx="14" fill="rgba(17,21,30,0.52)" stroke="rgba(247,37,133,0.32)"/><rect x="287" y="577" width="138" height="104" rx="14" fill="rgba(17,21,30,0.52)" stroke="rgba(247,37,133,0.32)"/><rect x="488" y="485" width="120" height="95" rx="14" fill="rgba(17,21,30,0.52)" stroke="rgba(247,37,133,0.32)"/><rect x="649" y="405" width="109" height="121" rx="14" fill="rgba(17,21,30,0.52)" stroke="rgba(247,37,133,0.32)"/><rect x="855" y="150" width="104" height="135" rx="14" fill="rgba(17,21,30,0.52)" stroke="rgba(247,37,133,0.32)"/><rect x="1031" y="427" width="112" height="140" rx="14" fill="rgba(17,21,30,0.52)" stroke="rgba(247,37,133,0.32)"/><rect x="1202" y="468" width="98" height="117" rx="14" fill="rgba(17,21,30,0.52)" stroke="rgba(247,37,133,0.32)"/><rect x="1367" y="376" width="91" height="120" rx="14" fill="rgba(17,21,30,0.52)" stroke="rgba(247,37,133,0.32)"/>
  <path d="M 67 369 L 727 369 L 727 424 L 1187 424" fill="none" stroke="rgba(247,37,133,0.26)" stroke-width="4" stroke-linecap="round"/><path d="M 266 601 L 646 601 L 646 586 L 1046 586" fill="none" stroke="rgba(76,201,240,0.26)" stroke-width="4" stroke-linecap="round"/><path d="M 84 372 L 938 372 L 938 708 L 1157 708" fill="none" stroke="rgba(247,37,133,0.26)" stroke-width="4" stroke-linecap="round"/><path d="M 99 361 L 739 361 L 739 619 L 579 619" fill="none" stroke="rgba(76,201,240,0.26)" stroke-width="4" stroke-linecap="round"/><path d="M 190 171 L 756 171 L 756 271 L 1133 271" fill="none" stroke="rgba(247,37,133,0.26)" stroke-width="4" stroke-linecap="round"/><path d="M 158 635 L 610 635 L 610 509 L 800 509" fill="none" stroke="rgba(76,201,240,0.26)" stroke-width="4" stroke-linecap="round"/><path d="M 77 641 L 870 641 L 870 652 L 1101 652" fill="none" stroke="rgba(247,37,133,0.26)" stroke-width="4" stroke-linecap="round"/><path d="M 140 263 L 750 263 L 750 395 L 529 395" fill="none" stroke="rgba(76,201,240,0.26)" stroke-width="4" stroke-linecap="round"/><path d="M 242 404 L 956 404 L 956 684 L 1416 684" fill="none" stroke="rgba(247,37,133,0.26)" stroke-width="4" stroke-linecap="round"/>
  <circle cx="1188" cy="144" r="9" fill="#f72585" fill-opacity="0.85"/><circle cx="1188" cy="144" r="23" fill="#4cc9f0" fill-opacity="0.06"/><circle cx="1300" cy="133" r="10" fill="#f72585" fill-opacity="0.85"/><circle cx="1300" cy="133" r="24" fill="#4cc9f0" fill-opacity="0.06"/><circle cx="375" cy="355" r="7" fill="#f72585" fill-opacity="0.85"/><circle cx="375" cy="355" r="21" fill="#4cc9f0" fill-opacity="0.06"/><circle cx="206" cy="647" r="7" fill="#f72585" fill-opacity="0.85"/><circle cx="206" cy="647" r="21" fill="#4cc9f0" fill-opacity="0.06"/><circle cx="1300" cy="490" r="5" fill="#f72585" fill-opacity="0.85"/><circle cx="1300" cy="490" r="19" fill="#4cc9f0" fill-opacity="0.06"/><circle cx="403" cy="181" r="8" fill="#f72585" fill-opacity="0.85"/><circle cx="403" cy="181" r="22" fill="#4cc9f0" fill-opacity="0.06"/><circle cx="975" cy="467" r="10" fill="#f72585" fill-opacity="0.85"/><circle cx="975" cy="467" r="24" fill="#4cc9f0" fill-opacity="0.06"/><circle cx="949" cy="533" r="10" fill="#f72585" fill-opacity="0.85"/><circle cx="949" cy="533" r="24" fill="#4cc9f0" fill-opacity="0.06"/><circle cx="944" cy="556" r="10" fill="#f72585" fill-opacity="0.85"/><circle cx="944" cy="556" r="24" fill="#4cc9f0" fill-opacity="0.06"/><circle cx="711" cy="142" r="7" fill="#f72585" fill-opacity="0.85"/><circle cx="711" cy="142" r="21" fill="#4cc9f0" fill-opacity="0.06"/><circle cx="158" cy="585" r="9" fill="#f72585" fill-opacity="0.85"/><circle cx="158" cy="585" r="23" fill="#4cc9f0" fill-opacity="0.06"/><circle cx="1455" cy="317" r="10" fill="#f72585" fill-opacity="0.85"/><circle cx="1455" cy="317" r="24" fill="#4cc9f0" fill-opacity="0.06"/><circle cx="911" cy="315" r="10" fill="#f72585" fill-opacity="0.85"/><circle cx="911" cy="315" r="24" fill="#4cc9f0" fill-opacity="0.06"/><circle cx="652" cy="476" r="5" fill="#f72585" fill-opacity="0.85"/><circle cx="652" cy="476" r="19" fill="#4cc9f0" fill-opacity="0.06"/><circle cx="667" cy="776" r="5" fill="#f72585" fill-opacity="0.85"/><circle cx="667" cy="776" r="19" fill="#4cc9f0" fill-opacity="0.06"/><circle cx="873" cy="560" r="5" fill="#f72585" fill-opacity="0.85"/><circle cx="873" cy="560" r="19" fill="#4cc9f0" fill-opacity="0.06"/>
  <rect x="0" y="780" width="1600" height="120" fill="rgba(17,21,30,0.88)"/>
</svg>