<svg xmlns="http://www.w3.org/2000/svg" viewBox="0 0 1600 900" role="img" aria-label="CTF cover 2">
  <defs>
    <linearGradient id="bg" x1="0%" y1="0%" x2="100%" y2="100%">
      <stop offset="0%" stop-color="#0e1116"/>
      <stop offset="100%" stop-color="#1c2541"/>
    </linearGradient>
    <pattern id="grid" width="64" height="64" patternUnits="userSpaceOnUse">
      <path d="M64 0H0V64" fill="none" stroke="rgba(126,231,135,0.12)" stroke-width="1.5"/>
    </pattern>
  </defs>
  <rect width="1600" height="900" fill="url(#bg)"/>
  <rect width="1600" height="900" fill="url(#grid)"/>
  <rect x="56" y="82" width="18" height="591" fill="rgba(255,123,114,0.1)"/><rect x="150" y="108" width="18" height="522" fill="rgba(255,123,114,0.1)"/><rect x="234" y="135" width="18" height="435" fill="rgba(255,123,114,0.1)"/><rect x="330" y="249" width="18" height="414" fill="rgba(255,123,114,0.1)"/><rect x="429" y="169" width="18" height="597" fill="rgba(255,123,114,0.1)"/><rect x="532" y="129" width="18" height="473" fill="rgba(255,123,114,0.1)"/><rect x="624" y="258" width="18" height="418" fill="rgba(255,123,114,0.1)"/><rect x="714" y="221" width="18" height="501" fill="rgba(255,123,114,0.1)"/><rect x="821" y="158" width="18" height="343" fill="rgba(255,123,114,0.1)"/><rect x="904" y="243" width="18" height="622" fill="rgba(255,123,114,0.1)"/><rect x="1006" y="253" width="18" height="335" fill="rgba(255,123,114,0.1)"/><rect x="1099" y="159" width="18" height="378" fill="rgba(255,123,114,0.1)"/><rect x="1191" y="200" width="18" height="676" fill="rgba(255,123,114,0.1)"/><rect x="1270" y="135" width="18" height="553" fill="rgba(255,123,114,0.1)"/><rect x="1390" y="195" width="18" height="578" fill="rgba(255,123,114,0.1)"/><rect x="1468" y="93" width="18" height="587" fill="rgba(255,123,114,0.1)"/>
  <rect x="72" y="574" width="145" height="101" rx="18" fill="rgba(18,24,38,0.46)" stroke="rgba(126,231,135,0.26)"/><rect x="297" y="452" width="146" height="103" rx="18" fill="rgba(18,24,38,0.46)" stroke="rgba(126,231,135,0.26)"/><rect x="495" y="297" width="139" height="163" rx="18" fill="rgba(18,24,38,0.46)" stroke="rgba(126,231,135,0.26)"/><rect x="698" y="464" width="77" height="105" rx="18" fill="rgba(18,24,38,0.46)" stroke="rgba(126,231,135,0.26)"/><rect x="943" y="140" width="113" height="161" rx="18" fill="rgba(18,24,38,0.46)" stroke="rgba(126,231,135,0.26)"/><rect x="1143" y="527" width="70" height="121" rx="18" fill="rgba(18,24,38,0.46)" stroke="rgba(126,231,135,0.26)"/><rect x="1365" y="301" width="147" height="89" rx="18" fill="rgba(18,24,38,0.46)" stroke="rgba(126,231,135,0.26)"/>
  <path d="M 578 639 L 1426 505" stroke="rgba(126,231,135,0.2)" stroke-width="3"/><path d="M 1449 423 L 961 371" stroke="rgba(126,231,135,0.2)" stroke-width="3"/><path d="M 910 349 L 1426 505" stroke="rgba(126,231,135,0.2)" stroke-width="3"/><path d="M 1426 505 L 961 371" stroke="rgba(126,231,135,0.2)" stroke-width="3"/><path d="M 961 371 L 238 410" stroke="rgba(126,231,135,0.2)" stroke-width="3"/><path d="M 718 743 L 412 365" stroke="rgba(126,231,135,0.2)" stroke-width="3"/><path d="M 940 420 L 373 509" stroke="rgba(126,231,135,0.2)" stroke-width="3"/><path d="M 373 509 L 412 365" stroke="rgba(126,231,135,0.2)" stroke-width="3"/><path d="M 238 410 L 578 639" stroke="rgba(126,231,135,0.2)" stroke-width="3"/><path d="M 412 365 L 830 293" stroke="rgba(126,231,135,0.2)" stroke-width="3"/><path d="M 279 519 L 910 349" stroke="rgba(126,231,135,0.2)" stroke-width="3"/>
  <circle cx="578" cy="639" r="8" fill="#ff7b72" fill-opacity="0.9"/><circle cx="578" cy="639" r="20" fill="#7ee787" fill-opacity="0.10"/><circle cx="1449" cy="423" r="8" fill="#ff7b72" fill-opacity="0.9"/><circle cx="1449" cy="423" r="20" fill="#7ee787" fill-opacity="0.10"/><circle cx="910" cy="349" r="8" fill="#ff7b72" fill-opacity="0.9"/><circle cx="910" cy="349" r="20" fill="#7ee787" fill-opacity="0.10"/><circle cx="1426" cy="505" r="8" fill="#ff7b72" fill-opacity="0.9"/><circle cx="1426" cy="505" r="20" fill="#7ee787" fill-opacity="0.10"/><circle cx="961" cy="371" r="8" fill="#ff7b72" fill-opacity="0.9"/><circle cx="961" cy="371" r="20" fill="#7ee787" fill-opacity="0.10"/><circle cx="718" cy="743" r="8" fill="#ff7b72" fill-opacity="0.9"/><circle cx="718" cy="743" r="20" fill="#7ee787" fill-opacity="0.10"/><circle cx="940" cy="420" r="8" fill="#ff7b72" fill-opacity="0.9"/><circle cx="940" cy="420" r="20" fill="#7ee787" fill-opacity="0.10"/><circle cx="373" cy="509" r="8" fill="#ff7b72" fill-opacity="0.9"/><circle cx="373" cy="509" r="20" fill="#7ee787" fill-opacity="0.10"/><circle cx="238" cy="410" r="8" fill="#ff7b72" fill-opacity="0.9"/><circle cx="238" cy="410" r="20" fill="#7ee787" fill-opacity="0.10"/><circle cx="412" cy="365" r="8" fill="#ff7b72" fill-opacity="0.9"/><circle cx="412" cy="365" r="20" fill="#7ee787" fill-opacity="0.10"/><circle cx="279" cy="519" r="8" fill="#ff7b72" fill-opacity="0.9"/><circle cx="279" cy="519" r="20" fill="#7ee787" fill-opacity="0.10"/><circle cx="830" cy="293" r="8" fill="#ff7b72" fill-opacity="0.9"/><circle cx="830" cy="293" r="20" fill="#7ee787" fill-opacity="0.10"/>
  <path d="M0 760L220 682L420 714L640 618L842 680L1080 570L1344 640L1600 540V900H0Z" fill="rgba(18,24,38,0.86)"/>
</svg>