<svg xmlns="http://www.w3.org/2000/svg" viewBox="0 0 1600 900" role="img" aria-label="Aurora background">
  <defs>
    <linearGradient id="bg" x1="0%" y1="0%" x2="100%" y2="100%">
      <stop offset="0%" stop-color="#081c2c"/>
      <stop offset="55%" stop-color="#103b4a"/>
      <stop offset="100%" stop-color="#1f6f78"/>
    </linearGradient>
    <radialGradient id="glowA" cx="20%" cy="20%" r="60%">
      <stop offset="0%" stop-color="#8ef6d3" stop-opacity="0.85"/>
      <stop offset="100%" stop-color="#8ef6d3" stop-opacity="0"/>
    </radialGradient>
    <radialGradient id="glowB" cx="80%" cy="35%" r="50%">
      <stop offset="0%" stop-color="#8cc8ff" stop-opacity="0.6"/>
      <stop offset="100%" stop-color="#8cc8ff" stop-opacity="0"/>
    </radialGradient>
  </defs>
  <rect width="1600" height="900" fill="url(#bg)"/>
  <rect width="1600" height="900" fill="url(#glowA)"/>
  <rect width="1600" height="900" fill="url(#glowB)"/>
  <path d="M0 560C140 500 240 460 360 470C500 482 590 578 745 584C942 590 1018 420 1213 416C1366 412 1460 497 1600 536V900H0Z" fill="#0d2435" fill-opacity="0.82"/>
  <path d="M0 625C158 566 304 560 440 585C592 612 677 705 855 700C1026 696 1146 591 1298 578C1416 568 1514 602 1600 636V900H0Z" fill="#12354a" fill-opacity="0.74"/>
  <path d="M220 180C470 72 777 92 1056 156C1236 198 1398 260 1520 326" fill="none" stroke="#8ef6d3" stroke-opacity="0.26" stroke-width="64" stroke-linecap="round"/>
  <path d="M110 264C306 208 520 206 738 248C924 282 1122 344 1358 340" fill="none" stroke="#d7ffef" stroke-opacity="0.18" stroke-width="38" stroke-linecap="round"/>
</svg>
