<svg xmlns="http://www.w3.org/2000/svg" viewBox="0 0 1600 900" role="img" aria-label="Hacker cover 11">
  <defs>
    <linearGradient id="bg" x1="0%" y1="0%" x2="100%" y2="100%">
      <stop offset="0%" stop-color="#050814"/>
      <stop offset="100%" stop-color="#111827"/>
    </linearGradient>
  </defs>
  <rect width="1600" height="900" fill="url(#bg)"/>
  <rect x="232" y="89" width="6" height="320" fill="rgba(255,214,10,0.20532171425340406)" rx="3"/><rect x="1490" y="29" width="6" height="238" fill="rgba(255,214,10,0.14437923548927978)" rx="3"/><rect x="1541" y="193" width="6" height="440" fill="rgba(255,214,10,0.13526189228049879)" rx="3"/><rect x="1514" y="-30" width="6" height="405" fill="rgba(255,214,10,0.09350173031988698)" rx="3"/><rect x="862" y="29" width="6" height="249" fill="rgba(255,214,10,0.11989510755868486)" rx="3"/><rect x="208" y="209" width="6" height="497" fill="rgba(255,214,10,0.155567576228544)" rx="3"/><rect x="576" y="191" width="6" height="450" fill="rgba(255,214,10,0.10796577462194305)" rx="3"/><rect x="403" y="-35" width="6" height="288" fill="rgba(255,214,10,0.14050435639771586)" rx="3"/><rect x="1008" y="239" width="6" height="259" fill="rgba(255,214,10,0.21787101445949342)" rx="3"/><rect x="360" y="-2" width="6" height="435" fill="rgba(255,214,10,0.21209612077809192)" rx="3"/><rect x="1470" y="270" width="6" height="476" fill="rgba(255,214,10,0.19818731877499168)" rx="3"/><rect x="774" y="199" width="6" height="447" fill="rgba(255,214,10,0.09391200638630008)" rx="3"/><rect x="1052" y="41" width="6" height="209" fill="rgba(255,214,10,0.21639292157666706)" rx="3"/><rect x="1317" y="88" width="6" height="440" fill="rgba(255,214,10,0.08026514903341204)" rx="3"/><rect x="303" y="243" width="6" height="257" fill="rgba(255,214,10,0.10063028431637469)" rx="3"/><rect x="246" y="139" width="6" height="406" fill="rgba(255,214,10,0.08618796195675775)" rx="3"/><rect x="260" y="75" width="6" height="450" fill="rgba(255,214,10,0.1650614828153616)" rx="3"/><rect x="552" y="185" width="6" height="378" fill="rgba(255,214,10,0.13703738747335759)" rx="3"/><rect x="1178" y="231" width="6" height="185" fill="rgba(255,214,10,0.16383095887487237)" rx="3"/><rect x="1451" y="25" width="6" height="165" fill="rgba(255,214,10,0.13072968628877496)" rx="3"/><rect x="710" y="276" width="6" height="358" fill="rgba(255,214,10,0.2022093935480579)" rx="3"/><rect x="276" y="-59" width="6" height="176" fill="rgba(255,214,10,0.18112732543763815)" rx="3"/><rect x="707" y="-35" width="6" height="160" fill="rgba(255,214,10,0.09803256117770309)" rx="3"/><rect x="1307" y="185" width="6" height="326" fill="rgba(255,214,10,0.11395767008183)" rx="3"/><rect x="745" y="190" width="6" height="432" fill="rgba(255,214,10,0.09555181709375023)" rx="3"/><rect x="1484" y="80" width="6" height="359" fill="rgba(255,214,10,0.14621299496490991)" rx="3"/><rect x="184" y="151" width="6" height="249" fill="rgba(255,214,10,0.11535633922595023)" rx="3"/><rect x="600" y="86" width="6" height="511" fill="rgba(255,214,10,0.16359307784668406)" rx="3"/><rect x="1103" y="138" width="6" height="380" fill="rgba(255,214,10,0.18739140113822111)" rx="3"/><rect x="52" y="86" width="6" height="292" fill="rgba(255,214,10,0.09320991360237049)" rx="3"/>
  <polygon points="1357,734 1607,724 1557,749 1307,759" fill="rgba(0,245,212,0.20919103271426642)"/><polygon points="1390,208 1576,195 1526,233 1340,246" fill="rgba(0,245,212,0.20075766860286248)"/><polygon points="1490,219 1826,236 1776,257 1440,240" fill="rgba(0,245,212,0.17160720511733824)"/><polygon points="1297,213 1544,205 1494,248 1247,256" fill="rgba(0,245,212,0.17623929347383635)"/><polygon points="389,711 724,703 674,734 339,742" fill="rgba(0,245,212,0.13656074263854331)"/><polygon points="1339,155 1565,164 1515,201 1289,192" fill="rgba(0,245,212,0.10881194872768343)"/><polygon points="1018,734 1179,726 1129,760 968,768" fill="rgba(0,245,212,0.10581688868477243)"/><polygon points="615,526 760,521 710,548 565,553" fill="rgba(0,245,212,0.1485780135824452)"/><polygon points="784,572 1050,578 1000,614 734,608" fill="rgba(0,245,212,0.19693609737256818)"/><polygon points="1194,329 1448,323 1398,352 1144,358" fill="rgba(0,245,212,0.16432572895526723)"/><polygon points="700,349 984,347 934,392 650,394" fill="rgba(0,245,212,0.08712428131324401)"/><polygon points="1052,344 1390,327 1340,354 1002,371" fill="rgba(0,245,212,0.09026230381226424)"/>
  <rect x="123" y="469" width="137" height="103" rx="14" fill="rgba(11,16,32,0.52)" stroke="rgba(255,214,10,0.32)"/><rect x="301" y="143" width="136" height="103" rx="14" fill="rgba(11,16,32,0.52)" stroke="rgba(255,214,10,0.32)"/><rect x="477" y="320" width="137" height="114" rx="14" fill="rgba(11,16,32,0.52)" stroke="rgba(255,214,10,0.32)"/><rect x="658" y="466" width="137" height="118" rx="14" fill="rgba(11,16,32,0.52)" stroke="rgba(255,214,10,0.32)"/><rect x="845" y="431" width="94" height="125" rx="14" fill="rgba(11,16,32,0.52)" stroke="rgba(255,214,10,0.32)"/><rect x="1002" y="415" width="99" height="92" rx="14" fill="rgba(11,16,32,0.52)" stroke="rgba(255,214,10,0.32)"/><rect x="1198" y="264" width="121" height="94" rx="14" fill="rgba(11,16,32,0.52)" stroke="rgba(255,214,10,0.32)"/><rect x="1364" y="414" width="96" height="114" rx="14" fill="rgba(11,16,32,0.52)" stroke="rgba(255,214,10,0.32)"/>
  <path d="M 184 435 L 742 435 L 742 368 L 571 368" fill="none" stroke="rgba(255,214,10,0.26)" stroke-width="4" stroke-linecap="round"/><path d="M 79 455 L 673 455 L 673 367 L 1074 367" fill="none" stroke="rgba(0,245,212,0.26)" stroke-width="4" stroke-linecap="round"/><path d="M 73 443 L 1099 443 L 1099 540 L 512 540" fill="none" stroke="rgba(255,214,10,0.26)" stroke-width="4" stroke-linecap="round"/><path d="M 157 723 L 662 723 L 662 220 L 1518 220" fill="none" stroke="rgba(0,245,212,0.26)" stroke-width="4" stroke-linecap="round"/><path d="M 245 752 L 911 752 L 911 526 L 1412 526" fill="none" stroke="rgba(255,214,10,0.26)" stroke-width="4" stroke-linecap="round"/><path d="M 187 155 L 577 155 L 577 650 L 738 650" fill="none" stroke="rgba(0,245,212,0.26)" stroke-width="4" stroke-linecap="round"/><path d="M 272 482 L 574 482 L 574 137 L 1044 137" fill="none" stroke="rgba(255,214,10,0.26)" stroke-width="4" stroke-linecap="round"/><path d="M 199 528 L 623 528 L 623 702 L 1290 702" fill="none" stroke="rgba(0,245,212,0.26)" stroke-width="4" stroke-linecap="round"/><path d="M 157 634 L 632 634 L 632 390 L 770 390" fill="none" stroke="rgba(255,214,10,0.26)" stroke-width="4" stroke-linecap="round"/>
  <circle cx="1437" cy="259" r="7" fill="#ffd60a" fill-opacity="0.85"/><circle cx="1437" cy="259" r="21" fill="#00f5d4" fill-opacity="0.06"/><circle cx="946" cy="575" r="6" fill="#ffd60a" fill-opacity="0.85"/><circle cx="946" cy="575" r="20" fill="#00f5d4" fill-opacity="0.06"/><circle cx="1374" cy="589" r="8" fill="#ffd60a" fill-opacity="0.85"/><circle cx="1374" cy="589" r="22" fill="#00f5d4" fill-opacity="0.06"/><circle cx="1425" cy="433" r="7" fill="#ffd60a" fill-opacity="0.85"/><circle cx="1425" cy="433" r="21" fill="#00f5d4" fill-opacity="0.06"/><circle cx="724" cy="591" r="7" fill="#ffd60a" fill-opacity="0.85"/><circle cx="724" cy="591" r="21" fill="#00f5d4" fill-opacity="0.06"/><circle cx="287" cy="124" r="7" fill="#ffd60a" fill-opacity="0.85"/><circle cx="287" cy="124" r="21" fill="#00f5d4" fill-opacity="0.06"/><circle cx="157" cy="423" r="6" fill="#ffd60a" fill-opacity="0.85"/><circle cx="157" cy="423" r="20" fill="#00f5d4" fill-opacity="0.06"/><circle cx="193" cy="253" r="4" fill="#ffd60a" fill-opacity="0.85"/><circle cx="193" cy="253" r="18" fill="#00f5d4" fill-opacity="0.06"/><circle cx="586" cy="790" r="5" fill="#ffd60a" fill-opacity="0.85"/><circle cx="586" cy="790" r="19" fill="#00f5d4" fill-opacity="0.06"/><circle cx="487" cy="379" r="10" fill="#ffd60a" fill-opacity="0.85"/><circle cx="487" cy="379" r="24" fill="#00f5d4" fill-opacity="0.06"/><circle cx="600" cy="264" r="7" fill="#ffd60a" fill-opacity="0.85"/><circle cx="600" cy="264" r="21" fill="#00f5d4" fill-opacity="0.06"/><circle cx="176" cy="303" r="7" fill="#ffd60a" fill-opacity="0.85"/><circle cx="176" cy="303" r="21" fill="#00f5d4" fill-opacity="0.06"/><circle cx="1101" cy="783" r="6" fill="#ffd60a" fill-opacity="0.85"/><circle cx="1101" cy="783" r="20" fill="#00f5d4" fill-opacity="0.06"/><circle cx="1300" cy="643" r="7" fill="#ffd60a" fill-opacity="0.85"/><circle cx="1300" cy="643" r="21" fill="#00f5d4" fill-opacity="0.06"/><circle cx="158" cy="642" r="10" fill="#ffd60a" fill-opacity="0.85"/><circle cx="158" cy="642" r="24" fill="#00f5d4" fill-opacity="0.06"/><circle cx="297" cy="762" r="9" fill="#ffd60a" fill-opacity="0.85"/><circle cx="297" cy="762" r="23" fill="#00f5d4" fill-opacity="0.06"/>
  <rect x="0" y="780" width="1600" height="120" fill="rgba(11,16,32,0.88)"/>
</svg>