<svg xmlns="http://www.w3.org/2000/svg" viewBox="0 0 1600 900" role="img" aria-label="CTF cover 15">
  <defs>
    <linearGradient id="bg" x1="0%" y1="0%" x2="100%" y2="100%">
      <stop offset="0%" stop-color="#0a1020"/>
      <stop offset="100%" stop-color="#243b53"/>
    </linearGradient>
    <pattern id="grid" width="64" height="64" patternUnits="userSpaceOnUse">
      <path d="M64 0H0V64" fill="none" stroke="rgba(158,255,169,0.12)" stroke-width="1.5"/>
    </pattern>
  </defs>
  <rect width="1600" height="900" fill="url(#bg)"/>
  <rect width="1600" height="900" fill="url(#grid)"/>
  <rect x="49" y="167" width="18" height="358" fill="rgba(0,209,255,0.1)"/><rect x="142" y="211" width="18" height="518" fill="rgba(0,209,255,0.1)"/><rect x="241" y="116" width="18" height="577" fill="rgba(0,209,255,0.1)"/><rect x="320" y="199" width="18" height="548" fill="rgba(0,209,255,0.1)"/><rect x="437" y="119" width="18" height="503" fill="rgba(0,209,255,0.1)"/><rect x="510" y="248" width="18" height="619" fill="rgba(0,209,255,0.1)"/><rect x="624" y="194" width="18" height="395" fill="rgba(0,209,255,0.1)"/><rect x="706" y="246" width="18" height="263" fill="rgba(0,209,255,0.1)"/><rect x="822" y="224" width="18" height="599" fill="rgba(0,209,255,0.1)"/><rect x="899" y="82" width="18" height="630" fill="rgba(0,209,255,0.1)"/><rect x="995" y="245" width="18" height="394" fill="rgba(0,209,255,0.1)"/><rect x="1097" y="143" width="18" height="607" fill="rgba(0,209,255,0.1)"/><rect x="1192" y="201" width="18" height="667" fill="rgba(0,209,255,0.1)"/><rect x="1289" y="127" width="18" height="470" fill="rgba(0,209,255,0.1)"/><rect x="1370" y="221" width="18" height="445" fill="rgba(0,209,255,0.1)"/><rect x="1470" y="196" width="18" height="354" fill="rgba(0,209,255,0.1)"/>
  <rect x="58" y="417" width="125" height="108" rx="18" fill="rgba(17,24,39,0.46)" stroke="rgba(158,255,169,0.26)"/><rect x="284" y="155" width="133" height="141" rx="18" fill="rgba(17,24,39,0.46)" stroke="rgba(158,255,169,0.26)"/><rect x="493" y="588" width="134" height="172" rx="18" fill="rgba(17,24,39,0.46)" stroke="rgba(158,255,169,0.26)"/><rect x="692" y="424" width="110" height="140" rx="18" fill="rgba(17,24,39,0.46)" stroke="rgba(158,255,169,0.26)"/><rect x="910" y="177" width="116" height="134" rx="18" fill="rgba(17,24,39,0.46)" stroke="rgba(158,255,169,0.26)"/><rect x="1118" y="412" width="94" height="114" rx="18" fill="rgba(17,24,39,0.46)" stroke="rgba(158,255,169,0.26)"/><rect x="1323" y="155" width="87" height="161" rx="18" fill="rgba(17,24,39,0.46)" stroke="rgba(158,255,169,0.26)"/>
  <path d="M 150 393 L 919 313" stroke="rgba(158,255,169,0.2)" stroke-width="3"/><path d="M 1236 331 L 987 748" stroke="rgba(158,255,169,0.2)" stroke-width="3"/><path d="M 919 313 L 1242 542" stroke="rgba(158,255,169,0.2)" stroke-width="3"/><path d="M 126 511 L 987 748" stroke="rgba(158,255,169,0.2)" stroke-width="3"/><path d="M 987 748 L 341 473" stroke="rgba(158,255,169,0.2)" stroke-width="3"/><path d="M 884 569 L 779 380" stroke="rgba(158,255,169,0.2)" stroke-width="3"/><path d="M 1242 542 L 1283 463" stroke="rgba(158,255,169,0.2)" stroke-width="3"/><path d="M 341 473 L 779 380" stroke="rgba(158,255,169,0.2)" stroke-width="3"/><path d="M 779 380 L 902 372" stroke="rgba(158,255,169,0.2)" stroke-width="3"/><path d="M 1283 463 L 902 372" stroke="rgba(158,255,169,0.2)" stroke-width="3"/><path d="M 902 372 L 1236 331" stroke="rgba(158,255,169,0.2)" stroke-width="3"/>
  <circle cx="150" cy="393" r="8" fill="#00d1ff" fill-opacity="0.9"/><circle cx="150" cy="393" r="20" fill="#9effa9" fill-opacity="0.10"/><circle cx="1236" cy="331" r="8" fill="#00d1ff" fill-opacity="0.9"/><circle cx="1236" cy="331" r="20" fill="#9effa9" fill-opacity="0.10"/><circle cx="919" cy="313" r="8" fill="#00d1ff" fill-opacity="0.9"/><circle cx="919" cy="313" r="20" fill="#9effa9" fill-opacity="0.10"/><circle cx="126" cy="511" r="8" fill="#00d1ff" fill-opacity="0.9"/><circle cx="126" cy="511" r="20" fill="#9effa9" fill-opacity="0.10"/><circle cx="987" cy="748" r="8" fill="#00d1ff" fill-opacity="0.9"/><circle cx="987" cy="748" r="20" fill="#9effa9" fill-opacity="0.10"/><circle cx="884" cy="569" r="8" fill="#00d1ff" fill-opacity="0.9"/><circle cx="884" cy="569" r="20" fill="#9effa9" fill-opacity="0.10"/><circle cx="1242" cy="542" r="8" fill="#00d1ff" fill-opacity="0.9"/><circle cx="1242" cy="542" r="20" fill="#9effa9" fill-opacity="0.10"/><circle cx="341" cy="473" r="8" fill="#00d1ff" fill-opacity="0.9"/><circle cx="341" cy="473" r="20" fill="#9effa9" fill-opacity="0.10"/><circle cx="779" cy="380" r="8" fill="#00d1ff" fill-opacity="0.9"/><circle cx="779" cy="380" r="20" fill="#9effa9" fill-opacity="0.10"/><circle cx="1283" cy="463" r="8" fill="#00d1ff" fill-opacity="0.9"/><circle cx="1283" cy="463" r="20" fill="#9effa9" fill-opacity="0.10"/><circle cx="902" cy="372" r="8" fill="#00d1ff" fill-opacity="0.9"/><circle cx="902" cy="372" r="20" fill="#9effa9" fill-opacity="0.10"/><circle cx="706" cy="373" r="8" fill="#00d1ff" fill-opacity="0.9"/><circle cx="706" cy="373" r="20" fill="#9effa9" fill-opacity="0.10"/>
  <path d="M0 760L220 682L420 714L640 618L842 680L1080 570L1344 640L1600 540V900H0Z" fill="rgba(17,24,39,0.86)"/>
</svg>