<svg xmlns="http://www.w3.org/2000/svg" viewBox="0 0 1600 900" role="img" aria-label="Hacker cover 12">
  <defs>
    <linearGradient id="bg" x1="0%" y1="0%" x2="100%" y2="100%">
      <stop offset="0%" stop-color="#05070c"/>
      <stop offset="100%" stop-color="#0b1320"/>
    </linearGradient>
  </defs>
  <rect width="1600" height="900" fill="url(#bg)"/>
  <rect x="1458" y="1" width="6" height="161" fill="rgba(0,255,159,0.12696507215753478)" rx="3"/><rect x="1590" y="161" width="6" height="271" fill="rgba(0,255,159,0.19496067163567446)" rx="3"/><rect x="473" y="-57" width="6" height="393" fill="rgba(0,255,159,0.08245716167039369)" rx="3"/><rect x="95" y="30" width="6" height="461" fill="rgba(0,255,159,0.08422450665877947)" rx="3"/><rect x="827" y="185" width="6" height="256" fill="rgba(0,255,159,0.14187794938476347)" rx="3"/><rect x="417" y="90" width="6" height="279" fill="rgba(0,255,159,0.1571826214920381)" rx="3"/><rect x="1219" y="178" width="6" height="255" fill="rgba(0,255,159,0.16483037858296679)" rx="3"/><rect x="260" y="191" width="6" height="309" fill="rgba(0,255,159,0.11786455079272042)" rx="3"/><rect x="1003" y="-60" width="6" height="271" fill="rgba(0,255,159,0.1965243566809935)" rx="3"/><rect x="1369" y="54" width="6" height="236" fill="rgba(0,255,159,0.08864184998045326)" rx="3"/><rect x="309" y="189" width="6" height="172" fill="rgba(0,255,159,0.1638736871806084)" rx="3"/><rect x="548" y="279" width="6" height="446" fill="rgba(0,255,159,0.12843886294430779)" rx="3"/><rect x="512" y="-57" width="6" height="463" fill="rgba(0,255,159,0.1981277287807747)" rx="3"/><rect x="1356" y="7" width="6" height="202" fill="rgba(0,255,159,0.20407906727336783)" rx="3"/><rect x="1595" y="236" width="6" height="405" fill="rgba(0,255,159,0.16326655409355334)" rx="3"/><rect x="414" y="117" width="6" height="516" fill="rgba(0,255,159,0.08508773135690445)" rx="3"/><rect x="456" y="215" width="6" height="161" fill="rgba(0,255,159,0.17698690359295097)" rx="3"/><rect x="1051" y="198" width="6" height="253" fill="rgba(0,255,159,0.20099732897077582)" rx="3"/><rect x="705" y="120" width="6" height="465" fill="rgba(0,255,159,0.12403651378942274)" rx="3"/><rect x="843" y="268" width="6" height="230" fill="rgba(0,255,159,0.1799206152485031)" rx="3"/><rect x="58" y="7" width="6" height="338" fill="rgba(0,255,159,0.15704264573628549)" rx="3"/><rect x="1573" y="59" width="6" height="323" fill="rgba(0,255,159,0.17341647273244196)" rx="3"/><rect x="84" y="36" width="6" height="178" fill="rgba(0,255,159,0.14584939371832298)" rx="3"/><rect x="834" y="198" width="6" height="456" fill="rgba(0,255,159,0.19064636048649444)" rx="3"/><rect x="830" y="-78" width="6" height="332" fill="rgba(0,255,159,0.15081760846850006)" rx="3"/><rect x="109" y="274" width="6" height="450" fill="rgba(0,255,159,0.15820096009322437)" rx="3"/><rect x="182" y="59" width="6" height="184" fill="rgba(0,255,159,0.11559397335209692)" rx="3"/><rect x="1186" y="14" width="6" height="396" fill="rgba(0,255,159,0.1687762042749336)" rx="3"/><rect x="613" y="211" width="6" height="160" fill="rgba(0,255,159,0.11059187185018123)" rx="3"/><rect x="231" y="253" width="6" height="413" fill="rgba(0,255,159,0.10024908679665746)" rx="3"/>
  <polygon points="995,642 1278,647 1228,666 945,661" fill="rgba(0,194,255,0.19086660720034623)"/><polygon points="759,710 1037,697 987,732 709,745" fill="rgba(0,194,255,0.1757455930450048)"/><polygon points="1209,287 1513,294 1463,318 1159,311" fill="rgba(0,194,255,0.16689925040627593)"/><polygon points="1186,350 1332,365 1282,401 1136,386" fill="rgba(0,194,255,0.08241323956330471)"/><polygon points="1147,604 1320,596 1270,631 1097,639" fill="rgba(0,194,255,0.10477789836086096)"/><polygon points="1158,519 1397,533 1347,579 1108,565" fill="rgba(0,194,255,0.11041720179379758)"/><polygon points="1463,606 1751,589 1701,627 1413,644" fill="rgba(0,194,255,0.18496083512334538)"/><polygon points="164,461 367,451 317,474 114,484" fill="rgba(0,194,255,0.21895516857530933)"/><polygon points="439,707 592,709 542,740 389,738" fill="rgba(0,194,255,0.17707057105303356)"/><polygon points="1448,438 1782,424 1732,449 1398,463" fill="rgba(0,194,255,0.08438663842888755)"/><polygon points="673,752 824,739 774,767 623,780" fill="rgba(0,194,255,0.2122376912844664)"/><polygon points="1462,352 1688,354 1638,379 1412,377" fill="rgba(0,194,255,0.10834639264943627)"/>
  <rect x="119" y="316" width="124" height="108" rx="14" fill="rgba(10,15,23,0.52)" stroke="rgba(0,255,159,0.32)"/><rect x="292" y="542" width="123" height="129" rx="14" fill="rgba(10,15,23,0.52)" stroke="rgba(0,255,159,0.32)"/><rect x="491" y="442" width="140" height="102" rx="14" fill="rgba(10,15,23,0.52)" stroke="rgba(0,255,159,0.32)"/><rect x="642" y="310" width="122" height="100" rx="14" fill="rgba(10,15,23,0.52)" stroke="rgba(0,255,159,0.32)"/><rect x="838" y="285" width="111" height="136" rx="14" fill="rgba(10,15,23,0.52)" stroke="rgba(0,255,159,0.32)"/><rect x="1013" y="236" width="97" height="130" rx="14" fill="rgba(10,15,23,0.52)" stroke="rgba(0,255,159,0.32)"/><rect x="1187" y="273" width="100" height="102" rx="14" fill="rgba(10,15,23,0.52)" stroke="rgba(0,255,159,0.32)"/><rect x="1394" y="421" width="136" height="119" rx="14" fill="rgba(10,15,23,0.52)" stroke="rgba(0,255,159,0.32)"/>
  <path d="M 130 411 L 979 411 L 979 737 L 795 737" fill="none" stroke="rgba(0,255,159,0.26)" stroke-width="4" stroke-linecap="round"/><path d="M 174 213 L 1060 213 L 1060 313 L 759 313" fill="none" stroke="rgba(0,194,255,0.26)" stroke-width="4" stroke-linecap="round"/><path d="M 230 546 L 719 546 L 719 361 L 1404 361" fill="none" stroke="rgba(0,255,159,0.26)" stroke-width="4" stroke-linecap="round"/><path d="M 267 108 L 555 108 L 555 541 L 961 541" fill="none" stroke="rgba(0,194,255,0.26)" stroke-width="4" stroke-linecap="round"/><path d="M 226 545 L 933 545 L 933 625 L 961 625" fill="none" stroke="rgba(0,255,159,0.26)" stroke-width="4" stroke-linecap="round"/><path d="M 251 311 L 554 311 L 554 107 L 672 107" fill="none" stroke="rgba(0,194,255,0.26)" stroke-width="4" stroke-linecap="round"/><path d="M 123 341 L 958 341 L 958 238 L 1432 238" fill="none" stroke="rgba(0,255,159,0.26)" stroke-width="4" stroke-linecap="round"/><path d="M 65 502 L 734 502 L 734 125 L 984 125" fill="none" stroke="rgba(0,194,255,0.26)" stroke-width="4" stroke-linecap="round"/><path d="M 278 371 L 701 371 L 701 587 L 1432 587" fill="none" stroke="rgba(0,255,159,0.26)" stroke-width="4" stroke-linecap="round"/>
  <circle cx="695" cy="386" r="10" fill="#00ff9f" fill-opacity="0.85"/><circle cx="695" cy="386" r="24" fill="#00c2ff" fill-opacity="0.06"/><circle cx="1221" cy="222" r="8" fill="#00ff9f" fill-opacity="0.85"/><circle cx="1221" cy="222" r="22" fill="#00c2ff" fill-opacity="0.06"/><circle cx="180" cy="102" r="8" fill="#00ff9f" fill-opacity="0.85"/><circle cx="180" cy="102" r="22" fill="#00c2ff" fill-opacity="0.06"/><circle cx="989" cy="542" r="6" fill="#00ff9f" fill-opacity="0.85"/><circle cx="989" cy="542" r="20" fill="#00c2ff" fill-opacity="0.06"/><circle cx="1278" cy="515" r="8" fill="#00ff9f" fill-opacity="0.85"/><circle cx="1278" cy="515" r="22" fill="#00c2ff" fill-opacity="0.06"/><circle cx="1487" cy="569" r="6" fill="#00ff9f" fill-opacity="0.85"/><circle cx="1487" cy="569" r="20" fill="#00c2ff" fill-opacity="0.06"/><circle cx="1184" cy="168" r="5" fill="#00ff9f" fill-opacity="0.85"/><circle cx="1184" cy="168" r="19" fill="#00c2ff" fill-opacity="0.06"/><circle cx="436" cy="149" r="10" fill="#00ff9f" fill-opacity="0.85"/><circle cx="436" cy="149" r="24" fill="#00c2ff" fill-opacity="0.06"/><circle cx="101" cy="613" r="10" fill="#00ff9f" fill-opacity="0.85"/><circle cx="101" cy="613" r="24" fill="#00c2ff" fill-opacity="0.06"/><circle cx="1040" cy="96" r="7" fill="#00ff9f" fill-opacity="0.85"/><circle cx="1040" cy="96" r="21" fill="#00c2ff" fill-opacity="0.06"/><circle cx="130" cy="666" r="8" fill="#00ff9f" fill-opacity="0.85"/><circle cx="130" cy="666" r="22" fill="#00c2ff" fill-opacity="0.06"/><circle cx="1175" cy="474" r="9" fill="#00ff9f" fill-opacity="0.85"/><circle cx="1175" cy="474" r="23" fill="#00c2ff" fill-opacity="0.06"/><circle cx="1494" cy="548" r="9" fill="#00ff9f" fill-opacity="0.85"/><circle cx="1494" cy="548" r="23" fill="#00c2ff" fill-opacity="0.06"/><circle cx="595" cy="763" r="10" fill="#00ff9f" fill-opacity="0.85"/><circle cx="595" cy="763" r="24" fill="#00c2ff" fill-opacity="0.06"/><circle cx="642" cy="179" r="6" fill="#00ff9f" fill-opacity="0.85"/><circle cx="642" cy="179" r="20" fill="#00c2ff" fill-opacity="0.06"/><circle cx="570" cy="505" r="4" fill="#00ff9f" fill-opacity="0.85"/><circle cx="570" cy="505" r="18" fill="#00c2ff" fill-opacity="0.06"/>
  <rect x="0" y="780" width="1600" height="120" fill="rgba(10,15,23,0.88)"/>
</svg>