<svg xmlns="http://www.w3.org/2000/svg" viewBox="0 0 1600 900" role="img" aria-label="Hacker cover 9">
  <defs>
    <linearGradient id="bg" x1="0%" y1="0%" x2="100%" y2="100%">
      <stop offset="0%" stop-color="#05060a"/>
      <stop offset="100%" stop-color="#0f172a"/>
    </linearGradient>
  </defs>
  <rect width="1600" height="900" fill="url(#bg)"/>
  <rect x="407" y="280" width="6" height="255" fill="rgba(57,255,20,0.187992156627935)" rx="3"/><rect x="1225" y="-28" width="6" height="335" fill="rgba(57,255,20,0.16439705585377015)" rx="3"/><rect x="120" y="224" width="6" height="393" fill="rgba(57,255,20,0.11337807540939784)" rx="3"/><rect x="680" y="-21" width="6" height="203" fill="rgba(57,255,20,0.08741454052928989)" rx="3"/><rect x="1362" y="-60" width="6" height="475" fill="rgba(57,255,20,0.1546306678839489)" rx="3"/><rect x="837" y="173" width="6" height="234" fill="rgba(57,255,20,0.11864908774867766)" rx="3"/><rect x="689" y="-36" width="6" height="248" fill="rgba(57,255,20,0.1859489930330291)" rx="3"/><rect x="786" y="184" width="6" height="235" fill="rgba(57,255,20,0.18333100476873435)" rx="3"/><rect x="282" y="95" width="6" height="174" fill="rgba(57,255,20,0.20607962464398133)" rx="3"/><rect x="1509" y="127" width="6" height="213" fill="rgba(57,255,20,0.125651124393672)" rx="3"/><rect x="1446" y="213" width="6" height="289" fill="rgba(57,255,20,0.0918747236434999)" rx="3"/><rect x="1434" y="97" width="6" height="452" fill="rgba(57,255,20,0.1638126393408083)" rx="3"/><rect x="491" y="262" width="6" height="397" fill="rgba(57,255,20,0.10571426246264712)" rx="3"/><rect x="233" y="-53" width="6" height="275" fill="rgba(57,255,20,0.1521742989282654)" rx="3"/><rect x="24" y="60" width="6" height="219" fill="rgba(57,255,20,0.20297507052065447)" rx="3"/><rect x="145" y="217" width="6" height="292" fill="rgba(57,255,20,0.17444226416102654)" rx="3"/><rect x="286" y="206" width="6" height="465" fill="rgba(57,255,20,0.2074171061489335)" rx="3"/><rect x="853" y="261" width="6" height="341" fill="rgba(57,255,20,0.11919948120675311)" rx="3"/><rect x="1352" y="42" width="6" height="294" fill="rgba(57,255,20,0.17680734169654228)" rx="3"/><rect x="575" y="233" width="6" height="258" fill="rgba(57,255,20,0.18811197394012302)" rx="3"/><rect x="1326" y="178" width="6" height="171" fill="rgba(57,255,20,0.2154771892142045)" rx="3"/><rect x="664" y="6" width="6" height="224" fill="rgba(57,255,20,0.16096163193422308)" rx="3"/><rect x="1201" y="251" width="6" height="275" fill="rgba(57,255,20,0.2123209438411709)" rx="3"/><rect x="1475" y="245" width="6" height="330" fill="rgba(57,255,20,0.19493410370784464)" rx="3"/><rect x="835" y="159" width="6" height="516" fill="rgba(57,255,20,0.17236790075642888)" rx="3"/><rect x="1072" y="82" width="6" height="419" fill="rgba(57,255,20,0.0839635170022868)" rx="3"/><rect x="412" y="176" width="6" height="343" fill="rgba(57,255,20,0.11003750640841355)" rx="3"/><rect x="975" y="73" width="6" height="400" fill="rgba(57,255,20,0.1486069121794686)" rx="3"/><rect x="1165" y="71" width="6" height="228" fill="rgba(57,255,20,0.14926747429832576)" rx="3"/><rect x="1595" y="201" width="6" height="364" fill="rgba(57,255,20,0.13890116866369673)" rx="3"/>
  <polygon points="501,202 812,195 762,234 451,241" fill="rgba(0,212,255,0.1185766445653618)"/><polygon points="467,657 649,644 599,690 417,703" fill="rgba(0,212,255,0.09260564744721599)"/><polygon points="211,307 435,287 385,322 161,342" fill="rgba(0,212,255,0.12235347441852104)"/><polygon points="941,128 1210,148 1160,175 891,155" fill="rgba(0,212,255,0.17884443504329078)"/><polygon points="1306,125 1589,137 1539,165 1256,153" fill="rgba(0,212,255,0.20609212411099842)"/><polygon points="1025,101 1305,114 1255,134 975,121" fill="rgba(0,212,255,0.1879428577589854)"/><polygon points="1443,591 1753,604 1703,639 1393,626" fill="rgba(0,212,255,0.16058682396529247)"/><polygon points="894,187 1173,169 1123,192 844,210" fill="rgba(0,212,255,0.2111263542255275)"/><polygon points="1112,410 1304,402 1254,441 1062,449" fill="rgba(0,212,255,0.14064232328415224)"/><polygon points="88,551 361,533 311,572 38,590" fill="rgba(0,212,255,0.17085976132415287)"/><polygon points="934,152 1137,168 1087,192 884,176" fill="rgba(0,212,255,0.12483754111000969)"/><polygon points="1476,203 1618,184 1568,212 1426,231" fill="rgba(0,212,255,0.0841179732455684)"/>
  <rect x="140" y="553" width="107" height="136" rx="14" fill="rgba(16,20,31,0.52)" stroke="rgba(57,255,20,0.32)"/><rect x="282" y="376" width="121" height="131" rx="14" fill="rgba(16,20,31,0.52)" stroke="rgba(57,255,20,0.32)"/><rect x="461" y="132" width="93" height="123" rx="14" fill="rgba(16,20,31,0.52)" stroke="rgba(57,255,20,0.32)"/><rect x="665" y="595" width="92" height="124" rx="14" fill="rgba(16,20,31,0.52)" stroke="rgba(57,255,20,0.32)"/><rect x="846" y="187" width="90" height="95" rx="14" fill="rgba(16,20,31,0.52)" stroke="rgba(57,255,20,0.32)"/><rect x="1022" y="546" width="111" height="122" rx="14" fill="rgba(16,20,31,0.52)" stroke="rgba(57,255,20,0.32)"/><rect x="1189" y="543" width="93" height="129" rx="14" fill="rgba(16,20,31,0.52)" stroke="rgba(57,255,20,0.32)"/><rect x="1390" y="171" width="108" height="138" rx="14" fill="rgba(16,20,31,0.52)" stroke="rgba(57,255,20,0.32)"/>
  <path d="M 248 694 L 585 694 L 585 539 L 1374 539" fill="none" stroke="rgba(57,255,20,0.26)" stroke-width="4" stroke-linecap="round"/><path d="M 272 598 L 706 598 L 706 361 L 915 361" fill="none" stroke="rgba(0,212,255,0.26)" stroke-width="4" stroke-linecap="round"/><path d="M 205 212 L 575 212 L 575 644 L 721 644" fill="none" stroke="rgba(57,255,20,0.26)" stroke-width="4" stroke-linecap="round"/><path d="M 158 171 L 867 171 L 867 410 L 1342 410" fill="none" stroke="rgba(0,212,255,0.26)" stroke-width="4" stroke-linecap="round"/><path d="M 164 280 L 503 280 L 503 712 L 1138 712" fill="none" stroke="rgba(57,255,20,0.26)" stroke-width="4" stroke-linecap="round"/><path d="M 282 387 L 744 387 L 744 740 L 828 740" fill="none" stroke="rgba(0,212,255,0.26)" stroke-width="4" stroke-linecap="round"/><path d="M 133 557 L 970 557 L 970 321 L 821 321" fill="none" stroke="rgba(57,255,20,0.26)" stroke-width="4" stroke-linecap="round"/><path d="M 103 587 L 647 587 L 647 159 L 903 159" fill="none" stroke="rgba(0,212,255,0.26)" stroke-width="4" stroke-linecap="round"/><path d="M 142 495 L 880 495 L 880 531 L 1332 531" fill="none" stroke="rgba(57,255,20,0.26)" stroke-width="4" stroke-linecap="round"/>
  <circle cx="115" cy="382" r="4" fill="#39ff14" fill-opacity="0.85"/><circle cx="115" cy="382" r="18" fill="#00d4ff" fill-opacity="0.06"/><circle cx="255" cy="227" r="8" fill="#39ff14" fill-opacity="0.85"/><circle cx="255" cy="227" r="22" fill="#00d4ff" fill-opacity="0.06"/><circle cx="890" cy="337" r="10" fill="#39ff14" fill-opacity="0.85"/><circle cx="890" cy="337" r="24" fill="#00d4ff" fill-opacity="0.06"/><circle cx="895" cy="345" r="10" fill="#39ff14" fill-opacity="0.85"/><circle cx="895" cy="345" r="24" fill="#00d4ff" fill-opacity="0.06"/><circle cx="435" cy="364" r="5" fill="#39ff14" fill-opacity="0.85"/><circle cx="435" cy="364" r="19" fill="#00d4ff" fill-opacity="0.06"/><circle cx="1500" cy="103" r="7" fill="#39ff14" fill-opacity="0.85"/><circle cx="1500" cy="103" r="21" fill="#00d4ff" fill-opacity="0.06"/><circle cx="1199" cy="465" r="6" fill="#39ff14" fill-opacity="0.85"/><circle cx="1199" cy="465" r="20" fill="#00d4ff" fill-opacity="0.06"/><circle cx="1236" cy="136" r="7" fill="#39ff14" fill-opacity="0.85"/><circle cx="1236" cy="136" r="21" fill="#00d4ff" fill-opacity="0.06"/><circle cx="1261" cy="537" r="7" fill="#39ff14" fill-opacity="0.85"/><circle cx="1261" cy="537" r="21" fill="#00d4ff" fill-opacity="0.06"/><circle cx="357" cy="274" r="4" fill="#39ff14" fill-opacity="0.85"/><circle cx="357" cy="274" r="18" fill="#00d4ff" fill-opacity="0.06"/><circle cx="85" cy="330" r="10" fill="#39ff14" fill-opacity="0.85"/><circle cx="85" cy="330" r="24" fill="#00d4ff" fill-opacity="0.06"/><circle cx="476" cy="420" r="7" fill="#39ff14" fill-opacity="0.85"/><circle cx="476" cy="420" r="21" fill="#00d4ff" fill-opacity="0.06"/><circle cx="486" cy="88" r="6" fill="#39ff14" fill-opacity="0.85"/><circle cx="486" cy="88" r="20" fill="#00d4ff" fill-opacity="0.06"/><circle cx="530" cy="325" r="7" fill="#39ff14" fill-opacity="0.85"/><circle cx="530" cy="325" r="21" fill="#00d4ff" fill-opacity="0.06"/><circle cx="1077" cy="534" r="6" fill="#39ff14" fill-opacity="0.85"/><circle cx="1077" cy="534" r="20" fill="#00d4ff" fill-opacity="0.06"/><circle cx="1188" cy="786" r="7" fill="#39ff14" fill-opacity="0.85"/><circle cx="1188" cy="786" r="21" fill="#00d4ff" fill-opacity="0.06"/>
  <rect x="0" y="780" width="1600" height="120" fill="rgba(16,20,31,0.88)"/>
</svg>