<svg xmlns="http://www.w3.org/2000/svg" viewBox="0 0 1600 900" role="img" aria-label="Hacker cover 18">
  <defs>
    <linearGradient id="bg" x1="0%" y1="0%" x2="100%" y2="100%">
      <stop offset="0%" stop-color="#05070c"/>
      <stop offset="100%" stop-color="#0b1320"/>
    </linearGradient>
  </defs>
  <rect width="1600" height="900" fill="url(#bg)"/>
  <rect x="917" y="258" width="6" height="488" fill="rgba(0,255,159,0.20236351197819447)" rx="3"/><rect x="1162" y="40" width="6" height="447" fill="rgba(0,255,159,0.20763985275168106)" rx="3"/><rect x="754" y="291" width="6" height="433" fill="rgba(0,255,159,0.1275716172590309)" rx="3"/><rect x="1405" y="-8" width="6" height="326" fill="rgba(0,255,159,0.09243523462912617)" rx="3"/><rect x="555" y="-6" width="6" height="351" fill="rgba(0,255,159,0.1599275854476725)" rx="3"/><rect x="1090" y="12" width="6" height="231" fill="rgba(0,255,159,0.15228634756018178)" rx="3"/><rect x="1125" y="27" width="6" height="259" fill="rgba(0,255,159,0.19257215879605102)" rx="3"/><rect x="473" y="202" width="6" height="220" fill="rgba(0,255,159,0.1589153448024284)" rx="3"/><rect x="713" y="99" width="6" height="474" fill="rgba(0,255,159,0.1365462906008093)" rx="3"/><rect x="1343" y="30" width="6" height="214" fill="rgba(0,255,159,0.12774157145773626)" rx="3"/><rect x="833" y="90" width="6" height="251" fill="rgba(0,255,159,0.1076148473698528)" rx="3"/><rect x="320" y="48" width="6" height="196" fill="rgba(0,255,159,0.11311412233849327)" rx="3"/><rect x="401" y="69" width="6" height="346" fill="rgba(0,255,159,0.10870366441766383)" rx="3"/><rect x="1309" y="31" width="6" height="185" fill="rgba(0,255,159,0.08747595337302623)" rx="3"/><rect x="1370" y="183" width="6" height="209" fill="rgba(0,255,159,0.1998830973786066)" rx="3"/><rect x="428" y="68" width="6" height="292" fill="rgba(0,255,159,0.1492647403149183)" rx="3"/><rect x="1037" y="283" width="6" height="470" fill="rgba(0,255,159,0.21293520499770202)" rx="3"/><rect x="1178" y="-11" width="6" height="378" fill="rgba(0,255,159,0.09789685063861345)" rx="3"/><rect x="134" y="35" width="6" height="406" fill="rgba(0,255,159,0.18618237591027936)" rx="3"/><rect x="1145" y="140" width="6" height="328" fill="rgba(0,255,159,0.10773941360015628)" rx="3"/><rect x="1074" y="95" width="6" height="198" fill="rgba(0,255,159,0.13363921664342984)" rx="3"/><rect x="347" y="47" width="6" height="408" fill="rgba(0,255,159,0.12976781081828445)" rx="3"/><rect x="987" y="184" width="6" height="291" fill="rgba(0,255,159,0.1283641527037116)" rx="3"/><rect x="312" y="67" width="6" height="280" fill="rgba(0,255,159,0.10793588685318722)" rx="3"/><rect x="203" y="58" width="6" height="499" fill="rgba(0,255,159,0.1108305588483336)" rx="3"/><rect x="1323" y="38" width="6" height="257" fill="rgba(0,255,159,0.2075145797969229)" rx="3"/><rect x="1330" y="-54" width="6" height="402" fill="rgba(0,255,159,0.0924743031431929)" rx="3"/><rect x="672" y="205" width="6" height="195" fill="rgba(0,255,159,0.17208178135467841)" rx="3"/><rect x="1381" y="168" width="6" height="435" fill="rgba(0,255,159,0.14586986260647267)" rx="3"/><rect x="1033" y="101" width="6" height="438" fill="rgba(0,255,159,0.21764884019646308)" rx="3"/>
  <polygon points="283,263 513,252 463,295 233,306" fill="rgba(0,194,255,0.19649680699696204)"/><polygon points="364,153 701,165 651,184 314,172" fill="rgba(0,194,255,0.13773779731140565)"/><polygon points="668,495 931,500 881,536 618,531" fill="rgba(0,194,255,0.12359371440800129)"/><polygon points="966,416 1139,428 1089,455 916,443" fill="rgba(0,194,255,0.13773690418113363)"/><polygon points="107,292 366,288 316,318 57,322" fill="rgba(0,194,255,0.21615352110640929)"/><polygon points="1219,214 1488,197 1438,218 1169,235" fill="rgba(0,194,255,0.17155282670322491)"/><polygon points="1326,684 1522,684 1472,704 1276,704" fill="rgba(0,194,255,0.13883818228745093)"/><polygon points="1183,127 1450,126 1400,164 1133,165" fill="rgba(0,194,255,0.17682685623615632)"/><polygon points="105,542 355,554 305,600 55,588" fill="rgba(0,194,255,0.1957004163458528)"/><polygon points="97,262 355,245 305,273 47,290" fill="rgba(0,194,255,0.18240351317775194)"/><polygon points="266,291 428,300 378,333 216,324" fill="rgba(0,194,255,0.173033023967524)"/><polygon points="917,168 1093,180 1043,203 867,191" fill="rgba(0,194,255,0.09262622255249814)"/>
  <rect x="132" y="160" width="93" height="100" rx="14" fill="rgba(10,15,23,0.52)" stroke="rgba(0,255,159,0.32)"/><rect x="280" y="131" width="131" height="135" rx="14" fill="rgba(10,15,23,0.52)" stroke="rgba(0,255,159,0.32)"/><rect x="495" y="584" width="131" height="112" rx="14" fill="rgba(10,15,23,0.52)" stroke="rgba(0,255,159,0.32)"/><rect x="663" y="271" width="123" height="111" rx="14" fill="rgba(10,15,23,0.52)" stroke="rgba(0,255,159,0.32)"/><rect x="857" y="517" width="93" height="99" rx="14" fill="rgba(10,15,23,0.52)" stroke="rgba(0,255,159,0.32)"/><rect x="1028" y="171" width="111" height="126" rx="14" fill="rgba(10,15,23,0.52)" stroke="rgba(0,255,159,0.32)"/><rect x="1219" y="289" width="115" height="90" rx="14" fill="rgba(10,15,23,0.52)" stroke="rgba(0,255,159,0.32)"/><rect x="1389" y="579" width="136" height="113" rx="14" fill="rgba(10,15,23,0.52)" stroke="rgba(0,255,159,0.32)"/>
  <path d="M 206 489 L 1007 489 L 1007 142 L 1292 142" fill="none" stroke="rgba(0,255,159,0.26)" stroke-width="4" stroke-linecap="round"/><path d="M 99 727 L 1012 727 L 1012 500 L 1114 500" fill="none" stroke="rgba(0,194,255,0.26)" stroke-width="4" stroke-linecap="round"/><path d="M 284 572 L 590 572 L 590 387 L 525 387" fill="none" stroke="rgba(0,255,159,0.26)" stroke-width="4" stroke-linecap="round"/><path d="M 139 354 L 635 354 L 635 579 L 772 579" fill="none" stroke="rgba(0,194,255,0.26)" stroke-width="4" stroke-linecap="round"/><path d="M 224 416 L 741 416 L 741 667 L 1241 667" fill="none" stroke="rgba(0,255,159,0.26)" stroke-width="4" stroke-linecap="round"/><path d="M 221 552 L 885 552 L 885 276 L 1095 276" fill="none" stroke="rgba(0,194,255,0.26)" stroke-width="4" stroke-linecap="round"/><path d="M 241 749 L 808 749 L 808 368 L 1311 368" fill="none" stroke="rgba(0,255,159,0.26)" stroke-width="4" stroke-linecap="round"/><path d="M 61 589 L 1069 589 L 1069 696 L 1471 696" fill="none" stroke="rgba(0,194,255,0.26)" stroke-width="4" stroke-linecap="round"/><path d="M 160 326 L 581 326 L 581 543 L 594 543" fill="none" stroke="rgba(0,255,159,0.26)" stroke-width="4" stroke-linecap="round"/>
  <circle cx="1276" cy="782" r="7" fill="#00ff9f" fill-opacity="0.85"/><circle cx="1276" cy="782" r="21" fill="#00c2ff" fill-opacity="0.06"/><circle cx="1008" cy="507" r="9" fill="#00ff9f" fill-opacity="0.85"/><circle cx="1008" cy="507" r="23" fill="#00c2ff" fill-opacity="0.06"/><circle cx="959" cy="434" r="9" fill="#00ff9f" fill-opacity="0.85"/><circle cx="959" cy="434" r="23" fill="#00c2ff" fill-opacity="0.06"/><circle cx="871" cy="754" r="8" fill="#00ff9f" fill-opacity="0.85"/><circle cx="871" cy="754" r="22" fill="#00c2ff" fill-opacity="0.06"/><circle cx="228" cy="209" r="4" fill="#00ff9f" fill-opacity="0.85"/><circle cx="228" cy="209" r="18" fill="#00c2ff" fill-opacity="0.06"/><circle cx="1052" cy="165" r="5" fill="#00ff9f" fill-opacity="0.85"/><circle cx="1052" cy="165" r="19" fill="#00c2ff" fill-opacity="0.06"/><circle cx="249" cy="558" r="5" fill="#00ff9f" fill-opacity="0.85"/><circle cx="249" cy="558" r="19" fill="#00c2ff" fill-opacity="0.06"/><circle cx="530" cy="762" r="10" fill="#00ff9f" fill-opacity="0.85"/><circle cx="530" cy="762" r="24" fill="#00c2ff" fill-opacity="0.06"/><circle cx="1326" cy="145" r="8" fill="#00ff9f" fill-opacity="0.85"/><circle cx="1326" cy="145" r="22" fill="#00c2ff" fill-opacity="0.06"/><circle cx="1029" cy="756" r="7" fill="#00ff9f" fill-opacity="0.85"/><circle cx="1029" cy="756" r="21" fill="#00c2ff" fill-opacity="0.06"/><circle cx="1207" cy="739" r="9" fill="#00ff9f" fill-opacity="0.85"/><circle cx="1207" cy="739" r="23" fill="#00c2ff" fill-opacity="0.06"/><circle cx="1200" cy="522" r="6" fill="#00ff9f" fill-opacity="0.85"/><circle cx="1200" cy="522" r="20" fill="#00c2ff" fill-opacity="0.06"/><circle cx="1136" cy="809" r="9" fill="#00ff9f" fill-opacity="0.85"/><circle cx="1136" cy="809" r="23" fill="#00c2ff" fill-opacity="0.06"/><circle cx="261" cy="816" r="9" fill="#00ff9f" fill-opacity="0.85"/><circle cx="261" cy="816" r="23" fill="#00c2ff" fill-opacity="0.06"/><circle cx="1384" cy="463" r="9" fill="#00ff9f" fill-opacity="0.85"/><circle cx="1384" cy="463" r="23" fill="#00c2ff" fill-opacity="0.06"/><circle cx="192" cy="603" r="8" fill="#00ff9f" fill-opacity="0.85"/><circle cx="192" cy="603" r="22" fill="#00c2ff" fill-opacity="0.06"/>
  <rect x="0" y="780" width="1600" height="120" fill="rgba(10,15,23,0.88)"/>
</svg>