<svg xmlns="http://www.w3.org/2000/svg" viewBox="0 0 1600 900" role="img" aria-label="Terrain background">
  <defs>
    <linearGradient id="sky" x1="0%" y1="0%" x2="100%" y2="100%">
      <stop offset="0%" stop-color="#14281d"/>
      <stop offset="100%" stop-color="#355834"/>
    </linearGradient>
  </defs>
  <rect width="1600" height="900" fill="url(#sky)"/>
  <path d="M0 574L168 462L300 512L470 386L650 484L846 324L1052 432L1268 278L1450 392L1600 332V900H0Z" fill="#1f3724"/>
  <path d="M0 652L178 558L356 614L542 486L728 588L932 456L1148 564L1376 424L1600 508V900H0Z" fill="#294a2d" fill-opacity="0.9"/>
  <path d="M0 748L186 684L402 732L624 628L832 724L1072 622L1318 700L1600 612V900H0Z" fill="#0f1f13" fill-opacity="0.82"/>
  <circle cx="1318" cy="190" r="84" fill="#f4f1bb" fill-opacity="0.88"/>
  <circle cx="1318" cy="190" r="138" fill="#f4f1bb" fill-opacity="0.12"/>
</svg>
