<svg xmlns="http://www.w3.org/2000/svg" viewBox="0 0 1600 900" role="img" aria-label="CTF cover 1">
  <defs>
    <linearGradient id="bg" x1="0%" y1="0%" x2="100%" y2="100%">
      <stop offset="0%" stop-color="#101420"/>
      <stop offset="100%" stop-color="#1d3557"/>
    </linearGradient>
    <pattern id="grid" width="64" height="64" patternUnits="userSpaceOnUse">
      <path d="M64 0H0V64" fill="none" stroke="rgba(93,253,203,0.12)" stroke-width="1.5"/>
    </pattern>
  </defs>
  <rect width="1600" height="900" fill="url(#bg)"/>
  <rect width="1600" height="900" fill="url(#grid)"/>
  <rect x="37" y="218" width="18" height="480" fill="rgba(244,211,94,0.1)"/><rect x="141" y="228" width="18" height="667" fill="rgba(244,211,94,0.1)"/><rect x="255" y="96" width="18" height="320" fill="rgba(244,211,94,0.1)"/><rect x="346" y="159" width="18" height="398" fill="rgba(244,211,94,0.1)"/><rect x="420" y="198" width="18" height="310" fill="rgba(244,211,94,0.1)"/><rect x="513" y="189" width="18" height="646" fill="rgba(244,211,94,0.1)"/><rect x="617" y="254" width="18" height="526" fill="rgba(244,211,94,0.1)"/><rect x="702" y="140" width="18" height="601" fill="rgba(244,211,94,0.1)"/><rect x="817" y="229" width="18" height="299" fill="rgba(244,211,94,0.1)"/><rect x="899" y="246" width="18" height="605" fill="rgba(244,211,94,0.1)"/><rect x="994" y="162" width="18" height="698" fill="rgba(244,211,94,0.1)"/><rect x="1099" y="176" width="18" height="619" fill="rgba(244,211,94,0.1)"/><rect x="1195" y="143" width="18" height="357" fill="rgba(244,211,94,0.1)"/><rect x="1290" y="206" width="18" height="700" fill="rgba(244,211,94,0.1)"/><rect x="1381" y="139" width="18" height="599" fill="rgba(244,211,94,0.1)"/><rect x="1486" y="226" width="18" height="541" fill="rgba(244,211,94,0.1)"/>
  <rect x="57" y="293" width="143" height="170" rx="18" fill="rgba(21,27,44,0.46)" stroke="rgba(93,253,203,0.26)"/><rect x="294" y="537" width="130" height="111" rx="18" fill="rgba(21,27,44,0.46)" stroke="rgba(93,253,203,0.26)"/><rect x="510" y="474" width="107" height="83" rx="18" fill="rgba(21,27,44,0.46)" stroke="rgba(93,253,203,0.26)"/><rect x="725" y="306" width="140" height="121" rx="18" fill="rgba(21,27,44,0.46)" stroke="rgba(93,253,203,0.26)"/><rect x="923" y="474" width="103" height="175" rx="18" fill="rgba(21,27,44,0.46)" stroke="rgba(93,253,203,0.26)"/><rect x="1145" y="333" width="125" height="140" rx="18" fill="rgba(21,27,44,0.46)" stroke="rgba(93,253,203,0.26)"/><rect x="1328" y="201" width="97" height="131" rx="18" fill="rgba(21,27,44,0.46)" stroke="rgba(93,253,203,0.26)"/>
  <path d="M 152 767 L 442 173" stroke="rgba(93,253,203,0.2)" stroke-width="3"/><path d="M 442 173 L 331 301" stroke="rgba(93,253,203,0.2)" stroke-width="3"/><path d="M 331 301 L 1471 157" stroke="rgba(93,253,203,0.2)" stroke-width="3"/><path d="M 329 677 L 445 731" stroke="rgba(93,253,203,0.2)" stroke-width="3"/><path d="M 1107 357 L 445 731" stroke="rgba(93,253,203,0.2)" stroke-width="3"/><path d="M 445 731 L 919 184" stroke="rgba(93,253,203,0.2)" stroke-width="3"/><path d="M 1471 157 L 919 184" stroke="rgba(93,253,203,0.2)" stroke-width="3"/><path d="M 919 184 L 866 224" stroke="rgba(93,253,203,0.2)" stroke-width="3"/><path d="M 1123 496 L 152 767" stroke="rgba(93,253,203,0.2)" stroke-width="3"/><path d="M 866 224 L 361 469" stroke="rgba(93,253,203,0.2)" stroke-width="3"/><path d="M 361 469 L 331 301" stroke="rgba(93,253,203,0.2)" stroke-width="3"/>
  <circle cx="152" cy="767" r="8" fill="#f4d35e" fill-opacity="0.9"/><circle cx="152" cy="767" r="20" fill="#5dfdcb" fill-opacity="0.10"/><circle cx="442" cy="173" r="8" fill="#f4d35e" fill-opacity="0.9"/><circle cx="442" cy="173" r="20" fill="#5dfdcb" fill-opacity="0.10"/><circle cx="331" cy="301" r="8" fill="#f4d35e" fill-opacity="0.9"/><circle cx="331" cy="301" r="20" fill="#5dfdcb" fill-opacity="0.10"/><circle cx="329" cy="677" r="8" fill="#f4d35e" fill-opacity="0.9"/><circle cx="329" cy="677" r="20" fill="#5dfdcb" fill-opacity="0.10"/><circle cx="1107" cy="357" r="8" fill="#f4d35e" fill-opacity="0.9"/><circle cx="1107" cy="357" r="20" fill="#5dfdcb" fill-opacity="0.10"/><circle cx="445" cy="731" r="8" fill="#f4d35e" fill-opacity="0.9"/><circle cx="445" cy="731" r="20" fill="#5dfdcb" fill-opacity="0.10"/><circle cx="1471" cy="157" r="8" fill="#f4d35e" fill-opacity="0.9"/><circle cx="1471" cy="157" r="20" fill="#5dfdcb" fill-opacity="0.10"/><circle cx="919" cy="184" r="8" fill="#f4d35e" fill-opacity="0.9"/><circle cx="919" cy="184" r="20" fill="#5dfdcb" fill-opacity="0.10"/><circle cx="1123" cy="496" r="8" fill="#f4d35e" fill-opacity="0.9"/><circle cx="1123" cy="496" r="20" fill="#5dfdcb" fill-opacity="0.10"/><circle cx="866" cy="224" r="8" fill="#f4d35e" fill-opacity="0.9"/><circle cx="866" cy="224" r="20" fill="#5dfdcb" fill-opacity="0.10"/><circle cx="361" cy="469" r="8" fill="#f4d35e" fill-opacity="0.9"/><circle cx="361" cy="469" r="20" fill="#5dfdcb" fill-opacity="0.10"/><circle cx="1467" cy="598" r="8" fill="#f4d35e" fill-opacity="0.9"/><circle cx="1467" cy="598" r="20" fill="#5dfdcb" fill-opacity="0.10"/>
  <path d="M0 760L220 682L420 714L640 618L842 680L1080 570L1344 640L1600 540V900H0Z" fill="rgba(21,27,44,0.86)"/>
</svg>