<svg xmlns="http://www.w3.org/2000/svg" viewBox="0 0 1600 900" role="img" aria-label="CTF cover 7">
  <defs>
    <linearGradient id="bg" x1="0%" y1="0%" x2="100%" y2="100%">
      <stop offset="0%" stop-color="#101420"/>
      <stop offset="100%" stop-color="#1d3557"/>
    </linearGradient>
    <pattern id="grid" width="64" height="64" patternUnits="userSpaceOnUse">
      <path d="M64 0H0V64" fill="none" stroke="rgba(93,253,203,0.12)" stroke-width="1.5"/>
    </pattern>
  </defs>
  <rect width="1600" height="900" fill="url(#bg)"/>
  <rect width="1600" height="900" fill="url(#grid)"/>
  <rect x="55" y="246" width="18" height="694" fill="rgba(244,211,94,0.1)"/><rect x="155" y="140" width="18" height="349" fill="rgba(244,211,94,0.1)"/><rect x="250" y="181" width="18" height="497" fill="rgba(244,211,94,0.1)"/><rect x="349" y="171" width="18" height="505" fill="rgba(244,211,94,0.1)"/><rect x="420" y="179" width="18" height="638" fill="rgba(244,211,94,0.1)"/><rect x="529" y="145" width="18" height="652" fill="rgba(244,211,94,0.1)"/><rect x="605" y="130" width="18" height="452" fill="rgba(244,211,94,0.1)"/><rect x="703" y="129" width="18" height="678" fill="rgba(244,211,94,0.1)"/><rect x="818" y="243" width="18" height="526" fill="rgba(244,211,94,0.1)"/><rect x="900" y="205" width="18" height="347" fill="rgba(244,211,94,0.1)"/><rect x="987" y="103" width="18" height="346" fill="rgba(244,211,94,0.1)"/><rect x="1103" y="144" width="18" height="431" fill="rgba(244,211,94,0.1)"/><rect x="1190" y="160" width="18" height="607" fill="rgba(244,211,94,0.1)"/><rect x="1298" y="149" width="18" height="269" fill="rgba(244,211,94,0.1)"/><rect x="1392" y="162" width="18" height="273" fill="rgba(244,211,94,0.1)"/><rect x="1487" y="84" width="18" height="486" fill="rgba(244,211,94,0.1)"/>
  <rect x="68" y="574" width="107" height="105" rx="18" fill="rgba(21,27,44,0.46)" stroke="rgba(93,253,203,0.26)"/><rect x="292" y="121" width="142" height="173" rx="18" fill="rgba(21,27,44,0.46)" stroke="rgba(93,253,203,0.26)"/><rect x="520" y="164" width="147" height="167" rx="18" fill="rgba(21,27,44,0.46)" stroke="rgba(93,253,203,0.26)"/><rect x="700" y="503" width="95" height="148" rx="18" fill="rgba(21,27,44,0.46)" stroke="rgba(93,253,203,0.26)"/><rect x="918" y="159" width="76" height="96" rx="18" fill="rgba(21,27,44,0.46)" stroke="rgba(93,253,203,0.26)"/><rect x="1152" y="418" width="129" height="87" rx="18" fill="rgba(21,27,44,0.46)" stroke="rgba(93,253,203,0.26)"/><rect x="1351" y="485" width="136" height="81" rx="18" fill="rgba(21,27,44,0.46)" stroke="rgba(93,253,203,0.26)"/>
  <path d="M 603 519 L 935 447" stroke="rgba(93,253,203,0.2)" stroke-width="3"/><path d="M 381 675 L 935 447" stroke="rgba(93,253,203,0.2)" stroke-width="3"/><path d="M 935 447 L 711 321" stroke="rgba(93,253,203,0.2)" stroke-width="3"/><path d="M 486 220 L 1080 251" stroke="rgba(93,253,203,0.2)" stroke-width="3"/><path d="M 1080 251 L 752 347" stroke="rgba(93,253,203,0.2)" stroke-width="3"/><path d="M 711 321 L 1372 502" stroke="rgba(93,253,203,0.2)" stroke-width="3"/><path d="M 752 347 L 685 643" stroke="rgba(93,253,203,0.2)" stroke-width="3"/><path d="M 804 380 L 1347 680" stroke="rgba(93,253,203,0.2)" stroke-width="3"/><path d="M 685 643 L 1372 502" stroke="rgba(93,253,203,0.2)" stroke-width="3"/><path d="M 1372 502 L 381 675" stroke="rgba(93,253,203,0.2)" stroke-width="3"/><path d="M 1347 680 L 381 675" stroke="rgba(93,253,203,0.2)" stroke-width="3"/>
  <circle cx="603" cy="519" r="8" fill="#f4d35e" fill-opacity="0.9"/><circle cx="603" cy="519" r="20" fill="#5dfdcb" fill-opacity="0.10"/><circle cx="381" cy="675" r="8" fill="#f4d35e" fill-opacity="0.9"/><circle cx="381" cy="675" r="20" fill="#5dfdcb" fill-opacity="0.10"/><circle cx="935" cy="447" r="8" fill="#f4d35e" fill-opacity="0.9"/><circle cx="935" cy="447" r="20" fill="#5dfdcb" fill-opacity="0.10"/><circle cx="486" cy="220" r="8" fill="#f4d35e" fill-opacity="0.9"/><circle cx="486" cy="220" r="20" fill="#5dfdcb" fill-opacity="0.10"/><circle cx="1080" cy="251" r="8" fill="#f4d35e" fill-opacity="0.9"/><circle cx="1080" cy="251" r="20" fill="#5dfdcb" fill-opacity="0.10"/><circle cx="711" cy="321" r="8" fill="#f4d35e" fill-opacity="0.9"/><circle cx="711" cy="321" r="20" fill="#5dfdcb" fill-opacity="0.10"/><circle cx="752" cy="347" r="8" fill="#f4d35e" fill-opacity="0.9"/><circle cx="752" cy="347" r="20" fill="#5dfdcb" fill-opacity="0.10"/><circle cx="804" cy="380" r="8" fill="#f4d35e" fill-opacity="0.9"/><circle cx="804" cy="380" r="20" fill="#5dfdcb" fill-opacity="0.10"/><circle cx="685" cy="643" r="8" fill="#f4d35e" fill-opacity="0.9"/><circle cx="685" cy="643" r="20" fill="#5dfdcb" fill-opacity="0.10"/><circle cx="1372" cy="502" r="8" fill="#f4d35e" fill-opacity="0.9"/><circle cx="1372" cy="502" r="20" fill="#5dfdcb" fill-opacity="0.10"/><circle cx="1347" cy="680" r="8" fill="#f4d35e" fill-opacity="0.9"/><circle cx="1347" cy="680" r="20" fill="#5dfdcb" fill-opacity="0.10"/><circle cx="631" cy="151" r="8" fill="#f4d35e" fill-opacity="0.9"/><circle cx="631" cy="151" r="20" fill="#5dfdcb" fill-opacity="0.10"/>
  <path d="M0 760L220 682L420 714L640 618L842 680L1080 570L1344 640L1600 540V900H0Z" fill="rgba(21,27,44,0.86)"/>
</svg>