<svg xmlns="http://www.w3.org/2000/svg" viewBox="0 0 1600 900" role="img" aria-label="CTF cover 17">
  <defs>
    <linearGradient id="bg" x1="0%" y1="0%" x2="100%" y2="100%">
      <stop offset="0%" stop-color="#0b0f19"/>
      <stop offset="100%" stop-color="#162033"/>
    </linearGradient>
    <pattern id="grid" width="64" height="64" patternUnits="userSpaceOnUse">
      <path d="M64 0H0V64" fill="none" stroke="rgba(142,202,230,0.12)" stroke-width="1.5"/>
    </pattern>
  </defs>
  <rect width="1600" height="900" fill="url(#bg)"/>
  <rect width="1600" height="900" fill="url(#grid)"/>
  <rect x="52" y="217" width="18" height="436" fill="rgba(255,183,3,0.1)"/><rect x="155" y="114" width="18" height="444" fill="rgba(255,183,3,0.1)"/><rect x="242" y="89" width="18" height="420" fill="rgba(255,183,3,0.1)"/><rect x="323" y="119" width="18" height="436" fill="rgba(255,183,3,0.1)"/><rect x="429" y="96" width="18" height="510" fill="rgba(255,183,3,0.1)"/><rect x="530" y="92" width="18" height="468" fill="rgba(255,183,3,0.1)"/><rect x="629" y="169" width="18" height="683" fill="rgba(255,183,3,0.1)"/><rect x="722" y="99" width="18" height="511" fill="rgba(255,183,3,0.1)"/><rect x="824" y="170" width="18" height="584" fill="rgba(255,183,3,0.1)"/><rect x="920" y="203" width="18" height="669" fill="rgba(255,183,3,0.1)"/><rect x="1010" y="210" width="18" height="459" fill="rgba(255,183,3,0.1)"/><rect x="1087" y="165" width="18" height="499" fill="rgba(255,183,3,0.1)"/><rect x="1183" y="84" width="18" height="450" fill="rgba(255,183,3,0.1)"/><rect x="1280" y="119" width="18" height="341" fill="rgba(255,183,3,0.1)"/><rect x="1366" y="211" width="18" height="347" fill="rgba(255,183,3,0.1)"/><rect x="1482" y="254" width="18" height="324" fill="rgba(255,183,3,0.1)"/>
  <rect x="104" y="387" width="119" height="130" rx="18" fill="rgba(18,27,45,0.46)" stroke="rgba(142,202,230,0.26)"/><rect x="300" y="198" width="118" height="128" rx="18" fill="rgba(18,27,45,0.46)" stroke="rgba(142,202,230,0.26)"/><rect x="475" y="284" width="128" height="132" rx="18" fill="rgba(18,27,45,0.46)" stroke="rgba(142,202,230,0.26)"/><rect x="718" y="327" width="77" height="165" rx="18" fill="rgba(18,27,45,0.46)" stroke="rgba(142,202,230,0.26)"/><rect x="923" y="489" width="120" height="109" rx="18" fill="rgba(18,27,45,0.46)" stroke="rgba(142,202,230,0.26)"/><rect x="1110" y="447" width="131" height="122" rx="18" fill="rgba(18,27,45,0.46)" stroke="rgba(142,202,230,0.26)"/><rect x="1322" y="377" width="75" height="139" rx="18" fill="rgba(18,27,45,0.46)" stroke="rgba(142,202,230,0.26)"/>
  <path d="M 1259 774 L 1072 354" stroke="rgba(142,202,230,0.2)" stroke-width="3"/><path d="M 1072 354 L 1176 706" stroke="rgba(142,202,230,0.2)" stroke-width="3"/><path d="M 1220 450 L 1176 706" stroke="rgba(142,202,230,0.2)" stroke-width="3"/><path d="M 1058 314 L 1176 706" stroke="rgba(142,202,230,0.2)" stroke-width="3"/><path d="M 1176 706 L 565 324" stroke="rgba(142,202,230,0.2)" stroke-width="3"/><path d="M 880 698 L 488 554" stroke="rgba(142,202,230,0.2)" stroke-width="3"/><path d="M 565 324 L 488 554" stroke="rgba(142,202,230,0.2)" stroke-width="3"/><path d="M 1092 385 L 933 166" stroke="rgba(142,202,230,0.2)" stroke-width="3"/><path d="M 1022 772 L 1259 774" stroke="rgba(142,202,230,0.2)" stroke-width="3"/><path d="M 488 554 L 1259 774" stroke="rgba(142,202,230,0.2)" stroke-width="3"/><path d="M 644 385 L 1220 450" stroke="rgba(142,202,230,0.2)" stroke-width="3"/>
  <circle cx="1259" cy="774" r="8" fill="#ffb703" fill-opacity="0.9"/><circle cx="1259" cy="774" r="20" fill="#8ecae6" fill-opacity="0.10"/><circle cx="1072" cy="354" r="8" fill="#ffb703" fill-opacity="0.9"/><circle cx="1072" cy="354" r="20" fill="#8ecae6" fill-opacity="0.10"/><circle cx="1220" cy="450" r="8" fill="#ffb703" fill-opacity="0.9"/><circle cx="1220" cy="450" r="20" fill="#8ecae6" fill-opacity="0.10"/><circle cx="1058" cy="314" r="8" fill="#ffb703" fill-opacity="0.9"/><circle cx="1058" cy="314" r="20" fill="#8ecae6" fill-opacity="0.10"/><circle cx="1176" cy="706" r="8" fill="#ffb703" fill-opacity="0.9"/><circle cx="1176" cy="706" r="20" fill="#8ecae6" fill-opacity="0.10"/><circle cx="880" cy="698" r="8" fill="#ffb703" fill-opacity="0.9"/><circle cx="880" cy="698" r="20" fill="#8ecae6" fill-opacity="0.10"/><circle cx="565" cy="324" r="8" fill="#ffb703" fill-opacity="0.9"/><circle cx="565" cy="324" r="20" fill="#8ecae6" fill-opacity="0.10"/><circle cx="1092" cy="385" r="8" fill="#ffb703" fill-opacity="0.9"/><circle cx="1092" cy="385" r="20" fill="#8ecae6" fill-opacity="0.10"/><circle cx="1022" cy="772" r="8" fill="#ffb703" fill-opacity="0.9"/><circle cx="1022" cy="772" r="20" fill="#8ecae6" fill-opacity="0.10"/><circle cx="488" cy="554" r="8" fill="#ffb703" fill-opacity="0.9"/><circle cx="488" cy="554" r="20" fill="#8ecae6" fill-opacity="0.10"/><circle cx="644" cy="385" r="8" fill="#ffb703" fill-opacity="0.9"/><circle cx="644" cy="385" r="20" fill="#8ecae6" fill-opacity="0.10"/><circle cx="933" cy="166" r="8" fill="#ffb703" fill-opacity="0.9"/><circle cx="933" cy="166" r="20" fill="#8ecae6" fill-opacity="0.10"/>
  <path d="M0 760L220 682L420 714L640 618L842 680L1080 570L1344 640L1600 540V900H0Z" fill="rgba(18,27,45,0.86)"/>
</svg>