<svg xmlns="http://www.w3.org/2000/svg" viewBox="0 0 1600 900" role="img" aria-label="CTF cover 16">
  <defs>
    <linearGradient id="bg" x1="0%" y1="0%" x2="100%" y2="100%">
      <stop offset="0%" stop-color="#111827"/>
      <stop offset="100%" stop-color="#1f2937"/>
    </linearGradient>
    <pattern id="grid" width="64" height="64" patternUnits="userSpaceOnUse">
      <path d="M64 0H0V64" fill="none" stroke="rgba(34,211,238,0.12)" stroke-width="1.5"/>
    </pattern>
  </defs>
  <rect width="1600" height="900" fill="url(#bg)"/>
  <rect width="1600" height="900" fill="url(#grid)"/>
  <rect x="62" y="91" width="18" height="506" fill="rgba(167,139,250,0.1)"/><rect x="158" y="193" width="18" height="575" fill="rgba(167,139,250,0.1)"/><rect x="227" y="187" width="18" height="674" fill="rgba(167,139,250,0.1)"/><rect x="326" y="198" width="18" height="463" fill="rgba(167,139,250,0.1)"/><rect x="426" y="87" width="18" height="544" fill="rgba(167,139,250,0.1)"/><rect x="536" y="163" width="18" height="409" fill="rgba(167,139,250,0.1)"/><rect x="611" y="84" width="18" height="268" fill="rgba(167,139,250,0.1)"/><rect x="716" y="246" width="18" height="488" fill="rgba(167,139,250,0.1)"/><rect x="819" y="242" width="18" height="660" fill="rgba(167,139,250,0.1)"/><rect x="906" y="232" width="18" height="380" fill="rgba(167,139,250,0.1)"/><rect x="991" y="161" width="18" height="650" fill="rgba(167,139,250,0.1)"/><rect x="1080" y="180" width="18" height="660" fill="rgba(167,139,250,0.1)"/><rect x="1184" y="218" width="18" height="603" fill="rgba(167,139,250,0.1)"/><rect x="1270" y="203" width="18" height="525" fill="rgba(167,139,250,0.1)"/><rect x="1391" y="158" width="18" height="656" fill="rgba(167,139,250,0.1)"/><rect x="1469" y="125" width="18" height="466" fill="rgba(167,139,250,0.1)"/>
  <rect x="91" y="180" width="149" height="120" rx="18" fill="rgba(15,23,42,0.46)" stroke="rgba(34,211,238,0.26)"/><rect x="275" y="617" width="108" height="179" rx="18" fill="rgba(15,23,42,0.46)" stroke="rgba(34,211,238,0.26)"/><rect x="492" y="497" width="126" height="120" rx="18" fill="rgba(15,23,42,0.46)" stroke="rgba(34,211,238,0.26)"/><rect x="718" y="611" width="127" height="150" rx="18" fill="rgba(15,23,42,0.46)" stroke="rgba(34,211,238,0.26)"/><rect x="915" y="301" width="118" height="155" rx="18" fill="rgba(15,23,42,0.46)" stroke="rgba(34,211,238,0.26)"/><rect x="1124" y="393" width="98" height="83" rx="18" fill="rgba(15,23,42,0.46)" stroke="rgba(34,211,238,0.26)"/><rect x="1333" y="526" width="97" height="85" rx="18" fill="rgba(15,23,42,0.46)" stroke="rgba(34,211,238,0.26)"/>
  <path d="M 1250 719 L 696 251" stroke="rgba(34,211,238,0.2)" stroke-width="3"/><path d="M 950 393 L 427 672" stroke="rgba(34,211,238,0.2)" stroke-width="3"/><path d="M 1118 548 L 912 234" stroke="rgba(34,211,238,0.2)" stroke-width="3"/><path d="M 696 251 L 679 138" stroke="rgba(34,211,238,0.2)" stroke-width="3"/><path d="M 1026 124 L 1309 164" stroke="rgba(34,211,238,0.2)" stroke-width="3"/><path d="M 427 672 L 565 365" stroke="rgba(34,211,238,0.2)" stroke-width="3"/><path d="M 912 234 L 822 410" stroke="rgba(34,211,238,0.2)" stroke-width="3"/><path d="M 679 138 L 822 410" stroke="rgba(34,211,238,0.2)" stroke-width="3"/><path d="M 1309 164 L 565 365" stroke="rgba(34,211,238,0.2)" stroke-width="3"/><path d="M 565 365 L 1250 719" stroke="rgba(34,211,238,0.2)" stroke-width="3"/><path d="M 822 410 L 517 373" stroke="rgba(34,211,238,0.2)" stroke-width="3"/>
  <circle cx="1250" cy="719" r="8" fill="#a78bfa" fill-opacity="0.9"/><circle cx="1250" cy="719" r="20" fill="#22d3ee" fill-opacity="0.10"/><circle cx="950" cy="393" r="8" fill="#a78bfa" fill-opacity="0.9"/><circle cx="950" cy="393" r="20" fill="#22d3ee" fill-opacity="0.10"/><circle cx="1118" cy="548" r="8" fill="#a78bfa" fill-opacity="0.9"/><circle cx="1118" cy="548" r="20" fill="#22d3ee" fill-opacity="0.10"/><circle cx="696" cy="251" r="8" fill="#a78bfa" fill-opacity="0.9"/><circle cx="696" cy="251" r="20" fill="#22d3ee" fill-opacity="0.10"/><circle cx="1026" cy="124" r="8" fill="#a78bfa" fill-opacity="0.9"/><circle cx="1026" cy="124" r="20" fill="#22d3ee" fill-opacity="0.10"/><circle cx="427" cy="672" r="8" fill="#a78bfa" fill-opacity="0.9"/><circle cx="427" cy="672" r="20" fill="#22d3ee" fill-opacity="0.10"/><circle cx="912" cy="234" r="8" fill="#a78bfa" fill-opacity="0.9"/><circle cx="912" cy="234" r="20" fill="#22d3ee" fill-opacity="0.10"/><circle cx="679" cy="138" r="8" fill="#a78bfa" fill-opacity="0.9"/><circle cx="679" cy="138" r="20" fill="#22d3ee" fill-opacity="0.10"/><circle cx="1309" cy="164" r="8" fill="#a78bfa" fill-opacity="0.9"/><circle cx="1309" cy="164" r="20" fill="#22d3ee" fill-opacity="0.10"/><circle cx="565" cy="365" r="8" fill="#a78bfa" fill-opacity="0.9"/><circle cx="565" cy="365" r="20" fill="#22d3ee" fill-opacity="0.10"/><circle cx="822" cy="410" r="8" fill="#a78bfa" fill-opacity="0.9"/><circle cx="822" cy="410" r="20" fill="#22d3ee" fill-opacity="0.10"/><circle cx="517" cy="373" r="8" fill="#a78bfa" fill-opacity="0.9"/><circle cx="517" cy="373" r="20" fill="#22d3ee" fill-opacity="0.10"/>
  <path d="M0 760L220 682L420 714L640 618L842 680L1080 570L1344 640L1600 540V900H0Z" fill="rgba(15,23,42,0.86)"/>
</svg>