<svg xmlns="http://www.w3.org/2000/svg" viewBox="0 0 1600 900" role="img" aria-label="Hacker cover 16">
  <defs>
    <linearGradient id="bg" x1="0%" y1="0%" x2="100%" y2="100%">
      <stop offset="0%" stop-color="#090b10"/>
      <stop offset="100%" stop-color="#1b1f2a"/>
    </linearGradient>
  </defs>
  <rect width="1600" height="900" fill="url(#bg)"/>
  <rect x="262" y="32" width="6" height="264" fill="rgba(247,37,133,0.19490660356678752)" rx="3"/><rect x="1130" y="19" width="6" height="171" fill="rgba(247,37,133,0.1384893966610822)" rx="3"/><rect x="1495" y="189" width="6" height="511" fill="rgba(247,37,133,0.20467172268669276)" rx="3"/><rect x="322" y="7" width="6" height="514" fill="rgba(247,37,133,0.19193692419527048)" rx="3"/><rect x="1441" y="139" width="6" height="407" fill="rgba(247,37,133,0.1147824313101379)" rx="3"/><rect x="283" y="158" width="6" height="249" fill="rgba(247,37,133,0.1263502691209904)" rx="3"/><rect x="1542" y="-71" width="6" height="412" fill="rgba(247,37,133,0.18342303835690704)" rx="3"/><rect x="465" y="194" width="6" height="274" fill="rgba(247,37,133,0.157043311118513)" rx="3"/><rect x="199" y="226" width="6" height="274" fill="rgba(247,37,133,0.21272142373151248)" rx="3"/><rect x="3" y="274" width="6" height="301" fill="rgba(247,37,133,0.17528227373443714)" rx="3"/><rect x="188" y="137" width="6" height="346" fill="rgba(247,37,133,0.11519666556228358)" rx="3"/><rect x="1421" y="237" width="6" height="384" fill="rgba(247,37,133,0.16399197740361002)" rx="3"/><rect x="697" y="-22" width="6" height="254" fill="rgba(247,37,133,0.08830067614882013)" rx="3"/><rect x="1390" y="186" width="6" height="358" fill="rgba(247,37,133,0.13835573682640354)" rx="3"/><rect x="1589" y="50" width="6" height="223" fill="rgba(247,37,133,0.09213179589938453)" rx="3"/><rect x="246" y="33" width="6" height="241" fill="rgba(247,37,133,0.10147035093829751)" rx="3"/><rect x="175" y="261" width="6" height="268" fill="rgba(247,37,133,0.12810508738459264)" rx="3"/><rect x="67" y="-59" width="6" height="243" fill="rgba(247,37,133,0.150591120975827)" rx="3"/><rect x="217" y="151" width="6" height="265" fill="rgba(247,37,133,0.1076560166832081)" rx="3"/><rect x="323" y="163" width="6" height="491" fill="rgba(247,37,133,0.09871570737845758)" rx="3"/><rect x="438" y="38" width="6" height="407" fill="rgba(247,37,133,0.13872906870656868)" rx="3"/><rect x="799" y="256" width="6" height="260" fill="rgba(247,37,133,0.12615444016337798)" rx="3"/><rect x="1134" y="142" width="6" height="184" fill="rgba(247,37,133,0.101735964282288)" rx="3"/><rect x="241" y="93" width="6" height="264" fill="rgba(247,37,133,0.09546221301272369)" rx="3"/><rect x="505" y="119" width="6" height="494" fill="rgba(247,37,133,0.09759625767530489)" rx="3"/><rect x="1351" y="281" width="6" height="373" fill="rgba(247,37,133,0.15246683546216094)" rx="3"/><rect x="432" y="187" width="6" height="163" fill="rgba(247,37,133,0.1047562946653105)" rx="3"/><rect x="289" y="70" width="6" height="333" fill="rgba(247,37,133,0.2066960768451448)" rx="3"/><rect x="271" y="290" width="6" height="403" fill="rgba(247,37,133,0.15930568816070503)" rx="3"/><rect x="586" y="-74" width="6" height="322" fill="rgba(247,37,133,0.1692811340924399)" rx="3"/>
  <polygon points="1025,637 1362,645 1312,688 975,680" fill="rgba(76,201,240,0.11305983701936387)"/><polygon points="422,642 680,654 630,685 372,673" fill="rgba(76,201,240,0.21643140335172084)"/><polygon points="1150,170 1413,187 1363,206 1100,189" fill="rgba(76,201,240,0.13355971223046934)"/><polygon points="738,171 920,190 870,229 688,210" fill="rgba(76,201,240,0.19201837977999658)"/><polygon points="1256,175 1437,184 1387,214 1206,205" fill="rgba(76,201,240,0.1349101210499546)"/><polygon points="1250,709 1589,718 1539,737 1200,728" fill="rgba(76,201,240,0.1815579871757818)"/><polygon points="547,112 750,109 700,146 497,149" fill="rgba(76,201,240,0.20882591122911642)"/><polygon points="566,413 862,411 812,429 516,431" fill="rgba(76,201,240,0.11733822185279716)"/><polygon points="1067,295 1404,288 1354,323 1017,330" fill="rgba(76,201,240,0.17298319099020137)"/><polygon points="878,249 1042,235 992,260 828,274" fill="rgba(76,201,240,0.1378875087599726)"/><polygon points="1277,474 1572,486 1522,529 1227,517" fill="rgba(76,201,240,0.1879739920739565)"/><polygon points="113,755 377,767 327,798 63,786" fill="rgba(76,201,240,0.1983963739994224)"/>
  <rect x="122" y="202" width="102" height="122" rx="14" fill="rgba(17,21,30,0.52)" stroke="rgba(247,37,133,0.32)"/><rect x="282" y="167" width="113" height="105" rx="14" fill="rgba(17,21,30,0.52)" stroke="rgba(247,37,133,0.32)"/><rect x="473" y="394" width="130" height="114" rx="14" fill="rgba(17,21,30,0.52)" stroke="rgba(247,37,133,0.32)"/><rect x="643" y="201" width="134" height="101" rx="14" fill="rgba(17,21,30,0.52)" stroke="rgba(247,37,133,0.32)"/><rect x="852" y="348" width="120" height="125" rx="14" fill="rgba(17,21,30,0.52)" stroke="rgba(247,37,133,0.32)"/><rect x="1012" y="406" width="94" height="104" rx="14" fill="rgba(17,21,30,0.52)" stroke="rgba(247,37,133,0.32)"/><rect x="1188" y="509" width="135" height="134" rx="14" fill="rgba(17,21,30,0.52)" stroke="rgba(247,37,133,0.32)"/><rect x="1397" y="509" width="105" height="110" rx="14" fill="rgba(17,21,30,0.52)" stroke="rgba(247,37,133,0.32)"/>
  <path d="M 283 398 L 1086 398 L 1086 144 L 969 144" fill="none" stroke="rgba(247,37,133,0.26)" stroke-width="4" stroke-linecap="round"/><path d="M 123 235 L 940 235 L 940 193 L 1221 193" fill="none" stroke="rgba(76,201,240,0.26)" stroke-width="4" stroke-linecap="round"/><path d="M 219 671 L 652 671 L 652 654 L 1292 654" fill="none" stroke="rgba(247,37,133,0.26)" stroke-width="4" stroke-linecap="round"/><path d="M 50 332 L 720 332 L 720 350 L 524 350" fill="none" stroke="rgba(76,201,240,0.26)" stroke-width="4" stroke-linecap="round"/><path d="M 145 296 L 561 296 L 561 377 L 903 377" fill="none" stroke="rgba(247,37,133,0.26)" stroke-width="4" stroke-linecap="round"/><path d="M 193 625 L 635 625 L 635 509 L 1472 509" fill="none" stroke="rgba(76,201,240,0.26)" stroke-width="4" stroke-linecap="round"/><path d="M 154 140 L 870 140 L 870 119 L 1092 119" fill="none" stroke="rgba(247,37,133,0.26)" stroke-width="4" stroke-linecap="round"/><path d="M 250 698 L 936 698 L 936 110 L 1174 110" fill="none" stroke="rgba(76,201,240,0.26)" stroke-width="4" stroke-linecap="round"/><path d="M 261 643 L 1073 643 L 1073 745 L 1298 745" fill="none" stroke="rgba(247,37,133,0.26)" stroke-width="4" stroke-linecap="round"/>
  <circle cx="1072" cy="520" r="9" fill="#f72585" fill-opacity="0.85"/><circle cx="1072" cy="520" r="23" fill="#4cc9f0" fill-opacity="0.06"/><circle cx="919" cy="321" r="5" fill="#f72585" fill-opacity="0.85"/><circle cx="919" cy="321" r="19" fill="#4cc9f0" fill-opacity="0.06"/><circle cx="384" cy="819" r="5" fill="#f72585" fill-opacity="0.85"/><circle cx="384" cy="819" r="19" fill="#4cc9f0" fill-opacity="0.06"/><circle cx="1514" cy="193" r="6" fill="#f72585" fill-opacity="0.85"/><circle cx="1514" cy="193" r="20" fill="#4cc9f0" fill-opacity="0.06"/><circle cx="1337" cy="124" r="8" fill="#f72585" fill-opacity="0.85"/><circle cx="1337" cy="124" r="22" fill="#4cc9f0" fill-opacity="0.06"/><circle cx="1122" cy="809" r="7" fill="#f72585" fill-opacity="0.85"/><circle cx="1122" cy="809" r="21" fill="#4cc9f0" fill-opacity="0.06"/><circle cx="1440" cy="304" r="10" fill="#f72585" fill-opacity="0.85"/><circle cx="1440" cy="304" r="24" fill="#4cc9f0" fill-opacity="0.06"/><circle cx="1284" cy="415" r="5" fill="#f72585" fill-opacity="0.85"/><circle cx="1284" cy="415" r="19" fill="#4cc9f0" fill-opacity="0.06"/><circle cx="465" cy="296" r="5" fill="#f72585" fill-opacity="0.85"/><circle cx="465" cy="296" r="19" fill="#4cc9f0" fill-opacity="0.06"/><circle cx="1432" cy="774" r="9" fill="#f72585" fill-opacity="0.85"/><circle cx="1432" cy="774" r="23" fill="#4cc9f0" fill-opacity="0.06"/><circle cx="188" cy="527" r="7" fill="#f72585" fill-opacity="0.85"/><circle cx="188" cy="527" r="21" fill="#4cc9f0" fill-opacity="0.06"/><circle cx="302" cy="552" r="9" fill="#f72585" fill-opacity="0.85"/><circle cx="302" cy="552" r="23" fill="#4cc9f0" fill-opacity="0.06"/><circle cx="689" cy="342" r="9" fill="#f72585" fill-opacity="0.85"/><circle cx="689" cy="342" r="23" fill="#4cc9f0" fill-opacity="0.06"/><circle cx="1221" cy="134" r="9" fill="#f72585" fill-opacity="0.85"/><circle cx="1221" cy="134" r="23" fill="#4cc9f0" fill-opacity="0.06"/><circle cx="1254" cy="435" r="4" fill="#f72585" fill-opacity="0.85"/><circle cx="1254" cy="435" r="18" fill="#4cc9f0" fill-opacity="0.06"/><circle cx="136" cy="760" r="5" fill="#f72585" fill-opacity="0.85"/><circle cx="136" cy="760" r="19" fill="#4cc9f0" fill-opacity="0.06"/>
  <rect x="0" y="780" width="1600" height="120" fill="rgba(17,21,30,0.88)"/>
</svg>