<svg xmlns="http://www.w3.org/2000/svg" viewBox="0 0 1600 900" role="img" aria-label="Hacker cover 3">
  <defs>
    <linearGradient id="bg" x1="0%" y1="0%" x2="100%" y2="100%">
      <stop offset="0%" stop-color="#05060a"/>
      <stop offset="100%" stop-color="#0f172a"/>
    </linearGradient>
  </defs>
  <rect width="1600" height="900" fill="url(#bg)"/>
  <rect x="1471" y="182" width="6" height="322" fill="rgba(57,255,20,0.16631620689653473)" rx="3"/><rect x="1017" y="142" width="6" height="501" fill="rgba(57,255,20,0.21605189852578655)" rx="3"/><rect x="1240" y="222" width="6" height="446" fill="rgba(57,255,20,0.16461785902537523)" rx="3"/><rect x="401" y="44" width="6" height="316" fill="rgba(57,255,20,0.18863715103064627)" rx="3"/><rect x="815" y="155" width="6" height="432" fill="rgba(57,255,20,0.18466331930599544)" rx="3"/><rect x="1352" y="40" width="6" height="202" fill="rgba(57,255,20,0.17365438653100554)" rx="3"/><rect x="1584" y="61" width="6" height="176" fill="rgba(57,255,20,0.09970591712539896)" rx="3"/><rect x="422" y="183" width="6" height="175" fill="rgba(57,255,20,0.15843289447377074)" rx="3"/><rect x="253" y="178" width="6" height="242" fill="rgba(57,255,20,0.10451654870490003)" rx="3"/><rect x="585" y="76" width="6" height="260" fill="rgba(57,255,20,0.14582266838297453)" rx="3"/><rect x="907" y="160" width="6" height="390" fill="rgba(57,255,20,0.19111460366387922)" rx="3"/><rect x="1565" y="230" width="6" height="484" fill="rgba(57,255,20,0.1363536157386781)" rx="3"/><rect x="1434" y="119" width="6" height="310" fill="rgba(57,255,20,0.09684369186898097)" rx="3"/><rect x="422" y="-52" width="6" height="172" fill="rgba(57,255,20,0.19300662771655158)" rx="3"/><rect x="500" y="97" width="6" height="382" fill="rgba(57,255,20,0.11484376208705868)" rx="3"/><rect x="1048" y="70" width="6" height="233" fill="rgba(57,255,20,0.14502704118872017)" rx="3"/><rect x="1042" y="216" width="6" height="216" fill="rgba(57,255,20,0.09033522702824834)" rx="3"/><rect x="1142" y="-66" width="6" height="394" fill="rgba(57,255,20,0.15500026586884708)" rx="3"/><rect x="169" y="-70" width="6" height="169" fill="rgba(57,255,20,0.11637373808501805)" rx="3"/><rect x="24" y="243" width="6" height="289" fill="rgba(57,255,20,0.0808809023969542)" rx="3"/><rect x="564" y="279" width="6" height="236" fill="rgba(57,255,20,0.20332214007273453)" rx="3"/><rect x="21" y="185" width="6" height="218" fill="rgba(57,255,20,0.19836381967372102)" rx="3"/><rect x="283" y="-42" width="6" height="162" fill="rgba(57,255,20,0.19951217819082706)" rx="3"/><rect x="732" y="293" width="6" height="474" fill="rgba(57,255,20,0.2077148703727258)" rx="3"/><rect x="953" y="-69" width="6" height="512" fill="rgba(57,255,20,0.10070879183979123)" rx="3"/><rect x="970" y="160" width="6" height="256" fill="rgba(57,255,20,0.1491037735198259)" rx="3"/><rect x="447" y="162" width="6" height="181" fill="rgba(57,255,20,0.11064478245369025)" rx="3"/><rect x="1456" y="21" width="6" height="236" fill="rgba(57,255,20,0.18274928838616095)" rx="3"/><rect x="707" y="118" width="6" height="366" fill="rgba(57,255,20,0.21669066607039095)" rx="3"/><rect x="1051" y="54" width="6" height="436" fill="rgba(57,255,20,0.11050115370832427)" rx="3"/>
  <polygon points="655,364 811,373 761,392 605,383" fill="rgba(0,212,255,0.19040535347291437)"/><polygon points="786,224 988,226 938,264 736,262" fill="rgba(0,212,255,0.1063333612123534)"/><polygon points="852,258 1172,256 1122,275 802,277" fill="rgba(0,212,255,0.1182420035394948)"/><polygon points="574,724 728,733 678,777 524,768" fill="rgba(0,212,255,0.1922839310045489)"/><polygon points="641,521 851,527 801,567 591,561" fill="rgba(0,212,255,0.1642607698790105)"/><polygon points="265,629 539,630 489,665 215,664" fill="rgba(0,212,255,0.174456567782096)"/><polygon points="1226,638 1491,619 1441,646 1176,665" fill="rgba(0,212,255,0.1998064389425866)"/><polygon points="368,672 533,662 483,682 318,692" fill="rgba(0,212,255,0.16536780666472056)"/><polygon points="1084,590 1277,600 1227,637 1034,627" fill="rgba(0,212,255,0.11023578539456724)"/><polygon points="848,667 1183,679 1133,704 798,692" fill="rgba(0,212,255,0.166696025790576)"/><polygon points="744,297 904,301 854,332 694,328" fill="rgba(0,212,255,0.18482494154709966)"/><polygon points="1361,135 1618,120 1568,140 1311,155" fill="rgba(0,212,255,0.20848518331927957)"/>
  <rect x="122" y="484" width="102" height="95" rx="14" fill="rgba(16,20,31,0.52)" stroke="rgba(57,255,20,0.32)"/><rect x="304" y="555" width="92" height="129" rx="14" fill="rgba(16,20,31,0.52)" stroke="rgba(57,255,20,0.32)"/><rect x="478" y="404" width="107" height="128" rx="14" fill="rgba(16,20,31,0.52)" stroke="rgba(57,255,20,0.32)"/><rect x="650" y="429" width="101" height="98" rx="14" fill="rgba(16,20,31,0.52)" stroke="rgba(57,255,20,0.32)"/><rect x="844" y="571" width="117" height="121" rx="14" fill="rgba(16,20,31,0.52)" stroke="rgba(57,255,20,0.32)"/><rect x="1001" y="586" width="104" height="120" rx="14" fill="rgba(16,20,31,0.52)" stroke="rgba(57,255,20,0.32)"/><rect x="1220" y="491" width="102" height="120" rx="14" fill="rgba(16,20,31,0.52)" stroke="rgba(57,255,20,0.32)"/><rect x="1391" y="188" width="111" height="124" rx="14" fill="rgba(16,20,31,0.52)" stroke="rgba(57,255,20,0.32)"/>
  <path d="M 93 738 L 668 738 L 668 247 L 663 247" fill="none" stroke="rgba(57,255,20,0.26)" stroke-width="4" stroke-linecap="round"/><path d="M 260 351 L 1058 351 L 1058 157 L 574 157" fill="none" stroke="rgba(0,212,255,0.26)" stroke-width="4" stroke-linecap="round"/><path d="M 214 459 L 987 459 L 987 497 L 1077 497" fill="none" stroke="rgba(57,255,20,0.26)" stroke-width="4" stroke-linecap="round"/><path d="M 61 296 L 633 296 L 633 172 L 744 172" fill="none" stroke="rgba(0,212,255,0.26)" stroke-width="4" stroke-linecap="round"/><path d="M 154 139 L 1015 139 L 1015 653 L 1536 653" fill="none" stroke="rgba(57,255,20,0.26)" stroke-width="4" stroke-linecap="round"/><path d="M 103 598 L 1053 598 L 1053 318 L 741 318" fill="none" stroke="rgba(0,212,255,0.26)" stroke-width="4" stroke-linecap="round"/><path d="M 245 371 L 1084 371 L 1084 626 L 1063 626" fill="none" stroke="rgba(57,255,20,0.26)" stroke-width="4" stroke-linecap="round"/><path d="M 121 384 L 964 384 L 964 364 L 697 364" fill="none" stroke="rgba(0,212,255,0.26)" stroke-width="4" stroke-linecap="round"/><path d="M 103 314 L 1055 314 L 1055 137 L 1023 137" fill="none" stroke="rgba(57,255,20,0.26)" stroke-width="4" stroke-linecap="round"/>
  <circle cx="373" cy="587" r="4" fill="#39ff14" fill-opacity="0.85"/><circle cx="373" cy="587" r="18" fill="#00d4ff" fill-opacity="0.06"/><circle cx="575" cy="212" r="4" fill="#39ff14" fill-opacity="0.85"/><circle cx="575" cy="212" r="18" fill="#00d4ff" fill-opacity="0.06"/><circle cx="1039" cy="147" r="7" fill="#39ff14" fill-opacity="0.85"/><circle cx="1039" cy="147" r="21" fill="#00d4ff" fill-opacity="0.06"/><circle cx="858" cy="637" r="6" fill="#39ff14" fill-opacity="0.85"/><circle cx="858" cy="637" r="20" fill="#00d4ff" fill-opacity="0.06"/><circle cx="1488" cy="495" r="9" fill="#39ff14" fill-opacity="0.85"/><circle cx="1488" cy="495" r="23" fill="#00d4ff" fill-opacity="0.06"/><circle cx="967" cy="175" r="4" fill="#39ff14" fill-opacity="0.85"/><circle cx="967" cy="175" r="18" fill="#00d4ff" fill-opacity="0.06"/><circle cx="468" cy="161" r="5" fill="#39ff14" fill-opacity="0.85"/><circle cx="468" cy="161" r="19" fill="#00d4ff" fill-opacity="0.06"/><circle cx="111" cy="724" r="4" fill="#39ff14" fill-opacity="0.85"/><circle cx="111" cy="724" r="18" fill="#00d4ff" fill-opacity="0.06"/><circle cx="925" cy="563" r="5" fill="#39ff14" fill-opacity="0.85"/><circle cx="925" cy="563" r="19" fill="#00d4ff" fill-opacity="0.06"/><circle cx="1037" cy="164" r="7" fill="#39ff14" fill-opacity="0.85"/><circle cx="1037" cy="164" r="21" fill="#00d4ff" fill-opacity="0.06"/><circle cx="762" cy="232" r="9" fill="#39ff14" fill-opacity="0.85"/><circle cx="762" cy="232" r="23" fill="#00d4ff" fill-opacity="0.06"/><circle cx="1405" cy="201" r="9" fill="#39ff14" fill-opacity="0.85"/><circle cx="1405" cy="201" r="23" fill="#00d4ff" fill-opacity="0.06"/><circle cx="821" cy="659" r="9" fill="#39ff14" fill-opacity="0.85"/><circle cx="821" cy="659" r="23" fill="#00d4ff" fill-opacity="0.06"/><circle cx="1020" cy="378" r="9" fill="#39ff14" fill-opacity="0.85"/><circle cx="1020" cy="378" r="23" fill="#00d4ff" fill-opacity="0.06"/><circle cx="1364" cy="572" r="4" fill="#39ff14" fill-opacity="0.85"/><circle cx="1364" cy="572" r="18" fill="#00d4ff" fill-opacity="0.06"/><circle cx="795" cy="646" r="10" fill="#39ff14" fill-opacity="0.85"/><circle cx="795" cy="646" r="24" fill="#00d4ff" fill-opacity="0.06"/>
  <rect x="0" y="780" width="1600" height="120" fill="rgba(16,20,31,0.88)"/>
</svg>