<svg xmlns="http://www.w3.org/2000/svg" viewBox="0 0 1600 900" role="img" aria-label="Hacker cover 2">
  <defs>
    <linearGradient id="bg" x1="0%" y1="0%" x2="100%" y2="100%">
      <stop offset="0%" stop-color="#06090f"/>
      <stop offset="100%" stop-color="#101b2d"/>
    </linearGradient>
  </defs>
  <rect width="1600" height="900" fill="url(#bg)"/>
  <rect x="1065" y="205" width="6" height="263" fill="rgba(255,60,172,0.11277495871100447)" rx="3"/><rect x="280" y="-18" width="6" height="230" fill="rgba(255,60,172,0.13789754069923366)" rx="3"/><rect x="781" y="102" width="6" height="188" fill="rgba(255,60,172,0.1418322679958985)" rx="3"/><rect x="459" y="125" width="6" height="220" fill="rgba(255,60,172,0.20412464998638818)" rx="3"/><rect x="73" y="245" width="6" height="226" fill="rgba(255,60,172,0.16690495397182425)" rx="3"/><rect x="962" y="8" width="6" height="296" fill="rgba(255,60,172,0.1321131635392473)" rx="3"/><rect x="798" y="180" width="6" height="170" fill="rgba(255,60,172,0.1632132006377176)" rx="3"/><rect x="1016" y="112" width="6" height="512" fill="rgba(255,60,172,0.20186050421896645)" rx="3"/><rect x="184" y="84" width="6" height="276" fill="rgba(255,60,172,0.131593353977499)" rx="3"/><rect x="640" y="201" width="6" height="234" fill="rgba(255,60,172,0.21798213222099372)" rx="3"/><rect x="1193" y="232" width="6" height="518" fill="rgba(255,60,172,0.17642746736146253)" rx="3"/><rect x="1488" y="212" width="6" height="442" fill="rgba(255,60,172,0.14315795156517763)" rx="3"/><rect x="1329" y="-29" width="6" height="347" fill="rgba(255,60,172,0.11301390948658821)" rx="3"/><rect x="133" y="205" width="6" height="454" fill="rgba(255,60,172,0.12970774343943758)" rx="3"/><rect x="1101" y="272" width="6" height="166" fill="rgba(255,60,172,0.17981263113144946)" rx="3"/><rect x="721" y="261" width="6" height="419" fill="rgba(255,60,172,0.10865123327125395)" rx="3"/><rect x="190" y="-41" width="6" height="421" fill="rgba(255,60,172,0.12209160992697263)" rx="3"/><rect x="1194" y="81" width="6" height="295" fill="rgba(255,60,172,0.15613210905325628)" rx="3"/><rect x="798" y="136" width="6" height="349" fill="rgba(255,60,172,0.1947677928412651)" rx="3"/><rect x="1348" y="0" width="6" height="295" fill="rgba(255,60,172,0.11838948506108096)" rx="3"/><rect x="109" y="44" width="6" height="513" fill="rgba(255,60,172,0.09695005953804493)" rx="3"/><rect x="1560" y="-45" width="6" height="191" fill="rgba(255,60,172,0.16082241764224528)" rx="3"/><rect x="602" y="-25" width="6" height="357" fill="rgba(255,60,172,0.19882142569664307)" rx="3"/><rect x="411" y="156" width="6" height="346" fill="rgba(255,60,172,0.09386089506695855)" rx="3"/><rect x="1525" y="235" width="6" height="244" fill="rgba(255,60,172,0.13795341997744492)" rx="3"/><rect x="1544" y="99" width="6" height="458" fill="rgba(255,60,172,0.21357942900258425)" rx="3"/><rect x="1160" y="279" width="6" height="396" fill="rgba(255,60,172,0.08581179855115127)" rx="3"/><rect x="1576" y="-42" width="6" height="281" fill="rgba(255,60,172,0.13873261798296913)" rx="3"/><rect x="320" y="56" width="6" height="490" fill="rgba(255,60,172,0.1556217877194191)" rx="3"/><rect x="395" y="165" width="6" height="272" fill="rgba(255,60,172,0.09281898223282375)" rx="3"/>
  <polygon points="846,372 1077,373 1027,415 796,414" fill="rgba(120,75,160,0.16994440467488317)"/><polygon points="480,476 808,474 758,499 430,501" fill="rgba(120,75,160,0.1955891933322349)"/><polygon points="329,306 526,322 476,362 279,346" fill="rgba(120,75,160,0.1306309308848052)"/><polygon points="1315,426 1466,407 1416,449 1265,468" fill="rgba(120,75,160,0.08721279400433771)"/><polygon points="512,685 726,669 676,688 462,704" fill="rgba(120,75,160,0.14298131089149296)"/><polygon points="655,304 906,297 856,325 605,332" fill="rgba(120,75,160,0.16648433132137763)"/><polygon points="393,162 599,153 549,172 343,181" fill="rgba(120,75,160,0.17038073092720618)"/><polygon points="525,351 787,360 737,401 475,392" fill="rgba(120,75,160,0.11235915201563665)"/><polygon points="517,695 690,695 640,733 467,733" fill="rgba(120,75,160,0.14646937921279846)"/><polygon points="1013,295 1194,293 1144,320 963,322" fill="rgba(120,75,160,0.13302651800391732)"/><polygon points="741,617 960,613 910,659 691,663" fill="rgba(120,75,160,0.16694171902900964)"/><polygon points="699,584 978,581 928,604 649,607" fill="rgba(120,75,160,0.1593622742771142)"/>
  <rect x="115" y="380" width="137" height="129" rx="14" fill="rgba(18,24,38,0.52)" stroke="rgba(255,60,172,0.32)"/><rect x="291" y="482" width="112" height="102" rx="14" fill="rgba(18,24,38,0.52)" stroke="rgba(255,60,172,0.32)"/><rect x="500" y="365" width="98" height="90" rx="14" fill="rgba(18,24,38,0.52)" stroke="rgba(255,60,172,0.32)"/><rect x="649" y="468" width="106" height="109" rx="14" fill="rgba(18,24,38,0.52)" stroke="rgba(255,60,172,0.32)"/><rect x="852" y="432" width="112" height="98" rx="14" fill="rgba(18,24,38,0.52)" stroke="rgba(255,60,172,0.32)"/><rect x="1035" y="552" width="103" height="100" rx="14" fill="rgba(18,24,38,0.52)" stroke="rgba(255,60,172,0.32)"/><rect x="1220" y="134" width="117" height="91" rx="14" fill="rgba(18,24,38,0.52)" stroke="rgba(255,60,172,0.32)"/><rect x="1385" y="616" width="111" height="100" rx="14" fill="rgba(18,24,38,0.52)" stroke="rgba(255,60,172,0.32)"/>
  <path d="M 261 547 L 799 547 L 799 572 L 1078 572" fill="none" stroke="rgba(255,60,172,0.26)" stroke-width="4" stroke-linecap="round"/><path d="M 259 203 L 983 203 L 983 421 L 573 421" fill="none" stroke="rgba(120,75,160,0.26)" stroke-width="4" stroke-linecap="round"/><path d="M 139 581 L 809 581 L 809 623 L 1385 623" fill="none" stroke="rgba(255,60,172,0.26)" stroke-width="4" stroke-linecap="round"/><path d="M 210 326 L 937 326 L 937 752 L 1493 752" fill="none" stroke="rgba(120,75,160,0.26)" stroke-width="4" stroke-linecap="round"/><path d="M 96 259 L 882 259 L 882 117 L 1431 117" fill="none" stroke="rgba(255,60,172,0.26)" stroke-width="4" stroke-linecap="round"/><path d="M 191 387 L 1055 387 L 1055 513 L 691 513" fill="none" stroke="rgba(120,75,160,0.26)" stroke-width="4" stroke-linecap="round"/><path d="M 265 315 L 897 315 L 897 373 L 1429 373" fill="none" stroke="rgba(255,60,172,0.26)" stroke-width="4" stroke-linecap="round"/><path d="M 289 641 L 693 641 L 693 244 L 696 244" fill="none" stroke="rgba(120,75,160,0.26)" stroke-width="4" stroke-linecap="round"/><path d="M 170 558 L 1033 558 L 1033 535 L 1054 535" fill="none" stroke="rgba(255,60,172,0.26)" stroke-width="4" stroke-linecap="round"/>
  <circle cx="433" cy="93" r="9" fill="#ff3cac" fill-opacity="0.85"/><circle cx="433" cy="93" r="23" fill="#784ba0" fill-opacity="0.06"/><circle cx="512" cy="264" r="6" fill="#ff3cac" fill-opacity="0.85"/><circle cx="512" cy="264" r="20" fill="#784ba0" fill-opacity="0.06"/><circle cx="631" cy="196" r="4" fill="#ff3cac" fill-opacity="0.85"/><circle cx="631" cy="196" r="18" fill="#784ba0" fill-opacity="0.06"/><circle cx="1337" cy="116" r="4" fill="#ff3cac" fill-opacity="0.85"/><circle cx="1337" cy="116" r="18" fill="#784ba0" fill-opacity="0.06"/><circle cx="523" cy="600" r="5" fill="#ff3cac" fill-opacity="0.85"/><circle cx="523" cy="600" r="19" fill="#784ba0" fill-opacity="0.06"/><circle cx="1373" cy="566" r="6" fill="#ff3cac" fill-opacity="0.85"/><circle cx="1373" cy="566" r="20" fill="#784ba0" fill-opacity="0.06"/><circle cx="1115" cy="433" r="7" fill="#ff3cac" fill-opacity="0.85"/><circle cx="1115" cy="433" r="21" fill="#784ba0" fill-opacity="0.06"/><circle cx="789" cy="505" r="10" fill="#ff3cac" fill-opacity="0.85"/><circle cx="789" cy="505" r="24" fill="#784ba0" fill-opacity="0.06"/><circle cx="353" cy="816" r="6" fill="#ff3cac" fill-opacity="0.85"/><circle cx="353" cy="816" r="20" fill="#784ba0" fill-opacity="0.06"/><circle cx="170" cy="698" r="7" fill="#ff3cac" fill-opacity="0.85"/><circle cx="170" cy="698" r="21" fill="#784ba0" fill-opacity="0.06"/><circle cx="159" cy="312" r="7" fill="#ff3cac" fill-opacity="0.85"/><circle cx="159" cy="312" r="21" fill="#784ba0" fill-opacity="0.06"/><circle cx="1471" cy="164" r="8" fill="#ff3cac" fill-opacity="0.85"/><circle cx="1471" cy="164" r="22" fill="#784ba0" fill-opacity="0.06"/><circle cx="647" cy="578" r="5" fill="#ff3cac" fill-opacity="0.85"/><circle cx="647" cy="578" r="19" fill="#784ba0" fill-opacity="0.06"/><circle cx="1463" cy="213" r="5" fill="#ff3cac" fill-opacity="0.85"/><circle cx="1463" cy="213" r="19" fill="#784ba0" fill-opacity="0.06"/><circle cx="462" cy="197" r="9" fill="#ff3cac" fill-opacity="0.85"/><circle cx="462" cy="197" r="23" fill="#784ba0" fill-opacity="0.06"/><circle cx="137" cy="524" r="8" fill="#ff3cac" fill-opacity="0.85"/><circle cx="137" cy="524" r="22" fill="#784ba0" fill-opacity="0.06"/>
  <rect x="0" y="780" width="1600" height="120" fill="rgba(18,24,38,0.88)"/>
</svg>