<svg xmlns="http://www.w3.org/2000/svg" viewBox="0 0 1600 900" role="img" aria-label="Hacker cover 1">
  <defs>
    <linearGradient id="bg" x1="0%" y1="0%" x2="100%" y2="100%">
      <stop offset="0%" stop-color="#04050a"/>
      <stop offset="100%" stop-color="#111827"/>
    </linearGradient>
  </defs>
  <rect width="1600" height="900" fill="url(#bg)"/>
  <rect x="829" y="184" width="6" height="212" fill="rgba(89,255,160,0.149950335199435)" rx="3"/><rect x="1099" y="24" width="6" height="393" fill="rgba(89,255,160,0.18499112270054385)" rx="3"/><rect x="874" y="286" width="6" height="430" fill="rgba(89,255,160,0.15780697783979014)" rx="3"/><rect x="1205" y="48" width="6" height="492" fill="rgba(89,255,160,0.21021753084611217)" rx="3"/><rect x="1378" y="-38" width="6" height="293" fill="rgba(89,255,160,0.15526640416993528)" rx="3"/><rect x="1305" y="62" width="6" height="306" fill="rgba(89,255,160,0.12260720900215685)" rx="3"/><rect x="364" y="59" width="6" height="408" fill="rgba(89,255,160,0.09772301119123482)" rx="3"/><rect x="690" y="211" width="6" height="388" fill="rgba(89,255,160,0.08550609697371364)" rx="3"/><rect x="1052" y="287" width="6" height="227" fill="rgba(89,255,160,0.1484068104444646)" rx="3"/><rect x="1463" y="-38" width="6" height="467" fill="rgba(89,255,160,0.21211328104427002)" rx="3"/><rect x="732" y="252" width="6" height="203" fill="rgba(89,255,160,0.11331783862739003)" rx="3"/><rect x="953" y="82" width="6" height="277" fill="rgba(89,255,160,0.15888205006139117)" rx="3"/><rect x="746" y="124" width="6" height="286" fill="rgba(89,255,160,0.18419328396690032)" rx="3"/><rect x="881" y="183" width="6" height="271" fill="rgba(89,255,160,0.11481948713698063)" rx="3"/><rect x="632" y="184" width="6" height="462" fill="rgba(89,255,160,0.19150209615583308)" rx="3"/><rect x="438" y="154" width="6" height="311" fill="rgba(89,255,160,0.08708273372850855)" rx="3"/><rect x="523" y="0" width="6" height="503" fill="rgba(89,255,160,0.12878270333259556)" rx="3"/><rect x="440" y="107" width="6" height="379" fill="rgba(89,255,160,0.11328060691102926)" rx="3"/><rect x="142" y="-41" width="6" height="292" fill="rgba(89,255,160,0.12236496576027592)" rx="3"/><rect x="1518" y="35" width="6" height="165" fill="rgba(89,255,160,0.2081965446543499)" rx="3"/><rect x="601" y="21" width="6" height="415" fill="rgba(89,255,160,0.09718797716219697)" rx="3"/><rect x="595" y="298" width="6" height="360" fill="rgba(89,255,160,0.08989401786506675)" rx="3"/><rect x="700" y="106" width="6" height="481" fill="rgba(89,255,160,0.2167173368898972)" rx="3"/><rect x="315" y="213" width="6" height="314" fill="rgba(89,255,160,0.19051745492326563)" rx="3"/><rect x="415" y="77" width="6" height="173" fill="rgba(89,255,160,0.17987398697062096)" rx="3"/><rect x="991" y="262" width="6" height="395" fill="rgba(89,255,160,0.16426971362959644)" rx="3"/><rect x="1019" y="220" width="6" height="413" fill="rgba(89,255,160,0.13025214738641805)" rx="3"/><rect x="1108" y="269" width="6" height="211" fill="rgba(89,255,160,0.14659348882415513)" rx="3"/><rect x="541" y="1" width="6" height="475" fill="rgba(89,255,160,0.18349103828173008)" rx="3"/><rect x="1186" y="99" width="6" height="243" fill="rgba(89,255,160,0.16383237097487513)" rx="3"/>
  <polygon points="1112,167 1276,168 1226,207 1062,206" fill="rgba(124,58,237,0.13127762607463894)"/><polygon points="301,426 612,445 562,468 251,449" fill="rgba(124,58,237,0.13125756911402975)"/><polygon points="1383,752 1683,768 1633,791 1333,775" fill="rgba(124,58,237,0.14588929152600544)"/><polygon points="669,333 966,338 916,380 619,375" fill="rgba(124,58,237,0.15758557224620118)"/><polygon points="1441,436 1686,429 1636,464 1391,471" fill="rgba(124,58,237,0.16675719782566373)"/><polygon points="282,539 477,519 427,538 232,558" fill="rgba(124,58,237,0.09154258391376859)"/><polygon points="1325,286 1615,296 1565,333 1275,323" fill="rgba(124,58,237,0.1106964312203052)"/><polygon points="1305,709 1502,694 1452,723 1255,738" fill="rgba(124,58,237,0.16942917060618573)"/><polygon points="1455,708 1701,688 1651,727 1405,747" fill="rgba(124,58,237,0.0913640677136774)"/><polygon points="996,728 1217,743 1167,772 946,757" fill="rgba(124,58,237,0.13817243353063208)"/><polygon points="1040,612 1217,628 1167,656 990,640" fill="rgba(124,58,237,0.20263649305069453)"/><polygon points="106,336 290,318 240,344 56,362" fill="rgba(124,58,237,0.08240376568665281)"/>
  <rect x="140" y="568" width="92" height="123" rx="14" fill="rgba(13,17,23,0.52)" stroke="rgba(89,255,160,0.32)"/><rect x="287" y="508" width="101" height="91" rx="14" fill="rgba(13,17,23,0.52)" stroke="rgba(89,255,160,0.32)"/><rect x="462" y="575" width="132" height="103" rx="14" fill="rgba(13,17,23,0.52)" stroke="rgba(89,255,160,0.32)"/><rect x="677" y="221" width="111" height="120" rx="14" fill="rgba(13,17,23,0.52)" stroke="rgba(89,255,160,0.32)"/><rect x="857" y="238" width="124" height="91" rx="14" fill="rgba(13,17,23,0.52)" stroke="rgba(89,255,160,0.32)"/><rect x="1034" y="556" width="128" height="115" rx="14" fill="rgba(13,17,23,0.52)" stroke="rgba(89,255,160,0.32)"/><rect x="1183" y="519" width="137" height="92" rx="14" fill="rgba(13,17,23,0.52)" stroke="rgba(89,255,160,0.32)"/><rect x="1397" y="206" width="126" height="123" rx="14" fill="rgba(13,17,23,0.52)" stroke="rgba(89,255,160,0.32)"/>
  <path d="M 90 696 L 1091 696 L 1091 499 L 1523 499" fill="none" stroke="rgba(89,255,160,0.26)" stroke-width="4" stroke-linecap="round"/><path d="M 175 743 L 862 743 L 862 199 L 924 199" fill="none" stroke="rgba(124,58,237,0.26)" stroke-width="4" stroke-linecap="round"/><path d="M 224 157 L 1006 157 L 1006 478 L 852 478" fill="none" stroke="rgba(89,255,160,0.26)" stroke-width="4" stroke-linecap="round"/><path d="M 164 455 L 686 455 L 686 180 L 1307 180" fill="none" stroke="rgba(124,58,237,0.26)" stroke-width="4" stroke-linecap="round"/><path d="M 132 451 L 543 451 L 543 561 L 1180 561" fill="none" stroke="rgba(89,255,160,0.26)" stroke-width="4" stroke-linecap="round"/><path d="M 178 231 L 666 231 L 666 437 L 686 437" fill="none" stroke="rgba(124,58,237,0.26)" stroke-width="4" stroke-linecap="round"/><path d="M 145 560 L 840 560 L 840 462 L 1120 462" fill="none" stroke="rgba(89,255,160,0.26)" stroke-width="4" stroke-linecap="round"/><path d="M 285 715 L 747 715 L 747 240 L 747 240" fill="none" stroke="rgba(124,58,237,0.26)" stroke-width="4" stroke-linecap="round"/><path d="M 278 497 L 658 497 L 658 291 L 951 291" fill="none" stroke="rgba(89,255,160,0.26)" stroke-width="4" stroke-linecap="round"/>
  <circle cx="334" cy="641" r="5" fill="#59ffa0" fill-opacity="0.85"/><circle cx="334" cy="641" r="19" fill="#7c3aed" fill-opacity="0.06"/><circle cx="286" cy="214" r="6" fill="#59ffa0" fill-opacity="0.85"/><circle cx="286" cy="214" r="20" fill="#7c3aed" fill-opacity="0.06"/><circle cx="1113" cy="609" r="9" fill="#59ffa0" fill-opacity="0.85"/><circle cx="1113" cy="609" r="23" fill="#7c3aed" fill-opacity="0.06"/><circle cx="956" cy="270" r="8" fill="#59ffa0" fill-opacity="0.85"/><circle cx="956" cy="270" r="22" fill="#7c3aed" fill-opacity="0.06"/><circle cx="805" cy="215" r="9" fill="#59ffa0" fill-opacity="0.85"/><circle cx="805" cy="215" r="23" fill="#7c3aed" fill-opacity="0.06"/><circle cx="1101" cy="243" r="9" fill="#59ffa0" fill-opacity="0.85"/><circle cx="1101" cy="243" r="23" fill="#7c3aed" fill-opacity="0.06"/><circle cx="919" cy="674" r="6" fill="#59ffa0" fill-opacity="0.85"/><circle cx="919" cy="674" r="20" fill="#7c3aed" fill-opacity="0.06"/><circle cx="846" cy="451" r="10" fill="#59ffa0" fill-opacity="0.85"/><circle cx="846" cy="451" r="24" fill="#7c3aed" fill-opacity="0.06"/><circle cx="124" cy="726" r="6" fill="#59ffa0" fill-opacity="0.85"/><circle cx="124" cy="726" r="20" fill="#7c3aed" fill-opacity="0.06"/><circle cx="1082" cy="778" r="8" fill="#59ffa0" fill-opacity="0.85"/><circle cx="1082" cy="778" r="22" fill="#7c3aed" fill-opacity="0.06"/><circle cx="416" cy="631" r="9" fill="#59ffa0" fill-opacity="0.85"/><circle cx="416" cy="631" r="23" fill="#7c3aed" fill-opacity="0.06"/><circle cx="1005" cy="539" r="5" fill="#59ffa0" fill-opacity="0.85"/><circle cx="1005" cy="539" r="19" fill="#7c3aed" fill-opacity="0.06"/><circle cx="1376" cy="335" r="6" fill="#59ffa0" fill-opacity="0.85"/><circle cx="1376" cy="335" r="20" fill="#7c3aed" fill-opacity="0.06"/><circle cx="508" cy="638" r="6" fill="#59ffa0" fill-opacity="0.85"/><circle cx="508" cy="638" r="20" fill="#7c3aed" fill-opacity="0.06"/><circle cx="297" cy="362" r="6" fill="#59ffa0" fill-opacity="0.85"/><circle cx="297" cy="362" r="20" fill="#7c3aed" fill-opacity="0.06"/><circle cx="562" cy="174" r="9" fill="#59ffa0" fill-opacity="0.85"/><circle cx="562" cy="174" r="23" fill="#7c3aed" fill-opacity="0.06"/>
  <rect x="0" y="780" width="1600" height="120" fill="rgba(13,17,23,0.88)"/>
</svg>