<svg xmlns="http://www.w3.org/2000/svg" viewBox="0 0 1600 900" role="img" aria-label="Landscape cover 2">
  <defs>
    <linearGradient id="sky" x1="0%" y1="0%" x2="100%" y2="100%">
      <stop offset="0%" stop-color="#102542"/>
      <stop offset="100%" stop-color="#1f6f8b"/>
    </linearGradient>
    <radialGradient id="glow" cx="50%" cy="45%" r="55%">
      <stop offset="0%" stop-color="#8ed2c9" stop-opacity="0.55"/>
      <stop offset="100%" stop-color="#8ed2c9" stop-opacity="0"/>
    </radialGradient>
  </defs>
  <rect width="1600" height="900" fill="url(#sky)"/>
  <rect width="1600" height="900" fill="url(#glow)"/>
  <circle cx="1112" cy="232" r="91" fill="#f7b267" fill-opacity="0.92"/>
  <circle cx="1112" cy="232" r="151" fill="#f7b267" fill-opacity="0.12"/>
  <polygon points="0,900 0,524 83,458 194,314 368,429 567,441 783,472 930,406 1053,474 1169,390 1336,494 1467,283 1628,382 1819,477 1600,524 1600,900" fill="rgba(24,58,55,0.42)"/>
  <polygon points="0,900 0,651 128,489 247,455 431,602 632,507 754,545 881,387 1009,533 1213,373 1393,541 1494,513 1660,485 1760,362 1600,651 1600,900" fill="rgba(24,58,55,0.72)"/>
  <polygon points="0,900 0,747 98,680 216,524 372,531 472,629 563,623 721,704 881,634 1027,594 1139,695 1273,640 1363,586 1457,582 1564,583 1710,714 1600,747 1600,900" fill="rgba(15,41,39,0.94)"/>
  <rect x="0" y="461" width="1600" height="110" fill="rgba(142,210,201,0.1)"/>
  <path d="M 0 614 L 200 624 L 400 642 L 600 609 L 800 578 L 1000 577 L 1200 646 L 1400 571 L 1600 630" fill="none" stroke="rgba(255,255,255,0.18)" stroke-width="8" stroke-linecap="round"/>
</svg>