<svg xmlns="http://www.w3.org/2000/svg" viewBox="0 0 1600 900" role="img" aria-label="CTF cover 4">
  <defs>
    <linearGradient id="bg" x1="0%" y1="0%" x2="100%" y2="100%">
      <stop offset="0%" stop-color="#111827"/>
      <stop offset="100%" stop-color="#1f2937"/>
    </linearGradient>
    <pattern id="grid" width="64" height="64" patternUnits="userSpaceOnUse">
      <path d="M64 0H0V64" fill="none" stroke="rgba(34,211,238,0.12)" stroke-width="1.5"/>
    </pattern>
  </defs>
  <rect width="1600" height="900" fill="url(#bg)"/>
  <rect width="1600" height="900" fill="url(#grid)"/>
  <rect x="55" y="84" width="18" height="429" fill="rgba(167,139,250,0.1)"/><rect x="153" y="117" width="18" height="397" fill="rgba(167,139,250,0.1)"/><rect x="243" y="214" width="18" height="596" fill="rgba(167,139,250,0.1)"/><rect x="344" y="106" width="18" height="277" fill="rgba(167,139,250,0.1)"/><rect x="416" y="168" width="18" height="498" fill="rgba(167,139,250,0.1)"/><rect x="524" y="217" width="18" height="463" fill="rgba(167,139,250,0.1)"/><rect x="627" y="258" width="18" height="324" fill="rgba(167,139,250,0.1)"/><rect x="719" y="82" width="18" height="341" fill="rgba(167,139,250,0.1)"/><rect x="821" y="198" width="18" height="444" fill="rgba(167,139,250,0.1)"/><rect x="904" y="96" width="18" height="650" fill="rgba(167,139,250,0.1)"/><rect x="990" y="193" width="18" height="610" fill="rgba(167,139,250,0.1)"/><rect x="1088" y="181" width="18" height="691" fill="rgba(167,139,250,0.1)"/><rect x="1190" y="247" width="18" height="282" fill="rgba(167,139,250,0.1)"/><rect x="1293" y="146" width="18" height="273" fill="rgba(167,139,250,0.1)"/><rect x="1371" y="112" width="18" height="361" fill="rgba(167,139,250,0.1)"/><rect x="1481" y="228" width="18" height="597" fill="rgba(167,139,250,0.1)"/>
  <rect x="68" y="125" width="84" height="136" rx="18" fill="rgba(15,23,42,0.46)" stroke="rgba(34,211,238,0.26)"/><rect x="298" y="270" width="105" height="84" rx="18" fill="rgba(15,23,42,0.46)" stroke="rgba(34,211,238,0.26)"/><rect x="505" y="517" width="81" height="173" rx="18" fill="rgba(15,23,42,0.46)" stroke="rgba(34,211,238,0.26)"/><rect x="710" y="443" width="96" height="97" rx="18" fill="rgba(15,23,42,0.46)" stroke="rgba(34,211,238,0.26)"/><rect x="897" y="608" width="85" height="121" rx="18" fill="rgba(15,23,42,0.46)" stroke="rgba(34,211,238,0.26)"/><rect x="1139" y="134" width="122" height="178" rx="18" fill="rgba(15,23,42,0.46)" stroke="rgba(34,211,238,0.26)"/><rect x="1339" y="243" width="85" height="147" rx="18" fill="rgba(15,23,42,0.46)" stroke="rgba(34,211,238,0.26)"/>
  <path d="M 326 715 L 239 394" stroke="rgba(34,211,238,0.2)" stroke-width="3"/><path d="M 239 394 L 371 733" stroke="rgba(34,211,238,0.2)" stroke-width="3"/><path d="M 371 733 L 933 193" stroke="rgba(34,211,238,0.2)" stroke-width="3"/><path d="M 1152 666 L 192 636" stroke="rgba(34,211,238,0.2)" stroke-width="3"/><path d="M 933 193 L 597 645" stroke="rgba(34,211,238,0.2)" stroke-width="3"/><path d="M 786 394 L 223 777" stroke="rgba(34,211,238,0.2)" stroke-width="3"/><path d="M 223 777 L 597 645" stroke="rgba(34,211,238,0.2)" stroke-width="3"/><path d="M 192 636 L 597 645" stroke="rgba(34,211,238,0.2)" stroke-width="3"/><path d="M 597 645 L 468 734" stroke="rgba(34,211,238,0.2)" stroke-width="3"/><path d="M 468 734 L 1083 446" stroke="rgba(34,211,238,0.2)" stroke-width="3"/><path d="M 1083 446 L 265 623" stroke="rgba(34,211,238,0.2)" stroke-width="3"/>
  <circle cx="326" cy="715" r="8" fill="#a78bfa" fill-opacity="0.9"/><circle cx="326" cy="715" r="20" fill="#22d3ee" fill-opacity="0.10"/><circle cx="239" cy="394" r="8" fill="#a78bfa" fill-opacity="0.9"/><circle cx="239" cy="394" r="20" fill="#22d3ee" fill-opacity="0.10"/><circle cx="371" cy="733" r="8" fill="#a78bfa" fill-opacity="0.9"/><circle cx="371" cy="733" r="20" fill="#22d3ee" fill-opacity="0.10"/><circle cx="1152" cy="666" r="8" fill="#a78bfa" fill-opacity="0.9"/><circle cx="1152" cy="666" r="20" fill="#22d3ee" fill-opacity="0.10"/><circle cx="933" cy="193" r="8" fill="#a78bfa" fill-opacity="0.9"/><circle cx="933" cy="193" r="20" fill="#22d3ee" fill-opacity="0.10"/><circle cx="786" cy="394" r="8" fill="#a78bfa" fill-opacity="0.9"/><circle cx="786" cy="394" r="20" fill="#22d3ee" fill-opacity="0.10"/><circle cx="223" cy="777" r="8" fill="#a78bfa" fill-opacity="0.9"/><circle cx="223" cy="777" r="20" fill="#22d3ee" fill-opacity="0.10"/><circle cx="192" cy="636" r="8" fill="#a78bfa" fill-opacity="0.9"/><circle cx="192" cy="636" r="20" fill="#22d3ee" fill-opacity="0.10"/><circle cx="597" cy="645" r="8" fill="#a78bfa" fill-opacity="0.9"/><circle cx="597" cy="645" r="20" fill="#22d3ee" fill-opacity="0.10"/><circle cx="468" cy="734" r="8" fill="#a78bfa" fill-opacity="0.9"/><circle cx="468" cy="734" r="20" fill="#22d3ee" fill-opacity="0.10"/><circle cx="1083" cy="446" r="8" fill="#a78bfa" fill-opacity="0.9"/><circle cx="1083" cy="446" r="20" fill="#22d3ee" fill-opacity="0.10"/><circle cx="265" cy="623" r="8" fill="#a78bfa" fill-opacity="0.9"/><circle cx="265" cy="623" r="20" fill="#22d3ee" fill-opacity="0.10"/>
  <path d="M0 760L220 682L420 714L640 618L842 680L1080 570L1344 640L1600 540V900H0Z" fill="rgba(15,23,42,0.86)"/>
</svg>