<svg xmlns="http://www.w3.org/2000/svg" viewBox="0 0 1600 900" role="img" aria-label="CTF cover 12">
  <defs>
    <linearGradient id="bg" x1="0%" y1="0%" x2="100%" y2="100%">
      <stop offset="0%" stop-color="#09131f"/>
      <stop offset="100%" stop-color="#14324b"/>
    </linearGradient>
    <pattern id="grid" width="64" height="64" patternUnits="userSpaceOnUse">
      <path d="M64 0H0V64" fill="none" stroke="rgba(122,247,255,0.12)" stroke-width="1.5"/>
    </pattern>
  </defs>
  <rect width="1600" height="900" fill="url(#bg)"/>
  <rect width="1600" height="900" fill="url(#grid)"/>
  <rect x="54" y="165" width="18" height="693" fill="rgba(46,230,166,0.1)"/><rect x="133" y="164" width="18" height="572" fill="rgba(46,230,166,0.1)"/><rect x="241" y="123" width="18" height="459" fill="rgba(46,230,166,0.1)"/><rect x="346" y="134" width="18" height="637" fill="rgba(46,230,166,0.1)"/><rect x="431" y="213" width="18" height="507" fill="rgba(46,230,166,0.1)"/><rect x="510" y="139" width="18" height="642" fill="rgba(46,230,166,0.1)"/><rect x="633" y="99" width="18" height="281" fill="rgba(46,230,166,0.1)"/><rect x="721" y="87" width="18" height="451" fill="rgba(46,230,166,0.1)"/><rect x="801" y="250" width="18" height="535" fill="rgba(46,230,166,0.1)"/><rect x="895" y="160" width="18" height="350" fill="rgba(46,230,166,0.1)"/><rect x="988" y="115" width="18" height="574" fill="rgba(46,230,166,0.1)"/><rect x="1092" y="124" width="18" height="346" fill="rgba(46,230,166,0.1)"/><rect x="1176" y="97" width="18" height="552" fill="rgba(46,230,166,0.1)"/><rect x="1278" y="191" width="18" height="398" fill="rgba(46,230,166,0.1)"/><rect x="1385" y="200" width="18" height="415" fill="rgba(46,230,166,0.1)"/><rect x="1464" y="225" width="18" height="376" fill="rgba(46,230,166,0.1)"/>
  <rect x="102" y="287" width="122" height="168" rx="18" fill="rgba(14,31,46,0.46)" stroke="rgba(122,247,255,0.26)"/><rect x="275" y="606" width="91" height="80" rx="18" fill="rgba(14,31,46,0.46)" stroke="rgba(122,247,255,0.26)"/><rect x="511" y="459" width="81" height="88" rx="18" fill="rgba(14,31,46,0.46)" stroke="rgba(122,247,255,0.26)"/><rect x="704" y="248" width="148" height="177" rx="18" fill="rgba(14,31,46,0.46)" stroke="rgba(122,247,255,0.26)"/><rect x="898" y="494" width="123" height="150" rx="18" fill="rgba(14,31,46,0.46)" stroke="rgba(122,247,255,0.26)"/><rect x="1153" y="374" width="149" height="171" rx="18" fill="rgba(14,31,46,0.46)" stroke="rgba(122,247,255,0.26)"/><rect x="1324" y="351" width="128" height="146" rx="18" fill="rgba(14,31,46,0.46)" stroke="rgba(122,247,255,0.26)"/>
  <path d="M 630 310 L 1151 424" stroke="rgba(122,247,255,0.2)" stroke-width="3"/><path d="M 1087 220 L 1151 424" stroke="rgba(122,247,255,0.2)" stroke-width="3"/><path d="M 794 153 L 1181 477" stroke="rgba(122,247,255,0.2)" stroke-width="3"/><path d="M 1151 424 L 1181 477" stroke="rgba(122,247,255,0.2)" stroke-width="3"/><path d="M 929 337 L 343 632" stroke="rgba(122,247,255,0.2)" stroke-width="3"/><path d="M 1181 477 L 535 286" stroke="rgba(122,247,255,0.2)" stroke-width="3"/><path d="M 1229 204 L 420 653" stroke="rgba(122,247,255,0.2)" stroke-width="3"/><path d="M 535 286 L 589 267" stroke="rgba(122,247,255,0.2)" stroke-width="3"/><path d="M 343 632 L 1125 365" stroke="rgba(122,247,255,0.2)" stroke-width="3"/><path d="M 420 653 L 1087 220" stroke="rgba(122,247,255,0.2)" stroke-width="3"/><path d="M 589 267 L 1087 220" stroke="rgba(122,247,255,0.2)" stroke-width="3"/>
  <circle cx="630" cy="310" r="8" fill="#2ee6a6" fill-opacity="0.9"/><circle cx="630" cy="310" r="20" fill="#7af7ff" fill-opacity="0.10"/><circle cx="1087" cy="220" r="8" fill="#2ee6a6" fill-opacity="0.9"/><circle cx="1087" cy="220" r="20" fill="#7af7ff" fill-opacity="0.10"/><circle cx="794" cy="153" r="8" fill="#2ee6a6" fill-opacity="0.9"/><circle cx="794" cy="153" r="20" fill="#7af7ff" fill-opacity="0.10"/><circle cx="1151" cy="424" r="8" fill="#2ee6a6" fill-opacity="0.9"/><circle cx="1151" cy="424" r="20" fill="#7af7ff" fill-opacity="0.10"/><circle cx="929" cy="337" r="8" fill="#2ee6a6" fill-opacity="0.9"/><circle cx="929" cy="337" r="20" fill="#7af7ff" fill-opacity="0.10"/><circle cx="1181" cy="477" r="8" fill="#2ee6a6" fill-opacity="0.9"/><circle cx="1181" cy="477" r="20" fill="#7af7ff" fill-opacity="0.10"/><circle cx="1229" cy="204" r="8" fill="#2ee6a6" fill-opacity="0.9"/><circle cx="1229" cy="204" r="20" fill="#7af7ff" fill-opacity="0.10"/><circle cx="535" cy="286" r="8" fill="#2ee6a6" fill-opacity="0.9"/><circle cx="535" cy="286" r="20" fill="#7af7ff" fill-opacity="0.10"/><circle cx="343" cy="632" r="8" fill="#2ee6a6" fill-opacity="0.9"/><circle cx="343" cy="632" r="20" fill="#7af7ff" fill-opacity="0.10"/><circle cx="420" cy="653" r="8" fill="#2ee6a6" fill-opacity="0.9"/><circle cx="420" cy="653" r="20" fill="#7af7ff" fill-opacity="0.10"/><circle cx="589" cy="267" r="8" fill="#2ee6a6" fill-opacity="0.9"/><circle cx="589" cy="267" r="20" fill="#7af7ff" fill-opacity="0.10"/><circle cx="1125" cy="365" r="8" fill="#2ee6a6" fill-opacity="0.9"/><circle cx="1125" cy="365" r="20" fill="#7af7ff" fill-opacity="0.10"/>
  <path d="M0 760L220 682L420 714L640 618L842 680L1080 570L1344 640L1600 540V900H0Z" fill="rgba(14,31,46,0.86)"/>
</svg>