<svg xmlns="http://www.w3.org/2000/svg" viewBox="0 0 1600 900" role="img" aria-label="Hacker cover 7">
  <defs>
    <linearGradient id="bg" x1="0%" y1="0%" x2="100%" y2="100%">
      <stop offset="0%" stop-color="#04050a"/>
      <stop offset="100%" stop-color="#111827"/>
    </linearGradient>
  </defs>
  <rect width="1600" height="900" fill="url(#bg)"/>
  <rect x="64" y="-5" width="6" height="395" fill="rgba(89,255,160,0.16871350941440244)" rx="3"/><rect x="86" y="-40" width="6" height="501" fill="rgba(89,255,160,0.10258645399111647)" rx="3"/><rect x="1504" y="82" width="6" height="239" fill="rgba(89,255,160,0.16885578424769696)" rx="3"/><rect x="179" y="24" width="6" height="172" fill="rgba(89,255,160,0.2026598353344503)" rx="3"/><rect x="571" y="219" width="6" height="274" fill="rgba(89,255,160,0.1457543066071081)" rx="3"/><rect x="828" y="-43" width="6" height="365" fill="rgba(89,255,160,0.1381866933609664)" rx="3"/><rect x="472" y="178" width="6" height="424" fill="rgba(89,255,160,0.2175373411714328)" rx="3"/><rect x="1203" y="201" width="6" height="280" fill="rgba(89,255,160,0.1833647160158878)" rx="3"/><rect x="516" y="106" width="6" height="390" fill="rgba(89,255,160,0.113721248534074)" rx="3"/><rect x="647" y="269" width="6" height="378" fill="rgba(89,255,160,0.16329644242908609)" rx="3"/><rect x="813" y="38" width="6" height="458" fill="rgba(89,255,160,0.19308016484658866)" rx="3"/><rect x="993" y="236" width="6" height="406" fill="rgba(89,255,160,0.10722060556071432)" rx="3"/><rect x="587" y="9" width="6" height="296" fill="rgba(89,255,160,0.13687233141580568)" rx="3"/><rect x="629" y="-61" width="6" height="295" fill="rgba(89,255,160,0.2103422028490869)" rx="3"/><rect x="155" y="-42" width="6" height="379" fill="rgba(89,255,160,0.13338096224025958)" rx="3"/><rect x="643" y="109" width="6" height="451" fill="rgba(89,255,160,0.16187284369435118)" rx="3"/><rect x="736" y="-75" width="6" height="381" fill="rgba(89,255,160,0.08317585687701204)" rx="3"/><rect x="980" y="89" width="6" height="206" fill="rgba(89,255,160,0.1152081829503118)" rx="3"/><rect x="1211" y="259" width="6" height="498" fill="rgba(89,255,160,0.09362684280805869)" rx="3"/><rect x="1104" y="206" width="6" height="328" fill="rgba(89,255,160,0.08220155049016252)" rx="3"/><rect x="710" y="-7" width="6" height="347" fill="rgba(89,255,160,0.13929888676411556)" rx="3"/><rect x="85" y="-31" width="6" height="271" fill="rgba(89,255,160,0.19074747578481543)" rx="3"/><rect x="1203" y="-66" width="6" height="274" fill="rgba(89,255,160,0.11525686943950558)" rx="3"/><rect x="1594" y="56" width="6" height="256" fill="rgba(89,255,160,0.2052666054469542)" rx="3"/><rect x="959" y="22" width="6" height="177" fill="rgba(89,255,160,0.0950788265546018)" rx="3"/><rect x="252" y="208" width="6" height="239" fill="rgba(89,255,160,0.13787321435450042)" rx="3"/><rect x="483" y="5" width="6" height="186" fill="rgba(89,255,160,0.15410413695006858)" rx="3"/><rect x="1030" y="-75" width="6" height="421" fill="rgba(89,255,160,0.10627366660651585)" rx="3"/><rect x="142" y="88" width="6" height="442" fill="rgba(89,255,160,0.1054853087366292)" rx="3"/><rect x="69" y="203" width="6" height="484" fill="rgba(89,255,160,0.1708186486543623)" rx="3"/>
  <polygon points="489,603 653,611 603,646 439,638" fill="rgba(124,58,237,0.2052679947344606)"/><polygon points="843,652 1172,666 1122,696 793,682" fill="rgba(124,58,237,0.09464192789686324)"/><polygon points="1385,753 1707,743 1657,768 1335,778" fill="rgba(124,58,237,0.1308885325585779)"/><polygon points="472,627 642,631 592,655 422,651" fill="rgba(124,58,237,0.17889245899142386)"/><polygon points="1076,498 1303,515 1253,542 1026,525" fill="rgba(124,58,237,0.19559254536561255)"/><polygon points="834,602 1098,584 1048,613 784,631" fill="rgba(124,58,237,0.13400777810174755)"/><polygon points="577,433 889,418 839,462 527,477" fill="rgba(124,58,237,0.10692037565858964)"/><polygon points="1126,573 1397,576 1347,615 1076,612" fill="rgba(124,58,237,0.10589530612035192)"/><polygon points="616,536 937,527 887,555 566,564" fill="rgba(124,58,237,0.1749825793194795)"/><polygon points="1347,725 1593,740 1543,759 1297,744" fill="rgba(124,58,237,0.1537937371998554)"/><polygon points="544,467 717,455 667,477 494,489" fill="rgba(124,58,237,0.16676763044378068)"/><polygon points="295,698 453,685 403,703 245,716" fill="rgba(124,58,237,0.11111388847628509)"/>
  <rect x="140" y="467" width="123" height="114" rx="14" fill="rgba(13,17,23,0.52)" stroke="rgba(89,255,160,0.32)"/><rect x="287" y="441" width="139" height="100" rx="14" fill="rgba(13,17,23,0.52)" stroke="rgba(89,255,160,0.32)"/><rect x="460" y="392" width="111" height="124" rx="14" fill="rgba(13,17,23,0.52)" stroke="rgba(89,255,160,0.32)"/><rect x="669" y="474" width="98" height="134" rx="14" fill="rgba(13,17,23,0.52)" stroke="rgba(89,255,160,0.32)"/><rect x="847" y="210" width="128" height="115" rx="14" fill="rgba(13,17,23,0.52)" stroke="rgba(89,255,160,0.32)"/><rect x="1034" y="360" width="135" height="112" rx="14" fill="rgba(13,17,23,0.52)" stroke="rgba(89,255,160,0.32)"/><rect x="1200" y="475" width="117" height="113" rx="14" fill="rgba(13,17,23,0.52)" stroke="rgba(89,255,160,0.32)"/><rect x="1377" y="127" width="116" height="104" rx="14" fill="rgba(13,17,23,0.52)" stroke="rgba(89,255,160,0.32)"/>
  <path d="M 209 658 L 610 658 L 610 563 L 1063 563" fill="none" stroke="rgba(89,255,160,0.26)" stroke-width="4" stroke-linecap="round"/><path d="M 200 290 L 827 290 L 827 297 L 902 297" fill="none" stroke="rgba(124,58,237,0.26)" stroke-width="4" stroke-linecap="round"/><path d="M 251 257 L 817 257 L 817 614 L 890 614" fill="none" stroke="rgba(89,255,160,0.26)" stroke-width="4" stroke-linecap="round"/><path d="M 169 604 L 1019 604 L 1019 218 L 718 218" fill="none" stroke="rgba(124,58,237,0.26)" stroke-width="4" stroke-linecap="round"/><path d="M 206 400 L 533 400 L 533 568 L 598 568" fill="none" stroke="rgba(89,255,160,0.26)" stroke-width="4" stroke-linecap="round"/><path d="M 247 108 L 781 108 L 781 619 L 1468 619" fill="none" stroke="rgba(124,58,237,0.26)" stroke-width="4" stroke-linecap="round"/><path d="M 50 127 L 817 127 L 817 517 L 863 517" fill="none" stroke="rgba(89,255,160,0.26)" stroke-width="4" stroke-linecap="round"/><path d="M 80 153 L 937 153 L 937 629 L 605 629" fill="none" stroke="rgba(124,58,237,0.26)" stroke-width="4" stroke-linecap="round"/><path d="M 212 238 L 557 238 L 557 656 L 577 656" fill="none" stroke="rgba(89,255,160,0.26)" stroke-width="4" stroke-linecap="round"/>
  <circle cx="332" cy="538" r="7" fill="#59ffa0" fill-opacity="0.85"/><circle cx="332" cy="538" r="21" fill="#7c3aed" fill-opacity="0.06"/><circle cx="1035" cy="508" r="8" fill="#59ffa0" fill-opacity="0.85"/><circle cx="1035" cy="508" r="22" fill="#7c3aed" fill-opacity="0.06"/><circle cx="1323" cy="448" r="4" fill="#59ffa0" fill-opacity="0.85"/><circle cx="1323" cy="448" r="18" fill="#7c3aed" fill-opacity="0.06"/><circle cx="1120" cy="161" r="8" fill="#59ffa0" fill-opacity="0.85"/><circle cx="1120" cy="161" r="22" fill="#7c3aed" fill-opacity="0.06"/><circle cx="1361" cy="670" r="6" fill="#59ffa0" fill-opacity="0.85"/><circle cx="1361" cy="670" r="20" fill="#7c3aed" fill-opacity="0.06"/><circle cx="765" cy="642" r="4" fill="#59ffa0" fill-opacity="0.85"/><circle cx="765" cy="642" r="18" fill="#7c3aed" fill-opacity="0.06"/><circle cx="1173" cy="682" r="9" fill="#59ffa0" fill-opacity="0.85"/><circle cx="1173" cy="682" r="23" fill="#7c3aed" fill-opacity="0.06"/><circle cx="389" cy="519" r="6" fill="#59ffa0" fill-opacity="0.85"/><circle cx="389" cy="519" r="20" fill="#7c3aed" fill-opacity="0.06"/><circle cx="1507" cy="136" r="10" fill="#59ffa0" fill-opacity="0.85"/><circle cx="1507" cy="136" r="24" fill="#7c3aed" fill-opacity="0.06"/><circle cx="293" cy="335" r="4" fill="#59ffa0" fill-opacity="0.85"/><circle cx="293" cy="335" r="18" fill="#7c3aed" fill-opacity="0.06"/><circle cx="1256" cy="182" r="7" fill="#59ffa0" fill-opacity="0.85"/><circle cx="1256" cy="182" r="21" fill="#7c3aed" fill-opacity="0.06"/><circle cx="549" cy="785" r="8" fill="#59ffa0" fill-opacity="0.85"/><circle cx="549" cy="785" r="22" fill="#7c3aed" fill-opacity="0.06"/><circle cx="603" cy="600" r="4" fill="#59ffa0" fill-opacity="0.85"/><circle cx="603" cy="600" r="18" fill="#7c3aed" fill-opacity="0.06"/><circle cx="1478" cy="218" r="7" fill="#59ffa0" fill-opacity="0.85"/><circle cx="1478" cy="218" r="21" fill="#7c3aed" fill-opacity="0.06"/><circle cx="191" cy="711" r="5" fill="#59ffa0" fill-opacity="0.85"/><circle cx="191" cy="711" r="19" fill="#7c3aed" fill-opacity="0.06"/><circle cx="294" cy="492" r="8" fill="#59ffa0" fill-opacity="0.85"/><circle cx="294" cy="492" r="22" fill="#7c3aed" fill-opacity="0.06"/>
  <rect x="0" y="780" width="1600" height="120" fill="rgba(13,17,23,0.88)"/>
</svg>