<svg xmlns="http://www.w3.org/2000/svg" viewBox="0 0 1600 900" role="img" aria-label="Hacker cover 10">
  <defs>
    <linearGradient id="bg" x1="0%" y1="0%" x2="100%" y2="100%">
      <stop offset="0%" stop-color="#090b10"/>
      <stop offset="100%" stop-color="#1b1f2a"/>
    </linearGradient>
  </defs>
  <rect width="1600" height="900" fill="url(#bg)"/>
  <rect x="444" y="-34" width="6" height="511" fill="rgba(247,37,133,0.18392819022546752)" rx="3"/><rect x="713" y="-9" width="6" height="378" fill="rgba(247,37,133,0.19354113334769305)" rx="3"/><rect x="2" y="-32" width="6" height="424" fill="rgba(247,37,133,0.18015181835216665)" rx="3"/><rect x="232" y="-17" width="6" height="183" fill="rgba(247,37,133,0.13077046547735285)" rx="3"/><rect x="1182" y="208" width="6" height="323" fill="rgba(247,37,133,0.12346377035050216)" rx="3"/><rect x="1032" y="130" width="6" height="380" fill="rgba(247,37,133,0.16255508075223046)" rx="3"/><rect x="1264" y="45" width="6" height="218" fill="rgba(247,37,133,0.094496563338214)" rx="3"/><rect x="1332" y="-68" width="6" height="294" fill="rgba(247,37,133,0.16805163611633644)" rx="3"/><rect x="501" y="160" width="6" height="374" fill="rgba(247,37,133,0.1890699013722434)" rx="3"/><rect x="1445" y="149" width="6" height="250" fill="rgba(247,37,133,0.10559121502660962)" rx="3"/><rect x="151" y="238" width="6" height="418" fill="rgba(247,37,133,0.19752905005632526)" rx="3"/><rect x="151" y="229" width="6" height="354" fill="rgba(247,37,133,0.21843633955236047)" rx="3"/><rect x="4" y="158" width="6" height="384" fill="rgba(247,37,133,0.1726722976219433)" rx="3"/><rect x="1025" y="257" width="6" height="437" fill="rgba(247,37,133,0.13927572043504513)" rx="3"/><rect x="1371" y="-4" width="6" height="276" fill="rgba(247,37,133,0.21558638571264938)" rx="3"/><rect x="240" y="-57" width="6" height="412" fill="rgba(247,37,133,0.1839312072233559)" rx="3"/><rect x="1577" y="176" width="6" height="465" fill="rgba(247,37,133,0.14216021350603825)" rx="3"/><rect x="750" y="-34" width="6" height="476" fill="rgba(247,37,133,0.11270829808794405)" rx="3"/><rect x="1588" y="57" width="6" height="272" fill="rgba(247,37,133,0.15905124256417152)" rx="3"/><rect x="1062" y="131" width="6" height="347" fill="rgba(247,37,133,0.16302038925251494)" rx="3"/><rect x="764" y="134" width="6" height="410" fill="rgba(247,37,133,0.08905553881051322)" rx="3"/><rect x="1019" y="237" width="6" height="322" fill="rgba(247,37,133,0.21701303456477183)" rx="3"/><rect x="595" y="23" width="6" height="371" fill="rgba(247,37,133,0.10226472622184352)" rx="3"/><rect x="1321" y="-50" width="6" height="510" fill="rgba(247,37,133,0.18269489851568393)" rx="3"/><rect x="875" y="64" width="6" height="401" fill="rgba(247,37,133,0.1795044263871722)" rx="3"/><rect x="972" y="193" width="6" height="194" fill="rgba(247,37,133,0.16001277349070486)" rx="3"/><rect x="98" y="197" width="6" height="451" fill="rgba(247,37,133,0.18693521376467814)" rx="3"/><rect x="541" y="131" width="6" height="443" fill="rgba(247,37,133,0.2088253160053945)" rx="3"/><rect x="705" y="8" width="6" height="316" fill="rgba(247,37,133,0.19390569647364037)" rx="3"/><rect x="1073" y="189" width="6" height="498" fill="rgba(247,37,133,0.1690619970469825)" rx="3"/>
  <polygon points="795,669 1029,650 979,677 745,696" fill="rgba(76,201,240,0.15775661660221751)"/><polygon points="497,553 812,550 762,573 447,576" fill="rgba(76,201,240,0.19572335199071172)"/><polygon points="1054,262 1333,248 1283,267 1004,281" fill="rgba(76,201,240,0.10630080626336151)"/><polygon points="1414,643 1691,636 1641,671 1364,678" fill="rgba(76,201,240,0.19759139807965315)"/><polygon points="803,757 1017,752 967,788 753,793" fill="rgba(76,201,240,0.08857462775923272)"/><polygon points="838,213 1166,231 1116,273 788,255" fill="rgba(76,201,240,0.17224928705089876)"/><polygon points="972,653 1174,667 1124,690 922,676" fill="rgba(76,201,240,0.17400563290035692)"/><polygon points="257,602 407,617 357,662 207,647" fill="rgba(76,201,240,0.0989209139432715)"/><polygon points="545,614 711,606 661,627 495,635" fill="rgba(76,201,240,0.17234204333785108)"/><polygon points="1242,522 1458,528 1408,557 1192,551" fill="rgba(76,201,240,0.18094700675522715)"/><polygon points="207,701 478,716 428,744 157,729" fill="rgba(76,201,240,0.11031957337597383)"/><polygon points="1054,597 1267,608 1217,637 1004,626" fill="rgba(76,201,240,0.1660923608399627)"/>
  <rect x="112" y="576" width="99" height="111" rx="14" fill="rgba(17,21,30,0.52)" stroke="rgba(247,37,133,0.32)"/><rect x="313" y="463" width="97" height="137" rx="14" fill="rgba(17,21,30,0.52)" stroke="rgba(247,37,133,0.32)"/><rect x="468" y="434" width="129" height="134" rx="14" fill="rgba(17,21,30,0.52)" stroke="rgba(247,37,133,0.32)"/><rect x="675" y="339" width="116" height="111" rx="14" fill="rgba(17,21,30,0.52)" stroke="rgba(247,37,133,0.32)"/><rect x="825" y="396" width="91" height="105" rx="14" fill="rgba(17,21,30,0.52)" stroke="rgba(247,37,133,0.32)"/><rect x="1028" y="425" width="95" height="119" rx="14" fill="rgba(17,21,30,0.52)" stroke="rgba(247,37,133,0.32)"/><rect x="1212" y="488" width="107" height="115" rx="14" fill="rgba(17,21,30,0.52)" stroke="rgba(247,37,133,0.32)"/><rect x="1389" y="437" width="91" height="126" rx="14" fill="rgba(17,21,30,0.52)" stroke="rgba(247,37,133,0.32)"/>
  <path d="M 261 647 L 769 647 L 769 732 L 1337 732" fill="none" stroke="rgba(247,37,133,0.26)" stroke-width="4" stroke-linecap="round"/><path d="M 131 358 L 1026 358 L 1026 460 L 1067 460" fill="none" stroke="rgba(76,201,240,0.26)" stroke-width="4" stroke-linecap="round"/><path d="M 73 440 L 1049 440 L 1049 313 L 1149 313" fill="none" stroke="rgba(247,37,133,0.26)" stroke-width="4" stroke-linecap="round"/><path d="M 219 268 L 512 268 L 512 485 L 789 485" fill="none" stroke="rgba(76,201,240,0.26)" stroke-width="4" stroke-linecap="round"/><path d="M 253 565 L 736 565 L 736 488 L 1033 488" fill="none" stroke="rgba(247,37,133,0.26)" stroke-width="4" stroke-linecap="round"/><path d="M 189 678 L 887 678 L 887 276 L 620 276" fill="none" stroke="rgba(76,201,240,0.26)" stroke-width="4" stroke-linecap="round"/><path d="M 292 675 L 681 675 L 681 339 L 828 339" fill="none" stroke="rgba(247,37,133,0.26)" stroke-width="4" stroke-linecap="round"/><path d="M 291 141 L 775 141 L 775 391 L 1221 391" fill="none" stroke="rgba(76,201,240,0.26)" stroke-width="4" stroke-linecap="round"/><path d="M 285 396 L 607 396 L 607 339 L 823 339" fill="none" stroke="rgba(247,37,133,0.26)" stroke-width="4" stroke-linecap="round"/>
  <circle cx="297" cy="541" r="8" fill="#f72585" fill-opacity="0.85"/><circle cx="297" cy="541" r="22" fill="#4cc9f0" fill-opacity="0.06"/><circle cx="433" cy="446" r="9" fill="#f72585" fill-opacity="0.85"/><circle cx="433" cy="446" r="23" fill="#4cc9f0" fill-opacity="0.06"/><circle cx="1492" cy="577" r="4" fill="#f72585" fill-opacity="0.85"/><circle cx="1492" cy="577" r="18" fill="#4cc9f0" fill-opacity="0.06"/><circle cx="460" cy="587" r="6" fill="#f72585" fill-opacity="0.85"/><circle cx="460" cy="587" r="20" fill="#4cc9f0" fill-opacity="0.06"/><circle cx="912" cy="808" r="8" fill="#f72585" fill-opacity="0.85"/><circle cx="912" cy="808" r="22" fill="#4cc9f0" fill-opacity="0.06"/><circle cx="1154" cy="569" r="4" fill="#f72585" fill-opacity="0.85"/><circle cx="1154" cy="569" r="18" fill="#4cc9f0" fill-opacity="0.06"/><circle cx="602" cy="702" r="9" fill="#f72585" fill-opacity="0.85"/><circle cx="602" cy="702" r="23" fill="#4cc9f0" fill-opacity="0.06"/><circle cx="1135" cy="262" r="8" fill="#f72585" fill-opacity="0.85"/><circle cx="1135" cy="262" r="22" fill="#4cc9f0" fill-opacity="0.06"/><circle cx="166" cy="730" r="5" fill="#f72585" fill-opacity="0.85"/><circle cx="166" cy="730" r="19" fill="#4cc9f0" fill-opacity="0.06"/><circle cx="207" cy="654" r="8" fill="#f72585" fill-opacity="0.85"/><circle cx="207" cy="654" r="22" fill="#4cc9f0" fill-opacity="0.06"/><circle cx="1213" cy="482" r="8" fill="#f72585" fill-opacity="0.85"/><circle cx="1213" cy="482" r="22" fill="#4cc9f0" fill-opacity="0.06"/><circle cx="577" cy="220" r="10" fill="#f72585" fill-opacity="0.85"/><circle cx="577" cy="220" r="24" fill="#4cc9f0" fill-opacity="0.06"/><circle cx="657" cy="490" r="6" fill="#f72585" fill-opacity="0.85"/><circle cx="657" cy="490" r="20" fill="#4cc9f0" fill-opacity="0.06"/><circle cx="153" cy="310" r="10" fill="#f72585" fill-opacity="0.85"/><circle cx="153" cy="310" r="24" fill="#4cc9f0" fill-opacity="0.06"/><circle cx="1145" cy="188" r="8" fill="#f72585" fill-opacity="0.85"/><circle cx="1145" cy="188" r="22" fill="#4cc9f0" fill-opacity="0.06"/><circle cx="1013" cy="532" r="6" fill="#f72585" fill-opacity="0.85"/><circle cx="1013" cy="532" r="20" fill="#4cc9f0" fill-opacity="0.06"/>
  <rect x="0" y="780" width="1600" height="120" fill="rgba(17,21,30,0.88)"/>
</svg>