<svg xmlns="http://www.w3.org/2000/svg" viewBox="0 0 1600 900" role="img" aria-label="Hacker cover 6">
  <defs>
    <linearGradient id="bg" x1="0%" y1="0%" x2="100%" y2="100%">
      <stop offset="0%" stop-color="#05070c"/>
      <stop offset="100%" stop-color="#0b1320"/>
    </linearGradient>
  </defs>
  <rect width="1600" height="900" fill="url(#bg)"/>
  <rect x="468" y="196" width="6" height="453" fill="rgba(0,255,159,0.20941620802197125)" rx="3"/><rect x="21" y="165" width="6" height="432" fill="rgba(0,255,159,0.1446357283668533)" rx="3"/><rect x="399" y="-10" width="6" height="463" fill="rgba(0,255,159,0.13943628027989302)" rx="3"/><rect x="598" y="-17" width="6" height="274" fill="rgba(0,255,159,0.15886823132088862)" rx="3"/><rect x="1425" y="-9" width="6" height="212" fill="rgba(0,255,159,0.1344342572473034)" rx="3"/><rect x="488" y="249" width="6" height="335" fill="rgba(0,255,159,0.17011285368302614)" rx="3"/><rect x="1226" y="298" width="6" height="434" fill="rgba(0,255,159,0.10708836307084388)" rx="3"/><rect x="457" y="-46" width="6" height="493" fill="rgba(0,255,159,0.12070232373542814)" rx="3"/><rect x="106" y="212" width="6" height="199" fill="rgba(0,255,159,0.10643589205170993)" rx="3"/><rect x="945" y="-63" width="6" height="204" fill="rgba(0,255,159,0.19647941742621938)" rx="3"/><rect x="389" y="-46" width="6" height="494" fill="rgba(0,255,159,0.11761218915965543)" rx="3"/><rect x="297" y="169" width="6" height="275" fill="rgba(0,255,159,0.10576777780277719)" rx="3"/><rect x="204" y="85" width="6" height="164" fill="rgba(0,255,159,0.1622086044422763)" rx="3"/><rect x="1490" y="-42" width="6" height="258" fill="rgba(0,255,159,0.2037419687110731)" rx="3"/><rect x="37" y="176" width="6" height="436" fill="rgba(0,255,159,0.10445689849227661)" rx="3"/><rect x="992" y="193" width="6" height="272" fill="rgba(0,255,159,0.12546996036996758)" rx="3"/><rect x="1156" y="290" width="6" height="317" fill="rgba(0,255,159,0.1612217042469541)" rx="3"/><rect x="1355" y="85" width="6" height="202" fill="rgba(0,255,159,0.09045551829531362)" rx="3"/><rect x="883" y="44" width="6" height="430" fill="rgba(0,255,159,0.14534079958284352)" rx="3"/><rect x="1122" y="210" width="6" height="361" fill="rgba(0,255,159,0.0928507219074571)" rx="3"/><rect x="1180" y="181" width="6" height="355" fill="rgba(0,255,159,0.1346700794787596)" rx="3"/><rect x="535" y="77" width="6" height="213" fill="rgba(0,255,159,0.10865599414810986)" rx="3"/><rect x="928" y="151" width="6" height="302" fill="rgba(0,255,159,0.1574080740614874)" rx="3"/><rect x="282" y="-35" width="6" height="406" fill="rgba(0,255,159,0.155539719305952)" rx="3"/><rect x="1505" y="-67" width="6" height="240" fill="rgba(0,255,159,0.11967990530267676)" rx="3"/><rect x="1263" y="164" width="6" height="371" fill="rgba(0,255,159,0.21950383608540242)" rx="3"/><rect x="1262" y="90" width="6" height="352" fill="rgba(0,255,159,0.15301093260110143)" rx="3"/><rect x="1276" y="72" width="6" height="336" fill="rgba(0,255,159,0.11606891174213858)" rx="3"/><rect x="1416" y="119" width="6" height="520" fill="rgba(0,255,159,0.1394856473661232)" rx="3"/><rect x="15" y="-38" width="6" height="398" fill="rgba(0,255,159,0.15636025958275845)" rx="3"/>
  <polygon points="93,328 347,314 297,358 43,372" fill="rgba(0,194,255,0.1970649544239919)"/><polygon points="724,656 1045,667 995,709 674,698" fill="rgba(0,194,255,0.10516374832305962)"/><polygon points="1255,297 1502,310 1452,339 1205,326" fill="rgba(0,194,255,0.1391400393490942)"/><polygon points="667,248 995,265 945,298 617,281" fill="rgba(0,194,255,0.14870270367553579)"/><polygon points="854,157 1103,157 1053,177 804,177" fill="rgba(0,194,255,0.09071311315259493)"/><polygon points="1173,305 1420,304 1370,340 1123,341" fill="rgba(0,194,255,0.16219935862737206)"/><polygon points="1481,213 1669,199 1619,227 1431,241" fill="rgba(0,194,255,0.15095917303022882)"/><polygon points="764,383 922,385 872,403 714,401" fill="rgba(0,194,255,0.16262372037934605)"/><polygon points="1290,484 1532,500 1482,536 1240,520" fill="rgba(0,194,255,0.10054371398163858)"/><polygon points="605,445 944,452 894,488 555,481" fill="rgba(0,194,255,0.11241968183568626)"/><polygon points="786,175 1022,173 972,211 736,213" fill="rgba(0,194,255,0.15233939077469932)"/><polygon points="974,745 1142,755 1092,799 924,789" fill="rgba(0,194,255,0.14890834962990068)"/>
  <rect x="133" y="373" width="102" height="105" rx="14" fill="rgba(10,15,23,0.52)" stroke="rgba(0,255,159,0.32)"/><rect x="305" y="434" width="131" height="96" rx="14" fill="rgba(10,15,23,0.52)" stroke="rgba(0,255,159,0.32)"/><rect x="461" y="211" width="118" height="106" rx="14" fill="rgba(10,15,23,0.52)" stroke="rgba(0,255,159,0.32)"/><rect x="668" y="135" width="140" height="118" rx="14" fill="rgba(10,15,23,0.52)" stroke="rgba(0,255,159,0.32)"/><rect x="822" y="442" width="126" height="115" rx="14" fill="rgba(10,15,23,0.52)" stroke="rgba(0,255,159,0.32)"/><rect x="1000" y="358" width="133" height="104" rx="14" fill="rgba(10,15,23,0.52)" stroke="rgba(0,255,159,0.32)"/><rect x="1199" y="376" width="93" height="92" rx="14" fill="rgba(10,15,23,0.52)" stroke="rgba(0,255,159,0.32)"/><rect x="1366" y="274" width="132" height="115" rx="14" fill="rgba(10,15,23,0.52)" stroke="rgba(0,255,159,0.32)"/>
  <path d="M 239 694 L 522 694 L 522 666 L 1168 666" fill="none" stroke="rgba(0,255,159,0.26)" stroke-width="4" stroke-linecap="round"/><path d="M 254 369 L 820 369 L 820 691 L 1466 691" fill="none" stroke="rgba(0,194,255,0.26)" stroke-width="4" stroke-linecap="round"/><path d="M 225 320 L 736 320 L 736 574 L 839 574" fill="none" stroke="rgba(0,255,159,0.26)" stroke-width="4" stroke-linecap="round"/><path d="M 285 234 L 527 234 L 527 511 L 530 511" fill="none" stroke="rgba(0,194,255,0.26)" stroke-width="4" stroke-linecap="round"/><path d="M 224 700 L 776 700 L 776 700 L 1444 700" fill="none" stroke="rgba(0,255,159,0.26)" stroke-width="4" stroke-linecap="round"/><path d="M 202 236 L 917 236 L 917 173 L 1267 173" fill="none" stroke="rgba(0,194,255,0.26)" stroke-width="4" stroke-linecap="round"/><path d="M 221 275 L 570 275 L 570 418 L 1242 418" fill="none" stroke="rgba(0,255,159,0.26)" stroke-width="4" stroke-linecap="round"/><path d="M 61 242 L 788 242 L 788 335 L 1292 335" fill="none" stroke="rgba(0,194,255,0.26)" stroke-width="4" stroke-linecap="round"/><path d="M 271 672 L 819 672 L 819 620 L 1285 620" fill="none" stroke="rgba(0,255,159,0.26)" stroke-width="4" stroke-linecap="round"/>
  <circle cx="277" cy="780" r="9" fill="#00ff9f" fill-opacity="0.85"/><circle cx="277" cy="780" r="23" fill="#00c2ff" fill-opacity="0.06"/><circle cx="225" cy="680" r="6" fill="#00ff9f" fill-opacity="0.85"/><circle cx="225" cy="680" r="20" fill="#00c2ff" fill-opacity="0.06"/><circle cx="93" cy="663" r="8" fill="#00ff9f" fill-opacity="0.85"/><circle cx="93" cy="663" r="22" fill="#00c2ff" fill-opacity="0.06"/><circle cx="151" cy="432" r="5" fill="#00ff9f" fill-opacity="0.85"/><circle cx="151" cy="432" r="19" fill="#00c2ff" fill-opacity="0.06"/><circle cx="182" cy="706" r="10" fill="#00ff9f" fill-opacity="0.85"/><circle cx="182" cy="706" r="24" fill="#00c2ff" fill-opacity="0.06"/><circle cx="925" cy="651" r="6" fill="#00ff9f" fill-opacity="0.85"/><circle cx="925" cy="651" r="20" fill="#00c2ff" fill-opacity="0.06"/><circle cx="762" cy="611" r="8" fill="#00ff9f" fill-opacity="0.85"/><circle cx="762" cy="611" r="22" fill="#00c2ff" fill-opacity="0.06"/><circle cx="775" cy="81" r="5" fill="#00ff9f" fill-opacity="0.85"/><circle cx="775" cy="81" r="19" fill="#00c2ff" fill-opacity="0.06"/><circle cx="1097" cy="710" r="9" fill="#00ff9f" fill-opacity="0.85"/><circle cx="1097" cy="710" r="23" fill="#00c2ff" fill-opacity="0.06"/><circle cx="863" cy="148" r="10" fill="#00ff9f" fill-opacity="0.85"/><circle cx="863" cy="148" r="24" fill="#00c2ff" fill-opacity="0.06"/><circle cx="220" cy="726" r="5" fill="#00ff9f" fill-opacity="0.85"/><circle cx="220" cy="726" r="19" fill="#00c2ff" fill-opacity="0.06"/><circle cx="1341" cy="690" r="8" fill="#00ff9f" fill-opacity="0.85"/><circle cx="1341" cy="690" r="22" fill="#00c2ff" fill-opacity="0.06"/><circle cx="725" cy="518" r="4" fill="#00ff9f" fill-opacity="0.85"/><circle cx="725" cy="518" r="18" fill="#00c2ff" fill-opacity="0.06"/><circle cx="1021" cy="476" r="5" fill="#00ff9f" fill-opacity="0.85"/><circle cx="1021" cy="476" r="19" fill="#00c2ff" fill-opacity="0.06"/><circle cx="689" cy="638" r="4" fill="#00ff9f" fill-opacity="0.85"/><circle cx="689" cy="638" r="18" fill="#00c2ff" fill-opacity="0.06"/><circle cx="342" cy="418" r="9" fill="#00ff9f" fill-opacity="0.85"/><circle cx="342" cy="418" r="23" fill="#00c2ff" fill-opacity="0.06"/>
  <rect x="0" y="780" width="1600" height="120" fill="rgba(10,15,23,0.88)"/>
</svg>