<svg xmlns="http://www.w3.org/2000/svg" viewBox="0 0 1600 900" role="img" aria-label="CTF cover 18">
  <defs>
    <linearGradient id="bg" x1="0%" y1="0%" x2="100%" y2="100%">
      <stop offset="0%" stop-color="#09131f"/>
      <stop offset="100%" stop-color="#14324b"/>
    </linearGradient>
    <pattern id="grid" width="64" height="64" patternUnits="userSpaceOnUse">
      <path d="M64 0H0V64" fill="none" stroke="rgba(122,247,255,0.12)" stroke-width="1.5"/>
    </pattern>
  </defs>
  <rect width="1600" height="900" fill="url(#bg)"/>
  <rect width="1600" height="900" fill="url(#grid)"/>
  <rect x="57" y="206" width="18" height="633" fill="rgba(46,230,166,0.1)"/><rect x="152" y="233" width="18" height="395" fill="rgba(46,230,166,0.1)"/><rect x="233" y="161" width="18" height="389" fill="rgba(46,230,166,0.1)"/><rect x="332" y="196" width="18" height="396" fill="rgba(46,230,166,0.1)"/><rect x="420" y="260" width="18" height="531" fill="rgba(46,230,166,0.1)"/><rect x="531" y="251" width="18" height="352" fill="rgba(46,230,166,0.1)"/><rect x="610" y="226" width="18" height="625" fill="rgba(46,230,166,0.1)"/><rect x="704" y="246" width="18" height="645" fill="rgba(46,230,166,0.1)"/><rect x="809" y="111" width="18" height="685" fill="rgba(46,230,166,0.1)"/><rect x="906" y="116" width="18" height="394" fill="rgba(46,230,166,0.1)"/><rect x="1013" y="125" width="18" height="394" fill="rgba(46,230,166,0.1)"/><rect x="1108" y="108" width="18" height="466" fill="rgba(46,230,166,0.1)"/><rect x="1188" y="216" width="18" height="391" fill="rgba(46,230,166,0.1)"/><rect x="1300" y="223" width="18" height="563" fill="rgba(46,230,166,0.1)"/><rect x="1380" y="235" width="18" height="386" fill="rgba(46,230,166,0.1)"/><rect x="1472" y="192" width="18" height="280" fill="rgba(46,230,166,0.1)"/>
  <rect x="80" y="101" width="108" height="108" rx="18" fill="rgba(14,31,46,0.46)" stroke="rgba(122,247,255,0.26)"/><rect x="279" y="504" width="144" height="99" rx="18" fill="rgba(14,31,46,0.46)" stroke="rgba(122,247,255,0.26)"/><rect x="501" y="565" width="139" height="159" rx="18" fill="rgba(14,31,46,0.46)" stroke="rgba(122,247,255,0.26)"/><rect x="691" y="430" width="141" height="174" rx="18" fill="rgba(14,31,46,0.46)" stroke="rgba(122,247,255,0.26)"/><rect x="934" y="474" width="124" height="149" rx="18" fill="rgba(14,31,46,0.46)" stroke="rgba(122,247,255,0.26)"/><rect x="1136" y="419" width="148" height="103" rx="18" fill="rgba(14,31,46,0.46)" stroke="rgba(122,247,255,0.26)"/><rect x="1325" y="147" width="78" height="169" rx="18" fill="rgba(14,31,46,0.46)" stroke="rgba(122,247,255,0.26)"/>
  <path d="M 1134 561 L 194 585" stroke="rgba(122,247,255,0.2)" stroke-width="3"/><path d="M 194 585 L 606 278" stroke="rgba(122,247,255,0.2)" stroke-width="3"/><path d="M 502 469 L 954 538" stroke="rgba(122,247,255,0.2)" stroke-width="3"/><path d="M 249 543 L 683 333" stroke="rgba(122,247,255,0.2)" stroke-width="3"/><path d="M 683 333 L 796 138" stroke="rgba(122,247,255,0.2)" stroke-width="3"/><path d="M 606 278 L 1165 444" stroke="rgba(122,247,255,0.2)" stroke-width="3"/><path d="M 954 538 L 285 633" stroke="rgba(122,247,255,0.2)" stroke-width="3"/><path d="M 285 633 L 933 520" stroke="rgba(122,247,255,0.2)" stroke-width="3"/><path d="M 796 138 L 1165 444" stroke="rgba(122,247,255,0.2)" stroke-width="3"/><path d="M 1165 444 L 1134 561" stroke="rgba(122,247,255,0.2)" stroke-width="3"/><path d="M 883 532 L 933 520" stroke="rgba(122,247,255,0.2)" stroke-width="3"/>
  <circle cx="1134" cy="561" r="8" fill="#2ee6a6" fill-opacity="0.9"/><circle cx="1134" cy="561" r="20" fill="#7af7ff" fill-opacity="0.10"/><circle cx="194" cy="585" r="8" fill="#2ee6a6" fill-opacity="0.9"/><circle cx="194" cy="585" r="20" fill="#7af7ff" fill-opacity="0.10"/><circle cx="502" cy="469" r="8" fill="#2ee6a6" fill-opacity="0.9"/><circle cx="502" cy="469" r="20" fill="#7af7ff" fill-opacity="0.10"/><circle cx="249" cy="543" r="8" fill="#2ee6a6" fill-opacity="0.9"/><circle cx="249" cy="543" r="20" fill="#7af7ff" fill-opacity="0.10"/><circle cx="683" cy="333" r="8" fill="#2ee6a6" fill-opacity="0.9"/><circle cx="683" cy="333" r="20" fill="#7af7ff" fill-opacity="0.10"/><circle cx="606" cy="278" r="8" fill="#2ee6a6" fill-opacity="0.9"/><circle cx="606" cy="278" r="20" fill="#7af7ff" fill-opacity="0.10"/><circle cx="954" cy="538" r="8" fill="#2ee6a6" fill-opacity="0.9"/><circle cx="954" cy="538" r="20" fill="#7af7ff" fill-opacity="0.10"/><circle cx="285" cy="633" r="8" fill="#2ee6a6" fill-opacity="0.9"/><circle cx="285" cy="633" r="20" fill="#7af7ff" fill-opacity="0.10"/><circle cx="796" cy="138" r="8" fill="#2ee6a6" fill-opacity="0.9"/><circle cx="796" cy="138" r="20" fill="#7af7ff" fill-opacity="0.10"/><circle cx="1165" cy="444" r="8" fill="#2ee6a6" fill-opacity="0.9"/><circle cx="1165" cy="444" r="20" fill="#7af7ff" fill-opacity="0.10"/><circle cx="883" cy="532" r="8" fill="#2ee6a6" fill-opacity="0.9"/><circle cx="883" cy="532" r="20" fill="#7af7ff" fill-opacity="0.10"/><circle cx="933" cy="520" r="8" fill="#2ee6a6" fill-opacity="0.9"/><circle cx="933" cy="520" r="20" fill="#7af7ff" fill-opacity="0.10"/>
  <path d="M0 760L220 682L420 714L640 618L842 680L1080 570L1344 640L1600 540V900H0Z" fill="rgba(14,31,46,0.86)"/>
</svg>